<svg xmlns="http://www.w3.org/2000/svg" xmlns:xlink="http://www.w3.org/1999/xlink" width="113" height="113" viewBox="0 0 113 113">
  <defs>
    <filter id="Trazado_982547" x="0" y="0" width="113" height="113" filterUnits="userSpaceOnUse">
      <feOffset dy="3" input="SourceAlpha"/>
      <feGaussianBlur stdDeviation="3" result="blur"/>
      <feFlood flood-opacity="0.161"/>
      <feComposite operator="in" in2="blur"/>
      <feComposite in="SourceGraphic"/>
    </filter>
    <clipPath id="clip-path">
      <path id="path2307" d="M0-682.665H63.9v63.9H0Z" transform="translate(0 682.665)"/>
    </clipPath>
  </defs>
  <g id="Grupo_1210855" data-name="Grupo 1210855" transform="translate(-792 -904.873)">
    <g id="Grupo_1210848" data-name="Grupo 1210848" transform="translate(801 910.873)">
      <g id="Grupo_1210834" data-name="Grupo 1210834" transform="translate(0)">
        <g id="Grupo_1202055" data-name="Grupo 1202055">
          <g id="Grupo_1177900" data-name="Grupo 1177900">
            <g id="Grupo_1172010" data-name="Grupo 1172010">
              <g id="Grupo_1171046" data-name="Grupo 1171046">
                <g id="Grupo_1148525" data-name="Grupo 1148525">
                  <g transform="matrix(1, 0, 0, 1, -9, -6)" filter="url(#Trazado_982547)">
                    <g id="Trazado_982547-2" data-name="Trazado 982547" transform="translate(9 6)" fill="#edf3fc">
                      <path d="M 47.5 93.5 C 41.28937149047852 93.5 35.26533508300781 92.28397369384766 29.59518623352051 89.88570404052734 C 24.11771965026855 87.56893157958984 19.19813346862793 84.25196075439453 14.97309303283691 80.02691650390625 C 10.74804019927979 75.80186462402344 7.431066513061523 70.88229370117188 5.114293098449707 65.40481567382812 C 2.716026782989502 59.73468017578125 1.5 53.71062850952148 1.5 47.5 C 1.5 41.28937149047852 2.716026782989502 35.26533508300781 5.114293098449707 29.59518623352051 C 7.431066513061523 24.11771965026855 10.74804019927979 19.19813346862793 14.97309303283691 14.97309303283691 C 19.19813346862793 10.74804019927979 24.11771965026855 7.431066513061523 29.59518623352051 5.114293098449707 C 35.26533508300781 2.716026782989502 41.28937149047852 1.5 47.5 1.5 C 53.71062850952148 1.5 59.73468017578125 2.716026782989502 65.40481567382812 5.114293098449707 C 70.88229370117188 7.431066513061523 75.80186462402344 10.74804019927979 80.02691650390625 14.97309303283691 C 84.25196075439453 19.19813346862793 87.56893157958984 24.11771965026855 89.88570404052734 29.59518623352051 C 92.28397369384766 35.26533508300781 93.5 41.28937149047852 93.5 47.5 C 93.5 53.71062850952148 92.28397369384766 59.73468017578125 89.88570404052734 65.40481567382812 C 87.56893157958984 70.88229370117188 84.25196075439453 75.80186462402344 80.02691650390625 80.02691650390625 C 75.80186462402344 84.25196075439453 70.88229370117188 87.56893157958984 65.40481567382812 89.88570404052734 C 59.73468017578125 92.28397369384766 53.71062850952148 93.5 47.5 93.5 Z" stroke="none"/>
                      <path d="M 47.5 3 C 41.49121475219727 3 35.66376876831055 4.176155090332031 30.17950439453125 6.495796203613281 C 24.88084411621094 8.736953735351562 20.12152099609375 11.94598388671875 16.03375244140625 16.03375244140625 C 11.94598388671875 20.12152099609375 8.736953735351562 24.88084411621094 6.495796203613281 30.17950439453125 C 4.176155090332031 35.66376876831055 3 41.49121475219727 3 47.5 C 3 53.50878524780273 4.176155090332031 59.33623123168945 6.495796203613281 64.82049560546875 C 8.736953735351562 70.11915588378906 11.94598388671875 74.87847900390625 16.03375244140625 78.96624755859375 C 20.12152099609375 83.05401611328125 24.88084411621094 86.26304626464844 30.17950439453125 88.50419616699219 C 35.66376876831055 90.82384490966797 41.49121475219727 92 47.5 92 C 53.50878524780273 92 59.33623123168945 90.82384490966797 64.82049560546875 88.50419616699219 C 70.11915588378906 86.26304626464844 74.87847900390625 83.05401611328125 78.96624755859375 78.96624755859375 C 83.05401611328125 74.87847900390625 86.26304626464844 70.11915588378906 88.50419616699219 64.82049560546875 C 90.82384490966797 59.33623123168945 92 53.50878524780273 92 47.5 C 92 41.49121475219727 90.82384490966797 35.66376876831055 88.50419616699219 30.17950439453125 C 86.26304626464844 24.88084411621094 83.05401611328125 20.12152099609375 78.96624755859375 16.03375244140625 C 74.87847900390625 11.94598388671875 70.11915588378906 8.736953735351562 64.82049560546875 6.495796203613281 C 59.33623123168945 4.176155090332031 53.50878524780273 3 47.5 3 M 47.5 0 C 73.7335205078125 0 95 21.2664794921875 95 47.5 C 95 73.7335205078125 73.7335205078125 95 47.5 95 C 21.2664794921875 95 0 73.7335205078125 0 47.5 C 0 21.2664794921875 21.2664794921875 0 47.5 0 Z" stroke="none" fill="#5692e8"/>
                    </g>
                  </g>
                </g>
              </g>
            </g>
          </g>
        </g>
      </g>
    </g>
    <g id="g2301" transform="translate(816.551 1610.106)">
      <g id="g2303" transform="translate(0 -682.665)">
        <g id="g2305" transform="translate(0 0)" clip-path="url(#clip-path)">
          <g id="g2311" transform="translate(1.248 31.949)">
            <path id="path2313" d="M-594.6-48.341v-4.992h-50.17A11.244,11.244,0,0,0-656-42.1a11.244,11.244,0,0,0,11.232,11.232h50.17v-4.992h-3.744v-12.48Z" transform="translate(655.998 53.333)" fill="#91d9b9"/>
          </g>
          <g id="g2315" transform="translate(6.24 36.941)">
            <path id="path2317" d="M-60.426,0a6.247,6.247,0,0,0-6.24,6.24,6.247,6.247,0,0,0,6.24,6.24H-14V0Z" transform="translate(66.667)" fill="#eff3f3"/>
          </g>
          <g id="g2319" transform="translate(34.445 8.736)">
            <path id="path2321" d="M-236.872,0a3.744,3.744,0,0,1,3.744,3.744,3.744,3.744,0,0,1-3.744,3.744h-24.461V0Z" transform="translate(261.333)" fill="#8690a6"/>
          </g>
          <g id="g2323" transform="translate(20.717 43.181)">
            <path id="path2325" d="M-145.024-188.531l-7.488-3.744L-160-188.531V-208h14.976Z" transform="translate(160 207.999)" fill="#ff6977"/>
          </g>
          <path id="path2327" d="M295.487-581.844H288v-7.488h7.488Z" transform="translate(-261.042 598.068)" fill="#ff6977"/>
          <path id="path2329" d="M155.061-646.868H141.333v-22.464h13.728Z" transform="translate(-128.104 670.58)" fill="#ffcb7c"/>
          <g id="g2331" transform="translate(9.485 23.712)">
            <path id="path2333" d="M0,0H21.216" fill="none" stroke="#000" stroke-linecap="round" stroke-linejoin="round" stroke-miterlimit="10" stroke-width="1.5"/>
          </g>
          <g id="g2335" transform="translate(9.485 1.248)">
            <path id="path2337" d="M0,0H21.216" fill="none" stroke="#000" stroke-linecap="round" stroke-linejoin="round" stroke-miterlimit="10" stroke-width="1.5"/>
          </g>
          <g id="g2339" transform="translate(13.229 1.248)">
            <path id="path2341" d="M0,0V22.464" fill="none" stroke="#000" stroke-linecap="round" stroke-linejoin="round" stroke-miterlimit="10" stroke-width="1.5"/>
          </g>
          <g id="g2343" transform="translate(26.957 1.248)">
            <path id="path2345" d="M0-217.535V-240" transform="translate(0 239.999)" fill="none" stroke="#000" stroke-linecap="round" stroke-linejoin="round" stroke-miterlimit="10" stroke-width="1.5"/>
          </g>
          <g id="g2347" transform="translate(26.957 8.736)">
            <path id="path2349" d="M0,0H31.949a3.744,3.744,0,1,1,0,7.488H0" fill="none" stroke="#000" stroke-linecap="round" stroke-linejoin="round" stroke-miterlimit="10" stroke-width="1.5"/>
          </g>
          <g id="g2351" transform="translate(34.445 8.736)">
            <path id="path2353" d="M0,0V7.488" fill="none" stroke="#000" stroke-linecap="round" stroke-linejoin="round" stroke-miterlimit="10" stroke-width="1.5"/>
          </g>
          <g id="g2355" transform="translate(35.693 49.421)">
            <path id="path2357" d="M0-48.341H26.957v-4.992H0" transform="translate(0 53.333)" fill="none" stroke="#000" stroke-linecap="round" stroke-linejoin="round" stroke-miterlimit="10" stroke-width="1.5"/>
          </g>
          <g id="g2359" transform="translate(58.906 36.941)">
            <path id="path2361" d="M0-120.853v-12.48" transform="translate(0 133.333)" fill="none" stroke="#000" stroke-linecap="round" stroke-linejoin="round" stroke-miterlimit="10" stroke-width="1.5"/>
          </g>
          <g id="g2363" transform="translate(12.48 43.181)">
            <path id="path2365" d="M-449.573,0H-496" transform="translate(495.999)" fill="none" stroke="#000" stroke-linecap="round" stroke-linejoin="round" stroke-miterlimit="10" stroke-width="1.5"/>
          </g>
          <g id="g2367" transform="translate(20.717 43.181)">
            <path id="path2369" d="M0,0V19.469l7.488-3.744,7.488,3.744V0" fill="none" stroke="#000" stroke-linecap="round" stroke-linejoin="round" stroke-miterlimit="10" stroke-width="1.5"/>
          </g>
          <g id="g2371" transform="translate(33.197 30.701)">
            <path id="path2373" d="M-24.171-12.085a1.248,1.248,0,0,1-1.248,1.248,1.248,1.248,0,0,1-1.248-1.248,1.248,1.248,0,0,1,1.248-1.248,1.248,1.248,0,0,1,1.248,1.248" transform="translate(26.667 13.333)"/>
          </g>
          <g id="g2375" transform="translate(1.248 31.949)">
            <path id="path2377" d="M-188.531-217.535h-8.237A11.244,11.244,0,0,1-208-228.767,11.244,11.244,0,0,1-196.767-240h16.349" transform="translate(207.999 239.999)" fill="none" stroke="#000" stroke-linecap="round" stroke-linejoin="round" stroke-miterlimit="10" stroke-width="1.5"/>
          </g>
          <g id="g2379" transform="translate(6.24 31.949)">
            <path id="path2381" d="M-327.513,0h22.589V4.992h-50.17a6.247,6.247,0,0,0-6.24,6.24,6.247,6.247,0,0,0,6.24,6.24h8.237" transform="translate(361.334)" fill="none" stroke="#000" stroke-linecap="round" stroke-linejoin="round" stroke-miterlimit="10" stroke-width="1.5"/>
          </g>
        </g>
      </g>
    </g>
  </g>
</svg>
