<svg xmlns="http://www.w3.org/2000/svg" xmlns:xlink="http://www.w3.org/1999/xlink" width="113" height="113" viewBox="0 0 113 113">
  <defs>
    <filter id="Trazado_982547" x="0" y="0" width="113" height="113" filterUnits="userSpaceOnUse">
      <feOffset dy="3" input="SourceAlpha"/>
      <feGaussianBlur stdDeviation="3" result="blur"/>
      <feFlood flood-opacity="0.161"/>
      <feComposite operator="in" in2="blur"/>
      <feComposite in="SourceGraphic"/>
    </filter>
  </defs>
  <g id="Grupo_1210929" data-name="Grupo 1210929" transform="translate(1739.001 -1299.873)">
    <g id="Grupo_1210853" data-name="Grupo 1210853" transform="translate(-1730 1305.873)">
      <g id="Grupo_1210835" data-name="Grupo 1210835" transform="translate(0)">
        <g id="Grupo_1202055" data-name="Grupo 1202055">
          <g id="Grupo_1177900" data-name="Grupo 1177900">
            <g id="Grupo_1172010" data-name="Grupo 1172010">
              <g id="Grupo_1171046" data-name="Grupo 1171046">
                <g id="Grupo_1148525" data-name="Grupo 1148525">
                  <g transform="matrix(1, 0, 0, 1, -9, -6)" filter="url(#Trazado_982547)">
                    <g id="Trazado_982547-2" data-name="Trazado 982547" transform="translate(9 6)" fill="#edf3fc">
                      <path d="M 47.5 93.5 C 41.28937149047852 93.5 35.26533508300781 92.28397369384766 29.59518623352051 89.88570404052734 C 24.11771965026855 87.56893157958984 19.19813346862793 84.25196075439453 14.97309303283691 80.02691650390625 C 10.74804019927979 75.80186462402344 7.431066513061523 70.88229370117188 5.114293098449707 65.40481567382812 C 2.716026782989502 59.73468017578125 1.5 53.71062850952148 1.5 47.5 C 1.5 41.28937149047852 2.716026782989502 35.26533508300781 5.114293098449707 29.59518623352051 C 7.431066513061523 24.11771965026855 10.74804019927979 19.19813346862793 14.97309303283691 14.97309303283691 C 19.19813346862793 10.74804019927979 24.11771965026855 7.431066513061523 29.59518623352051 5.114293098449707 C 35.26533508300781 2.716026782989502 41.28937149047852 1.5 47.5 1.5 C 53.71062850952148 1.5 59.73468017578125 2.716026782989502 65.40481567382812 5.114293098449707 C 70.88229370117188 7.431066513061523 75.80186462402344 10.74804019927979 80.02691650390625 14.97309303283691 C 84.25196075439453 19.19813346862793 87.56893157958984 24.11771965026855 89.88570404052734 29.59518623352051 C 92.28397369384766 35.26533508300781 93.5 41.28937149047852 93.5 47.5 C 93.5 53.71062850952148 92.28397369384766 59.73468017578125 89.88570404052734 65.40481567382812 C 87.56893157958984 70.88229370117188 84.25196075439453 75.80186462402344 80.02691650390625 80.02691650390625 C 75.80186462402344 84.25196075439453 70.88229370117188 87.56893157958984 65.40481567382812 89.88570404052734 C 59.73468017578125 92.28397369384766 53.71062850952148 93.5 47.5 93.5 Z" stroke="none"/>
                      <path d="M 47.5 3 C 41.49121475219727 3 35.66376876831055 4.176155090332031 30.17950439453125 6.495796203613281 C 24.88084411621094 8.736953735351562 20.12152099609375 11.94598388671875 16.03375244140625 16.03375244140625 C 11.94598388671875 20.12152099609375 8.736953735351562 24.88084411621094 6.495796203613281 30.17950439453125 C 4.176155090332031 35.66376876831055 3 41.49121475219727 3 47.5 C 3 53.50878524780273 4.176155090332031 59.33623123168945 6.495796203613281 64.82049560546875 C 8.736953735351562 70.11915588378906 11.94598388671875 74.87847900390625 16.03375244140625 78.96624755859375 C 20.12152099609375 83.05401611328125 24.88084411621094 86.26304626464844 30.17950439453125 88.50419616699219 C 35.66376876831055 90.82384490966797 41.49121475219727 92 47.5 92 C 53.50878524780273 92 59.33623123168945 90.82384490966797 64.82049560546875 88.50419616699219 C 70.11915588378906 86.26304626464844 74.87847900390625 83.05401611328125 78.96624755859375 78.96624755859375 C 83.05401611328125 74.87847900390625 86.26304626464844 70.11915588378906 88.50419616699219 64.82049560546875 C 90.82384490966797 59.33623123168945 92 53.50878524780273 92 47.5 C 92 41.49121475219727 90.82384490966797 35.66376876831055 88.50419616699219 30.17950439453125 C 86.26304626464844 24.88084411621094 83.05401611328125 20.12152099609375 78.96624755859375 16.03375244140625 C 74.87847900390625 11.94598388671875 70.11915588378906 8.736953735351562 64.82049560546875 6.495796203613281 C 59.33623123168945 4.176155090332031 53.50878524780273 3 47.5 3 M 47.5 0 C 73.7335205078125 0 95 21.2664794921875 95 47.5 C 95 73.7335205078125 73.7335205078125 95 47.5 95 C 21.2664794921875 95 0 73.7335205078125 0 47.5 C 0 21.2664794921875 21.2664794921875 0 47.5 0 Z" stroke="none" fill="#5692e8"/>
                    </g>
                  </g>
                </g>
              </g>
            </g>
          </g>
        </g>
      </g>
    </g>
    <g id="solution_12182704" transform="translate(-1741.288 1294.491)">
      <path id="Trazado_1030900" data-name="Trazado 1030900" d="M131.436,304.832l14.174-8.183a4.4,4.4,0,0,1,4.4,7.625l-17.987,10.385a4.4,4.4,0,0,1-3.339.435l-17.81-3.716-3.383,1.953-8.71-15.086,5.365-3.1a6.958,6.958,0,0,1,5.466-.72l18.708,5.013A4.415,4.415,0,0,1,131.436,304.832Z" transform="translate(-62.616 -229.806)" fill="#f1cbbc" fill-rule="evenodd"/>
      <path id="Trazado_1030901" data-name="Trazado 1030901" d="M0,0H9.884V21.4H0Z" transform="matrix(0.866, -0.5, 0.5, 0.866, 26.693, 71.794)" fill="#60b7ff" fill-rule="evenodd"/>
      <path id="Trazado_1030902" data-name="Trazado 1030902" d="M200.282,44.261a3.594,3.594,0,1,1,0-6.921V32.023a18.323,18.323,0,0,0-18.323,18.323h5.316a3.594,3.594,0,1,0,6.921,0h6.086Z" transform="translate(-134.165 -4.306)" fill="#ffd266" fill-rule="evenodd"/>
      <path id="Trazado_1030903" data-name="Trazado 1030903" d="M200.282,163.108H194.2a3.594,3.594,0,1,1-6.921,0h-5.316a18.323,18.323,0,0,0,18.323,18.323v-5.316a3.594,3.594,0,1,0,0-6.921Z" transform="translate(-134.165 -117.068)" fill="#fd4755" fill-rule="evenodd"/>
      <path id="Trazado_1030904" data-name="Trazado 1030904" d="M313.044,135.034v6.086a3.594,3.594,0,1,1,0,6.921v5.316a18.323,18.323,0,0,0,18.323-18.323h-5.316a3.594,3.594,0,1,0-6.921,0Z" transform="translate(-246.927 -88.994)" fill="#60b7ff" fill-rule="evenodd"/>
      <path id="Trazado_1030905" data-name="Trazado 1030905" d="M284.97,50.346h6.086a3.594,3.594,0,1,1,6.921,0h5.316A18.323,18.323,0,0,0,284.97,32.023v5.316a3.594,3.594,0,1,0,0,6.921Z" transform="translate(-218.852 -4.306)" fill="#00e499" fill-rule="evenodd"/>
      <path id="Trazado_1030906" data-name="Trazado 1030906" d="M65.418,28.431V32.26A4.63,4.63,0,0,0,62.391,33.3a4.088,4.088,0,0,0,0,6.387,4.608,4.608,0,0,0,3.026,1.043v4.61H60.032a.7.7,0,0,0-.686.836,3.241,3.241,0,0,1-.661,2.7,2.692,2.692,0,0,1-4.228,0,3.243,3.243,0,0,1-.661-2.7.7.7,0,0,0-.685-.836h-4.6A17.647,17.647,0,0,1,65.418,28.431ZM83.726,45.34A17.646,17.646,0,0,0,66.815,28.431v4.6a.7.7,0,0,1-.834.687,3.223,3.223,0,0,0-2.7.66,2.692,2.692,0,0,0,0,4.229,3.243,3.243,0,0,0,2.7.66.7.7,0,0,1,.834.687V45.34h4.61a4.607,4.607,0,0,1,1.043-3.024,4.091,4.091,0,0,1,6.39,0A4.61,4.61,0,0,1,79.9,45.34ZM66.815,63.649V59.823A4.586,4.586,0,0,0,69.84,58.78a4.088,4.088,0,0,0,0-6.388,4.608,4.608,0,0,0-3.026-1.043V46.738H72.2a.7.7,0,0,0,.685-.834,3.244,3.244,0,0,1,.661-2.7,2.691,2.691,0,0,1,4.228,0,3.244,3.244,0,0,1,.662,2.7.7.7,0,0,0,.685.834h4.6A17.646,17.646,0,0,1,66.815,63.649ZM48.507,46.738A17.647,17.647,0,0,0,65.418,63.649v-4.6a.7.7,0,0,1,.834-.687,3.24,3.24,0,0,0,2.7-.66,2.693,2.693,0,0,0,0-4.229,3.239,3.239,0,0,0-2.7-.66.7.7,0,0,1-.834-.687V46.738h-4.61a4.608,4.608,0,0,1-1.043,3.026,4.09,4.09,0,0,1-6.389,0,4.608,4.608,0,0,1-1.041-3.026Zm17.61,18.324A19.022,19.022,0,1,0,47.095,46.039,19.044,19.044,0,0,0,66.117,65.062Zm20.929,8.8L69.059,84.247a3.673,3.673,0,0,1-2.808.365l-.037-.008L48.4,80.886a.7.7,0,0,0-.492.079l-2.777,1.6L37.122,68.693l4.76-2.746a6.3,6.3,0,0,1,4.936-.651l18.708,5.013a3.7,3.7,0,1,1-1.916,7.154l-9.763-2.615a.7.7,0,0,0-.363,1.35l9.764,2.615a5.1,5.1,0,0,0,6.16-3.32l13.936-8.046a3.7,3.7,0,1,1,3.7,6.415ZM37.65,89.378,45,85.134,35,67.807l-7.348,4.244ZM89.612,68.1a5.107,5.107,0,0,0-6.968-1.867L69.667,73.729a5.111,5.111,0,0,0-3.78-4.771L47.179,63.947a7.653,7.653,0,0,0-6,.788l-4.76,2.748-.566-.98a.7.7,0,0,0-.955-.256L26.343,71.19a.7.7,0,0,0-.256.954l10.7,18.538a.705.705,0,0,0,.425.324.654.654,0,0,0,.181.026.693.693,0,0,0,.349-.094L46.3,86a.7.7,0,0,0,.256-.955l-.728-1.261,2.547-1.471,17.53,3.658a5.189,5.189,0,0,0,1.317.172,5.055,5.055,0,0,0,2.533-.682L87.745,75.073A5.108,5.108,0,0,0,89.612,68.1Z" transform="translate(0)" fill-rule="evenodd"/>
    </g>
  </g>
</svg>
