<svg xmlns="http://www.w3.org/2000/svg" xmlns:xlink="http://www.w3.org/1999/xlink" width="113" height="113" viewBox="0 0 113 113">
  <defs>
    <filter id="Trazado_982547" x="0" y="0" width="113" height="113" filterUnits="userSpaceOnUse">
      <feOffset dy="3" input="SourceAlpha"/>
      <feGaussianBlur stdDeviation="3" result="blur"/>
      <feFlood flood-opacity="0.161"/>
      <feComposite operator="in" in2="blur"/>
      <feComposite in="SourceGraphic"/>
    </filter>
  </defs>
  <g id="Grupo_1171284" data-name="Grupo 1171284" transform="translate(-901.5 -839.645)">
    <g id="Grupo_1171076" data-name="Grupo 1171076" transform="translate(910.5 845.645)">
      <g id="Grupo_1148525" data-name="Grupo 1148525" transform="translate(0)">
        <g transform="matrix(1, 0, 0, 1, -9, -6)" filter="url(#Trazado_982547)">
          <g id="Trazado_982547-2" data-name="Trazado 982547" transform="translate(9 6)" fill="#f4fdfe">
            <path d="M 47.5 93.5 C 41.28937149047852 93.5 35.26533508300781 92.28397369384766 29.59518623352051 89.88570404052734 C 24.11771965026855 87.56893157958984 19.19813346862793 84.25196075439453 14.97309303283691 80.02691650390625 C 10.74804019927979 75.80186462402344 7.431066513061523 70.88229370117188 5.114293098449707 65.40481567382812 C 2.716026782989502 59.73468017578125 1.5 53.71062850952148 1.5 47.5 C 1.5 41.28937149047852 2.716026782989502 35.26533508300781 5.114293098449707 29.59518623352051 C 7.431066513061523 24.11771965026855 10.74804019927979 19.19813346862793 14.97309303283691 14.97309303283691 C 19.19813346862793 10.74804019927979 24.11771965026855 7.431066513061523 29.59518623352051 5.114293098449707 C 35.26533508300781 2.716026782989502 41.28937149047852 1.5 47.5 1.5 C 53.71062850952148 1.5 59.73468017578125 2.716026782989502 65.40481567382812 5.114293098449707 C 70.88229370117188 7.431066513061523 75.80186462402344 10.74804019927979 80.02691650390625 14.97309303283691 C 84.25196075439453 19.19813346862793 87.56893157958984 24.11771965026855 89.88570404052734 29.59518623352051 C 92.28397369384766 35.26533508300781 93.5 41.28937149047852 93.5 47.5 C 93.5 53.71062850952148 92.28397369384766 59.73468017578125 89.88570404052734 65.40481567382812 C 87.56893157958984 70.88229370117188 84.25196075439453 75.80186462402344 80.02691650390625 80.02691650390625 C 75.80186462402344 84.25196075439453 70.88229370117188 87.56893157958984 65.40481567382812 89.88570404052734 C 59.73468017578125 92.28397369384766 53.71062850952148 93.5 47.5 93.5 Z" stroke="none"/>
            <path d="M 47.5 3 C 41.49121475219727 3 35.66376876831055 4.176155090332031 30.17950439453125 6.495796203613281 C 24.88084411621094 8.736953735351562 20.12152099609375 11.94598388671875 16.03375244140625 16.03375244140625 C 11.94598388671875 20.12152099609375 8.736953735351562 24.88084411621094 6.495796203613281 30.17950439453125 C 4.176155090332031 35.66376876831055 3 41.49121475219727 3 47.5 C 3 53.50878524780273 4.176155090332031 59.33623123168945 6.495796203613281 64.82049560546875 C 8.736953735351562 70.11915588378906 11.94598388671875 74.87847900390625 16.03375244140625 78.96624755859375 C 20.12152099609375 83.05401611328125 24.88084411621094 86.26304626464844 30.17950439453125 88.50419616699219 C 35.66376876831055 90.82384490966797 41.49121475219727 92 47.5 92 C 53.50878524780273 92 59.33623123168945 90.82384490966797 64.82049560546875 88.50419616699219 C 70.11915588378906 86.26304626464844 74.87847900390625 83.05401611328125 78.96624755859375 78.96624755859375 C 83.05401611328125 74.87847900390625 86.26304626464844 70.11915588378906 88.50419616699219 64.82049560546875 C 90.82384490966797 59.33623123168945 92 53.50878524780273 92 47.5 C 92 41.49121475219727 90.82384490966797 35.66376876831055 88.50419616699219 30.17950439453125 C 86.26304626464844 24.88084411621094 83.05401611328125 20.12152099609375 78.96624755859375 16.03375244140625 C 74.87847900390625 11.94598388671875 70.11915588378906 8.736953735351562 64.82049560546875 6.495796203613281 C 59.33623123168945 4.176155090332031 53.50878524780273 3 47.5 3 M 47.5 0 C 73.7335205078125 0 95 21.2664794921875 95 47.5 C 95 73.7335205078125 73.7335205078125 95 47.5 95 C 21.2664794921875 95 0 73.7335205078125 0 47.5 C 0 21.2664794921875 21.2664794921875 0 47.5 0 Z" stroke="none" fill="#56838a"/>
          </g>
        </g>
      </g>
    </g>
    <g id="search_2436711" transform="translate(878.094 861.056)">
      <g id="Grupo_1171282" data-name="Grupo 1171282" transform="translate(55.61 0.94)">
        <path id="Trazado_1024479" data-name="Trazado 1024479" d="M141.441,340.666h-14.6A10.235,10.235,0,0,0,116.606,350.9v7.329a2.971,2.971,0,0,0,2.971,2.971h29.128a2.971,2.971,0,0,0,2.971-2.971V350.9A10.235,10.235,0,0,0,141.441,340.666Z" transform="translate(-109.783 -298.905)" fill="#6ec17d"/>
        <path id="Trazado_1024480" data-name="Trazado 1024480" d="M119.791,350.905v7.33a2.972,2.972,0,0,0,2.972,2.971h-3.185a2.971,2.971,0,0,1-2.972-2.971v-7.33a10.235,10.235,0,0,1,10.236-10.234h3.185A10.235,10.235,0,0,0,119.791,350.905Z" transform="translate(-109.783 -298.909)" fill="#5ea570"/>
        <path id="Trazado_1024481" data-name="Trazado 1024481" d="M123.579,436.118v2.895h5.4a5.094,5.094,0,0,1,5.094,5.094v.583h-14.5a2.971,2.971,0,0,1-2.971-2.971v-5.6Z" transform="translate(-109.782 -382.392)" fill="#f1d0a5"/>
        <path id="Trazado_1024482" data-name="Trazado 1024482" d="M119.567,444.689h3.185a2.972,2.972,0,0,1-2.962-2.97v-5.6h-3.185v5.6A2.971,2.971,0,0,0,119.567,444.689Z" transform="translate(-109.782 -382.392)" fill="#f1b986"/>
        <g id="Grupo_1171280" data-name="Grupo 1171280" transform="translate(24.28 49.169)">
          <path id="Trazado_1024483" data-name="Trazado 1024483" d="M0,0H4.043V11.293H0Z" transform="translate(0 2.131) rotate(-31.799)" fill="#665e66"/>
          <path id="Trazado_1024484" data-name="Trazado 1024484" d="M0,0H1.943V11.293H0Z" transform="translate(0 2.13) rotate(-31.799)" fill="#454045"/>
        </g>
        <path id="Trazado_1024485" data-name="Trazado 1024485" d="M267.515,436.118v2.895h-5.4a5.094,5.094,0,0,0-5.094,5.094v.583h14.5a2.971,2.971,0,0,0,2.971-2.971v-5.6Z" transform="translate(-232.596 -382.392)" fill="#f1d0a5"/>
        <path id="Trazado_1024486" data-name="Trazado 1024486" d="M340.756,435.823h2.932v2.932h-2.932Z" transform="translate(-305.837 -382.134)" fill="#f1b986"/>
        <path id="Trazado_1024487" data-name="Trazado 1024487" d="M340.756,421.014h2.932v1.856h-2.932Z" transform="translate(-305.837 -369.182)" fill="#5ea570"/>
        <path id="Trazado_1024488" data-name="Trazado 1024488" d="M262.113,459.209h2.359a5.094,5.094,0,0,0-5.094,5.094v.583h-2.359V464.3A5.094,5.094,0,0,1,262.113,459.209Z" transform="translate(-232.596 -402.589)" fill="#f1b986"/>
        <path id="Trazado_1024489" data-name="Trazado 1024489" d="M110.764,32.122a24.3,24.3,0,1,0-48.591,0c0,13.6,10.878,14.625,24.3,14.625s24.3-1.026,24.3-14.625Z" transform="translate(-62.173 -7.499)" fill="#f4dd45"/>
        <path id="Trazado_1024490" data-name="Trazado 1024490" d="M86.149,46.751c-13.27-.016-23.977-1.132-23.977-14.624A24.462,24.462,0,0,1,86.469,7.5C79.64,7.5,74.1,18.528,74.1,32.127c0,13.387,5.364,14.59,12.045,14.624Z" transform="translate(-62.173 -7.503)" fill="#ecc32e"/>
        <path id="Trazado_1024491" data-name="Trazado 1024491" d="M151.156,99.78a9.767,9.767,0,0,1-9.3,9.259q-6.464.306-12.928.123h-.008q-1.64-.046-3.278-.123a9.766,9.766,0,0,1-9.3-9.259q-.284-5.531-.046-11.064h0q.072-1.723.2-3.446c.8-3.784,3.915-7.019,8.271-8.915.129-.056.258-.111.389-.165a22.014,22.014,0,0,1,5.8-1.471,23.939,23.939,0,0,1,8.826.609h0c5.879,1.563,10.272,5.351,11.232,9.954a0,0,0,0,0,0,0A117.774,117.774,0,0,1,151.156,99.78Z" transform="translate(-109.414 -66.149)" fill="#f1d0a5"/>
        <path id="Trazado_1024492" data-name="Trazado 1024492" d="M128.927,120.569h-.008q-1.64-.046-3.278-.123a9.766,9.766,0,0,1-9.3-9.259,117.646,117.646,0,0,1,.152-14.511c.8-3.784,3.915-7.019,8.271-8.915.129-.056.258-.111.389-.165-.3,7.283-.37,17.833-.217,23.8C125.052,115.978,126.728,119.716,128.927,120.569Z" transform="translate(-109.415 -77.557)" fill="#f1b986"/>
        <path id="Trazado_1024493" data-name="Trazado 1024493" d="M140.533,75.327h0c-2.895,4.964-9.835,11.491-12.6,9.932-1.01-.571-.878-1.747-.308-3.012a22.421,22.421,0,0,1-4.312,5.3c-1.857,1.565-4.1,2.537-6.263,1.173h0q.072-1.723.2-3.446c.8-3.784,3.915-7.019,8.271-8.915.129-.056.258-.111.389-.165a22.014,22.014,0,0,1,5.8-1.471,23.939,23.939,0,0,1,8.826.609Z" transform="translate(-110.174 -66.149)" fill="#f4dd45"/>
        <path id="Trazado_1024494" data-name="Trazado 1024494" d="M123.317,87.543c-1.857,1.565-4.1,2.537-6.263,1.173h0q.072-1.723.2-3.446c.8-3.784,3.915-7.019,8.271-8.915.129-.056.258-.111.389-.165a22.014,22.014,0,0,1,5.8-1.471,23.574,23.574,0,0,1,2.8-.163C128.442,76.671,115.917,87.543,123.317,87.543Z" transform="translate(-110.175 -66.149)" fill="#ecc32e"/>
        <g id="Grupo_1171281" data-name="Grupo 1171281" transform="translate(10.489 29.185)">
          <ellipse id="Elipse_12282" data-name="Elipse 12282" cx="2.972" cy="1.885" rx="2.972" ry="1.885" fill="#df9380"/>
          <ellipse id="Elipse_12283" data-name="Elipse 12283" cx="2.972" cy="1.885" rx="2.972" ry="1.885" transform="translate(21.746)" fill="#f9a58e"/>
        </g>
        <path id="Trazado_1024495" data-name="Trazado 1024495" d="M151.964,59.1a9.32,9.32,0,0,1-.168,1.766c-1.179-6.145-8.468-10.875-17.287-10.875a23.588,23.588,0,0,0-2.8.163,22.03,22.03,0,0,0-5.456,1.336q-.369.142-.729.3c-4.415,1.923-7.561,5.22-8.3,9.07a9.348,9.348,0,0,1-.166-1.76c0-4.6,3.394-8.621,8.468-10.829q.788-.343,1.628-.626a22.262,22.262,0,0,1,4.557-1.013,23.562,23.562,0,0,1,2.8-.162C144.15,46.468,151.964,52.123,151.964,59.1Z" transform="translate(-110.176 -41.583)" fill="#da4a54"/>
        <path id="Trazado_1024496" data-name="Trazado 1024496" d="M127.152,55.843l-.9,3.845q-.369.142-.729.3c-4.415,1.923-7.561,5.22-8.3,9.07a9.348,9.348,0,0,1-.166-1.76c0-4.6,3.394-8.621,8.468-10.829q.788-.343,1.628-.625Z" transform="translate(-110.176 -49.783)" fill="#c32430"/>
        <circle id="Elipse_12284" data-name="Elipse 12284" cx="8.475" cy="8.475" r="8.475" transform="translate(14.787 37.284)" fill="#f4dd45"/>
        <circle id="Elipse_12285" data-name="Elipse 12285" cx="5.551" cy="5.551" r="5.551" transform="translate(17.71 40.207)" fill="#dfeaef"/>
        <path id="Trazado_1024497" data-name="Trazado 1024497" d="M244.292,333.817a5.551,5.551,0,0,1-5.552,5.55,5.609,5.609,0,0,1-1.291-.15,5.553,5.553,0,0,0,0-10.8,5.558,5.558,0,0,1,6.843,5.4Z" transform="translate(-215.479 -288.058)" fill="#fff"/>
      </g>
      <g id="Grupo_1171283" data-name="Grupo 1171283" transform="translate(54.67 0)">
        <path id="Trazado_1024498" data-name="Trazado 1024498" d="M228.807,253.708a.94.94,0,0,0-1.252.446,3.011,3.011,0,0,1-5.441,0,.94.94,0,0,0-1.7.806,4.891,4.891,0,0,0,8.838,0A.94.94,0,0,0,228.807,253.708Z" transform="translate(-199.56 -221.827)"/>
        <path id="Trazado_1024499" data-name="Trazado 1024499" d="M97.123,38.98c5.393-2.26,8.018-6.652,8.018-13.417A25.62,25.62,0,0,0,100.5,10.791,25.214,25.214,0,0,0,88.635,1.572a.94.94,0,1,0-.658,1.761,23.343,23.343,0,0,1,10.986,8.536,23.748,23.748,0,0,1,4.3,13.694c0,5.246-1.67,8.749-5.217,10.858a10.853,10.853,0,0,0,.247-1.8,118.926,118.926,0,0,0-.13-14.268,10.257,10.257,0,0,0,.177-1.9c0-3.683-1.954-7.125-5.5-9.692A22.091,22.091,0,0,0,79.944,4.884a24.6,24.6,0,0,0-2.91.169,22.726,22.726,0,0,0-6.452,1.709,16.894,16.894,0,0,0-6.5,4.794,11.021,11.021,0,0,0-2.537,6.9,10.343,10.343,0,0,0,.178,1.9,119.111,119.111,0,0,0-.13,14.261,10.7,10.7,0,0,0,.258,1.854c-3.607-2.1-5.3-5.624-5.3-10.909A23.548,23.548,0,0,1,79.906,1.88a23.118,23.118,0,0,1,4.6.46A.94.94,0,0,0,84.879.5,25.012,25.012,0,0,0,79.906,0,25.43,25.43,0,0,0,54.67,25.563c0,6.809,2.662,11.216,8.13,13.463a10.76,10.76,0,0,0,4.137,4.318,11.231,11.231,0,0,0-5.444,9.592v7.33A3.916,3.916,0,0,0,65.4,64.177H94.533a3.915,3.915,0,0,0,3.911-3.9s0-.007,0-.01v-7.33a11.23,11.23,0,0,0-5.461-9.6A10.669,10.669,0,0,0,97.123,38.98ZM65.555,12.73a15.015,15.015,0,0,1,5.778-4.243,20.851,20.851,0,0,1,5.922-1.566,22.707,22.707,0,0,1,2.689-.156c7.387,0,13.657,3.451,15.761,8.2a15.632,15.632,0,0,0-3.749-3.275A22.637,22.637,0,0,0,79.944,8.405a24.588,24.588,0,0,0-2.91.169,22.734,22.734,0,0,0-6.452,1.708,16.927,16.927,0,0,0-6.373,4.63,10.262,10.262,0,0,1,1.345-2.182Zm5.778-.724a20.862,20.862,0,0,1,5.922-1.565,23.034,23.034,0,0,1,7.214.295,31.213,31.213,0,0,1-5.454,6.076c-2.8,2.362-4.543,2.78-5.18,2.42-.387-.218-.357-.827.089-1.81a.94.94,0,0,0-1.674-.852c-.892,1.571-3.841,5.808-6.746,6.538a3.07,3.07,0,0,1-2.045-.148c.044-.924.1-1.847.162-2.767.738-3.393,3.536-6.368,7.712-8.187ZM65.4,62.3a2.033,2.033,0,0,1-2.031-2.026s0,0,0,0v-4.66h5.094v1.955a.94.94,0,0,0,.94.94h5.4a4.159,4.159,0,0,1,4.138,3.8Zm14.564-2.77A6.036,6.036,0,0,0,74.81,56.62H70.348V52.772a.94.94,0,0,0-1.88,0v.953H63.374v-.79a9.334,9.334,0,0,1,5.81-8.618q.268.081.543.149a9.408,9.408,0,0,0,11.288,11.4l1,1.621a6.083,6.083,0,0,0-2.049,2.042Zm3.82-2.755-.952-1.537A9.427,9.427,0,0,0,84.677,54.1l1.56,2.518h-1.11a6.029,6.029,0,0,0-1.339.152Zm-4.916-2.539A7.535,7.535,0,1,1,86.406,46.7,7.543,7.543,0,0,1,78.872,54.233Zm17.692,6.033A2.033,2.033,0,0,1,94.533,62.3H80.989a4.159,4.159,0,0,1,4.138-3.8h5.4a.94.94,0,0,0,.94-.94V55.606h5.094v4.66Zm0-7.33v.79H91.47v-.953a.94.94,0,1,0-1.88,0V56.62h-1.14l-2.387-3.853a9.4,9.4,0,0,0,2.025-8H88.1a10.825,10.825,0,0,0,2.642-.457,9.334,9.334,0,0,1,5.828,8.624ZM88.006,42.891l-.517.022a9.411,9.411,0,0,0-17.132-.228,8.838,8.838,0,0,1-6.883-8.163c-.163-3.181-.192-6.394-.093-9.6a4.77,4.77,0,0,0,1.277.175,5.338,5.338,0,0,0,1.3-.167c2.466-.62,4.676-2.915,6.132-4.795a2.448,2.448,0,0,0,.816.732c2.081,1.175,5.128-.776,7.316-2.619a32.34,32.34,0,0,0,6.17-7.028c5.132,1.555,8.994,4.9,9.872,8.99a117.1,117.1,0,0,1,.145,14.309A8.8,8.8,0,0,1,88.006,42.891Z" transform="translate(-54.67 0)"/>
        <path id="Trazado_1024500" data-name="Trazado 1024500" d="M307.82,194.829a8.33,8.33,0,0,0-1.652-.152,3.232,3.232,0,0,0,.244-1.253c0-1.3-.71-2.359-1.583-2.359s-1.583,1.058-1.583,2.359a3.019,3.019,0,0,0,.469,1.674,4.737,4.737,0,0,0-.752.332.941.941,0,0,0,.472,1.755.931.931,0,0,0,.472-.129,5.508,5.508,0,0,1,3.558-.381.94.94,0,1,0,.355-1.846Z" transform="translate(-271.431 -167.116)"/>
        <path id="Trazado_1024501" data-name="Trazado 1024501" d="M167.173,195.43a4.736,4.736,0,0,0-.752-.332,3.019,3.019,0,0,0,.469-1.674c0-1.3-.71-2.359-1.583-2.359s-1.583,1.058-1.583,2.359a3.232,3.232,0,0,0,.244,1.253,8.338,8.338,0,0,0-1.652.152.94.94,0,0,0,.356,1.846,5.511,5.511,0,0,1,3.557.38.94.94,0,0,0,.945-1.625Z" transform="translate(-148.156 -167.116)"/>
        <path id="Trazado_1024502" data-name="Trazado 1024502" d="M202.452,320.77a6.5,6.5,0,0,0-6.341,7.888.94.94,0,0,0,1.837-.4,4.683,4.683,0,0,1-.107-1,4.611,4.611,0,1,1,4.611,4.61,4.565,4.565,0,0,1-2.859-.993.94.94,0,0,0-1.166,1.475,6.428,6.428,0,0,0,4.025,1.4,6.491,6.491,0,1,0,0-12.982Z" transform="translate(-178.25 -280.563)"/>
      </g>
    </g>
  </g>
</svg>
