<svg xmlns="http://www.w3.org/2000/svg" xmlns:xlink="http://www.w3.org/1999/xlink" width="113" height="113" viewBox="0 0 113 113">
  <defs>
    <filter id="Trazado_982547" x="0" y="0" width="113" height="113" filterUnits="userSpaceOnUse">
      <feOffset dy="3" input="SourceAlpha"/>
      <feGaussianBlur stdDeviation="3" result="blur"/>
      <feFlood flood-opacity="0.161"/>
      <feComposite operator="in" in2="blur"/>
      <feComposite in="SourceGraphic"/>
    </filter>
  </defs>
  <g id="Grupo_1171896" data-name="Grupo 1171896" transform="translate(-271.5 -2057.674)">
    <g id="Grupo_1171095" data-name="Grupo 1171095" transform="translate(280.5 2063.674)">
      <g id="Grupo_1148525" data-name="Grupo 1148525" transform="translate(0)">
        <g transform="matrix(1, 0, 0, 1, -9, -6)" filter="url(#Trazado_982547)">
          <g id="Trazado_982547-2" data-name="Trazado 982547" transform="translate(9 6)" fill="#fefcf6">
            <path d="M 47.5 93.5 C 41.28937149047852 93.5 35.26533508300781 92.28397369384766 29.59518623352051 89.88570404052734 C 24.11771965026855 87.56893157958984 19.19813346862793 84.25196075439453 14.97309303283691 80.02691650390625 C 10.74804019927979 75.80186462402344 7.431066513061523 70.88229370117188 5.114293098449707 65.40481567382812 C 2.716026782989502 59.73468017578125 1.5 53.71062850952148 1.5 47.5 C 1.5 41.28937149047852 2.716026782989502 35.26533508300781 5.114293098449707 29.59518623352051 C 7.431066513061523 24.11771965026855 10.74804019927979 19.19813346862793 14.97309303283691 14.97309303283691 C 19.19813346862793 10.74804019927979 24.11771965026855 7.431066513061523 29.59518623352051 5.114293098449707 C 35.26533508300781 2.716026782989502 41.28937149047852 1.5 47.5 1.5 C 53.71062850952148 1.5 59.73468017578125 2.716026782989502 65.40481567382812 5.114293098449707 C 70.88229370117188 7.431066513061523 75.80186462402344 10.74804019927979 80.02691650390625 14.97309303283691 C 84.25196075439453 19.19813346862793 87.56893157958984 24.11771965026855 89.88570404052734 29.59518623352051 C 92.28397369384766 35.26533508300781 93.5 41.28937149047852 93.5 47.5 C 93.5 53.71062850952148 92.28397369384766 59.73468017578125 89.88570404052734 65.40481567382812 C 87.56893157958984 70.88229370117188 84.25196075439453 75.80186462402344 80.02691650390625 80.02691650390625 C 75.80186462402344 84.25196075439453 70.88229370117188 87.56893157958984 65.40481567382812 89.88570404052734 C 59.73468017578125 92.28397369384766 53.71062850952148 93.5 47.5 93.5 Z" stroke="none"/>
            <path d="M 47.5 3 C 41.49121475219727 3 35.66376876831055 4.176155090332031 30.17950439453125 6.495796203613281 C 24.88084411621094 8.736953735351562 20.12152099609375 11.94598388671875 16.03375244140625 16.03375244140625 C 11.94598388671875 20.12152099609375 8.736953735351562 24.88084411621094 6.495796203613281 30.17950439453125 C 4.176155090332031 35.66376876831055 3 41.49121475219727 3 47.5 C 3 53.50878524780273 4.176155090332031 59.33623123168945 6.495796203613281 64.82049560546875 C 8.736953735351562 70.11915588378906 11.94598388671875 74.87847900390625 16.03375244140625 78.96624755859375 C 20.12152099609375 83.05401611328125 24.88084411621094 86.26304626464844 30.17950439453125 88.50419616699219 C 35.66376876831055 90.82384490966797 41.49121475219727 92 47.5 92 C 53.50878524780273 92 59.33623123168945 90.82384490966797 64.82049560546875 88.50419616699219 C 70.11915588378906 86.26304626464844 74.87847900390625 83.05401611328125 78.96624755859375 78.96624755859375 C 83.05401611328125 74.87847900390625 86.26304626464844 70.11915588378906 88.50419616699219 64.82049560546875 C 90.82384490966797 59.33623123168945 92 53.50878524780273 92 47.5 C 92 41.49121475219727 90.82384490966797 35.66376876831055 88.50419616699219 30.17950439453125 C 86.26304626464844 24.88084411621094 83.05401611328125 20.12152099609375 78.96624755859375 16.03375244140625 C 74.87847900390625 11.94598388671875 70.11915588378906 8.736953735351562 64.82049560546875 6.495796203613281 C 59.33623123168945 4.176155090332031 53.50878524780273 3 47.5 3 M 47.5 0 C 73.7335205078125 0 95 21.2664794921875 95 47.5 C 95 73.7335205078125 73.7335205078125 95 47.5 95 C 21.2664794921875 95 0 73.7335205078125 0 47.5 C 0 21.2664794921875 21.2664794921875 0 47.5 0 Z" stroke="none" fill="#86815c"/>
          </g>
        </g>
      </g>
    </g>
    <g id="woman_3561546" transform="translate(296 2078.17)">
      <path id="Trazado_1024540" data-name="Trazado 1024540" d="M49.83,40.01A15.281,15.281,0,0,1,59,54v9H52V48a45.78,45.78,0,0,0-14.3,1.88l7.44-11.91,2.11.92Z" fill="#ce3d3a"/>
      <path id="Trazado_1024541" data-name="Trazado 1024541" d="M26.3,49.88A45.78,45.78,0,0,0,12,48v4s12,0,17,5h3V53S30.63,51.29,26.3,49.88Z" fill="#f7e6d5"/>
      <path id="Trazado_1024542" data-name="Trazado 1024542" d="M37.7,49.88C33.37,51.29,32,53,32,53v4h3c5-5,17-5,17-5V48a45.78,45.78,0,0,0-14.3,1.88Z" fill="#e0cdbd"/>
      <path id="Trazado_1024543" data-name="Trazado 1024543" d="M16.75,38.89l2.11-.92,3.69-1.6,3.75-1.63a13.631,13.631,0,0,1-4.24-7.46l-1.47-7.35a19.24,19.24,0,0,1-2.879,8.561,36.612,36.612,0,0,1-.961,10.4Z" fill="#7c5235"/>
      <path id="Trazado_1024544" data-name="Trazado 1024544" d="M48,16a24.344,24.344,0,0,0-1.55-8.18A10.362,10.362,0,0,0,36.69,1a10.487,10.487,0,0,0-3.288.529L32,2l-1.4-.47a10.448,10.448,0,0,0-9.25,1.34,10.34,10.34,0,0,0-3.8,4.95A24.344,24.344,0,0,0,16,16c0,4.736,1.4,7.728,1.711,12.491A19.24,19.24,0,0,0,20.59,19.93C30.08,18.76,32,13,32,13s1.92,5.76,11.41,6.93a19.24,19.24,0,0,0,2.879,8.561C46.6,23.728,48,20.736,48,16Z" fill="#936444"/>
      <path id="Trazado_1024545" data-name="Trazado 1024545" d="M43.41,19.93l-1.47,7.35a13.609,13.609,0,0,1-4.24,7.46l3.75,1.63,3.69,1.6,2.11.92a36.612,36.612,0,0,1-.961-10.4,19.24,19.24,0,0,1-2.879-8.56Z" fill="#7c5235"/>
      <path id="Trazado_1024546" data-name="Trazado 1024546" d="M18.86,37.97,26.3,49.88A45.78,45.78,0,0,0,12,48V63H5V54a15.255,15.255,0,0,1,9.172-13.991L16.75,38.89Z" fill="#e54c38"/>
      <path id="Trazado_1024547" data-name="Trazado 1024547" d="M29,57v6H12V52S24,52,29,57Z" fill="#f9bb3d"/>
      <path id="Trazado_1024548" data-name="Trazado 1024548" d="M35,57v6H29V57h6Z" fill="#e89838"/>
      <path id="Trazado_1024549" data-name="Trazado 1024549" d="M52,52V63H35V57C40,52,52,52,52,52Z" fill="#f9bb3d"/>
      <path id="Trazado_1024550" data-name="Trazado 1024550" d="M45.14,37.97,37.7,49.88C33.37,51.29,32,53,32,53s-1.37-1.71-5.7-3.12L18.86,37.97l3.69-1.6L32,48l9.45-11.63Z" fill="#ea7060"/>
      <path id="Trazado_1024551" data-name="Trazado 1024551" d="M43.41,19.93l-1.47,7.35a13.609,13.609,0,0,1-4.24,7.46c-.13.11-.26.23-.4.34a8.275,8.275,0,0,1-10.6,0c-.14-.11-.27-.23-.4-.34a13.631,13.631,0,0,1-4.24-7.46l-1.47-7.35C30.08,18.76,32,13,32,13s1.92,5.76,11.41,6.93Z" fill="#f7b1a4"/>
      <path id="Trazado_1024552" data-name="Trazado 1024552" d="M41.45,36.37,32,48,22.55,36.37l3.75-1.63c.13.11.26.23.4.34a8.275,8.275,0,0,0,10.6,0c.14-.11.27-.23.4-.34Z" fill="#f7b1a4"/>
      <path id="Trazado_1024553" data-name="Trazado 1024553" d="M37.7,34.74c-.13.11-.26.23-.4.34a8.275,8.275,0,0,1-10.6,0c-.14-.11-.27-.23-.4-.34l-3.75,1.63,1.43,1.76a.5.5,0,0,1,.192.051,12.278,12.278,0,0,0,15.656,0,.5.5,0,0,1,.192-.051l1.43-1.76Z" fill="#e09b8d"/>
      <path id="Trazado_1024554" data-name="Trazado 1024554" d="M20.741,12.782a1.117,1.117,0,0,1-.129-.008,1,1,0,0,1-.864-1.12c.739-5.746,4.984-7.289,5.164-7.351a1,1,0,0,1,.664,1.886c-.151.056-3.27,1.256-3.845,5.721A1,1,0,0,1,20.741,12.782Z" fill="#aa7f63"/>
      <path id="Trazado_1024555" data-name="Trazado 1024555" d="M13.341,45.678a1,1,0,0,1-.793-1.6,9.192,9.192,0,0,1,4.573-2.7,1,1,0,1,1,.586,1.912,7.681,7.681,0,0,0-3.58,2.02,1.008,1.008,0,0,1-.786.368Z" fill="#ea7060"/>
      <g id="Grupo_1171307" data-name="Grupo 1171307">
        <path id="Trazado_1024556" data-name="Trazado 1024556" d="M57.338,45.094a16.109,16.109,0,0,0-7.109-6l-2.1-.914a32.367,32.367,0,0,1,0-15.2A33.044,33.044,0,0,0,49,16a25.2,25.2,0,0,0-1.61-8.523A11.3,11.3,0,0,0,43.222,2.05,11.531,11.531,0,0,0,33.082.582L32,.945,30.914.581A11.538,11.538,0,0,0,20.778,2.049,11.309,11.309,0,0,0,16.609,7.48,25.188,25.188,0,0,0,15,16a33.044,33.044,0,0,0,.874,6.983,32.367,32.367,0,0,1,0,15.2l-2.1.914A16.243,16.243,0,0,0,4,54v9a1,1,0,0,0,1,1H59a1,1,0,0,0,1-1V54a16.163,16.163,0,0,0-2.662-8.906ZM13,53.029c2.841.125,11.03.8,15,4.406V62H13ZM30,58h4v4H30Zm6-.565c3.965-3.6,12.158-4.279,15-4.4V62H36Zm15-6.411c-3,.117-11.875.817-16.4,4.976H29.4C24.875,51.841,16,51.141,13,51.024V49.007a43.912,43.912,0,0,1,12.99,1.824c3.914,1.274,5.225,2.789,5.23,2.794a1,1,0,0,0,.771.37.957.957,0,0,0,.781-.36c.013-.015,1.324-1.53,5.243-2.806A43.928,43.928,0,0,1,51,49.007ZM37.04,49.051A16.5,16.5,0,0,0,32,51.63a16.424,16.424,0,0,0-5.039-2.579L20.324,38.426l1.927-.837,8.973,11.042a1,1,0,0,0,1.552,0l8.973-11.042,1.927.837Zm.016-15.075A7.323,7.323,0,0,1,26.97,34a12.535,12.535,0,0,1-2.4-2.932,12.37,12.37,0,0,1-1.528-3.982l-1.264-6.32c6-1,8.917-3.819,10.223-5.69,1.308,1.874,4.223,4.695,10.224,5.691L40.96,27.083A12.527,12.527,0,0,1,37.056,33.976ZM26.132,35.9a9.262,9.262,0,0,0,11.737,0l1.974.857L32,46.414l-7.843-9.653Zm-8.3-13.319A31,31,0,0,1,17,16a23.177,23.177,0,0,1,1.489-7.836A9.31,9.31,0,0,1,21.921,3.69a9.52,9.52,0,0,1,8.36-1.211l1.4.469a1,1,0,0,0,.636,0l1.4-.469a9.515,9.515,0,0,1,8.364,1.212A9.3,9.3,0,0,1,45.51,8.16,23.194,23.194,0,0,1,47,16a31,31,0,0,1-.834,6.584A33.48,33.48,0,0,0,45.9,37.211l-6.46-2.806a14.539,14.539,0,0,0,3.483-6.928l1.3-6.519A.986.986,0,0,0,45,20.1a1,1,0,0,0-.9-1.092c-.179-.018-.359-.035-.565-.067-8.675-1.07-10.511-6.049-10.584-6.254a1,1,0,0,0-.942-.68H32a1,1,0,0,0-.945.673c-.075.212-1.911,5.191-10.622,6.265-.17.028-.35.045-.529.063a.991.991,0,0,0-.127,1.955l1.3,6.514A14.455,14.455,0,0,0,24.566,34.4L18.1,37.211a33.48,33.48,0,0,0-.266-14.627ZM6,54a14.244,14.244,0,0,1,8.568-13.073l3.9-1.7,5.62,9A52.788,52.788,0,0,0,12,47a1,1,0,0,0-1,1V62H6Zm52,8H53V48a1,1,0,0,0-1-1,52.829,52.829,0,0,0-12.09,1.228l5.62-9,3.9,1.7A14.28,14.28,0,0,1,58,54Z" fill="#252525"/>
        <circle id="Elipse_12288" data-name="Elipse 12288" cx="1.5" cy="1.5" r="1.5" transform="translate(34 21)" fill="#252525"/>
        <circle id="Elipse_12289" data-name="Elipse 12289" cx="1.5" cy="1.5" r="1.5" transform="translate(27 21)" fill="#252525"/>
        <path id="Trazado_1024557" data-name="Trazado 1024557" d="M32,29a1,1,0,0,0,1-1V25a1,1,0,0,0-2,0v3A1,1,0,0,0,32,29Z" fill="#252525"/>
        <path id="Trazado_1024558" data-name="Trazado 1024558" d="M34.305,30.281A3.46,3.46,0,0,1,32,31a3.477,3.477,0,0,1-2.3-.717,1,1,0,0,0-1.4,1.424A5.306,5.306,0,0,0,32,33a5.306,5.306,0,0,0,3.707-1.293.993.993,0,0,0,.006-1.4A1.006,1.006,0,0,0,34.305,30.281Z" fill="#252525"/>
        <path id="Trazado_1024559" data-name="Trazado 1024559" d="M38.27,6.059c.168.061,4.144,1.576,4.735,7.281a1,1,0,0,0,.994.9.65.65,0,0,0,.1-.005,1,1,0,0,0,.892-1.1c-.726-7.01-5.84-8.885-6.058-8.961a1,1,0,1,0-.667,1.885Z" fill="#252525"/>
        <path id="Trazado_1024560" data-name="Trazado 1024560" d="M36.657,9.82a3.742,3.742,0,0,1,2.084,3.28,1,1,0,0,0,.994.9.637.637,0,0,0,.1,0,1,1,0,0,0,.892-1.1,5.672,5.672,0,0,0-3.4-4.959,1,1,0,0,0-.67,1.884Z" fill="#252525"/>
      </g>
    </g>
  </g>
</svg>
