<svg xmlns="http://www.w3.org/2000/svg" xmlns:xlink="http://www.w3.org/1999/xlink" width="110" height="110" viewBox="0 0 110 110">
  <defs>
    <filter id="Trazado_982547" x="0" y="0" width="110" height="110" filterUnits="userSpaceOnUse">
      <feOffset dy="3" input="SourceAlpha"/>
      <feGaussianBlur stdDeviation="3" result="blur"/>
      <feFlood flood-opacity="0.161"/>
      <feComposite operator="in" in2="blur"/>
      <feComposite in="SourceGraphic"/>
    </filter>
  </defs>
  <g id="Grupo_1171441" data-name="Grupo 1171441" transform="translate(-1113 -1154.147)">
    <g id="Grupo_1166163" data-name="Grupo 1166163" transform="translate(1 -805.853)">
      <g id="Grupo_1164700" data-name="Grupo 1164700" transform="translate(1121 1966)">
        <g id="Grupo_1160931" data-name="Grupo 1160931" transform="translate(0)">
          <g id="Grupo_1160749" data-name="Grupo 1160749" transform="translate(0)">
            <g id="Grupo_1158891" data-name="Grupo 1158891" transform="translate(0 0)">
              <g id="Grupo_1157406" data-name="Grupo 1157406" transform="translate(0)">
                <g id="Grupo_1155793" data-name="Grupo 1155793" transform="translate(0)">
                  <g id="Grupo_1154704" data-name="Grupo 1154704" transform="translate(0)">
                    <g id="Grupo_1150790" data-name="Grupo 1150790" transform="translate(0)">
                      <g id="Grupo_1154214" data-name="Grupo 1154214" transform="translate(0)">
                        <g id="Grupo_1152583" data-name="Grupo 1152583" transform="translate(0 0)">
                          <g id="Grupo_1146973" data-name="Grupo 1146973" transform="translate(0 0)">
                            <g id="Grupo_1146954" data-name="Grupo 1146954">
                              <g transform="matrix(1, 0, 0, 1, -9, -6)" filter="url(#Trazado_982547)">
                                <g id="Trazado_982547-2" data-name="Trazado 982547" transform="translate(9 6)" fill="#edf3fc">
                                  <path d="M 46.00000381469727 90.49988555908203 C 39.99188232421875 90.49988555908203 34.16427230834961 89.32352447509766 28.67905807495117 87.00347137451172 C 23.38020324707031 84.76226043701172 18.62104415893555 81.55342864990234 14.53375053405762 77.46615600585938 C 10.44647026062012 73.37887573242188 7.237643718719482 68.61971282958984 4.996417045593262 63.32085800170898 C 2.676363706588745 57.83565902709961 1.500003814697266 52.00806045532227 1.500003814697266 45.99993896484375 C 1.500003814697266 39.99181747436523 2.676363706588745 34.16421890258789 4.996417045593262 28.67901802062988 C 7.237643718719482 23.38017845153809 10.44647026062012 18.62101936340332 14.53375053405762 14.53373908996582 C 18.62104415893555 10.44645881652832 23.38020324707031 7.237632274627686 28.67905807495117 4.996418952941895 C 34.16427230834961 2.676365613937378 39.99188232421875 1.500005602836609 46.00000381469727 1.500005602836609 C 52.00812530517578 1.500005602836609 57.83573532104492 2.676365613937378 63.32094955444336 4.996418952941895 C 68.61980438232422 7.237632274627686 73.37897491455078 10.44645881652832 77.46625518798828 14.53373908996582 C 81.55355072021484 18.62101936340332 84.76236724853516 23.38017845153809 87.00359344482422 28.67901802062988 C 89.32364654541016 34.16421890258789 90.5 39.99181747436523 90.5 45.99993896484375 C 90.5 52.00806045532227 89.32364654541016 57.83565902709961 87.00359344482422 63.32085800170898 C 84.76236724853516 68.61971282958984 81.55355072021484 73.37887573242188 77.46625518798828 77.46615600585938 C 73.37897491455078 81.55342864990234 68.61980438232422 84.76226043701172 63.32094955444336 87.00347137451172 C 57.83573532104492 89.32352447509766 52.00812530517578 90.49988555908203 46.00000381469727 90.49988555908203 Z" stroke="none"/>
                                  <path d="M 46.00000381469727 2.999992370605469 C 40.19371795654297 2.999992370605469 34.56270217895508 4.136497497558594 29.26338958740234 6.377906799316406 C 24.14333343505859 8.543510437011719 19.54441833496094 11.64437866210938 15.59440612792969 15.59439849853516 C 11.64440155029297 19.54439544677734 8.54351806640625 24.14329528808594 6.377914428710938 29.26335144042969 C 4.136505126953125 34.56266784667969 3.000007629394531 40.19366836547852 3.000007629394531 45.99993896484375 C 3.000007629394531 51.80620956420898 4.136505126953125 57.43722534179688 6.377914428710938 62.73654174804688 C 8.54351806640625 67.85658264160156 11.64440155029297 72.45548248291016 15.59440612792969 76.40549468994141 C 19.54441833496094 80.35549926757812 24.14333343505859 83.45636749267578 29.26337432861328 85.62196350097656 C 34.56270217895508 87.86338043212891 40.19371795654297 88.9998779296875 46.00000381469727 88.9998779296875 C 51.80628967285156 88.9998779296875 57.43730545043945 87.86338043212891 62.73663330078125 85.62196350097656 C 67.85667419433594 83.45636749267578 72.45558929443359 80.35549926757812 76.40560150146484 76.40549468994141 C 80.35560607910156 72.45548248291016 83.45648956298828 67.85658264160156 85.62208557128906 62.73654174804688 C 87.86350250244141 57.43722534179688 89 51.80620956420898 89 45.99993896484375 C 89 40.19366836547852 87.86350250244141 34.56266784667969 85.62208557128906 29.26335144042969 C 83.45648956298828 24.14329528808594 80.35560607910156 19.54439544677734 76.40560150146484 15.59439849853516 C 72.45558929443359 11.64437866210938 67.85667419433594 8.543510437011719 62.73661804199219 6.377906799316406 C 57.43730545043945 4.136497497558594 51.80628967285156 2.999992370605469 46.00000381469727 2.999992370605469 M 46.00000381469727 -7.62939453125e-06 C 71.40510559082031 -7.62939453125e-06 92 20.59487915039062 92 45.99993896484375 C 92 71.40501403808594 71.40510559082031 91.99988555908203 46.00000381469727 91.99988555908203 C 20.59490203857422 91.99988555908203 7.62939453125e-06 71.40501403808594 7.62939453125e-06 45.99993896484375 C 7.62939453125e-06 20.59487915039062 20.59490203857422 -7.62939453125e-06 46.00000381469727 -7.62939453125e-06 Z" stroke="none" fill="#5692e8"/>
                                </g>
                              </g>
                            </g>
                          </g>
                        </g>
                      </g>
                    </g>
                  </g>
                </g>
              </g>
            </g>
          </g>
        </g>
      </g>
    </g>
    <g id="Layer_13" data-name="Layer 13" transform="translate(1135.5 1174.147)">
      <path id="Trazado_1024845" data-name="Trazado 1024845" d="M56,42a2,2,0,0,0,2-2V38H6v2a2,2,0,0,0,2,2Z" fill="#674025"/>
      <path id="Trazado_1024846" data-name="Trazado 1024846" d="M55,38H6v2H53A2,2,0,0,0,55,38Z" fill="#774d30"/>
      <path id="Trazado_1024847" data-name="Trazado 1024847" d="M59,32V25a3,3,0,0,0-3-3H42a3,3,0,0,0-3,3v7Z" fill="#e1656e"/>
      <path id="Trazado_1024848" data-name="Trazado 1024848" d="M55,26V22H42a3,3,0,0,0-3,3v4H52A3,3,0,0,0,55,26Z" fill="#f29b99"/>
      <path id="Trazado_1024849" data-name="Trazado 1024849" d="M25,32V26a3,3,0,0,0-3-3H8a3,3,0,0,0-3,3v6Z" fill="#5e87ca"/>
      <path id="Trazado_1024850" data-name="Trazado 1024850" d="M21.321,26V23H8a3,3,0,0,0-3,3v3H18.321A3,3,0,0,0,21.321,26Z" fill="#78a0d4"/>
      <path id="Trazado_1024851" data-name="Trazado 1024851" d="M42,22l-5-5a6.826,6.826,0,0,0,2-4.828V12a10,10,0,0,1,20,0v.172A6.826,6.826,0,0,0,61,17l-5,5Z" fill="#c18e59"/>
      <g id="Grupo_1171440" data-name="Grupo 1171440">
        <path id="Trazado_1024852" data-name="Trazado 1024852" d="M12,19v4a3,3,0,0,0,6,0V19" fill="#f2b9a1"/>
        <path id="Trazado_1024853" data-name="Trazado 1024853" d="M10,12H7a2,2,0,0,0,0,4h3" fill="#f2b9a1"/>
        <path id="Trazado_1024854" data-name="Trazado 1024854" d="M20,12h3a2,2,0,0,1,0,4H20" fill="#f2b9a1"/>
      </g>
      <path id="Trazado_1024855" data-name="Trazado 1024855" d="M8,12,7.423,9.691A14.145,14.145,0,0,1,7,6.257a7.728,7.728,0,0,1,.4-2.45,2.637,2.637,0,0,1,4.369-1.033L13,4l.343-.343a5.657,5.657,0,0,1,9.657,4V9l-1,3Z" fill="#c18e59"/>
      <path id="Trazado_1024856" data-name="Trazado 1024856" d="M29,32V29a3,3,0,0,1,6,0v3" fill="#e2e7f6"/>
      <path id="Trazado_1024857" data-name="Trazado 1024857" d="M42,56,37,38H27L22,56Z" fill="#976947"/>
      <rect id="Rect치ngulo_414345" data-name="Rect치ngulo 414345" width="26" height="6" rx="3" transform="translate(19 56)" fill="#674025"/>
      <rect id="Rect치ngulo_414346" data-name="Rect치ngulo 414346" width="60" height="6" rx="3" transform="translate(2 32)" fill="#c18e59"/>
      <path id="Trazado_1024858" data-name="Trazado 1024858" d="M59,32H5a3,3,0,0,0-3,3H58a1,1,0,0,0,1-1Z" fill="#ce9b6e"/>
      <path id="Trazado_1024859" data-name="Trazado 1024859" d="M23.111,52H30a3,3,0,0,0,3-3V38H27Z" fill="#a87654"/>
      <path id="Trazado_1024860" data-name="Trazado 1024860" d="M42,56H22a3,3,0,0,0-3,3H40a2,2,0,0,0,2-2Z" fill="#774d30"/>
      <path id="Trazado_1024861" data-name="Trazado 1024861" d="M21,11v4A6,6,0,0,1,9,15V11l4.03-.576A3.459,3.459,0,0,0,16,7Z" fill="#fbe1ca"/>
      <path id="Trazado_1024862" data-name="Trazado 1024862" d="M46,18v4a3,3,0,0,0,6,0V18" fill="#f2b9a1"/>
      <path id="Trazado_1024863" data-name="Trazado 1024863" d="M55,10v4a6,6,0,0,1-12,0V10l4.03-.576A3.459,3.459,0,0,0,50,6Z" fill="#fbe1ca"/>
      <path id="Trazado_1024864" data-name="Trazado 1024864" d="M60,31.142V25a3.987,3.987,0,0,0-2.092-3.494l3.8-3.8a1,1,0,0,0,0-1.414A5.791,5.791,0,0,1,60,12.171V12a11,11,0,1,0-22,0v.171a5.791,5.791,0,0,1-1.707,4.122,1,1,0,0,0,0,1.414l3.8,3.8A3.987,3.987,0,0,0,38,25v6H36V29a4,4,0,0,0-8,0v2H26V26a4,4,0,0,0-4-4H19V20.736A7.016,7.016,0,0,0,21.7,17H23a2.992,2.992,0,0,0,.374-5.962l.574-1.722A1,1,0,0,0,24,9V7.657A6.657,6.657,0,0,0,13.014,2.6l-.533-.533A3.643,3.643,0,0,0,6.449,3.491,8.715,8.715,0,0,0,6,6.257a15.131,15.131,0,0,0,.454,3.68l.273,1.091A2.992,2.992,0,0,0,7,17H8.3A7.016,7.016,0,0,0,11,20.736V22H8a4,4,0,0,0-4,4v5.142A3.992,3.992,0,0,0,5,39v1a3,3,0,0,0,3,3H24.573L21.218,55.079A4,4,0,0,0,22,63H42a4,4,0,0,0,.782-7.921L39.427,43H56a3,3,0,0,0,3-3V39a3.992,3.992,0,0,0,1-7.858ZM40,12.171V12a9,9,0,0,1,18,0v.171a7.776,7.776,0,0,0,1.63,4.785L55.586,21H53V19.736A6.991,6.991,0,0,0,56,14V10a1,1,0,0,0-.375-.781l-5-4A1,1,0,0,0,49,6a2.472,2.472,0,0,1-2.111,2.435l-4.031.575A1,1,0,0,0,42,10v4a6.992,6.992,0,0,0,3,5.736V21H42.414L38.37,16.956A7.776,7.776,0,0,0,40,12.171ZM49,19a5.006,5.006,0,0,1-5-5V10.867l3.172-.453A4.482,4.482,0,0,0,50.625,7.78L54,10.48V14a5.006,5.006,0,0,1-5,5Zm-2,1.7a6.927,6.927,0,0,0,4,0V22a2,2,0,0,1-4,0ZM40,25a2,2,0,0,1,2-2h3.142a3.981,3.981,0,0,0,7.716,0H56a2,2,0,0,1,2,2v6H40ZM30,29a2,2,0,0,1,4,0v2H30ZM24,14a1,1,0,0,1-1,1H22V13h1A1,1,0,0,1,24,14ZM8.346,4.124a1.644,1.644,0,0,1,2.721-.643l1.226,1.226a1,1,0,0,0,1.415,0l.342-.343A4.657,4.657,0,0,1,22,7.657V8.838l-.442,1.327L16.625,6.219A1,1,0,0,0,15,7a2.472,2.472,0,0,1-2.111,2.435l-4.031.575a.993.993,0,0,0-.3.1l-.165-.663A13.135,13.135,0,0,1,8,6.257a6.711,6.711,0,0,1,.346-2.133ZM7,15a1,1,0,0,1,0-2H8v2Zm3,0V11.867l3.172-.453A4.482,4.482,0,0,0,16.625,8.78L20,11.48V15a5,5,0,0,1-10,0Zm5,7a6.956,6.956,0,0,0,2-.3V23a2,2,0,0,1-4,0V21.7a6.956,6.956,0,0,0,2,.3ZM8,24h3.142a3.981,3.981,0,0,0,7.716,0H22a2,2,0,0,1,2,2v5H6V26A2,2,0,0,1,8,24ZM8,41a1,1,0,0,1-1-1V39H25.684l-.556,2Zm28.24-2,4.444,16H23.316L27.76,39ZM44,59a2,2,0,0,1-2,2H22a2,2,0,0,1,0-4H42A2,2,0,0,1,44,59ZM57,40a1,1,0,0,1-1,1H38.872l-.556-2H57Zm2-3H5a2,2,0,0,1,0-4H59a2,2,0,0,1,0,4Z"/>
    </g>
  </g>
</svg>
