<svg xmlns="http://www.w3.org/2000/svg" xmlns:xlink="http://www.w3.org/1999/xlink" width="400" height="333" viewBox="0 0 400 333">
  <defs>
    <clipPath id="clip-path">
      <rect id="Rect치ngulo_414407" data-name="Rect치ngulo 414407" width="400" height="333" transform="translate(1020 3341)" fill="#fff" stroke="#707070" stroke-width="1"/>
    </clipPath>
    <clipPath id="clip-path-2">
      <rect id="Rect치ngulo_414406" data-name="Rect치ngulo 414406" width="453" height="453" transform="translate(0 0)" fill="none"/>
    </clipPath>
  </defs>
  <g id="Enmascarar_grupo_1098713" data-name="Enmascarar grupo 1098713" transform="translate(-1020 -3341)" clip-path="url(#clip-path)">
    <g id="Grupo_1171591" data-name="Grupo 1171591" transform="translate(981 3265)">
      <g id="Grupo_1171590" data-name="Grupo 1171590" transform="translate(19 19)">
        <g id="Grupo_1171589" data-name="Grupo 1171589" transform="translate(0 0)" clip-path="url(#clip-path-2)">
          <path id="Trazado_1025082" data-name="Trazado 1025082" d="M1385.7,2015.7c-.981-.408-1.958-.825-2.943-1.223a9.5,9.5,0,0,1-5.9-6.922c-.5-2.026-.9-4.078-1.308-6.125a44.176,44.176,0,0,0-1.742-6.245,10.434,10.434,0,0,1-.278-1.162c-2.138-11.9-5.461-23.51-8.555-35.175a97.89,97.89,0,0,1-3.053-17.716,54.231,54.231,0,0,1,.476-14.2,26.979,26.979,0,0,1,7.006-14.267,7.674,7.674,0,0,1,.985-.876,19.7,19.7,0,0,0-6.408,7.645,33.752,33.752,0,0,0-3.029,12.474,68.9,68.9,0,0,0,1.578,17.426c1.211,6.331,2.689,12.607,4.163,18.881.572,2.436,1.2,4.86,1.744,7.3a2.61,2.61,0,0,1,.1,1.414.863.863,0,0,1-.781.326c-3.824.024-7.656.24-11.408-.827-3.893-1.107-7.248-2.857-9.518-6.459-2.3-3.642-5.2-6.86-7.746-10.337a3.213,3.213,0,0,1-.929-1.954c1.677-7.26,3.558-14.469,5.42-21.683.239-.926.378-1.867.6-2.792a45.86,45.86,0,0,0,1.741-6.361c.324-1.241.58-2.5.8-3.77a10.579,10.579,0,0,0,.213-1.038c2.6-10.361,5.219-20.72,9.028-30.722a38.445,38.445,0,0,1,5.959-10.795c2.344-2.868,4.987-5.436,8.587-6.739a14.194,14.194,0,0,1,4.315-.843,124.5,124.5,0,0,0,17.365-1.41,2.987,2.987,0,0,1,1.844.049c.455.447.166.88-.033,1.308a12.231,12.231,0,0,0-.853,5.826c.151,3.778,2.288,6.605,4.431,9.433a33.642,33.642,0,0,0,3.232,3.478,9.806,9.806,0,0,0,9.457,2.926,25.636,25.636,0,0,0,11.786-6.209c1.268-1.109,1.508-1.137,2.735.057.634.617,1.267,1.235,1.876,1.876a20.744,20.744,0,0,0,12.4,6.255,19.169,19.169,0,0,0,11.39-1.88,46.068,46.068,0,0,0,20.572-19.7,24.931,24.931,0,0,0,1.778-3.8,1.428,1.428,0,0,1,.734-.923,2.922,2.922,0,0,1,1.417.114c4.748.88,9.429,2.1,14.19,2.9,4.37.728,7.294,3.5,9.98,6.646a38.464,38.464,0,0,1,6.527,11.854,263.389,263.389,0,0,1,8.77,30.472,3.868,3.868,0,0,0,.4.933c.479,2.874,1.232,5.688,1.856,8.53a2.953,2.953,0,0,1,.161,1.519c.195.892.377,1.788.586,2.677,1.27,5.4,2.561,10.787,3.815,16.187q1.42,6.114,2.761,12.246c.448,2.042.9,4.09,1.2,6.156a22.642,22.642,0,0,1,.252,5.061,10.965,10.965,0,0,1-.308,1.843,3.284,3.284,0,0,1-1.29,1.746c-.434.337-.911.619-1.362.937-.207.146-.394.318-.591.478a2.378,2.378,0,0,1-1.377.636,57.784,57.784,0,0,1-16.55,1.421,35.6,35.6,0,0,1-3.917-.649,12.076,12.076,0,0,1-5.4-3.125,17.664,17.664,0,0,1-2.655-8.224c-.276-2.49-.388-4.99-.535-7.489-.192-3.274-1.288-6.346-2.168-9.463-1.033-3.657-1.87-7.357-2.615-11.081a89.48,89.48,0,0,0-2.467-8.6,1.152,1.152,0,0,0-1.238-.882c-.516,0-1.032,0-1.548,0a1.163,1.163,0,0,0-1.249.991c-.349,1.276-.806,1.592-2.128,1.646-.663.027-1.327.005-1.99.01-1.561.012-1.661.143-1.445,1.65a3.054,3.054,0,0,1,.071,1.737c-.818.2-.867-.479-.995-.954a29.723,29.723,0,0,1-.625-3.464c-.224-1.55-1.314-2.226-2.826-1.073-2.444.129-4.878.575-7.336.245-.41-.137-.484-.516-.61-.858a8,8,0,0,0-1.93-2.917,5.973,5.973,0,0,0-9.717,1.218,13.425,13.425,0,0,0-.836,1.676,1.488,1.488,0,0,1-.83.977,4.193,4.193,0,0,1-1.849.241c-5.376-.084-10.743.38-16.12.234a18.024,18.024,0,0,0-2.855.285,2.883,2.883,0,0,0-2.575,2.5,60.091,60.091,0,0,0-.614,7.366c-.257,3.56-.559,7.115-.8,10.675q-.265,3.854-.537,7.706c-.21,3.046-.421,6.092-.593,9.139-.162,2.865-.291,5.731-.524,8.591-.305,3.74-.523,7.485-.807,11.226-.261,3.448-.464,6.9-.745,10.345-.218,2.672-.264,5.35-.672,8.021-.261,1.709-.031,3.514-.2,5.272-.057.583.008,1.2-.548,1.6a1.617,1.617,0,0,1-.633.181,5,5,0,0,1-.662.03c-7.259-.159-14.512.323-21.77.21a34.58,34.58,0,0,1-9.393-1.249,3.067,3.067,0,0,1-1.394-.631" transform="translate(-1190.167 -1663.346)" fill="#8aac9e"/>
          <path id="Trazado_1025083" data-name="Trazado 1025083" d="M1626.27,3185.992a6.588,6.588,0,0,1,.967.143,32.514,32.514,0,0,0,7.145,1.243,101.724,101.724,0,0,0,10.71.089c4.567-.166,9.132-.033,13.7-.147.44-.011.882.03,1.323.046.383.388.293.887.3,1.354.018.88.034,1.763,0,2.643a2.223,2.223,0,0,0,.949,2.1,1.037,1.037,0,0,0,.948.252c4.23.409,8.451-.13,12.677-.094a14.526,14.526,0,0,1,2.092.069,11.419,11.419,0,0,0,2.808.192,1.424,1.424,0,0,1,.475.142c.11.171.233.227.38.036a.774.774,0,0,1,.594.01,1.043,1.043,0,0,0,1,.1c1.027.058,2.051.138,3.073.253a31.082,31.082,0,0,0,6.034,0c1.047-.1,2.093-.232,3.146-.253a2.2,2.2,0,0,0,1.57-.149,2.067,2.067,0,0,1,.915-.041,1.117,1.117,0,0,0,.679.012,1.642,1.642,0,0,1,.808-.169,1.777,1.777,0,0,0,.938-.061c.18-.034.362-.046.542-.074a1.713,1.713,0,0,0,.607-.3,1.2,1.2,0,0,1,.7-.055,1.3,1.3,0,0,0,.67.006,4.859,4.859,0,0,1,.684-.084,1.4,1.4,0,0,0,.516-.162,1.184,1.184,0,0,1,.8-.185,1.33,1.33,0,0,0,.662-.012c.22-.052.446-.064.668-.1a1.67,1.67,0,0,0,.6-.293,1.284,1.284,0,0,1,.7-.067.984.984,0,0,0,.653-.165.965.965,0,0,1,.723,0c.116.193.238.173.363.006a1.744,1.744,0,0,1,.584-.135,2.318,2.318,0,0,0,.972-.34,4.758,4.758,0,0,1,1.5-.218.357.357,0,0,0,.486.024.492.492,0,0,1,.543.137c3.308,8.752,6.363,17.588,8.929,26.592q3.379,11.854,5.886,23.914c.621,2.991,1.082,6.016,1.586,9.031.649,3.888,1.14,7.8,1.515,11.721.045.466.052.936.079,1.433a3.02,3.02,0,0,1-.505.1q-60.478.016-120.955.021a1.279,1.279,0,0,1-.361-.141c.136-1.088.25-2.179.412-3.264.565-3.789,1.129-7.578,1.724-11.361,1.988-12.632,4.466-25.162,7.7-37.541q3.42-13.1,7.705-25.938c.035-.1.059-.213.088-.32" transform="translate(-1430.734 -2833.635)" fill="#324346"/>
          <path id="Trazado_1025084" data-name="Trazado 1025084" d="M2117.573,2526.2l-.918.162a.667.667,0,0,1-.5.124l-.817.1a1.947,1.947,0,0,1-.415.054l-.89.149c-.2-.009-.357.125-.55.128l-.559.08c-.309-.128-.577.121-.875.1l-.914.14a2.623,2.623,0,0,0-.414.043l-1.171.14c-.443-.213-.839.118-1.264.11l-3.347.154c-2.055,0-4.111,0-6.166,0l-3.343-.164a4.458,4.458,0,0,1-.67-.093l-.654-.134a.177.177,0,0,1-.2-.036l-.386-.094c-2.916-1.1-5.408-2.956-8.034-4.564-2.785-1.7-5.532-3.473-7.125-4.606,3.322,2.158,7.643,5.187,12.152,7.932.375.228,1.392.466.3,1.15-2.274.023-4.547.063-6.821.064a74.227,74.227,0,0,1-8.358-.086,2.047,2.047,0,0,0-.329.015c-.155-.038-.306-.092-.462-.131a.659.659,0,0,0-.085-.07,2.413,2.413,0,0,1-1.262-2.466c.077-1.321.04-2.648.052-3.972a2.42,2.42,0,0,0,.221-.617c.094-1.317.211-2.635.224-3.954a13.3,13.3,0,0,1,.187-3.457,21.407,21.407,0,0,0,.288-3.826c.116-1.531.264-3.06.4-4.59.01-.11.018-.22.023-.331.08-1.686.133-3.374.25-5.057.092-1.312.264-2.617.4-3.926.008-.073.015-.147.018-.22.078-1.686.128-3.374.242-5.058.089-1.312.257-2.618.39-3.926.008-.073.022-.146.026-.219.08-1.428.168-2.855.236-4.284.086-1.8.062-3.6.266-5.386.13-1.139,0-2.3.221-3.4.287-1.457-.05-2.947.38-4.376a.48.48,0,0,0,.006-.11c.078-1.576.062-3.163.258-4.724.2-1.6.035-3.229.385-4.814a1.32,1.32,0,0,0,.018-.22c.082-1.5.138-3,.251-4.5.1-1.312.264-2.618.4-3.927.008-.073.012-.147.015-.22.079-1.834.122-3.67.25-5.5a30.616,30.616,0,0,1,.481-3.915,3.541,3.541,0,0,1,2.589-2.15c.945-.114,1.894-.209,2.844-.25s1.916,0,2.874-.012q7.172-.108,14.343-.232c.4-.007.792-.078,1.188-.119a1.451,1.451,0,0,1,.21,1.265,31.3,31.3,0,0,0-.155,5.181,3.69,3.69,0,0,0,1.941,3.372,1.978,1.978,0,0,0,2.616-.309,3.611,3.611,0,0,0,1.127-2.221,2.312,2.312,0,0,0-2.471-2.735c2.033.782,2.7,2.546,1.608,4.229a1.959,1.959,0,0,1-3.337.214,4.084,4.084,0,0,1-1.007-2.62,33.035,33.035,0,0,1,.3-4.843c.1-.743.146-1.585,1.066-1.9,3.443-.175,6.893,0,10.334-.242a2.153,2.153,0,0,1,1.055.447,19.95,19.95,0,0,0,4.678-.1,10.765,10.765,0,0,1,1.747-.046c.546-.016,1.092-.048,1.638-.073,1.046-.3,1.36-.175,1.679.747a14.79,14.79,0,0,1,.564,2.015,2.244,2.244,0,0,1-.972,2.663,2.566,2.566,0,0,0-1.372,2.968,2.524,2.524,0,0,0,2.671,2.1,2.574,2.574,0,0,0,1.75-3.216c-.12-.446-.516-.832-.309-1.353-.1-.685-.188-1.37-.289-2.054-.016-.107-.087-.208-.1-.314-.138-1.425.033-1.566,1.258-1.528.957.029,1.915.019,2.872,0a1.382,1.382,0,0,0,1.585-1.438c.118-1.005.285-1.159,1.319-1.174.773-.011,1.547,0,2.32-.011a.718.718,0,0,1,.8.589c.644,2.141,1.4,4.252,1.952,6.415.753,2.935,1.315,5.919,2.044,8.86.686,2.769,1.494,5.508,2.225,8.267.375,1.413.769,2.827,1.028,4.263a26.285,26.285,0,0,1,.263,3.284c.1,1.828.159,3.658.427,5.473.192,1.3.29,2.622.572,3.9a16.921,16.921,0,0,0,2.048,4.956c-.889,4.332-2,8.616-2.766,13.032,2.307-1.146,4.5-2.365,6.809-3.363,2.746-.421,5.405-1.232,8.115-1.814a67.463,67.463,0,0,0-6.986,1.522,1.114,1.114,0,0,1-1.24-.131,7.444,7.444,0,0,1,.159-3.367,5.589,5.589,0,0,1,.731-2.946,4.076,4.076,0,0,1,2.166.219,20.854,20.854,0,0,0,5.034.39c1.215.006,2.433.044,3.644-.023s2.395-.278,3.6-.362c1.135-.08,2.243-.306,3.364-.471a30.61,30.61,0,0,0,3.744-.823c.208-.058.428-.078.643-.115,0,2.467.115,4.942-.04,7.4-.116,1.839-.1,3.675-.167,5.511-.076,1.984-.1,3.971-.235,5.951a11.508,11.508,0,0,1-2.259,6.213,20.11,20.11,0,0,1-8.527,6.583,50.271,50.271,0,0,1-6.6,2.119q-3.552.989-7.146,1.825c-3.358.775-6.73,1.494-10.1,2.2-2.942.62-5.892,1.2-8.841,1.79-1.941.388-3.885.759-5.827,1.146-.1.019-.18.12-.27.182l-.608-.013-.106-.007-.094.051-1.819.385c-.336-.113-.6.158-.908.176l-.621.079a.137.137,0,0,1-.194.028l-.879.174a2.007,2.007,0,0,0-.435.067l-.9.152c-.2-.007-.358.129-.551.133l-.8.111a2.1,2.1,0,0,1-.416.054" transform="translate(-1844.165 -2166.701)" fill="#fa9d7d"/>
          <path id="Trazado_1025085" data-name="Trazado 1025085" d="M890.659,746.394c-.374-.059-.441-.313-.4-.634a1.8,1.8,0,0,1,1.458-.342c5.011.056,10.02-.163,15.024-.292,5.366-.138,10.75-.172,16.1-.771,1.464-.164,2.947-.018,4.42-.054,3.055-.074,6.1-.288,9.155-.448.674-.035.955-.341,1.062-1a33.862,33.862,0,0,0,.364-4.623c.1-4.05.332-8.094.53-12.137.176-3.6.257-7.21.591-10.8.051-.552.038-1.1.038-1.657,0-4.863.378-9.709.61-14.561.107-2.242.238-4.487.259-6.731.051-5.565-.123-11.135.056-16.695.177-5.49.21-10.977.164-16.464-.053-6.26-.114-12.522-.253-18.78-.149-6.7-.425-13.393-.655-20.09-.14-4.083-.19-8.172-.419-12.251-.309-5.514-.44-11.035-.675-16.552-.19-4.452-.361-8.9-.442-13.357-.032-1.763-.231-3.526-.2-5.3a.97.97,0,0,0-.966-1.1,16.278,16.278,0,0,0-2.2-.188q-36.765,0-73.529,0c-1.657,0-1.654.01-2.172,1.562-.809,2.424-2.569,4.2-4.226,6.014-1.721,1.889-1.815,1.5-.6,3.94a45.788,45.788,0,0,1,4.811,19.026,58.05,58.05,0,0,1-.4,9.8,26.845,26.845,0,0,1-5.465,13.222c-.307.464-.62.281-.886-.028-2.013-2.331-5.037-2.168-7.486.52a32.015,32.015,0,0,0-4.074,6.426c-1.88,3.424-3.748,6.854-5.733,10.218a18.286,18.286,0,0,0-2.571,7.807,1.059,1.059,0,0,0,.225,1.029,41.034,41.034,0,0,0,3.136-4.24,10.072,10.072,0,0,1,.685-1,.994.994,0,0,1,1.068-.417,12.28,12.28,0,0,0,3.593.531.528.528,0,0,1,.535.322c-.32.586-.9.451-1.378.421a2.451,2.451,0,0,0-2.33,1.171,27.466,27.466,0,0,1-3.832,4.117,2.449,2.449,0,0,0-.788,2.639,135.476,135.476,0,0,1,2.933,15.169c.293,2.631.467,5.273.556,7.919a1.4,1.4,0,0,1-.519,1.437c-.6-2.622-.8-5.316-1.471-7.913s-1.409-5.182-2.27-7.733c-.866-2.567-1.768-5.122-2.5-7.791a4.272,4.272,0,0,0-1.555,1.015c-.346.272-.672.6-1.178.378-.293-.7.283-1.047.685-1.3a3.611,3.611,0,0,0,1.619-3.472,21.519,21.519,0,0,1,2.5-9.312c1.048-2.193,2.394-4.233,3.266-6.518a43.637,43.637,0,0,0,3.042-16.411c-.025-1.5-.118-1.671-1.5-2.209a65.155,65.155,0,0,1-8.8-3.845,41.552,41.552,0,0,1-9.292-6.884,60.879,60.879,0,0,1-5.88-6.44,22,22,0,0,1-3.708-8.783,17.711,17.711,0,0,1-.466-4.6,1.078,1.078,0,0,0-.253-.848,7.137,7.137,0,0,0-2.942,1.442c-2.737,2-5.31,4.213-7.963,6.322a118.942,118.942,0,0,1-18.876,12.472c-1.078.563-2.224.981-3.312,1.528a1.664,1.664,0,0,0-1.022,1.546c-.26,4.415-.9,8.786-1.59,13.151a53.051,53.051,0,0,0-.853,10.446c.02.493.221,1.139-.508,1.4-.662-.3-.511-.915-.539-1.439-.125-2.361.221-4.706.291-7.061a3.46,3.46,0,0,0-.291-1.6,24.381,24.381,0,0,0-2.729-4.541,30.569,30.569,0,0,1-5.929-18.508,46.509,46.509,0,0,1,3.371-18.016c1.962-4.947,5.171-8.511,10.335-10.16a26.268,26.268,0,0,0,3.234-1.2c-1.624-.026-3.25-.225-4.86-.219-3.76.014-7.51-.227-11.266-.3-5.961-.108-11.922-.281-17.878-.605-2.241-.122-4.488-.123-6.733-.224-16.938-.761-33.89-.478-50.836-.421-5.366.018-10.742.258-16.111.543-3.821.2-7.65.338-11.472.539-3.785.2-7.575.324-11.358.576a53.664,53.664,0,0,0-5.5.481c-1.341.229-1.661.532-1.634,1.9.066,3.355-.259,6.7-.232,10.05.045,5.711-.215,11.417-.3,17.126-.055,3.533.04,7.077-.182,10.6-.265,4.2.015,8.405-.231,12.593-.294,5.012-.02,10.022-.192,15.027-.374,10.868-.284,21.739-.152,32.605.078,6.409.011,12.821.194,19.227.176,6.147.288,12.295.448,18.442.124,4.746.237,9.5.444,14.239.2,4.558.3,9.126.824,13.666.16,1.39.415,1.646,1.815,1.963a100.069,100.069,0,0,0,11.823,1.577c2.314.241,4.643.05,6.947.372a3.859,3.859,0,0,0,1.313-.118c.5-.078.7.321.94.628a15.136,15.136,0,0,1,1.821,3.245,1.086,1.086,0,0,1-.018.388.649.649,0,0,1-.4.439,4.878,4.878,0,0,1-1.642.143q-12.529.006-25.058,0a4.774,4.774,0,0,1-1.748-.168.988.988,0,0,1-.474-.451,6.169,6.169,0,0,1-.186-2.3q-.008-57.675.008-115.35c0-2.361-.325-4.7-.241-7.068.408-11.42.186-22.844.212-34.266.009-3.715-.2-7.432-.172-11.147q.039-4.414.142-8.829a1.04,1.04,0,0,1,.989-1.115,12.712,12.712,0,0,1,1.987-.063q75.094,0,150.188.01a16.818,16.818,0,0,0,4.583-.594,53.531,53.531,0,0,1,14.432-1.834,91.06,91.06,0,0,1,10.055.163,1.092,1.092,0,0,0,.763-.158c.242-.437-.035-.842-.148-1.251a11.946,11.946,0,0,1-.186-4.826c.075-.568.158-1.192.784-1.5a14.371,14.371,0,0,1,3.671-4.018,22.224,22.224,0,0,1,7.462-3.5,32.867,32.867,0,0,1,16.068-.475,12.077,12.077,0,0,1,6.179,3.228,13.043,13.043,0,0,1,1.912,2.559c.4.662.778,1.333,1.166,2,.547.169.639.68.808,1.113a33.6,33.6,0,0,1,1.862,7.72c.171,1.243.269,1.333,1.532,1.353,1.29.02,2.58.005,3.87.005q37.263,0,74.526.015c.723,0,1.576-.3,2.125.512a.647.647,0,0,0,.127.715,4.992,4.992,0,0,1,.141,1.645q0,42.952-.025,85.9c-.006,3.529.052,7.059-.1,10.6-.186,4.33.05,8.68.074,13.017.117,21.743.054,43.486.051,65.23a8.779,8.779,0,0,1-.123,2.2,1.235,1.235,0,0,1-.522.714,3.645,3.645,0,0,1-1.628.208q-23.484.006-46.969,0a2.442,2.442,0,0,1-1.791-.378" transform="translate(-566.196 -486.737)" fill="#324346"/>
          <path id="Trazado_1025086" data-name="Trazado 1025086" d="M739.689,624.277a9.684,9.684,0,0,0,.282,7.626,1.132,1.132,0,0,1,.059.318.513.513,0,0,1-.032.141,7.271,7.271,0,0,1-1.953-.023,128.524,128.524,0,0,0-13.148,0,51.874,51.874,0,0,0-8.858,1.19c-.825.189-1.65.387-2.46.633a12.932,12.932,0,0,1-3.816.513q-11.72-.018-23.441-.007-36.985.006-73.971.013-27.366,0-54.731-.02a1.541,1.541,0,0,0-1.189.235,6.814,6.814,0,0,1,.014,2.7,10.545,10.545,0,0,0,.049,1.851c.011,1.288-.006,2.577,0,3.866.018,2.5.055,5,.067,7.5q.023,4.586.017,9.172,0,9.066,0,18.132c0,2.578,0,5.155-.016,7.733-.013,2.137-.074,4.273-.069,6.41.026,10.65.078,21.3.1,31.951.015,8.366-.009,16.732-.01,25.1q0,18.077.007,36.153,0,13.267.008,26.534c0,.845.012,1.69.019,2.536a.373.373,0,0,1,.244.123l27.679-.017c.367,0,.735.008,1.1.013.748-.278.977.37,1.253.781,1.743,2.594,3.469,5.2,5.342,7.7.281.376.849.649.66,1.283-.613.087-1.226.18-1.84.26a11.112,11.112,0,0,1-1.412.152q-21.011.012-42.022.011c-1.626,0-1.59.021-1.59-1.564q.006-60.214,0-120.427,0-38.65,0-77.3c0-1.479-.075-1.548,1.5-1.548q94.827.008,189.654.015a23.732,23.732,0,0,1,2.509.259" transform="translate(-485.641 -554.991)" fill="#fadec9"/>
          <path id="Trazado_1025087" data-name="Trazado 1025087" d="M2711.332,814.233q-.012-10.832-.022-21.663-.007-21.5-.009-43c0-4.2-.045-8.4-.048-12.6,0-3.02.043-6.04.043-9.06q.011-33.988.012-67.976,0-11.883,0-23.765c0-.294-.018-.588-.027-.883,0-.074,0-.147.009-.22-.058-.12-.1-.329-.175-.343a4.845,4.845,0,0,0-.875-.052q-33.509-.01-67.018-.016-6.47,0-12.939.019h-.955a8.452,8.452,0,0,1-.222-.977,32.565,32.565,0,0,0-2.33-9.4,1.068,1.068,0,0,1-.043-.215c.441-.023.882-.067,1.322-.067q46.229-.007,92.457-.007c1.467,0,1.468,0,1.473,1.458,0,.811-.023,1.623.011,2.433a24.211,24.211,0,0,1,.179,3.066c-.38,4.3-.122,8.609-.173,12.913s-.011,8.626-.011,12.939-.035,8.627.017,12.939c.021,1.792-.065,3.583-.013,5.374.011.364.067.727.107,1.09.016.144.093.3.053.427a9.824,9.824,0,0,0-.154,3.073q-.026,11.612,0,23.225a14.041,14.041,0,0,0,.162,1.521.467.467,0,0,1,.016.109,12.717,12.717,0,0,0-.084,2.806c.031.357-.095.725-.1,1.088q-.013,4.479,0,8.958c0,.362.084.724.121,1.087a3.747,3.747,0,0,1,.038.651c-.042.545-.155,1.088-.156,1.632-.012,6.12-.111,12.242.033,18.358.076,3.235.165,6.469.156,9.7,0,1.17-.15,2.34-.185,3.511-.014.469.114.94.147,1.412a3.99,3.99,0,0,1,.006,1.316,7.542,7.542,0,0,0-.162,2.08c-.009,1.991-.026,3.982.007,5.972.019,1.134.155,2.266.19,3.4a33.106,33.106,0,0,1,0,3.317c-.415,5.96-.132,11.926-.186,17.888-.053,5.935-.01,11.87-.011,17.806q0,8.958-.007,17.916c0,1.366-.006,1.368-1.45,1.368h-56.293c-.442,0-.884,0-1.327,0-.271-.935-.583-1.861-.8-2.808-.446-1.914-.856-3.837-1.252-5.763a15.639,15.639,0,0,1-.168-1.627l42.6-.023q3.587,0,7.175-.019c.218,0,.436-.039.654-.059.166-.043.14-.211.207-.318" transform="translate(-2336.229 -554.995)" fill="#fadec9"/>
          <path id="Trazado_1025088" data-name="Trazado 1025088" d="M881.979,1968.267c-1.33-1.825-2.679-3.637-3.983-5.481-.843-1.192-1.623-2.428-2.424-3.648a1.228,1.228,0,0,0-.847-.638l.052-.467.016-.085-.08-.032q-.356-.61-.712-1.219-.763-1.3-1.528-2.6a6.412,6.412,0,0,1-1.036-6.147c.691-1.979,1.416-3.953,2.191-5.9a13.047,13.047,0,0,0,.935-3.4,4.146,4.146,0,0,1,3.631-3.871,9.784,9.784,0,0,1,1.082-.221c.12-.014.241-.027.36-.044a9.507,9.507,0,0,1,3.073-.115c1.362.263,2.788.333,3.906,1.328a24.3,24.3,0,0,1,3.138,3.561,60.409,60.409,0,0,1,4.7,7.353,1.848,1.848,0,0,1,.19,1.792,55.171,55.171,0,0,1-3.128,5.718,1.2,1.2,0,0,1-.858.636c-.784-1.413-.476-3.139-1.126-4.52.073.558.444,1.172.089,1.829-.637.372-.851-.157-1.093-.543a14.288,14.288,0,0,0-4.276-4.084,6.594,6.594,0,0,0-4.149-.778,48.581,48.581,0,0,0-5.34.628,56.718,56.718,0,0,1,5.789-.568,6.71,6.71,0,0,1,3.727.761,15.634,15.634,0,0,1,5.013,5.287,8.585,8.585,0,0,0,.782,1.06,3.645,3.645,0,0,1-2.116,3.876c-.666.225-1.11-.16-1.523-.612-1.336-1.459-2.642-2.944-3.875-4.492-.243-.305-.445-.729-.964-.438-.825.657-1.66,1.3-2.546,1.876-.22.142-.468.277-.406.578.081.391.435.306.789.353-.548-.157-.935-.512-.372-.821.975-.536,1.652-1.425,2.6-1.962.433-.074.689.2.925.487a48.369,48.369,0,0,0,3.188,3.808.956.956,0,0,1,.239,1,42.26,42.26,0,0,1-8.931-1.393,29.487,29.487,0,0,0,10.518,1.743,1.592,1.592,0,0,0,.969-.451,16.668,16.668,0,0,0,4.851-6.207,19.828,19.828,0,0,1,1.132-2.15,1.969,1.969,0,0,0,.085-2.189c-1.957-3.637-3.983-7.224-6.99-10.146a6.756,6.756,0,0,0-3.29-2.1,1.4,1.4,0,0,1-.674-.363,23.434,23.434,0,0,1-1.426-3.582c-1.864-4.612-3.6-9.271-5.12-14.011a10.342,10.342,0,0,1-.512-3.587,2.744,2.744,0,0,1,4.736-2.112,7.817,7.817,0,0,1,2.212,2.725c2.822,5.677,5.3,11.506,7.8,17.328.451,1.052,1.06,2.02,1.51,3.069.2.47.665.661,1.082.9a34.4,34.4,0,0,0,7.325,2.763,20.721,20.721,0,0,1,2.892,1.082c.239.119.421.324.667.433a1.779,1.779,0,0,1,.275.169,1.36,1.36,0,0,1,.226.243,1.48,1.48,0,0,1,.155.3,26.576,26.576,0,0,1,1.8,7.492c.018.186,0,.371.007.557.567,3.517-.1,6.949-.705,10.385a53.281,53.281,0,0,0-1.541,6.182,7.682,7.682,0,0,0,.281,3.9,24.52,24.52,0,0,0,3.255,5.49c3.594,4.9,7.249,9.746,10.844,14.641,1.154,1.571,2.375,3.092,3.479,4.7a7.158,7.158,0,0,0,1.588,2.481c1.955,2.61,3.973,5.172,5.943,7.77.841,1.109,1.613,2.27,2.435,3.395a10,10,0,0,0,2.82,2.6,16.545,16.545,0,0,0,2.4,1.109,27.312,27.312,0,0,0,6.251,1.635,43.205,43.205,0,0,0,5.5.2c1.03.033,2.063-.006,3.094-.012.569.4.618,1.064.766,1.652.682,2.7,1.358,5.41,2.214,8.067a1.361,1.361,0,0,1,.033,1.17c-.4.114-.551.453-.721.784q-1.969,3.833-3.945,7.662a24.6,24.6,0,0,1-2.261,3.768c-.5.657-.79,1.474-1.253,2.167-.673,1.007-1.383,1.993-2.141,2.937-.667.831-1.4,1.612-2.14,2.379a15.683,15.683,0,0,1-5.08,3.452,6.4,6.4,0,0,1-3.786.342,15.5,15.5,0,0,1-5.342-2.282,33.336,33.336,0,0,1-5.585-4.474c-.8-.768-1.563-1.565-2.352-2.34a43.3,43.3,0,0,1-4.392-5.379c-1.067-1.451-2.162-2.888-3.134-4.4-1.687-2.63-3.422-5.227-4.971-7.951-1.914-3.366-3.628-6.828-5.313-10.305-1.219-2.515-2.3-5.1-3.439-7.649q-1.459-3.276-2.9-6.56c-.784-1.785-1.552-3.576-2.335-5.362-.517-1.179-1.054-2.35-1.572-3.528q-1.932-4.393-3.855-8.791c-.457-1.045-.871-2.109-1.362-3.137a5.568,5.568,0,0,0-.959-1.47c-.816-.846-1.723-1.6-2.572-2.421-.716-.688-1.4-1.407-2.1-2.111-.153-.154-.313-.3-.47-.451" transform="translate(-774.725 -1698.839)" fill="#fa9d7d"/>
          <path id="Trazado_1025089" data-name="Trazado 1025089" d="M1551.4,2315.486c-.275-.948-.564-1.892-.823-2.845-.568-2.086-1.119-4.177-1.681-6.264-.161-.6-.338-1.187-.508-1.781l-1.14-5.259c-.085-.394-.156-.792-.258-1.182-.219-.839-.527-1.662-.67-2.513-.655-3.914-1.891-7.7-2.57-11.607-.427-2.459-1.093-4.876-1.562-7.329-.414-2.163-.664-4.356-1.059-6.522-.384-2.107-.383-4.244-.559-6.365a32.168,32.168,0,0,1,.1-3.744c.014-.405.022-.811.04-1.215a30.491,30.491,0,0,1,1.922-9.355,24.715,24.715,0,0,1,2.91-5.68,23.34,23.34,0,0,1,3.832-4.109,15.171,15.171,0,0,1,1.887-1.208.785.785,0,0,1-.415.862,16.447,16.447,0,0,0-3.453,3.7,27.137,27.137,0,0,0-4.07,8.643,42.008,42.008,0,0,0-1.154,6.611,59.129,59.129,0,0,0-.113,8.939c.116,2.378.546,4.739.779,7.113a85.925,85.925,0,0,0,2.753,13.256c1.253,4.8,2.521,9.592,3.768,14.392.831,3.2,1.683,6.393,2.438,9.61.444,1.89.708,3.822,1.067,5.733.156.83.35,1.653.515,2.482.106.535.2,1.073.279,1.612.007.046-.083.108-.128.163-.65-1.44-1.017-2.98-1.562-4.458-.2-.552-.379-1.115-.567-1.673" transform="translate(-1370.157 -1990.936)" fill="#324346"/>
          <path id="Trazado_1025090" data-name="Trazado 1025090" d="M720.6,919.353l-.075-.55a19.51,19.51,0,0,0-1.9-7.67l.021.018a.526.526,0,0,0-.3-.232l-.087.01-.067-.057a3.2,3.2,0,0,0-.484-.391,1.016,1.016,0,0,1-.325-.035,39.985,39.985,0,0,0-5.432-1.807,25.481,25.481,0,0,1-5.347-2.34,1.315,1.315,0,0,1-.572-.615c-2.023-4.163-3.739-8.462-5.659-12.671-1.13-2.476-2.3-4.934-3.448-7.4a8.476,8.476,0,0,0-2.181-2.884,3.8,3.8,0,0,0-1.107-.686,2.312,2.312,0,0,0-3.293,2.078,8.552,8.552,0,0,0,.394,3.482c1.225,3.817,2.546,7.6,4.016,11.329.861,2.185,1.639,4.4,2.455,6.605,0,.716-.55.418-.9.487l-3.366.128-.136.022c-.67.187-1.346.354-2.008.566a3.4,3.4,0,0,0-2.467,3.055,16.2,16.2,0,0,1-.965,3.713q-1.149,2.975-2.286,5.954a5.3,5.3,0,0,0-.168,2.928,9.453,9.453,0,0,0,.843,2.606,2.46,2.46,0,0,1,.138.517.984.984,0,0,1-.928.444c-.468-.071-.94-.123-1.412-.165-.366-.033-.733-.047-1.1-.053-.553-.009-1.107.016-1.659-.008-1.465-.065-2.937-.076-4.39-.248s-2.917-.237-4.362-.436a50.5,50.5,0,0,1-6.152-1.014c-.494-.132-1.007-.193-1.5-.338a1.389,1.389,0,0,1-1.046-1.391c-.056-1.244-.177-2.487-.275-3.725-.092-1.172-.025-2.359-.2-3.507-.262-1.69-.018-3.388-.218-5.058-.273-2.279,0-4.568-.232-6.826-.255-2.43.024-4.861-.211-7.27-.3-3.09.034-6.188-.233-9.259-.262-3.019.009-6.035-.2-9.04-.415-6,.058-12.006-.246-17.995-.263-5.193-.1-10.378-.158-15.565-.06-5.16-.187-10.329.033-15.481.259-6.039-.077-12.08.223-18.106.2-4.05-.071-8.1.213-12.134.262-3.719-.058-7.44.22-11.139.272-3.608-.059-7.219.22-10.808.28-3.608-.046-7.218.226-10.807.2-2.651.089-5.292.178-7.935a3.032,3.032,0,0,1,.013-.331c.133-.923.46-1.3,1.371-1.435.794-.121,1.612-.108,2.4-.269,1.2-.247,2.433-.055,3.616-.243,1.509-.24,3.019-.027,4.506-.209,1.614-.2,3.24-.043,4.833-.241,1.289-.161,2.576-.031,3.842-.2,1.577-.21,3.168-.038,4.722-.24,1.62-.211,3.242-.007,4.837-.208,1.91-.241,3.832-.01,5.719-.23,2.465-.287,4.932,0,7.381-.207,4.524-.384,9.05-.128,13.574-.185s9.068-.014,13.6-.013,9.073-.117,13.6.046c3.2.115,6.394.152,9.592.181,1.45.35,2.945.049,4.389.252,1.985.279,3.977,0,5.942.218,2.242.246,4.495,0,6.714.234,2.1.226,4.2,0,6.275.2,3.05.292,6.113-.007,9.147.246,2.431.2,4.859-.02,7.269.206,1.874.175,3.741.144,5.611.2a1.99,1.99,0,0,1,.434.16,3.349,3.349,0,0,1-.475.293c-1.58.588-3.165,1.161-4.744,1.752a17.135,17.135,0,0,0-4.7,2.557,12.457,12.457,0,0,0-1.985,2.2,22.235,22.235,0,0,0-2.952,5.509,49.879,49.879,0,0,0-2.316,7.67c-.172.782-.231,1.589-.344,2.384-.124.867-.256,1.733-.373,2.6a6.764,6.764,0,0,0-.057.879c0,1.843-.063,3.689.019,5.529a30.218,30.218,0,0,0,.486,4.135c.265,1.433.652,2.847,1.044,4.253a14.171,14.171,0,0,0,.814,2.15,32.884,32.884,0,0,0,3.406,5.881,17.152,17.152,0,0,1,2.688,4.523,3.869,3.869,0,0,0,.364.55,1.234,1.234,0,0,1,.146,1.157,1.328,1.328,0,0,0-.109.534c.052,2.427-.389,4.838-.227,7.267a2.25,2.25,0,0,0,.035.546c.037.112.194.184.3.274.458.238.348.655.332,1.042a13.481,13.481,0,0,0,.21,5.351,28.582,28.582,0,0,0,1.917,6.31,19.51,19.51,0,0,1,1.218,6.023,18.138,18.138,0,0,1,.3,4.259,19.866,19.866,0,0,0-.146-3.307,1.608,1.608,0,0,1,.719-1.908.711.711,0,0,1,.332.029c.59.644.713,1.593,1.41,2.169a1.309,1.309,0,0,1,.177.25,4.392,4.392,0,0,0,1.4,1.917.908.908,0,0,1,.306.294,3.62,3.62,0,0,0,.284.586,2.086,2.086,0,0,1,.145.2c.064.1.12.208.181.311.047.062.092.126.141.186a1.972,1.972,0,0,0,.381.283.9.9,0,0,1,.252.284,1.435,1.435,0,0,0,.351.4c1.205,1.184,2.277,2.491,3.5,3.66a15.676,15.676,0,0,0,3.148,2.391c.124.065.245.138.367.206a2.244,2.244,0,0,1,.228.131,2.34,2.34,0,0,1,.2.147c.033.022.065.048.1.07a1.687,1.687,0,0,0,.321.146,1.629,1.629,0,0,1,.22.08c.106.049.209.1.314.154a2.3,2.3,0,0,1,.214.1l.328.163a1.852,1.852,0,0,1,.224.128,2.459,2.459,0,0,0,.492.24,1.179,1.179,0,0,1,.406.233,1.017,1.017,0,0,1,.253.445,20.9,20.9,0,0,1,.1,2.723,3.167,3.167,0,0,0,.136.72c.225,1.564-.242,3.1-.2,4.654a2.184,2.184,0,0,0-.048.847,6.429,6.429,0,0,1-.2,1.672,3.44,3.44,0,0,0-.156,1.169,9.161,9.161,0,0,1-.077,1.72c-.087.368-.313.689-.37,1.068a2.006,2.006,0,0,1-.158.593c-.178.1-.213.2-.029.335a.718.718,0,0,1,.028.548c-.085.2-.265.343-.312.563-.021.126-.033.253-.042.381a1.645,1.645,0,0,1-.035.261,1.113,1.113,0,0,1-.091.246c-.087.147-.195.281-.283.427-.037.073-.08.144-.12.215a2.269,2.269,0,0,0-.137.337q-.044.18-.1.355c-.037.121-.07.243-.1.368a1.436,1.436,0,0,1-.165.508,2.92,2.92,0,0,0-.319.477,1.871,1.871,0,0,1-1.165,1.034,32.417,32.417,0,0,0-10.894,3.262c-1.734.792-3.382,1.755-5.071,2.636a1.935,1.935,0,0,1-1.335.4,7.181,7.181,0,0,0-1.415-.082c-1.775.24-3.54.552-5.314.805-.87.124-1.749.188-2.625.261-2.383.2-4.775.169-7.158.288a25.117,25.117,0,0,0-6,.608,14.215,14.215,0,0,0-5.137,2.682c-.93.776-1.816,1.607-2.693,2.442a23.009,23.009,0,0,0-4.31,5.822c-.56,1.035-1.14,2.059-1.669,3.109a61.794,61.794,0,0,0-3.771,9.633c-1.1,3.573-2.123,7.172-3.154,10.767q-1.41,4.914-2.761,9.845c-.282,1.023-.49,2.066-.737,3.1-.085.356-.187.708-.282,1.062a1.41,1.41,0,0,1-1.03.31,81.248,81.248,0,0,1-9.267-.319c-3.669-.277-7.326-.717-11.01-.774a9.51,9.51,0,0,1-2.405-.3,1.15,1.15,0,0,1-.971-1.376,27.952,27.952,0,0,0,.127-7.249" transform="translate(-588.155 -670.251)" fill="#4d6b61"/>
          <path id="Trazado_1025091" data-name="Trazado 1025091" d="M2339.179,849.768a1.128,1.128,0,0,0,.977-.39c.595-.54,1.224-1.044,1.923-1.634a4.505,4.505,0,0,1,.358.807,65.534,65.534,0,0,0,2,6.392c.935,2.883,1.9,5.758,2.587,8.713a37.837,37.837,0,0,1,.809,4.188c.152,1.3.356,2.585.6,3.874a13.683,13.683,0,0,0-.1-3.49,2.144,2.144,0,0,1-.057-.435c-.08-1.5-.128-3-.245-4.5-.068-.87-.243-1.731-.374-2.6-.164-1.082-.32-2.165-.5-3.243-.129-.755-.3-1.5-.448-2.253-.3-1.5-.51-3.029-.924-4.5-.368-1.305-.519-2.655-.929-3.941a1.421,1.421,0,0,1,.447-1.664c.863-.8,1.7-1.633,2.5-2.5.72-.778,1.4-1.6,2.051-2.434a2.061,2.061,0,0,1,2.036-1.027,5.483,5.483,0,0,0,1.213,0,1.61,1.61,0,0,0,.479-.205c-.033-.434.332-.431.589-.5,4.526-1.287,7.371-4.436,9.2-8.563a19.2,19.2,0,0,0,1.442-10.781c0-.258,0-.517.018-.775.007-.05.014-.1.022-.15a1.406,1.406,0,0,1,.567-1.354,4.5,4.5,0,0,0,1.144-1.6c.295-.59.649-1.15.96-1.733a26.47,26.47,0,0,0,2.42-7.043c.221-1.036.336-2.088.483-3.135.186-1.323.139-2.636.194-3.954a13.024,13.024,0,0,0,.179-2.177c-.22-1.649-.025-3.316-.229-4.945a49.319,49.319,0,0,0-1.648-8.48,40.7,40.7,0,0,0-1.846-5.169c-.635-1.366-1.283-2.727-1.928-4.088-.439-.928-.457-.984.312-1.713a40.091,40.091,0,0,0,3.788-4.288,7.633,7.633,0,0,0,1.577-3.12,1.928,1.928,0,0,1,.025-.219c.412-1.215.223-1.19,1.572-1.19q29.639,0,59.278,0c5.124,0,10.248-.009,15.372.013.875,0,1.749.136,2.621.228.405.042.543.332.545.7,0,.737-.016,1.475.013,2.212.058,1.5.17,3,.208,4.5a44.56,44.56,0,0,0,.049,4.529c.264,2.061,0,4.124.212,6.164.186,1.8.023,3.61.233,5.387.218,1.841.015,3.68.2,5.5.2,1.946.031,3.9.244,5.828.175,1.584,0,3.167.2,4.727.314,2.5-.006,5.009.24,7.488.216,2.172-.022,4.347.211,6.494.255,2.354-.019,4.716.23,7.046.22,2.062.017,4.119.2,6.165.414,4.743.085,9.492.214,14.237.02.729.216,1.458.188,2.181-.056,1.424.039,2.845.022,4.267-.017,1.4,0,2.8,0,4.2q0,2.157,0,4.313c0,1.4.07,2.806-.011,4.2-.428,7.324-.091,14.653-.208,21.978-.348,1.822-.063,3.677-.257,5.495-.149,1.4-.025,2.8-.216,4.171-.227,1.617-.013,3.243-.219,4.835-.3,2.316-.01,4.637-.222,6.937-.146,1.579-.039,3.166-.232,4.722-.17,1.362-.033,2.723-.2,4.063-.2,1.614-.039,3.242-.244,4.833-.18,1.4-.03,2.8-.192,4.175-.224,1.907-.09,3.821-.243,5.719-.083,1.023-.143,2.044-.192,3.069-.033.692-.143,1.381-.232,2.069a.557.557,0,0,1-.512.5,1.788,1.788,0,0,1-.22.017c-1.833.076-3.672.082-5.5.245-2.865.255-5.731.149-8.6.225-1.2.032-2.39.287-3.589.388-.732.062-1.474,0-2.209.037-2.79.148-5.593.081-8.37.274-3.094.215-6.184-.031-9.262.19s-6.174.147-9.261.2c-.213-.81-.432-1.619-.64-2.431-.983-3.831-1.912-7.676-2.959-11.488q-1.4-5.086-3.014-10.111c-.983-3.031-2.049-6.042-3.224-9-.661-1.666-1.636-3.2-2.436-4.818a20.751,20.751,0,0,0-3.113-4.522,44.29,44.29,0,0,0-4.069-4.037,12.6,12.6,0,0,0-5.934-2.463c-2.184-.457-4.37-.9-6.556-1.349l-6.447-1.32c-.574-.117-1.144-.254-1.721-.346a3.844,3.844,0,0,0-.754.023c-1-2.446-3.265-3.411-5.411-4.388-4.4-2.007-9.129-2.978-13.839-3.972a4.121,4.121,0,0,1-1.819-2.4,50.745,50.745,0,0,1-3.207-12.793,67.484,67.484,0,0,1-.433-10.006,2.839,2.839,0,0,1,.142-.975,2.88,2.88,0,0,1,.315-.54c.045-.076.1-.15.149-.221.067-.1.133-.207.191-.316a1.256,1.256,0,0,1,.12-.2,1.8,1.8,0,0,1,.149-.172c.025-.027.052-.053.078-.081.049-.055.1-.107.156-.159.025-.027.053-.052.078-.078a1.475,1.475,0,0,1,.162-.15,1.883,1.883,0,0,1,.169-.139c.083-.072.165-.145.254-.21,0,0,.1-.045.1-.045" transform="translate(-2078.63 -679.459)" fill="#4d6b61"/>
          <path id="Trazado_1025092" data-name="Trazado 1025092" d="M1894.087,1794.834c2.429.573,4.866,1.113,7.285,1.728a36.542,36.542,0,0,1,6.578,2.232,19.639,19.639,0,0,1,4.5,2.774,2.044,2.044,0,0,1,.85,1.92c-.208.547-.415,1.1-.626,1.641a37.948,37.948,0,0,1-2.749,5.154,43.814,43.814,0,0,1-9.131,10.847,42.721,42.721,0,0,1-10.8,6.987,18.776,18.776,0,0,1-5.9,1.741,20.2,20.2,0,0,1-9.443-1.14,23.422,23.422,0,0,1-6.36-3.486c-.428-.348-.838-.72-1.23-1.108-.89-.881-1.763-1.779-2.644-2.668a2.287,2.287,0,0,0-1.26-.819c-.312.286-.653.612-1.007.923a25.1,25.1,0,0,1-10.892,6.009,18.9,18.9,0,0,1-3.149.5,8.378,8.378,0,0,1-5.233-1.395,24.468,24.468,0,0,1-4.7-4.321,30.812,30.812,0,0,1-3.645-5.11,12.216,12.216,0,0,1-1.663-4.967,19.3,19.3,0,0,1,.234-4.818,4.676,4.676,0,0,1,.685-1.846,5.215,5.215,0,0,0,.347-.805c2.047-1.071,4.074-2.185,6.148-3.2a34.758,34.758,0,0,1,8.376-2.973,7.74,7.74,0,0,1,2.833-.26c.246.706-.345.919-.745,1.219-.367.274-.863.388-1.048.879a14.091,14.091,0,0,0,.956,6.7,16.8,16.8,0,0,0,5.409,7.916,12.269,12.269,0,0,0,7.407,2.8c4.371.189,8.415-1.165,12.406-2.722a44.466,44.466,0,0,0,5.243-2.319,11.262,11.262,0,0,0,1.235-.714,2.149,2.149,0,0,1,.279-.154,51.794,51.794,0,0,0,10.918-6.388c1.732-1.326,3.085-2.96,3.019-5.346a9.011,9.011,0,0,0-2.006-4.178c-.274-.36-.709-.673-.479-1.234" transform="translate(-1630.104 -1596.333)" fill="#fff"/>
          <path id="Trazado_1025093" data-name="Trazado 1025093" d="M1197.363,2459.872a3.471,3.471,0,0,1-.765-.579q-3.171-4.225-6.3-8.479c-1.5-2.037-2.981-4.092-4.476-6.135-1.3-1.776-2.636-3.527-3.9-5.326-.718-1.019-1.346-2.1-1.984-3.176a4.389,4.389,0,0,1-.3-.931c.324-.6.914-.528,1.455-.571,1.514-.118,3,.237,4.518.224,5.634-.051,11.268.038,16.9-.044.377-.005.854-.134.947.47a26.713,26.713,0,0,1-1.066,4.6c-1.015,4.13-2.1,8.242-3.141,12.366-.573,2.275-1.105,4.559-1.66,6.839-.06.249-.144.492-.217.738" transform="translate(-1049.164 -2165.389)" fill="#fff"/>
          <path id="Trazado_1025094" data-name="Trazado 1025094" d="M1198.426,2355.365c-.153-.077-.308-.223-.459-.219-.47.015-.938.129-1.407.13-5.617.009-11.233.016-16.849-.008-1.312-.006-2.623-.151-3.936-.188a5.764,5.764,0,0,0-1.17.206c-.068-.083-.174-.155-.2-.248a7.353,7.353,0,0,1-.37-3.11,42.95,42.95,0,0,1,1.25-5.513c.136-.448.317-.883.476-1.324a2.036,2.036,0,0,1,1.467-.337q11.185-.011,22.371,0a1.987,1.987,0,0,1,1.369.3c-.084.575-.127,1.159-.26,1.722q-.967,4.089-1.983,8.166c-.039.157-.2.284-.3.425" transform="translate(-1044.144 -2085.43)" fill="#fadec9"/>
          <path id="Trazado_1025095" data-name="Trazado 1025095" d="M2733.3,2862.057c-1.365.708-2.737,1.4-4.092,2.131-.612.328-1.2.707-1.778,1.092-.433.288-.419.308-1.278.239a2.287,2.287,0,0,1,0-.51c.7-3,1.409-5.989,2.1-8.986.272-1.177.5-2.364.771-3.54.031-.132.23-.225.351-.336a11.662,11.662,0,0,0,4.263,2.6,3.152,3.152,0,0,1,.558.335c-.253,1.786-.515,3.572-.751,5.361a7.232,7.232,0,0,0,.015,1.083c.1.225.18.447-.168.532" transform="translate(-2424.636 -2536.712)" fill="#fff"/>
          <path id="Trazado_1025096" data-name="Trazado 1025096" d="M2353.493,2397.908l-.706-.08a4.879,4.879,0,0,1-.672-1,6.641,6.641,0,0,0-.68-1.136c-1.6-2.218-3.186-2.574-5.872-1.345a7.209,7.209,0,0,0-3.136,2.86c-.172.275-.258.622-.61.752a7.718,7.718,0,0,0-.5,1.555,25.921,25.921,0,0,0-.24,5.592,3.063,3.063,0,0,0,1.665,2.438,1.846,1.846,0,0,0,2.037-.645,3.094,3.094,0,0,0,.408-2.635,1.636,1.636,0,0,0-1.534-1.223,4.046,4.046,0,0,1-.754-.1.423.423,0,0,1-.213-.337c0-.116.133-.239.226-.34a.387.387,0,0,1,.2-.073,3.051,3.051,0,0,1,3.045,1.983,3.865,3.865,0,0,1-1.649,4.1,2.37,2.37,0,0,1-2.863-.323,4.025,4.025,0,0,1-1.707-3.5c.03-1.25-.023-2.5.02-3.75.03-.873.159-1.743.244-2.615a17.925,17.925,0,0,1,1.686-3.3,6.006,6.006,0,0,1,6.361-2.382c2.742.569,4.189,2.483,5.292,4.8.09.19-.026.478-.046.72" transform="translate(-2081.148 -2127.661)" fill="#fadec9"/>
          <path id="Trazado_1025097" data-name="Trazado 1025097" d="M1215.294,2262.887l-22.111.024c-1.032,0-2.063.01-3.1.014.17-1.045.338-2.091.511-3.135a25.755,25.755,0,0,0,.28-6.781,3.877,3.877,0,0,1,.04-.644c.085.142.241.285.243.428q.025,2.985,0,5.971a5.493,5.493,0,0,1-.175.854.882.882,0,0,0,.791,1.1q1.416.156,2.842.231c1.721.092,3.45.085,5.163.254,1.6.159,3.208.266,4.8.459,1.213.148,2.43.026,3.618.2a72.153,72.153,0,0,0,7.27.208l-.18.81" transform="translate(-1058.469 -2003.264)" fill="#324346"/>
          <path id="Trazado_1025098" data-name="Trazado 1025098" d="M2535.554,2442.841c.161.33.329.656.481.99a2.829,2.829,0,0,1-1.9,3.9,1.856,1.856,0,0,1-1.059-.1,3.02,3.02,0,0,1-1.966-2.538,2.32,2.32,0,0,1,.792-2.329c.516-.46,1.055-.9,1.665-1.408a5.854,5.854,0,0,0-.283-2.592c-.057-.213-.132-.421-.191-.633-.33-1.181-.09-1.153-1.545-1.2a.3.3,0,0,1,.19-.505,7.119,7.119,0,0,1,1.624-.043c.384.043.589.394.671.779.216,1.027.442,2.051.646,3.08.1.5.149,1,.237,1.5a1.781,1.781,0,0,0,.643,1.108" transform="translate(-2251.135 -2166.892)" fill="#fadec9"/>
          <path id="Trazado_1025099" data-name="Trazado 1025099" d="M2113.521,3175.532l.408-.452c-5.049-3.063-9.9-6.4-14.907-9.806a.884.884,0,0,1,.943.208c1.351.889,2.679,1.814,4.045,2.68q4.564,2.9,9.163,5.738c.874.538,1.82.958,2.728,1.442a2.03,2.03,0,0,1,.33.278c-.705.025-1.41.063-2.115.066a2.361,2.361,0,0,1-.594-.154" transform="translate(-1866.879 -2815.155)" fill="#4d6b61"/>
          <path id="Trazado_1025100" data-name="Trazado 1025100" d="M2302.122,3262.819a2.009,2.009,0,0,1,.508-.141q2.575-.016,5.151,0a2.04,2.04,0,0,1,.508.14c-.12.068-.24.195-.36.2q-2.722.019-5.444,0c-.121,0-.241-.126-.362-.193" transform="translate(-2047.517 -2901.832)" fill="#4d6b61"/>
          <path id="Trazado_1025101" data-name="Trazado 1025101" d="M2388.138,3260.888a1.408,1.408,0,0,1,1.264-.11,4.558,4.558,0,0,1-.7.18,2.434,2.434,0,0,1-.568-.07" transform="translate(-2124.02 -2900.059)" fill="#4d6b61"/>
          <path id="Trazado_1025102" data-name="Trazado 1025102" d="M2515.471,3241.175c.273-.212.553-.388.908-.176a.876.876,0,0,1-.908.176" transform="translate(-2237.271 -2882.472)" fill="#4d6b61"/>
          <path id="Trazado_1025103" data-name="Trazado 1025103" d="M2422.169,3256.99c.277-.162.553-.327.875-.1-.281.127-.545.4-.875.1" transform="translate(-2154.287 -2896.594)" fill="#4d6b61"/>
          <path id="Trazado_1025104" data-name="Trazado 1025104" d="M2265.835,3261.079c.251-.168.459-.028.67.093-.259.222-.485.21-.67-.093" transform="translate(-2015.243 -2900.349)" fill="#4d6b61"/>
          <path id="Trazado_1025105" data-name="Trazado 1025105" d="M2496.214,3245.3a.267.267,0,0,1,.436-.067c-.121.18-.249.312-.436.067" transform="translate(-2220.143 -2886.246)" fill="#4d6b61"/>
          <path id="Trazado_1025106" data-name="Trazado 1025106" d="M2435.128,3255.35c.154-.169.314-.31.55-.128a.369.369,0,0,1-.55.128" transform="translate(-2165.813 -2895.132)" fill="#4d6b61"/>
          <path id="Trazado_1025107" data-name="Trazado 1025107" d="M2085.732,3256.69a.283.283,0,0,1,.462.131c-.245.277-.36.1-.462-.131" transform="translate(-1855.059 -2896.45)" fill="#4d6b61"/>
          <path id="Trazado_1025108" data-name="Trazado 1025108" d="M2410.16,3259.026c.12-.19.256-.227.414-.043-.116.222-.252.265-.414.043" transform="translate(-2143.606 -2898.446)" fill="#4d6b61"/>
          <path id="Trazado_1025109" data-name="Trazado 1025109" d="M2483.123,3247.344c.154-.17.314-.312.552-.133a.372.372,0,0,1-.552.133" transform="translate(-2208.5 -2888.01)" fill="#4d6b61"/>
          <path id="Trazado_1025110" data-name="Trazado 1025110" d="M2472.136,3250.142l.416-.054c-.114.212-.249.253-.416.054" transform="translate(-2198.729 -2890.642)" fill="#4d6b61"/>
          <path id="Trazado_1025111" data-name="Trazado 1025111" d="M2448.145,3254.129l.415-.054c-.113.211-.248.254-.415.054" transform="translate(-2177.391 -2894.188)" fill="#4d6b61"/>
          <path id="Trazado_1025112" data-name="Trazado 1025112" d="M2459.279,3252.167l.5-.124c-.123.228-.305.208-.5.124" transform="translate(-2187.293 -2892.381)" fill="#4d6b61"/>
          <path id="Trazado_1025113" data-name="Trazado 1025113" d="M2540.128,3237.938l.2-.043-.2.043" transform="translate(-2259.2 -2879.798)" fill="#4d6b61"/>
          <path id="Trazado_1025114" data-name="Trazado 1025114" d="M2508.1,3243.965a.175.175,0,0,1,.194-.029l-.194.029" transform="translate(-2230.717 -2885.156)" fill="#4d6b61"/>
          <path id="Trazado_1025115" data-name="Trazado 1025115" d="M2258.116,3260.036a.179.179,0,0,1,.2.036l-.2-.036" transform="translate(-2008.378 -2899.476)" fill="#4d6b61"/>
          <path id="Trazado_1025116" data-name="Trazado 1025116" d="M2356.948,2404.693a6.423,6.423,0,0,1,3.036-3.593,3.683,3.683,0,0,1,1.724-.669.937.937,0,0,0,.58-.253,1.354,1.354,0,0,1,1.616-.2,6.28,6.28,0,0,1,3.431,3.072,2.9,2.9,0,0,1,.584,1.514,5.536,5.536,0,0,0-2.391.093,1.693,1.693,0,0,1-.544.049q-4.018,0-8.035-.016" transform="translate(-2096.28 -2134.401)" fill="#8aac9e"/>
          <path id="Trazado_1025117" data-name="Trazado 1025117" d="M2099.986,3049.064a5.717,5.717,0,0,1,3.236-.838,22.986,22.986,0,0,1,5.16.346q3.7.584,7.394,1.169a2.511,2.511,0,0,0,.9.067,2.454,2.454,0,0,0-.445-.35c-.8-.375-1.6-.76-2.415-1.085a18.421,18.421,0,0,1-5.13-3.193,10.317,10.317,0,0,1-1.6-1.813,1.979,1.979,0,0,1-.278-1.879,5.853,5.853,0,0,1,.225.612,4.13,4.13,0,0,0,1.531,2.353,29.708,29.708,0,0,0,6.2,3.79c1.392.671,2.746,1.421,4.121,2.128.36.185.736.337,1.1.511a6.629,6.629,0,0,1,1.535.923,1.429,1.429,0,0,1-.436-.006,50.082,50.082,0,0,0-8.381-1.911c-1.634-.261-3.258-.6-4.9-.789a19.94,19.94,0,0,0-5.828-.138,15.591,15.591,0,0,1-1.986.1Z" transform="translate(-1867.737 -2705.112)" fill="#4d6b61"/>
          <path id="Trazado_1025118" data-name="Trazado 1025118" d="M2202.688,3039.153l-2.1-.893a13.936,13.936,0,0,0-3.72-.952c-2.265-.292-4.538-.352-6.815-.43q-3.468-.118-6.927-.457a15.7,15.7,0,0,1-3.495-.844l3.506.4c.328.038.655.094.984.106,2.056.081,4.113.148,6.169.226,1.726.065,3.452.119,5.176.215a13.277,13.277,0,0,1,4.371,1,8.121,8.121,0,0,1,2.848,1.622" transform="translate(-1938.575 -2699.854)" fill="#4d6b61"/>
          <path id="Trazado_1025119" data-name="Trazado 1025119" d="M2593.309,3000.283a6.446,6.446,0,0,1-.663.541q-1.929,1.177-3.873,2.328-2.7,1.594-5.4,3.169c-.317.185-.672.307-.979.5a.815.815,0,0,1-1.095-.126q5.855-3.261,11.712-6.515c.041-.023.129.04.3.1" transform="translate(-2295.817 -2668.372)" fill="#4d6b61"/>
          <path id="Trazado_1025120" data-name="Trazado 1025120" d="M2790.883,2924.214l.168-.532a6.745,6.745,0,0,0,.961-.194,43.166,43.166,0,0,1,5.983-1.343,8.458,8.458,0,0,1,1.873-.1c-.153.054-.305.112-.46.162-2.577.833-5.232,1.355-7.87,1.947a5.124,5.124,0,0,1-.656.064" transform="translate(-2482.223 -2598.869)" fill="#4d6b61"/>
          <path id="Trazado_1025121" data-name="Trazado 1025121" d="M2099.155,3109.991l-.107.1c.006-.021.006-.049.02-.06a.359.359,0,0,1,.084-.038l0,0" transform="translate(-1866.902 -2766.037)" fill="#4d6b61"/>
          <path id="Trazado_1025122" data-name="Trazado 1025122" d="M1867.448,1001.651c.122-.5.61-.555.959-.772.45-.28.969-.483,1.055-1.105a2.447,2.447,0,0,0,1-1.2c.059-.1.253-.081.221-.257l.251-.617a.277.277,0,0,0,.11-.2l.145-.487.061-.119.129-.313c.1-.134.239-.248.215-.441l.089-.3.1-.019-.088-.06.111-.509a1.773,1.773,0,0,0,.189-.477l.118-.677.014-.091q.073-.369.144-.738a2.334,2.334,0,0,0,.218-.874l.228-2.006a3.275,3.275,0,0,0,.117-1.065l.165-1.845a2.274,2.274,0,0,0,.018-.367l.157-5.169a.52.52,0,0,0-.041-.389c-.019-.68-.032-1.361-.061-2.04-.017-.392-.06-.782-.092-1.173l-.081-.075-.546-.189c-.138-.077-.253-.21-.436-.18l-.3-.11c-.011-.095-.059-.122-.146-.081l-.3-.13c-.005-.1-.051-.133-.144-.085l-.3-.123c-.059-.173-.216-.139-.344-.166a.761.761,0,0,0-.1-.069q0-.151-.145-.1l-.29-.133c-.011-.091-.059-.129-.15-.105a13.252,13.252,0,0,1-3.284-2.4c-.982-.994-1.909-2.043-2.865-3.062-.275-.293-.569-.569-.854-.852-.191-.075-.141-.318-.293-.419l-.19-.24a2.716,2.716,0,0,1-.456-.467l.011.024c-.153-.11-.11-.326-.244-.446l.006.006c-.229-.165-.257-.468-.453-.654l-.175-.234a10.6,10.6,0,0,1-1.587-2.22l.009.01a11.3,11.3,0,0,1-1.341-2.21l0,0a9.244,9.244,0,0,1-1.793-3.228,33.145,33.145,0,0,1-3.151-11.454,18.494,18.494,0,0,1,0-2.084l-.019-1.159c.023-1.214.064-2.428.067-3.643a41.133,41.133,0,0,1,.568-6.218c.5-3.2.972-6.4,1.385-9.605.244-1.9.39-3.805.5-5.713a1.563,1.563,0,0,1,1.036-1.509c1.445-.647,2.866-1.346,4.3-2.019a64.8,64.8,0,0,0,6.014-3.491,109.915,109.915,0,0,0,10.322-7.192c2.528-1.963,4.99-4.013,7.483-6.02a19.342,19.342,0,0,1,4.619-2.989c.328-.137.673-.231,1.1-.375.033.369.078.612.072.854a24.281,24.281,0,0,0,2.189,10.5,20.81,20.81,0,0,0,3.066,4.7,51.57,51.57,0,0,0,9.312,8.917c1.034.762,2.165,1.393,3.252,2.083a53.11,53.11,0,0,0,9.667,4.458,9.719,9.719,0,0,0,1.135.428,1.2,1.2,0,0,1,.985,1.277,44.558,44.558,0,0,1-.023,4.858,48.462,48.462,0,0,1-1.816,9.411,35.888,35.888,0,0,1-2.972,7,36.34,36.34,0,0,0-2.975,6.522,17.1,17.1,0,0,0-.93,6.626,1.582,1.582,0,0,1-.576,1.454c-.746.651-1.452,1.349-2.175,2.027l.011-.006a1.035,1.035,0,0,1-.459.449l.018-.012a1.131,1.131,0,0,1-.239.238l.017-.017a1.094,1.094,0,0,1-.238.238l.017-.017a1.126,1.126,0,0,1-.238.239l.012-.016c-.118.133-.084.344-.235.46l.013-.018c-.112.129-.085.317-.19.45a5.152,5.152,0,0,0-.229,1.055c-.017,2.056-.124,4.122.03,6.167a55.388,55.388,0,0,0,2.991,15.255c.306.824.66,1.63,1.006,2.438a2.457,2.457,0,0,0,1.146,1.29,9.12,9.12,0,0,0,.586.916,9.5,9.5,0,0,1,2.034,3.75,5.255,5.255,0,0,1,.056.961,9.054,9.054,0,0,1-3.53,4.907,63.6,63.6,0,0,1-8.86,5.532,7.42,7.42,0,0,0-1.871,1.338h0c-.461.215-.937.4-1.384.645-4.216,1.934-8.451,3.806-13.077,4.581a16.335,16.335,0,0,1-8.386-.433c-3.971-1.42-6.482-4.32-8.219-8.015a22.337,22.337,0,0,1-1.957-8.766" transform="translate(-1648.073 -797.735)" fill="#fa9d7d"/>
          <path id="Trazado_1025123" data-name="Trazado 1025123" d="M2420.866,1236.6c.067.581.164,1.161.2,1.745a20.351,20.351,0,0,1-2.087,10.363,15.749,15.749,0,0,1-6.437,6.784,8.532,8.532,0,0,1-2.683.974,2.3,2.3,0,0,0-.482.206,10.528,10.528,0,0,1-4.621-.646c-.505.775-.969,1.515-1.462,2.234-.479.7-.954,1.4-1.492,2.054s-.893,1.51-1.831,1.984a6.356,6.356,0,0,1-.048-2.238,19.844,19.844,0,0,1,2.987-8.231c1.334-2.29,2.6-4.616,3.914-6.92,1.437-2.527,2.834-5.079,4.356-7.554a8.23,8.23,0,0,1,3.294-3.159,4.5,4.5,0,0,1,5.833,1.279c.113.141.225.283.338.424l-.005-.017c.213.2.048.513.231.718" transform="translate(-2134.429 -1097.194)" fill="#fa9d7d"/>
          <path id="Trazado_1025124" data-name="Trazado 1025124" d="M3389.995,2344.01c.044.18.07.347-.207.318l.207-.318" transform="translate(-3014.892 -2084.772)" fill="#4d6b61"/>
          <path id="Trazado_1025125" data-name="Trazado 1025125" d="M3390.729,724c0,.073-.006.147-.009.22a.955.955,0,0,1-.063-.161c0-.014.046-.039.072-.06" transform="translate(-3015.665 -643.931)" fill="#4d6b61"/>
          <path id="Trazado_1025126" data-name="Trazado 1025126" d="M904.061,2342.561l.118.064-.055.052a.1.1,0,0,1-.063-.117" transform="translate(-804.074 -2083.484)" fill="#8aac9e"/>
          <path id="Trazado_1025127" data-name="Trazado 1025127" d="M641.992,2346.888l-.244-.123.244.123" transform="translate(-570.773 -2087.222)" fill="#8aac9e"/>
          <path id="Trazado_1025128" data-name="Trazado 1025128" d="M924.833,2127.9c.159-.069.323-.129.476-.211s.284-.183.425-.276c.307.121.609.258.922.36a6.944,6.944,0,0,1,2.613,1.6,29.881,29.881,0,0,1,5.492,7.023c.768,1.342,1.466,2.724,2.255,4.052a1.239,1.239,0,0,1,.009,1.34c-.67,1.271-1.342,2.541-2.031,3.8-.282.517-.625,1-.911,1.514a10.851,10.851,0,0,1-2.16,2.64c-.377.351-.783.673-1.148,1.036a1.821,1.821,0,0,1-1.495.569c-1.725-.133-3.454-.231-5.174-.405a18.1,18.1,0,0,1-4.382-1.105c-.5-.183-1.012-.342-1.5-.564a7.438,7.438,0,0,1,2.812.322,52.021,52.021,0,0,0,6.749,1.038c.032,0,.067-.028.174-.075a2.5,2.5,0,0,0-.322-.514,28.293,28.293,0,0,1-2.978-3.552,2.065,2.065,0,0,0-1.143-.981l0-.01.44-.547c.482.57.9,1.071,1.323,1.566q1.65,1.928,3.308,3.85a2.455,2.455,0,0,0,.49.438.732.732,0,0,0,1.086-.088c.477-.46.907-.968,1.384-1.427a1.421,1.421,0,0,0,.434-1.4c-.051-.252-.08-.509-.119-.764a1.849,1.849,0,0,1-.1-1.472,6.69,6.69,0,0,1-.258-.826c-.123-.683-.215-1.372-.323-2.076.513.553.6.781.916,2.542.162.9.314,1.8.491,2.817.22-.188.42-.286.509-.445,1.128-2.022,2.236-4.055,3.359-6.08a1.409,1.409,0,0,0-.167-1.46c-.513-.935-1.035-1.867-1.6-2.772a55.089,55.089,0,0,0-4.8-6.73c-.31-.363-.645-.707-.977-1.051a4.7,4.7,0,0,0-3.106-1.5,9.431,9.431,0,0,1-.967-.174" transform="translate(-816.672 -1892.133)" fill="#324346"/>
          <path id="Trazado_1025129" data-name="Trazado 1025129" d="M904.995,2182.177a4.131,4.131,0,0,1,2.506-.885,26.133,26.133,0,0,1,5.062-.029,5.91,5.91,0,0,1,3.474,1.53c1.385,1.266,2.759,2.546,4.154,3.8.683.614,1.405,1.185,2.107,1.779a1.983,1.983,0,0,1,.58.709c-.182-.031-.4-.006-.539-.1-.834-.6-1.69-1.18-2.46-1.856-1.327-1.166-2.589-2.4-3.892-3.6a5.432,5.432,0,0,0-2.495-1.566,13.468,13.468,0,0,0-2.183-.3,19.2,19.2,0,0,0-5.915.54,1.6,1.6,0,0,1-.4-.021" transform="translate(-804.906 -1939.926)" fill="#324346"/>
          <path id="Trazado_1025130" data-name="Trazado 1025130" d="M1052.048,2148.444a12.212,12.212,0,0,0,2.841,3.542,19.918,19.918,0,0,0,3.943,2.31,8.349,8.349,0,0,1-1,2.547,7.1,7.1,0,0,1-1.3,2.295,1.82,1.82,0,0,1,.08-.553c.455-.925.938-1.836,1.4-2.756.179-.354.335-.719.52-1.12a5.58,5.58,0,0,0-.625-.363,14.1,14.1,0,0,1-3.175-1.765,7.669,7.669,0,0,1-2.52-3.286,4.344,4.344,0,0,1-.167-.849" transform="translate(-935.696 -1910.835)" fill="#4d6b61"/>
          <path id="Trazado_1025131" data-name="Trazado 1025131" d="M906.195,2240.165a10.4,10.4,0,0,0-5.3-.6c-1.5.17-3,.294-4.5.429a1.564,1.564,0,0,1-.859-.144c.619-.155,1.229-.362,1.857-.456a35.893,35.893,0,0,1,6.037-.475,3.833,3.833,0,0,1,2.8,1.068l.036.1Z" transform="translate(-796.496 -1991.295)" fill="#324346"/>
          <path id="Trazado_1025132" data-name="Trazado 1025132" d="M991.889,2248.8a.473.473,0,0,1,.04-.182,9.946,9.946,0,0,1,3.492,2.927,10.889,10.889,0,0,1,.809,1.182,1.44,1.44,0,0,0,1.045.728c.348.469.125.977.1,1.471a4.716,4.716,0,0,1-.7-.791,14.448,14.448,0,0,0-4.355-4.874,3.037,3.037,0,0,1-.429-.462" transform="translate(-882.19 -1999.928)" fill="#4d6b61"/>
          <path id="Trazado_1025133" data-name="Trazado 1025133" d="M939.522,2290.964l0,.01a5.1,5.1,0,0,1-2.821,2.26,2.359,2.359,0,0,0,.614.245,7.52,7.52,0,0,0,.9-.109c-.272.649-.749.5-1.16.536a.688.688,0,0,1-.838-.552c.212-.55.79-.721,1.2-1.062.565-.467,1.18-.875,1.782-1.3.075-.052.206-.023.311-.031" transform="translate(-832.682 -2037.592)" fill="#4d6b61"/>
          <path id="Trazado_1025134" data-name="Trazado 1025134" d="M1179.784,2178.034c.475.2.54.658.691,1.066a31.883,31.883,0,0,1,1.272,4.975,6.869,6.869,0,0,1-.068,1.628c-.314-1.62-.583-3.25-.96-4.856-.225-.958-.618-1.878-.935-2.814" transform="translate(-1049.305 -1937.153)" fill="#324346"/>
          <path id="Trazado_1025135" data-name="Trazado 1025135" d="M1171.481,2172.125c.274-.009.479.068.484.391l-.484-.391" transform="translate(-1041.92 -1931.896)" fill="#324346"/>
          <path id="Trazado_1025136" data-name="Trazado 1025136" d="M946.329,2132.732l.062-.055.074.033-.063.041Z" transform="translate(-841.669 -1896.812)" fill="#324346"/>
          <path id="Trazado_1025137" data-name="Trazado 1025137" d="M1177.244,2176.093l.3.232-.3-.232" transform="translate(-1047.046 -1935.426)" fill="#324346"/>
          <path id="Trazado_1025138" data-name="Trazado 1025138" d="M931.628,1165.094c-.111.143-.293.274-.32.432a1.672,1.672,0,0,1-1.322,1.341,20.952,20.952,0,0,1-3.832,1.008,8.611,8.611,0,0,1-4.142-.264c-.136-.055-.314-.053-.414-.143-1.059-.952-2.543-1.14-3.634-2.032a1.141,1.141,0,0,0-.476-.271,1.175,1.175,0,0,1-1.049-.981.719.719,0,0,0-.462-.412,1.492,1.492,0,0,1-1.234-.967c-.825-.319-.824-1.352-1.533-1.773a.4.4,0,0,1-.13-.176c-.8-1.732-1.963-3.294-2.363-5.207-.286-1.369-.655-2.724-.86-4.1a10.3,10.3,0,0,1-.09-2.779c.113-.91.171-1.826.254-2.739.043-.473.066-.949.134-1.418.1-.671.111-.669.87-1.017-.18-.163-.418-.286-.494-.474a.951.951,0,0,1,.062-.635c.219-.546.47-1.08.724-1.611.194-.405.58-.7.342-1.288-.137-.339.168-.779.557-.992.256-.14.536-.236.819-.358-.114-.29-.363-.608-.3-.832.089-.3.424-.524.709-.844l-.283-.36a1.417,1.417,0,0,1,.971-.943,16.59,16.59,0,0,1,.9-1.4,14.243,14.243,0,0,1,1.272-1.38,28.767,28.767,0,0,1,6.586-4.6c1.1-.581,2.279-1.025,3.428-1.518a4.529,4.529,0,0,1,.943-.309,15.228,15.228,0,0,0,3.178-.9,1.166,1.166,0,0,1,.377-.005l.483.853.224-.828c.612-.041,1.223-.442,1.883-.02a.526.526,0,0,0,.418-.019,1.833,1.833,0,0,1,1.189-.033,1.2,1.2,0,0,0,.651-.012,1.666,1.666,0,0,1,1.361.12c.517.217,1.117.166,1.689.343a22.363,22.363,0,0,1,2.938,1.248c2.553,1.21,4.3,3.294,5.918,5.5a13.832,13.832,0,0,1,1.406,2.245,22.215,22.215,0,0,1,1.22,3.192,40.085,40.085,0,0,1,1.2,4.816,5,5,0,0,1-.068,3.235.353.353,0,0,0,.037.3c.222.329.077.625-.029.943a1.335,1.335,0,0,0-.105.736c.189.611-.132.892-.661,1.109a1.169,1.169,0,0,1,.175,1.137,33.323,33.323,0,0,1-3.476,6.518c-1.166,1.656-2.415,3.255-3.686,4.832a35.9,35.9,0,0,0-2.565,3.728,14.372,14.372,0,0,0-1.24,3.166,7.715,7.715,0,0,0,.054,3.469,20.358,20.358,0,0,0,.375,2.063,5.7,5.7,0,0,0,.33.912c.069.169.254.335.237.486a1.467,1.467,0,0,0,.78,1.543.438.438,0,0,1,.145.392,2.089,2.089,0,0,0,.237,1.521c-.593.407-1.143.756-1.659,1.15-.315.241-.547-.065-.867-.048a1.07,1.07,0,0,1-1.454.555,2.262,2.262,0,0,0-.829.059,5.93,5.93,0,0,1-.364-.756,4.421,4.421,0,0,0-.692-1.606,1.121,1.121,0,0,1-.205-.619,2.647,2.647,0,0,0-.424-1.34,2.646,2.646,0,0,1-.28-1.052,7.5,7.5,0,0,0-.423-1.8c-.212-.519-.395-1.085.321-1.506-.8-.533-.345-1.366-.791-1.953l.713-.61-.4-.628c.238-.876.455-1.726.7-2.566a3.515,3.515,0,0,1,.357-.68c.072-.127.213-.241.226-.371a6.027,6.027,0,0,1,1.614-3.156,1.447,1.447,0,0,0,.2-.39,3.279,3.279,0,0,1,1.51-1.66,2.027,2.027,0,0,1,1.021-1.648,4.571,4.571,0,0,0,.9-1.093c1.111-1.468,2.224-2.934,3.316-4.417a4.2,4.2,0,0,0,.4-.878,1.821,1.821,0,0,1,.2-.507,10.7,10.7,0,0,0,1.375-2.982,5.985,5.985,0,0,0,.367-1.818,3.129,3.129,0,0,0-.213-.923l.493-.581a4.413,4.413,0,0,1-.357-1.436,7.394,7.394,0,0,0-.31-2.437,23.618,23.618,0,0,0-1.78-4.962,10.55,10.55,0,0,0-1.44-2.219,19.018,19.018,0,0,0-4.1-3.651,1.231,1.231,0,0,0-.62-.095c-.214-.008-.429.024-.715.044l-.126-.951c-.083-.005-.175-.04-.219-.008-.95.678-.949.68-1.848.142-.705,0-1.25-.014-1.793,0-.511.017-1.022.061-1.532.108-.329.03-.656.112-.985.121-.533.016-1.049.035-1.279.686l-.751-.524c-.3.308-.447.833-1.1.688l-.347-.541c-.294.806-.289.832-1.088.987a11.429,11.429,0,0,0-2.893,1.344c-.427.215-.813.51-1.239.726a14.489,14.489,0,0,0-4.458,3.9,16.691,16.691,0,0,0-1.308,1.64,9.1,9.1,0,0,0-1.034,2.048,2.234,2.234,0,0,1-.9,1.377,5.443,5.443,0,0,1-.624,2.762,1.191,1.191,0,0,0-.163.489c0,.582.078,1.166.045,1.744a3.758,3.758,0,0,1-.333.951,5.374,5.374,0,0,1,.153,1.11,9.336,9.336,0,0,0,.293,3.262c.079.262-.112.606-.176.9a9.907,9.907,0,0,1,.534,1.222,16.117,16.117,0,0,0,2.806,5.948,6.871,6.871,0,0,0,2.722,2.353c.332.128.558.529.879.852.492.1,1.133-.1,1.6.4.441.543,1.051.081,1.553.26l.568.089c.184-.014.348.1.534.078l.836-.37a4.131,4.131,0,0,0,1.824-.226l.743.008c.021-.225.238-.34.3-.54l.224-.136c.166-.015.326-.06.491-.084l.393-.158a1.287,1.287,0,0,1,.544.073.423.423,0,0,0,.158.133,2.484,2.484,0,0,1,.79,1.163l.2.326a.654.654,0,0,1-.1.7" transform="translate(-809.098 -1000.536)" fill="#fff"/>
          <path id="Trazado_1025139" data-name="Trazado 1025139" d="M1377.714,1132.137a6.912,6.912,0,0,1,3.9,2.429.876.876,0,0,1,.433.279l2.009,1.87c.247.16.521.335.579.625a1.674,1.674,0,0,0,1.235,1.235,4.594,4.594,0,0,1,1.714,1.959,44.764,44.764,0,0,1,3.454,6.635c.12.3.16.627.25.939.046.16.075.394.188.456.659.361.419.839.207,1.266.416,1.01.9,1.955.254,3.074a2.389,2.389,0,0,1,.378.575.959.959,0,0,1,.011.711,1.745,1.745,0,0,0-.289,1.04,6.989,6.989,0,0,1-1.341,4.235c-.713,1.022-1.5,1.993-2.28,2.966a3.215,3.215,0,0,1-.688.5c0,.1-.049.138-.143.129l-.257.313a1.407,1.407,0,0,0-1.063.625,2.325,2.325,0,0,1-.577.477c-.809.3-1.482.954-2.443.9-.236-.014-.495.271-.737.429-.5.327-.522.328-1.173-.129a1.636,1.636,0,0,1-1.9.613.558.558,0,0,0-.32-.038c-.923.22-1.843.455-2.766.679-.243.059-.5.082-.735.152a3.583,3.583,0,0,0-.677.267c-.191.1-.351.349-.534.358-.669.033-.841.532-.995,1.011a4.392,4.392,0,0,0-.263,1.4,3.6,3.6,0,0,1-.683,2.386l.736.562-.31.8.462.544c.06.268.141.531.18.8a46.2,46.2,0,0,0,1.837,4.726c.092.3-.1.7.305.9a.522.522,0,0,1-.193.636c-.2.028-.377.142-.577.173l-.37.539a.85.85,0,0,1-.7.181l-.377-.245a.424.424,0,0,0-.545.356.223.223,0,0,0-.095.106q-.055-.125-.128-.061a.122.122,0,0,0-.015.169l-.352.051a1.09,1.09,0,0,1-.407-.342l-1.193-1.285c-.123-.37.2-.895-.386-1.1a5.014,5.014,0,0,1-1.025-1.655l.517-.6-.776-.447a17.023,17.023,0,0,1-.161-2.129c.018-.465-.369-.605-.5-.937-.138-.361.275-.651.024-1.053-.333-.534-.278-.569.181-1.163a.945.945,0,0,1-.175-1.171.967.967,0,0,0,.045-.955.85.85,0,0,1,.537-1.3c-.235-.805-.235-.805.749-1.614l-.256-.671c.084-.069.154-.168.247-.2a1.681,1.681,0,0,0,1.251-.98.953.953,0,0,1,.456-.437c.69-.345,1.394-.661,2.1-.979a1.879,1.879,0,0,1,.72-.262,1.664,1.664,0,0,0,1.163-.46c.614-.5,1.08-.434,1.768.066a13.957,13.957,0,0,1,4.077-1.211c.108-.015.243.006.321-.051,1.044-.76,2.43-.891,3.37-1.838,1.384-.583,2.02-1.862,2.788-3.014a.739.739,0,0,0,.164-.505c-.175-.575.118-.9.645-1.175l-.447-.486c.076-.13.154-.286.253-.425s.227-.276.392-.473l-.756-.682.577-.89c-.871-.752-.712-1.851-.978-2.812a4.7,4.7,0,0,0-.12-.752,54.5,54.5,0,0,0-2.927-5.676,1.339,1.339,0,0,0-.422-.484,1.13,1.13,0,0,1-.753-.992c-.005-.128-.213-.274-.357-.363a1.742,1.742,0,0,1-.918-1.188,1.256,1.256,0,0,0-.637-.939c-1.263-.89-2.506-1.81-3.745-2.735a2.951,2.951,0,0,0-1.284-.6,1.256,1.256,0,0,1-.422-.126,5.277,5.277,0,0,0-3.015-.6c-.837-.455-1.729-.027-2.6-.149a3.556,3.556,0,0,0-1.4.238,10.322,10.322,0,0,1-2.9.542c-.072,0-.178,0-.209.041-.472.641-1.25.562-1.887.808a12.026,12.026,0,0,0-2.957,2.1c-.2.158-.357.374-.554.539a6.543,6.543,0,0,0-2.141,4.34,2.415,2.415,0,0,1-.188.619,3.774,3.774,0,0,1-.333.5,1.006,1.006,0,0,1,.147,1.61c.112.2.266.35.283.515a8.655,8.655,0,0,0,1.179,2.832,3.115,3.115,0,0,0,1.617,1.589c.526.219,1.023.42,1.171.932a1.316,1.316,0,0,0,1.263-.156,6.656,6.656,0,0,0,.892-.648c.941-.877,1.878-1.759,2.782-2.673a2.853,2.853,0,0,1,1.179-.775c.807-.258,1.6-.552,2.4-.836a1.682,1.682,0,0,1,1.575-.046c.265.155.695.026,1.108.026a2.9,2.9,0,0,1,.09.645,1.708,1.708,0,0,0-.012.943c.2.483-.158.81-.7.8a1.7,1.7,0,0,0-.637.025,11.012,11.012,0,0,0-4.519,3.071,12.517,12.517,0,0,1-2.734,2.392,3.629,3.629,0,0,1-1.238.4c-.242.056-.508,0-.758.032-.792.1-.791.111-1.381-.631a1.006,1.006,0,0,1-1.277-.216c-.447-.381-.877-.788-1.358-1.121a11.37,11.37,0,0,1-2.15-2.208,7.452,7.452,0,0,1-1.723-3.9,11.792,11.792,0,0,1-.136-4.486,20.18,20.18,0,0,1,.655-2.1,13.357,13.357,0,0,1,2.867-4.406,6.07,6.07,0,0,1,.877-.67c.718-.516,1.426-1.047,2.165-1.531a9.971,9.971,0,0,1,1.277-.645c.162-.076.4-.051.514-.161,1.17-1.09,2.725-1.223,4.149-1.648a10.7,10.7,0,0,1,3.934-.443,4.458,4.458,0,0,0,.642-.09,6.748,6.748,0,0,1,1.2-.042c.434.047.923.1.9.79.837-.792.842-.807,1.807-.465.446.158.866.39,1.3.589.188.048.343.175.529.229" transform="translate(-1204.89 -1005.898)" fill="#fff"/>
          <path id="Trazado_1025140" data-name="Trazado 1025140" d="M1161.407,1669c.209.144.429.276.627.435a.7.7,0,0,1-.035,1.245,4.42,4.42,0,0,1-.554.292c-.189,1.107-.189,1.107-1.08,1a3.006,3.006,0,0,0-.1.292c-.186.747-.251.8-.924.582-.214-.07-.377-.165-.59.017a.787.787,0,0,1-1.126-.072l-.933.408c-.349.11-.78-.1-1.062.272a.494.494,0,0,1-.691-.212c-.875-.554-1.756-.9-2.707-.14-.109.088-.282.021-.407-.071l-.2-.259a.658.658,0,0,0-.668-.174c-.3.2-.534.071-.838-.186l.533-1.076-.841-.709c-.07-.146-.148-.291-.052-.457-.108-.409-.221-.816-.321-1.227-.074-.3-.22-.629.161-.85.208-.172.805.106.656-.442-.3-1.112.476-1.071,1.085-1.116.34-.319.194-.78.52-1.012.221-.226.429-.248.62.037.266.128.229.425.365.659.157-.387-.016-.852.326-1.162l2.253-.348a1.083,1.083,0,0,0,1.586.15c.1-.068.275-.022.416-.03.377-.336.7-.045.988.131a1.844,1.844,0,0,0,1.031.305c.433-.008.983-.05,1.046.535.057.527-.439.68-.824.806.575.086,1.059-.621,1.711-.253.267.147.429.339.286.663s-.279.67.217.841l.211.208c.1.227.148.449-.068.643l-.514.079a.254.254,0,0,1-.091.2" transform="translate(-1022.227 -1480.584)" fill="#fff"/>
          <path id="Trazado_1025141" data-name="Trazado 1025141" d="M1506.763,1643.445c-.389.193-.773.326-1.115-.087a7.157,7.157,0,0,0-1.292-1.107c-.355-.188-.537-.474-.247-.87l.353-.382c-.088-.414-.456-.307-.7-.413s-.45-.247-.325-.57c.29-.219.53-.461.388-.873a.886.886,0,0,1-.251-1.33,25.006,25.006,0,0,1,1.436-2.763l.479.141c1.22,1.053,1.8-.276,2.622-.7a1.5,1.5,0,0,1,1.75.326,1.822,1.822,0,0,1,.747,1c.344.241.686-.32,1.009.028l.019.02c.489.458-.213,1.061.185,1.53l.607.027c.314.377.026.656-.073,1.009.118.1.253.21.38.328.4.37.394.508-.026.846-.138.111-.285.211-.524.386l.814.474-.915.759.336.906c-1.194.306-2.165,1.077-3.358,1.308-.162.033-.313.141-.489.066l-.5.036c-.448.161-.858-.266-1.308-.087" transform="translate(-1337.117 -1453.575)" fill="#fff"/>
          <path id="Trazado_1025142" data-name="Trazado 1025142" d="M1851.891,1348.422c.082.946.179,1.891.243,2.839a23.911,23.911,0,0,0,1.775,7.43c.675,1.659,1.457,3.275,2.194,4.91.24.532.49,1.059.736,1.589l-.525.045a3.029,3.029,0,0,0-.235,2.27,4.648,4.648,0,0,1,.076,1.533c-.055.721-.191,1.435-.315,2.312-.12-1.012-.208-1.869-.324-2.722-.225-1.662-.414-3.334-.579-5a23.575,23.575,0,0,0-1.472-5.034,40.188,40.188,0,0,1-1.423-5.162,17.48,17.48,0,0,1-.252-4.82c.006-.066.067-.127.1-.191" transform="translate(-1646.928 -1199.292)" fill="#324346"/>
          <path id="Trazado_1025143" data-name="Trazado 1025143" d="M1171.781,1734.4c.167-.065.388-.084.491-.2a1.32,1.32,0,0,1,1.363-.487,1.524,1.524,0,0,1,1.26.9c-.2.4-.476.654-.965.485a.843.843,0,0,0-.733.053c-.772.417-.884.375-1.264-.337a3.044,3.044,0,0,1-.151-.412" transform="translate(-1042.187 -1541.933)" fill="#fadec9"/>
          <path id="Trazado_1025144" data-name="Trazado 1025144" d="M1226.316,1663.942c-.7.2-1.39.417-2.092.6-.294.075-.491-.064-.493-.449.44-.109.885-.2,1.318-.337.115-.036.189-.207.3-.342-.469-.592-1-.283-1.524-.169-.506-.22-.748-.949-1.463-.824.064-.083.144-.247.19-.238a1.472,1.472,0,0,0,1.133-.154.443.443,0,0,1,.645.222c.182.481.524.408.946.316a3.174,3.174,0,0,0,1.037,1.377" transform="translate(-1087.176 -1478.155)" fill="#fadec9"/>
          <path id="Trazado_1025145" data-name="Trazado 1025145" d="M1153.867,1672.354c-.007.464-.013.929-.021,1.435-.537,0-.991-.319-1.476,0a2.955,2.955,0,0,1,.063,1.835c-.416-.168-.364-.762-.827-.7l.478-.512-.41-.673a5.089,5.089,0,0,1,2.193-1.385" transform="translate(-1024.243 -1487.399)" fill="#fadec9"/>
          <path id="Trazado_1025146" data-name="Trazado 1025146" d="M1525.047,1635.792a3.836,3.836,0,0,1-1.143,1.264c-.519.4-.667.4-1.093-.042a4.942,4.942,0,0,1-.386-.518l.779-.7Z" transform="translate(-1354.051 -1454.88)" fill="#fadec9"/>
          <path id="Trazado_1025147" data-name="Trazado 1025147" d="M1500.947,1640.879l.2,1.111-.984.2a.9.9,0,0,0-.027.283.878.878,0,0,1-.628,1.168l-.7-.394,1.078-.354-.493-.776c.189-.47.665-.349.927-.578a8.389,8.389,0,0,0,.62-.661" transform="translate(-1333.052 -1459.405)" fill="#fadec9"/>
          <path id="Trazado_1025148" data-name="Trazado 1025148" d="M1506.918,1698.125c.012.293-.005.566.4.665a1.508,1.508,0,0,1,1.14,1.312l-.968-.181a12.527,12.527,0,0,1-.8-1.043c-.183-.293-.266-.633.233-.752" transform="translate(-1339.926 -1510.32)" fill="#fadec9"/>
          <path id="Trazado_1025149" data-name="Trazado 1025149" d="M1621.777,1184.694h-1.023l-.791-1.86a3.158,3.158,0,0,1,1.815,1.86" transform="translate(-1440.801 -1052.017)" fill="#fadec9"/>
          <path id="Trazado_1025150" data-name="Trazado 1025150" d="M1563.712,1639.763l-1.114.6-.642-1.626a7.869,7.869,0,0,1,1.208.413c.227.118.368.4.548.611" transform="translate(-1389.21 -1457.501)" fill="#fadec9"/>
          <path id="Trazado_1025151" data-name="Trazado 1025151" d="M1178.343,1668.145v1.81c-.437.16-.58-.062-.626-.322a8.474,8.474,0,0,1-.066-.984l.691-.5" transform="translate(-1047.409 -1483.655)" fill="#fadec9"/>
          <path id="Trazado_1025152" data-name="Trazado 1025152" d="M1100.651,1469.073a1.723,1.723,0,0,1-.79-1.163,5.2,5.2,0,0,1,.766-.021c.474.054.62.363.372.76a3.942,3.942,0,0,1-.349.423" transform="translate(-978.221 -1305.538)" fill="#8aac9e"/>
          <path id="Trazado_1025153" data-name="Trazado 1025153" d="M1910.022,1519.9l1.587,2.22c-.108-.014-.26.012-.315-.049a4.052,4.052,0,0,1-1.272-2.171" transform="translate(-1698.782 -1351.801)" fill="#324346"/>
          <path id="Trazado_1025154" data-name="Trazado 1025154" d="M1059.36,1473.149l-.68.6-1.145-.373a2.521,2.521,0,0,1,1.7-.389c.045,0,.084.106.126.163" transform="translate(-940.577 -1310.074)" fill="#8aac9e"/>
          <path id="Trazado_1025155" data-name="Trazado 1025155" d="M1897.978,1500l1.341,2.21c-.072-.013-.169,0-.212-.042a3.367,3.367,0,0,1-1.129-2.168" transform="translate(-1688.07 -1334.108)" fill="#324346"/>
          <path id="Trazado_1025156" data-name="Trazado 1025156" d="M1027.53,1476.281l-1.27.4-.282-.656a8.462,8.462,0,0,1,.989.022,2.253,2.253,0,0,1,.564.238" transform="translate(-912.508 -1312.776)" fill="#8aac9e"/>
          <path id="Trazado_1025157" data-name="Trazado 1025157" d="M1495.9,1574.2c.3.019.635-.073.875.259l-.488.846c-.453-.255-.34-.708-.386-1.1" transform="translate(-1330.457 -1400.1)" fill="#8aac9e"/>
          <path id="Trazado_1025158" data-name="Trazado 1025158" d="M1639.883,1422.832a1.371,1.371,0,0,1-.006-.208c.076-.634.177-.708.79-.555a1.413,1.413,0,0,1,.279.139c-.2.47-.658.5-1.063.625" transform="translate(-1458.511 -1264.733)" fill="#fadec9"/>
          <path id="Trazado_1025159" data-name="Trazado 1025159" d="M1576.641,1649.7c-.292-.138-.475-.3-.324-.68a3.9,3.9,0,0,0,.139-.85.484.484,0,0,1,.295.7c-.113.274-.254.527-.109.828" transform="translate(-1401.935 -1465.893)" fill="#fadec9"/>
          <path id="Trazado_1025160" data-name="Trazado 1025160" d="M1257.337,1686.709a.544.544,0,0,1-.211.034c-.161-.044-.441-.1-.447-.173a1.13,1.13,0,0,1,.161-.562c.038-.075.184-.095.28-.14l.217.841" transform="translate(-1117.694 -1499.418)" fill="#fadec9"/>
          <path id="Trazado_1025161" data-name="Trazado 1025161" d="M1533.93,1714.778c.089-.088.2-.264.262-.248.355.086.7.219,1.046.335a2.529,2.529,0,0,1-.589.085,4.625,4.625,0,0,1-.719-.172" transform="translate(-1364.284 -1524.909)" fill="#fadec9"/>
          <path id="Trazado_1025162" data-name="Trazado 1025162" d="M1206.187,1740.324c.189-.539.367-.585,1.062-.273l-1.062.273" transform="translate(-1072.788 -1547.437)" fill="#fadec9"/>
          <path id="Trazado_1025163" data-name="Trazado 1025163" d="M1539.14,1574.445l-.628-.134.323-.766c.4.2.221.594.3.9" transform="translate(-1368.359 -1399.518)" fill="#8aac9e"/>
          <path id="Trazado_1025164" data-name="Trazado 1025164" d="M1519.168,1591.274c.016-.2-.044-.485.063-.577.194-.165.4-.039.482.221l-.545.356" transform="translate(-1351.152 -1414.706)" fill="#8aac9e"/>
          <path id="Trazado_1025165" data-name="Trazado 1025165" d="M1504.25,1677.89c.442.484.349.693-.388.873l.388-.873" transform="translate(-1337.541 -1492.322)" fill="#fadec9"/>
          <path id="Trazado_1025166" data-name="Trazado 1025166" d="M2030.57,1732.339c.208.382.326.754-.117,1.065a1.051,1.051,0,0,1,.117-1.065" transform="translate(-1805.806 -1540.75)" fill="#8aac9e"/>
          <path id="Trazado_1025167" data-name="Trazado 1025167" d="M2027.017,1760.111c.064.325.2.669-.218.874-.157-.349.089-.6.218-.874" transform="translate(-1802.598 -1565.45)" fill="#8aac9e"/>
          <path id="Trazado_1025168" data-name="Trazado 1025168" d="M1163.891,1734.278c.411-.376.495-.354.668.174l-.668-.174" transform="translate(-1035.17 -1542.247)" fill="#fadec9"/>
          <path id="Trazado_1025169" data-name="Trazado 1025169" d="M1263.931,1695.989q.034-.321.068-.643c.393.419.385.489-.068.643" transform="translate(-1124.146 -1507.848)" fill="#fadec9"/>
          <path id="Trazado_1025170" data-name="Trazado 1025170" d="M1522.872,1524.353a.65.65,0,0,1-.181-.8c.364.2.337.487.181.8" transform="translate(-1354.233 -1355.051)" fill="#8aac9e"/>
          <path id="Trazado_1025171" data-name="Trazado 1025171" d="M1527.528,1594.055l.7-.181c-.283.484-.312.491-.7.181" transform="translate(-1358.59 -1417.598)" fill="#8aac9e"/>
          <path id="Trazado_1025172" data-name="Trazado 1025172" d="M1925.953,1542.084l.453.654c-.472,0-.438-.342-.453-.654" transform="translate(-1712.951 -1371.536)" fill="#324346"/>
          <path id="Trazado_1025173" data-name="Trazado 1025173" d="M1107.9,1482.317l.1-.7c.4.323.4.368-.1.7" transform="translate(-985.375 -1317.76)" fill="#8aac9e"/>
          <path id="Trazado_1025174" data-name="Trazado 1025174" d="M1550.307,1716.718l.489-.066c-.141.187-.285.349-.489.066" transform="translate(-1378.85 -1526.797)" fill="#fadec9"/>
          <path id="Trazado_1025175" data-name="Trazado 1025175" d="M1151.661,1714.381l.052.457c-.2-.131-.365-.267-.052-.457" transform="translate(-1024.138 -1524.778)" fill="#fadec9"/>
          <path id="Trazado_1025176" data-name="Trazado 1025176" d="M2035,1662.08c.319.183.321.2.041.389l-.041-.389" transform="translate(-1809.941 -1478.261)" fill="#8aac9e"/>
          <path id="Trazado_1025177" data-name="Trazado 1025177" d="M1510.162,1595.808l.407.342c-.383.181-.419-.052-.407-.342" transform="translate(-1343.143 -1419.318)" fill="#8aac9e"/>
          <path id="Trazado_1025178" data-name="Trazado 1025178" d="M2022.855,1781.629c.137.238.082.4-.189.477-.113-.229.021-.36.189-.477" transform="translate(-1798.931 -1584.589)" fill="#8aac9e"/>
          <path id="Trazado_1025179" data-name="Trazado 1025179" d="M2032.724,1712.341c.239.135.217.256-.018.367-.188-.132-.178-.254.018-.367" transform="translate(-1807.776 -1522.963)" fill="#8aac9e"/>
          <path id="Trazado_1025180" data-name="Trazado 1025180" d="M1558.4,1139.6c-.244.081-.442.054-.529-.229l.529.229" transform="translate(-1385.58 -1013.364)" fill="#fadec9"/>
          <path id="Trazado_1025181" data-name="Trazado 1025181" d="M1598.312,1163.455a.35.35,0,0,1-.433-.279c.261-.088.386.036.433.279" transform="translate(-1421.16 -1034.508)" fill="#fadec9"/>
          <path id="Trazado_1025182" data-name="Trazado 1025182" d="M1537.232,1586.961c.14-.232.318-.338.577-.173a.387.387,0,0,1-.577.173" transform="translate(-1367.221 -1411.225)" fill="#8aac9e"/>
          <path id="Trazado_1025183" data-name="Trazado 1025183" d="M1094.057,1464.718l-.544-.073c.224-.3.405-.27.544.073" transform="translate(-972.575 -1302.479)" fill="#8aac9e"/>
          <path id="Trazado_1025184" data-name="Trazado 1025184" d="M1086.013,1466.533a.31.31,0,0,1-.49.083c.136-.191.275-.365.49-.083" transform="translate(-965.469 -1304.209)" fill="#8aac9e"/>
          <path id="Trazado_1025185" data-name="Trazado 1025185" d="M1080.7,1469.708a.447.447,0,0,1-.3.54c-.111-.3-.007-.478.3-.54" transform="translate(-960.873 -1307.164)" fill="#8aac9e"/>
          <path id="Trazado_1025186" data-name="Trazado 1025186" d="M1932.1,1551.762c.29.021.389.228.456.467-.311,0-.474-.145-.456-.467" transform="translate(-1718.416 -1380.144)" fill="#324346"/>
          <path id="Trazado_1025187" data-name="Trazado 1025187" d="M1045.689,1478.581c-.224.288-.383.136-.534-.078a.352.352,0,0,1,.534.078" transform="translate(-929.565 -1314.909)" fill="#8aac9e"/>
          <path id="Trazado_1025188" data-name="Trazado 1025188" d="M2024.012,1628.62a.276.276,0,0,1,.436.18l-.436-.18" transform="translate(-1800.165 -1448.457)" fill="#8aac9e"/>
          <path id="Trazado_1025189" data-name="Trazado 1025189" d="M2019.3,1793.963a.282.282,0,0,1-.215.441l.215-.441" transform="translate(-1795.786 -1595.558)" fill="#8aac9e"/>
          <path id="Trazado_1025190" data-name="Trazado 1025190" d="M2010.081,1622.493c.164-.047.314-.065.344.166l-.344-.166" transform="translate(-1787.775 -1443.026)" fill="#8aac9e"/>
          <path id="Trazado_1025191" data-name="Trazado 1025191" d="M1937.957,1558.155l.293.419-.293-.419" transform="translate(-1723.627 -1385.83)" fill="#324346"/>
          <path id="Trazado_1025192" data-name="Trazado 1025192" d="M2015.17,1806.265c.186.19-.029.156-.11.2l.11-.2" transform="translate(-1792.203 -1606.5)" fill="#8aac9e"/>
          <path id="Trazado_1025193" data-name="Trazado 1025193" d="M2011.017,1813.623c.08.218-.074.234-.221.257l.221-.257" transform="translate(-1788.411 -1613.044)" fill="#8aac9e"/>
          <path id="Trazado_1025194" data-name="Trazado 1025194" d="M1930,1547.944l.244.446-.244-.446" transform="translate(-1716.552 -1376.748)" fill="#324346"/>
          <path id="Trazado_1025195" data-name="Trazado 1025195" d="M2019.957,1627.285l.146.081a.294.294,0,0,1-.146-.081" transform="translate(-1796.558 -1447.314)" fill="#8aac9e"/>
          <path id="Trazado_1025196" data-name="Trazado 1025196" d="M2015.9,1625.339l.144.085a.369.369,0,0,1-.144-.085" transform="translate(-1792.947 -1445.583)" fill="#8aac9e"/>
          <path id="Trazado_1025197" data-name="Trazado 1025197" d="M2017.192,1800.783a.163.163,0,0,1-.061.119l-.03-.085Z" transform="translate(-1794.018 -1601.624)" fill="#8aac9e"/>
          <path id="Trazado_1025198" data-name="Trazado 1025198" d="M2007.906,1621.235l.145.1a.342.342,0,0,1-.145-.1" transform="translate(-1785.84 -1441.933)" fill="#8aac9e"/>
          <path id="Trazado_1025199" data-name="Trazado 1025199" d="M2003.931,1619.083l.15.105a.274.274,0,0,1-.15-.105" transform="translate(-1782.305 -1440.019)" fill="#8aac9e"/>
          <path id="Trazado_1025200" data-name="Trazado 1025200" d="M1517.038,1597.577l.144-.108a.18.18,0,0,1-.144.108" transform="translate(-1349.26 -1420.796)" fill="#8aac9e"/>
          <path id="Trazado_1025201" data-name="Trazado 1025201" d="M1258.456,1702.077l.091-.2-.091.2" transform="translate(-1119.276 -1513.657)" fill="#fadec9"/>
          <path id="Trazado_1025202" data-name="Trazado 1025202" d="M2021.86,1790.541l.079.018-.1.061Z" transform="translate(-1798.236 -1592.515)" fill="#8aac9e"/>
          <path id="Trazado_1025203" data-name="Trazado 1025203" d="M1651.889,1420a.222.222,0,0,1,.143-.129.133.133,0,0,1-.143.129" transform="translate(-1469.197 -1262.841)" fill="#fadec9"/>
          <path id="Trazado_1025204" data-name="Trazado 1025204" d="M2032.886,1632.354a.076.076,0,0,1,.081.075l-.072,0Z" transform="translate(-1808.058 -1451.823)" fill="#8aac9e"/>
          <path id="Trazado_1025205" data-name="Trazado 1025205" d="M2025.165,1774.685l-.014.091-.078-.057Z" transform="translate(-1801.109 -1578.412)" fill="#8aac9e"/>
          <path id="Trazado_1025206" data-name="Trazado 1025206" d="M2706.275,1139.8a4.941,4.941,0,0,0,.291.813,48.221,48.221,0,0,0,9.3,11.441c1.183,1.1,2.43,2.14,3.66,3.192a3.818,3.818,0,0,0,1.538.932c.32-.855.646-1.666.928-2.491a30.908,30.908,0,0,1,2.048-4.762,8.371,8.371,0,0,1,1.028-1.562,2.048,2.048,0,0,1,1.945-.9c.017.225.017.436.051.641.04.24.031.555.179.7a.829.829,0,0,1,.1,1.106c-.2.381-.46.729-.707,1.11l-.5-.315c-.061.051-.14.084-.16.139-.748,2.113-1.472,4.235-2.245,6.338a17.43,17.43,0,0,1-.96,1.982,1,1,0,0,1-.991.574,2.6,2.6,0,0,1-1.754-.508,8.48,8.48,0,0,0-1.236-.707,28.515,28.515,0,0,1-5.292-4.145c-.766-.745-1.5-1.526-2.254-2.278a46.274,46.274,0,0,1-5.229-6.271c-.251-.357-.421-.771-.656-1.142-.412-.649-.871-1.268-1.264-1.927-.583-.979-1.13-1.98-1.686-2.975a1.391,1.391,0,0,1-.072-1.456,1.6,1.6,0,0,1,1.18-1,2.326,2.326,0,0,1,1.492.07c1.926.831,3.872,1.617,5.782,2.481.867.392,1.669.927,2.561,1.43a2.567,2.567,0,0,0,1.124-1.08c.529-1.011,1.067-2.017,1.588-3.032q2.52-4.913,5.024-9.832c.3-.59.581-1.193.825-1.808a2.449,2.449,0,0,1,1.125-1.217l.719.689.931.064,3.605,8.082c.683.094.664.081.9-.371.589-1.14,1.209-2.263,1.8-3.4.42-.809.813-1.632,1.222-2.447.2-.389.293-.844.722-1.08.06-.033.151-.115.142-.154-.182-.807.5-1.247.807-1.829a19.218,19.218,0,0,0,1.442-3.084,4.044,4.044,0,0,1,.5-.855,31.278,31.278,0,0,0,1.764-3.775c.586-1.267,1.1-2.571,1.629-3.862.2-.475.364-.963.545-1.445-.115-.457.177-.847.218-1.344-.847.145-1.038,1.143-1.8,1.324a34.411,34.411,0,0,1-3.626,3.386c-.383.344-.784.669-1.178,1a3.214,3.214,0,0,1-.6.482c-1.633.79-2.96,2.043-4.511,2.958-1.077.635-2.128,1.316-3.2,1.961a1.245,1.245,0,0,1-1.084.27c-.318-.594-.389-1.4-1.369-1.705.385-.332.579-.534.806-.688,2.711-1.842,5.432-3.668,8.139-5.515,1.521-1.038,2.835-2.337,4.276-3.474a39.208,39.208,0,0,0,5.513-5.243c.6-.7,1.16-1.428,1.748-2.136a3.3,3.3,0,0,1,.409-.356.625.625,0,0,1,.731-.035l1.77.94a2.909,2.909,0,0,1-.1.641c-.921,2.286-1.861,4.563-2.784,6.849-.48,1.191-.927,2.4-1.406,3.589a36.617,36.617,0,0,1-2.429,5.432,6.432,6.432,0,0,0-1.007,2.434,2.332,2.332,0,0,1-.362.8,28.942,28.942,0,0,0-1.939,3.714,30.416,30.416,0,0,1-1.423,2.74c-.236.445-.419.909-.713,1.577a7.076,7.076,0,0,0,.879-.311c2.551-1.393,5.092-2.8,7.646-4.193,1.229-.668,2.483-1.29,3.712-1.957.807-.438,1.588-.925,2.384-1.382.346-.2.718-.51,1.109-.179.447.379,1.064.613.929,1.469-.088.559,0,1.107-.672,1.4a2.044,2.044,0,0,1,.137,1.517c-.714,2.474-1.362,4.966-2.069,7.442a17.384,17.384,0,0,1-.844,2.268c-.545,1.224-1.422,1.5-2.7.919a2.363,2.363,0,0,1,.1-1.885,22.616,22.616,0,0,0,1.234-3.643,27.672,27.672,0,0,1,1.476-4.483,3.644,3.644,0,0,0,.1-.357l-1.182-.381a2.868,2.868,0,0,1-1.515.93,4.8,4.8,0,0,0-1.25.687q-4.149,2.419-8.3,4.838a17.052,17.052,0,0,1-1.827,1,13.147,13.147,0,0,1-1.743.485c-.438-.123-.81-.612-1.38-.448-.606.35.406.682.011,1.03a.375.375,0,0,0-.108.144,3.913,3.913,0,0,0-.644,1.357c-.1.486-.524.654-.907.853l-.706.155a5.8,5.8,0,0,1-1.261-1.172,6.06,6.06,0,0,1-.417-1.687,1.444,1.444,0,0,0-.11-.312c-.867-1.783-1.737-3.564-2.662-5.456-.146.263-.247.432-.337.606a10.052,10.052,0,0,0-.831,1.66,23.623,23.623,0,0,1-1.893,3.691c-.557,1.118-1.167,2.209-1.743,3.318-.339.652-.651,1.318-.987,1.971-.15.293-.33.57-.5.854-.187.315-.4.617-.558.947a4.05,4.05,0,0,1-1.342,1.847c-.134.087-.183.3-.28.477-1.7-.042-3.07-.98-4.5-1.721-1.174-.607-2.292-1.323-3.438-1.983a2.286,2.286,0,0,0-.411-.144c-.1.007-.222,0-.167.167" transform="translate(-2403.316 -978.924)" fill="#fff"/>
          <path id="Trazado_1025207" data-name="Trazado 1025207" d="M2971.38,1504.3c.111.034.29.075.458.144a19.324,19.324,0,0,1,5.716,3.661,3.628,3.628,0,0,1,.742,1.07,1.084,1.084,0,0,1,.026.738.7.7,0,0,1-1.208.351c-.518-.406-1.037-.813-1.531-1.248a19.075,19.075,0,0,0-3.551-2.391,8.231,8.231,0,0,1-1.312-.986.584.584,0,0,1-.186-.785,1.015,1.015,0,0,1,.846-.555" transform="translate(-2641.931 -1337.928)" fill="#fff"/>
          <path id="Trazado_1025208" data-name="Trazado 1025208" d="M3063.524,1495.527a3.281,3.281,0,0,0,.162.922,2.212,2.212,0,0,1-.2,2.09,4.835,4.835,0,0,0-.419,1.468,5.309,5.309,0,0,1-1.573,2.718.548.548,0,0,1-.5.134,2.955,2.955,0,0,1-.828-.52c-.316-.281-.15-.594.028-.893a.7.7,0,0,0,.137-.408c-.132-.772.458-1.371.484-2.112.007-.2.269-.421.451-.593.3-.287.472-.6.189-.963a.646.646,0,0,1,.021-.893,3.891,3.891,0,0,0,.321-.446c.545-1.014.576-1.026,1.726-.5" transform="translate(-2721.568 -1329.825)" fill="#fff"/>
          <path id="Trazado_1025209" data-name="Trazado 1025209" d="M2880.869,1475.787a1.407,1.407,0,0,1-.127.162.4.4,0,0,0-.186.244,2.176,2.176,0,0,1-.958,1.547.629.629,0,0,1-1.02-.219c-.444-.712-.278-1.336.558-2.1.571-.069,1.049-.453,1.632-.484l.074.065a1.207,1.207,0,0,1,.027.781" transform="translate(-2560.007 -1311.819)" fill="#fadec9"/>
          <path id="Trazado_1025210" data-name="Trazado 1025210" d="M3027.814,1167.833a7.39,7.39,0,0,1,.859-1.11,10.159,10.159,0,0,1,1.367-.877,4.55,4.55,0,0,1-.64,2.006l-1.586-.019" transform="translate(-2692.951 -1036.908)" fill="#8aac9e"/>
          <path id="Trazado_1025211" data-name="Trazado 1025211" d="M2939.569,1407.79a5.157,5.157,0,0,0,.421-.459c.121-.165.3-.366.287-.535a1.1,1.1,0,0,1,.842-1.217,1.855,1.855,0,0,1-.731,2.034.878.878,0,0,1-.82.176" transform="translate(-2614.466 -1250.129)" fill="#8aac9e"/>
          <path id="Trazado_1025212" data-name="Trazado 1025212" d="M2887.18,1470.534c-.383.041-.49.348-.624.683l-1.008-.2a4.726,4.726,0,0,1,.414-.619c.531-.581.652-.561,1.218.135" transform="translate(-2566.418 -1307.412)" fill="#8aac9e"/>
          <path id="Trazado_1025213" data-name="Trazado 1025213" d="M2949.223,1395.6c.083-.509-.542-.364-.664-.676.123-.34.315-.487.653-.354a2.5,2.5,0,0,0,.189.349c.279.368.281.376-.178.681" transform="translate(-2622.461 -1240.293)" fill="#8aac9e"/>
          <path id="Trazado_1025214" data-name="Trazado 1025214" d="M3076.656,1099.43l-.731.035c.309-.394.338-.4.731-.035" transform="translate(-2735.74 -977.602)" fill="#fadec9"/>
          <path id="Trazado_1025215" data-name="Trazado 1025215" d="M2901.006,1476.308q-.014-.391-.027-.781c.414.351.414.366.027.781" transform="translate(-2580.143 -1312.34)" fill="#8aac9e"/>
          <path id="Trazado_1025216" data-name="Trazado 1025216" d="M2588.089,1254.71l-.231-.718c.316.162.194.466.231.718" transform="translate(-2301.652 -1115.306)" fill="#324346"/>
          <path id="Trazado_1025217" data-name="Trazado 1025217" d="M2351.819,1540.32l.459-.449c.008.314-.148.46-.459.449" transform="translate(-2091.718 -1369.568)" fill="#324346"/>
          <path id="Trazado_1025218" data-name="Trazado 1025218" d="M2342.208,1554.278l.19-.45-.19.45" transform="translate(-2083.17 -1381.981)" fill="#324346"/>
          <path id="Trazado_1025219" data-name="Trazado 1025219" d="M2343.8,1550.287l.235-.46-.235.46" transform="translate(-2084.586 -1378.423)" fill="#324346"/>
          <path id="Trazado_1025220" data-name="Trazado 1025220" d="M2345.822,1548.055l.238-.239-.238.239" transform="translate(-2086.384 -1376.634)" fill="#324346"/>
          <path id="Trazado_1025221" data-name="Trazado 1025221" d="M2347.816,1546.054l.238-.238-.238.238" transform="translate(-2088.157 -1374.855)" fill="#324346"/>
          <path id="Trazado_1025222" data-name="Trazado 1025222" d="M2349.816,1544.059l.239-.238-.239.238" transform="translate(-2089.936 -1373.081)" fill="#324346"/>
          <path id="Trazado_1025223" data-name="Trazado 1025223" d="M2898.387,1484.294l.186-.244-.186.244" transform="translate(-2577.837 -1319.92)" fill="#8aac9e"/>
          <path id="Trazado_1025224" data-name="Trazado 1025224" d="M1981.921,1843.8a1.438,1.438,0,0,1,.219.469,24.986,24.986,0,0,0,.945,5.4,17.82,17.82,0,0,0,3.807,7.118,12.621,12.621,0,0,0,7.6,4.1,19.147,19.147,0,0,0,6.783-.314,45.319,45.319,0,0,0,11.266-4,7.152,7.152,0,0,1,1.033-.324c.119.047.257.073.276.237a2.985,2.985,0,0,1-.441.309,68.544,68.544,0,0,1-9.023,3.583,29.732,29.732,0,0,1-6.262,1.294,13.41,13.41,0,0,1-11.572-4.547,18.73,18.73,0,0,1-4.192-8.043,16.344,16.344,0,0,1-.545-2.24,7.536,7.536,0,0,1,.1-3.031" transform="translate(-1762.546 -1639.882)" fill="#4d6b61"/>
          <path id="Trazado_1025225" data-name="Trazado 1025225" d="M2282.172,1857.489c.031-.16.006-.391.1-.466a11.026,11.026,0,0,1,1.264-.853c2.067-1.188,4.167-2.322,6.205-3.556a30.8,30.8,0,0,0,3.318-2.356,11.143,11.143,0,0,0,3.371-4.547,4,4,0,0,1-.715,2.678,10.439,10.439,0,0,1-2.964,3.064c-1.855,1.245-3.733,2.462-5.653,3.605-1.466.872-3.009,1.615-4.524,2.4a1.06,1.06,0,0,1-.4.027" transform="translate(-2029.774 -1641.583)" fill="#324346"/>
          <path id="Trazado_1025226" data-name="Trazado 1025226" d="M2270.077,1952.293l-.276-.237c.433-.219.778-.706,1.367-.449-.191.5-.683.528-1.091.686" transform="translate(-2018.771 -1735.703)" fill="#324346"/>
          <path id="Trazado_1025227" data-name="Trazado 1025227" d="M2544.781,2494.105c0,.037,0,.074,0,.111a1.827,1.827,0,0,1-1.269,1.855,1.971,1.971,0,0,1-1.847-1.608,4.5,4.5,0,0,1,0-1.32,1.651,1.651,0,0,1,.95-1.273,1.11,1.11,0,0,1,1.731.548,14.048,14.048,0,0,1,.526,1.659l-.093.029" transform="translate(-2260.526 -2216.095)" fill="#fa9d7d"/>
          <path id="Trazado_1025228" data-name="Trazado 1025228" d="M2202.319,1194.666a1.934,1.934,0,0,0-.324-.056,4.356,4.356,0,0,1-4.1-4.26,8.454,8.454,0,0,1,1.553-4.976,7.035,7.035,0,0,1,7.454-2.864,7.312,7.312,0,0,1,5.595,5.1,10.273,10.273,0,0,1,.645,3.676c-.011.294-.087.505-.426.514-.733-.593-.772-1.538-1.155-2.308a7.516,7.516,0,0,0-3.382-3.693c-.412.25-.281.569-.233.833a7.372,7.372,0,0,1-4.376,7.833c-.4.144-.786.429-1.25.2" transform="translate(-1954.813 -1051.565)" fill="#324346"/>
          <path id="Trazado_1025229" data-name="Trazado 1025229" d="M1914.3,1172.362a5.141,5.141,0,0,1-4.595-2.349,3.954,3.954,0,0,1-.713-3.127,9.131,9.131,0,0,1,2.5-4.935,7.223,7.223,0,0,1,7.484-1.485,7.743,7.743,0,0,1,4.757,5.81,30.729,30.729,0,0,1,.5,3.042,2.742,2.742,0,0,1-.151.826,4.482,4.482,0,0,1-.8-2.012,7.685,7.685,0,0,0-4.444-4.979c-.353.4-.054.687.026.97a7.291,7.291,0,0,1-2.27,7.363,2.956,2.956,0,0,1-2.292.877" transform="translate(-1697.811 -1031.711)" fill="#324346"/>
          <path id="Trazado_1025230" data-name="Trazado 1025230" d="M2226.57,1109.652c-.7-.491-1.379-.959-2.047-1.447a20.875,20.875,0,0,0-4.574-2.653,21.911,21.911,0,0,0-6.33-1.429,14.511,14.511,0,0,1-2.186-.294c-1.171-.281-1.407-1.313-.529-2.161a2.986,2.986,0,0,1,1.646-.848,10.571,10.571,0,0,1,5.652.485,17.8,17.8,0,0,1,7.156,5.409,7.177,7.177,0,0,1,1.311,2.646c.015.057-.043.132-.1.292" transform="translate(-1965.917 -978.927)" fill="#324346"/>
          <path id="Trazado_1025231" data-name="Trazado 1025231" d="M1957.525,1194.2a14.65,14.65,0,0,0,1.614-.7,5.026,5.026,0,0,0,2.586-3.546,18.73,18.73,0,0,0,.258-2.963,5.651,5.651,0,0,0-.325-1.5,9.84,9.84,0,0,0-.367-.935,4.878,4.878,0,0,1,.705.145,7.845,7.845,0,0,1,4.838,5.376c.186.626.318,1.269.475,1.9a1.908,1.908,0,0,1-.914,1.292,10.266,10.266,0,0,1-4.728,1.579,17.664,17.664,0,0,1-3.711-.225c-.27-.028-.359-.212-.431-.427" transform="translate(-1741.031 -1053.553)" fill="#fff"/>
          <path id="Trazado_1025232" data-name="Trazado 1025232" d="M2237.93,1219.123a7.147,7.147,0,0,0,3.787-2.338,7.293,7.293,0,0,0,1.591-5.57c-.049-.431-.125-.858-.2-1.392a3.211,3.211,0,0,1,.651.123,6.249,6.249,0,0,1,3.09,2.883c.576,1.1.995,2.281,1.483,3.427a3.724,3.724,0,0,1-1.792,1.724,10.617,10.617,0,0,1-5.537,1.587c-.846.005-1.691-.01-2.537-.011a.465.465,0,0,1-.531-.434" transform="translate(-1990.424 -1076.022)" fill="#fff"/>
          <path id="Trazado_1025233" data-name="Trazado 1025233" d="M1894.125,1084.55a.872.872,0,0,1,.336-1.1c.594-.494,1.187-.993,1.817-1.439a21.271,21.271,0,0,1,5.848-3.28,9.137,9.137,0,0,1,3.129-.586,3.608,3.608,0,0,1,3.22,2.149,1.7,1.7,0,0,1,.146.414c.284,1.327-.211,1.938-1.558,1.772a33.8,33.8,0,0,0-4.737-.22,16.92,16.92,0,0,0-6.7,1.656c-.464.209-.937.4-1.5.637" transform="translate(-1684.577 -958.9)" fill="#324346"/>
          <path id="Trazado_1025234" data-name="Trazado 1025234" d="M2023.65,1480.167a17.586,17.586,0,0,1-5.548,2.144,21.909,21.909,0,0,1-6.148.413,12.263,12.263,0,0,1-5.831-1.841,4.832,4.832,0,0,1-.6-.562,3.2,3.2,0,0,1,.7-.063c1.227.22,2.45.465,3.677.689a8.3,8.3,0,0,0,.984.108,58.993,58.993,0,0,0,7.5-.245c1.315-.087,2.617-.358,3.926-.535.364-.049.733-.06,1.334-.107" transform="translate(-1783.723 -1316.467)" fill="#fff"/>
          <path id="Trazado_1025235" data-name="Trazado 1025235" d="M2050.126,1318.019c-.135.523-.261,1.049-.406,1.569-.421,1.518-.853,3.034-1.271,4.552a4.981,4.981,0,0,0-.129.756,1.5,1.5,0,0,0,.75,1.587c.378.224.761.442,1.129.681a3.4,3.4,0,0,1,.427.421,3.156,3.156,0,0,1-2.124-.213,7.672,7.672,0,0,1-1.771-.842,1.118,1.118,0,0,1-.306-.773,3.5,3.5,0,0,1,.5-1.89c.686-1.337,1.387-2.667,2.074-4,.316-.615.613-1.241.918-1.862l.207.017" transform="translate(-1820.092 -1172.236)" fill="#4d6b61"/>
          <path id="Trazado_1025236" data-name="Trazado 1025236" d="M2056.039,1745.588c-3.747,2.766-6.837,6.243-10.158,9.535-.195-.387.07-.5.187-.642,1.106-1.376,2.225-2.744,3.34-4.113a23.023,23.023,0,0,1,4.75-4.1c.329-.233.658-.467.993-.692a.784.784,0,0,1,.814-.176.125.125,0,0,1,.073.187" transform="translate(-1819.553 -1552.316)" fill="#324346"/>
          <path id="Trazado_1025237" data-name="Trazado 1025237" d="M2137.694,1728.17a.888.888,0,0,0-.074-.187l.033,0a.454.454,0,0,0,.22-.319c.008-.036,0-.087.026-.1a12.962,12.962,0,0,1,3.419-1.8,4.881,4.881,0,0,1-.437.377q-1.483,1.015-2.978,2.014c-.052.034-.139.015-.21.02" transform="translate(-1901.209 -1534.897)" fill="#4d6b61"/>
          <path id="Trazado_1025238" data-name="Trazado 1025238" d="M2201.18,1443.36c-1.072-.359-1.932-.675-2.289-1.736a3.283,3.283,0,0,1,2.289,1.736" transform="translate(-1955.703 -1282.186)" fill="#324346"/>
          <path id="Trazado_1025239" data-name="Trazado 1025239" d="M2138.139,1743l-.22.319.22-.319" transform="translate(-1901.474 -1550.233)" fill="#324346"/>
          <path id="Trazado_1025240" data-name="Trazado 1025240" d="M2175.575,1721.98l-.047.069.055-.061Z" transform="translate(-1934.924 -1531.536)" fill="#4d6b61"/>
          <path id="Trazado_1025241" data-name="Trazado 1025241" d="M2175.964,1721.487l.044-.07-.051.062.008.008" transform="translate(-1935.305 -1531.036)" fill="#4d6b61"/>
          <path id="Trazado_1025242" data-name="Trazado 1025242" d="M2516.879,1293.265a6.477,6.477,0,0,0,.69-2.414,2.106,2.106,0,0,0-1.425-2.13c-.271-.113-.561-.186-.822-.316-.695-.346-.773-.707-.27-1.28a7.464,7.464,0,0,1,.864-.849,9.981,9.981,0,0,1,4.148-1.947,4.017,4.017,0,0,1,.776-.007,2.779,2.779,0,0,1-.421.514c-.991.7-2,1.371-2.992,2.063-.236.165-.444.369-.719.6.233.335.418.643.644.918a3.448,3.448,0,0,1,.435,3.825,11.462,11.462,0,0,1-.779,1.309c-.176-.036-.294-.1-.128-.286" transform="translate(-2236.611 -1142.266)" fill="#324346"/>
          <path id="Trazado_1025243" data-name="Trazado 1025243" d="M2516.226,1365.322l.128.286c-.205.85-.961,1.242-1.516,1.8a5.223,5.223,0,0,1-.844.563,3.718,3.718,0,0,1,.665-.861c.285-.284.564-.574.83-.876s.492-.6.737-.908" transform="translate(-2235.957 -1214.323)" fill="#4d6b61"/>
          <path id="Trazado_1025244" data-name="Trazado 1025244" d="M2738.224,1452.832l-.139-.228.3.061-.166.167" transform="translate(-2435.265 -1291.952)" fill="#4d6b61"/>
          <path id="Trazado_1025245" data-name="Trazado 1025245" d="M2237.133,1206.231a1.632,1.632,0,0,1-1.594-2.2,1,1,0,0,1,.844-.76,2.16,2.16,0,0,1,2.406,1.437,1.071,1.071,0,0,1-.342,1.091,1.7,1.7,0,0,1-1.314.43" transform="translate(-1988.248 -1070.156)" fill="#fff"/>
          <path id="Trazado_1025246" data-name="Trazado 1025246" d="M1945.2,1183.953c1-.008,1.42.349,1.44,1.226a1.5,1.5,0,0,1-1.491,1.56,1.456,1.456,0,0,1-1.456-1.457c0-.868.512-1.321,1.507-1.329" transform="translate(-1728.726 -1053.012)" fill="#fff"/>
        </g>
      </g>
    </g>
  </g>
</svg>
