<svg xmlns="http://www.w3.org/2000/svg" xmlns:xlink="http://www.w3.org/1999/xlink" width="108" height="108" viewBox="0 0 108 108">
  <defs>
    <filter id="Trazado_978624" x="0" y="0" width="108" height="108" filterUnits="userSpaceOnUse">
      <feOffset dy="3" input="SourceAlpha"/>
      <feGaussianBlur stdDeviation="3" result="blur"/>
      <feFlood flood-opacity="0.161"/>
      <feComposite operator="in" in2="blur"/>
      <feComposite in="SourceGraphic"/>
    </filter>
  </defs>
  <g id="Grupo_1171213" data-name="Grupo 1171213" transform="translate(-616 -3637)">
    <g id="Grupo_1168322" data-name="Grupo 1168322" transform="translate(625 3643)">
      <g id="Grupo_1164524" data-name="Grupo 1164524">
        <g id="Grupo_1144123" data-name="Grupo 1144123">
          <g transform="matrix(1, 0, 0, 1, -9, -6)" filter="url(#Trazado_978624)">
            <g id="Trazado_978624-2" data-name="Trazado 978624" transform="translate(9 6)" fill="#f4fdfe">
              <path d="M 45 88.5 C 39.12687683105469 88.5 33.43022537231445 87.35007476806641 28.06830024719238 85.08217620849609 C 22.88852500915527 82.89131164550781 18.23629951477051 79.75458526611328 14.2408504486084 75.75914764404297 C 10.24541282653809 71.76370239257812 7.108687400817871 67.11147308349609 4.917825222015381 61.93170166015625 C 2.649924993515015 56.56977462768555 1.5 50.87312316894531 1.5 45 C 1.5 39.12687683105469 2.649924993515015 33.43022537231445 4.917825222015381 28.06830024719238 C 7.108687400817871 22.88852500915527 10.24541282653809 18.23629951477051 14.2408504486084 14.2408504486084 C 18.23629951477051 10.24541282653809 22.88852500915527 7.108687400817871 28.06830024719238 4.917825222015381 C 33.43022537231445 2.649924993515015 39.12687683105469 1.5 45 1.5 C 50.87312316894531 1.5 56.56977462768555 2.649924993515015 61.93170166015625 4.917825222015381 C 67.11147308349609 7.108687400817871 71.76370239257812 10.24541282653809 75.75914764404297 14.2408504486084 C 79.75458526611328 18.23629951477051 82.89131164550781 22.88852500915527 85.08217620849609 28.06830024719238 C 87.35007476806641 33.43022537231445 88.5 39.12687683105469 88.5 45 C 88.5 50.87312316894531 87.35007476806641 56.56977462768555 85.08217620849609 61.93170166015625 C 82.89131164550781 67.11147308349609 79.75458526611328 71.76370239257812 75.75914764404297 75.75914764404297 C 71.76370239257812 79.75458526611328 67.11147308349609 82.89131164550781 61.93170166015625 85.08217620849609 C 56.56977462768555 87.35007476806641 50.87312316894531 88.5 45 88.5 Z" stroke="none"/>
              <path d="M 45 3 C 39.32871246337891 3 33.82865524291992 4.110054016113281 28.65262985229492 6.299339294433594 C 23.65165710449219 8.414573669433594 19.15968322753906 11.44334411621094 15.301513671875 15.301513671875 C 11.44334411621094 19.15968322753906 8.414573669433594 23.65165710449219 6.299339294433594 28.65262985229492 C 4.110054016113281 33.82865524291992 3 39.32871246337891 3 45 C 3 50.67128753662109 4.110054016113281 56.17134475708008 6.299339294433594 61.34737396240234 C 8.414573669433594 66.34834289550781 11.44334411621094 70.84031677246094 15.301513671875 74.698486328125 C 19.15968322753906 78.55665588378906 23.65165710449219 81.58542633056641 28.65262985229492 83.70066070556641 C 33.82865524291992 85.88994598388672 39.32871246337891 87 45 87 C 50.67128753662109 87 56.17134475708008 85.88994598388672 61.34737396240234 83.70066070556641 C 66.34834289550781 81.58542633056641 70.84031677246094 78.55665588378906 74.698486328125 74.698486328125 C 78.55665588378906 70.84031677246094 81.58542633056641 66.34834289550781 83.70066070556641 61.34737396240234 C 85.88994598388672 56.17134475708008 87 50.67128753662109 87 45 C 87 39.32871246337891 85.88994598388672 33.82865524291992 83.70066070556641 28.65262985229492 C 81.58542633056641 23.65165710449219 78.55665588378906 19.15968322753906 74.698486328125 15.301513671875 C 70.84031677246094 11.44334411621094 66.34834289550781 8.414573669433594 61.34737396240234 6.299339294433594 C 56.17134475708008 4.110054016113281 50.67128753662109 3 45 3 M 45 0 C 69.85281372070312 0 90 20.14718627929688 90 45 C 90 69.85281372070312 69.85281372070312 90 45 90 C 20.14718627929688 90 0 69.85281372070312 0 45 C 0 20.14718627929688 20.14718627929688 0 45 0 Z" stroke="none" fill="#56838a"/>
            </g>
          </g>
        </g>
      </g>
    </g>
    <g id="lamp_1108637_1_" data-name="lamp_1108637 (1)" transform="translate(639.441 3656.891)">
      <path id="Trazado_1024408" data-name="Trazado 1024408" d="M125.817,106.667A18.667,18.667,0,1,1,107.151,88,18.667,18.667,0,0,1,125.817,106.667Zm0,0" transform="translate(-76.592 -76.593)" fill="#fff98e"/>
      <path id="Trazado_1024409" data-name="Trazado 1024409" d="M135,120s-14.519,0-14.519,15.556S148.484,120,135,120Zm0,0" transform="translate(-104.444 -104.444)" fill="#fffdd9"/>
      <path id="Trazado_1024410" data-name="Trazado 1024410" d="M98.2,283.926c0-.01-.011-.01-.011-.021a.54.54,0,0,1-.062-.166c-.017-.033-.027-.065-.042-.1.082.207.17.415.259.622-.038-.091-.079-.178-.114-.269C98.217,283.978,98.207,283.947,98.2,283.926Zm0,0" transform="translate(-84.946 -246.872)" fill="#fff98e"/>
      <path id="Trazado_1024411" data-name="Trazado 1024411" d="M103.915,296.6c-.242-.407-.472-.822-.681-1.255C103.445,295.772,103.673,296.189,103.915,296.6Zm0,0" transform="translate(-89.43 -257.058)" fill="#fff98e"/>
      <path id="Trazado_1024412" data-name="Trazado 1024412" d="M93.676,270.223q.218.791.5,1.556c-.09-.237-.178-.474-.254-.719C93.832,270.778,93.752,270.5,93.676,270.223Zm0,0" transform="translate(-81.111 -235.194)" fill="#fff98e"/>
      <path id="Trazado_1024413" data-name="Trazado 1024413" d="M110.376,308.236l-.028-.045Zm0,0" transform="translate(-95.622 -268.24)" fill="#fff98e"/>
      <path id="Trazado_1024414" data-name="Trazado 1024414" d="M88.837,235.609a.585.585,0,0,1-.031-.187c-.062-.321-.114-.653-.156-.985a.149.149,0,0,1-.01-.094c-.011-.041-.011-.093-.021-.135-.042-.332-.072-.663-.093-1.006-.031-.394-.042-.8-.042-1.2a18.648,18.648,0,0,0,.639,4.838,3.01,3.01,0,0,1-.1-.41C88.951,236.158,88.888,235.889,88.837,235.609Zm0,0" transform="translate(-76.593 -201.926)" fill="#fff98e"/>
      <path id="Trazado_1024415" data-name="Trazado 1024415" d="M371.718,234.209c-.01.042-.01.094-.02.135a.149.149,0,0,1-.011.094.138.138,0,0,1-.01.062c0,.031-.011.052-.011.083a7.463,7.463,0,0,1-.135.84c-.021.135-.052.28-.083.415a5.344,5.344,0,0,1-.125.56c-.042.2-.093.4-.155.6a.152.152,0,0,1-.005.022,18.732,18.732,0,0,0,.69-5.02c0,.4-.011.809-.042,1.2C371.791,233.545,371.76,233.877,371.718,234.209Zm0,0" transform="translate(-322.628 -201.926)" fill="#fff98e"/>
      <path id="Trazado_1024416" data-name="Trazado 1024416" d="M116.239,316.807c-.228-.27-.435-.55-.643-.84-.008-.008-.015-.019-.025-.029a18.789,18.789,0,0,0,1.6,1.924c-.07-.077-.146-.147-.216-.225-.249-.269-.487-.549-.715-.829Zm0,0" transform="translate(-100.168 -274.983)" fill="#fff98e"/>
      <path id="Trazado_1024417" data-name="Trazado 1024417" d="M114.356,314.181c-.011-.015-.02-.03-.031-.045.021.029.039.059.059.088l-.008-.013C114.366,314.2,114.356,314.191,114.356,314.181Zm0,0" transform="translate(-99.083 -273.415)" fill="#fff98e"/>
      <path id="Trazado_1024418" data-name="Trazado 1024418" d="M100.938,290.431a.822.822,0,0,1-.039-.079c.07.156.138.311.213.469a1.677,1.677,0,0,1-.111-.255C100.979,290.524,100.959,290.472,100.938,290.431Zm0,0" transform="translate(-87.397 -252.713)" fill="#fff98e"/>
      <path id="Trazado_1024419" data-name="Trazado 1024419" d="M367.684,272.806c.157-.43.3-.866.425-1.31-.059.229-.13.453-.208.675S367.757,272.6,367.684,272.806Zm0,0" transform="translate(-319.599 -236.302)" fill="#fff98e"/>
      <path id="Trazado_1024420" data-name="Trazado 1024420" d="M176.364,352H156.722l.042.322v.021l.519,3.806.066.488.736,5.506a7.89,7.89,0,0,0,.7,1.265H174.3a7.887,7.887,0,0,0,.7-1.265l.736-5.506.581-4.293v-.021Zm0,0" transform="translate(-135.984 -306.37)" fill="#a0815c"/>
      <g id="Grupo_1171212" data-name="Grupo 1171212" transform="translate(12.53 34.914)">
        <path id="Trazado_1024421" data-name="Trazado 1024421" d="M152.484,351.721h.062a.216.216,0,0,1-.062-.042Zm0,0" transform="translate(-144.826 -341.005)" fill="#fff98e"/>
        <path id="Trazado_1024422" data-name="Trazado 1024422" d="M366.924,281.843c.03-.073.052-.151.079-.226-.032.089-.062.179-.1.268Zm0,0" transform="translate(-331.453 -280.025)" fill="#fff98e"/>
        <path id="Trazado_1024423" data-name="Trazado 1024423" d="M93.414,269.349c.01.034.021.067.03.1-.011-.039-.023-.078-.034-.117Zm0,0" transform="translate(-93.41 -269.336)" fill="#fff98e"/>
        <path id="Trazado_1024424" data-name="Trazado 1024424" d="M370.955,270.746a.057.057,0,0,1,.005-.02c-.01.034-.02.067-.03.1C370.937,270.8,370.948,270.775,370.955,270.746Zm0,0" transform="translate(-334.955 -270.546)" fill="#fff98e"/>
        <path id="Trazado_1024425" data-name="Trazado 1024425" d="M127.906,330.777c.185.2.367.4.562.584.27.259.55.508.83.757a16.06,16.06,0,0,0,1.794,1.369v-.01a18.891,18.891,0,0,1-3.186-2.7Zm0,0" transform="translate(-123.434 -322.812)" fill="#fff98e"/>
        <path id="Trazado_1024426" data-name="Trazado 1024426" d="M102.563,294.024c.02.042.046.08.066.122-.029-.06-.062-.118-.09-.178C102.549,293.987,102.554,294.006,102.563,294.024Zm0,0" transform="translate(-101.356 -290.775)" fill="#fff98e"/>
        <path id="Trazado_1024427" data-name="Trazado 1024427" d="M97.62,282.346l.01.026c-.024-.062-.045-.127-.067-.189C97.582,282.237,97.6,282.292,97.62,282.346Zm0,0" transform="translate(-97.024 -280.518)" fill="#fff98e"/>
        <path id="Trazado_1024428" data-name="Trazado 1024428" d="M108.6,305.206c.045.068.086.134.128.2-.084-.134-.161-.274-.242-.415C108.525,305.064,108.557,305.139,108.6,305.206Zm0,0" transform="translate(-106.53 -300.37)" fill="#fff98e"/>
        <path id="Trazado_1024429" data-name="Trazado 1024429" d="M100.19,288.691a.228.228,0,0,1,.012.025c-.036-.081-.07-.163-.1-.244C100.128,288.545,100.156,288.619,100.19,288.691Zm0,0" transform="translate(-99.231 -285.992)" fill="#fff98e"/>
        <path id="Trazado_1024430" data-name="Trazado 1024430" d="M110.676,308.715c.125.182.243.364.374.546-.167-.24-.332-.479-.488-.726C110.6,308.6,110.637,308.658,110.676,308.715Zm0,0" transform="translate(-108.339 -303.454)" fill="#fff98e"/>
        <path id="Trazado_1024431" data-name="Trazado 1024431" d="M114.836,314.919a.276.276,0,0,0,.037.044c-.035-.049-.068-.1-.1-.145C114.789,314.846,114.808,314.881,114.836,314.919Zm0,0" transform="translate(-112.001 -308.921)" fill="#fff98e"/>
        <path id="Trazado_1024432" data-name="Trazado 1024432" d="M153.043,352a5.658,5.658,0,0,0,.519.342v-.021C153.385,352.218,153.209,352.1,153.043,352Zm0,0" transform="translate(-145.313 -341.284)" fill="#fff98e"/>
        <path id="Trazado_1024433" data-name="Trazado 1024433" d="M152.484,351.612a.216.216,0,0,0,.062.042h.01c-.021-.021-.052-.031-.072-.052Zm0,0" transform="translate(-144.826 -340.938)" fill="#fff98e"/>
      </g>
      <path id="Trazado_1024434" data-name="Trazado 1024434" d="M225.521,8.3a1.037,1.037,0,0,0,1.037-1.037V1.037a1.037,1.037,0,0,0-2.074,0V7.259A1.037,1.037,0,0,0,225.521,8.3Zm0,0" transform="translate(-194.963)" fill="#231f20"/>
      <path id="Trazado_1024435" data-name="Trazado 1024435" d="M115.71,36.884a1.037,1.037,0,1,0,1.8-1.037l-3.111-5.392a1.037,1.037,0,1,0-1.8,1.037Zm0,0" transform="translate(-97.457 -26.05)" fill="#231f20"/>
      <path id="Trazado_1024436" data-name="Trazado 1024436" d="M31.049,113.957l5.392,3.111a1.037,1.037,0,0,0,1.037-1.8l-5.392-3.111a1.037,1.037,0,0,0-1.037,1.8Zm0,0" transform="translate(-26.156 -97.503)" fill="#231f20"/>
      <path id="Trazado_1024437" data-name="Trazado 1024437" d="M8.781,225.037A1.037,1.037,0,0,0,7.744,224H1.521a1.037,1.037,0,0,0,0,2.074H7.744A1.037,1.037,0,0,0,8.781,225.037Zm0,0" transform="translate(0 -194.963)" fill="#231f20"/>
      <path id="Trazado_1024438" data-name="Trazado 1024438" d="M36.331,312.115l-5.392,3.111a1.037,1.037,0,1,0,1.037,1.8l5.392-3.111a1.037,1.037,0,1,0-1.037-1.8Zm0,0" transform="translate(-26.05 -271.532)" fill="#231f20"/>
      <path id="Trazado_1024439" data-name="Trazado 1024439" d="M383.783,315.226l-5.393-3.111a1.037,1.037,0,1,0-1.037,1.8l5.393,3.111a1.037,1.037,0,0,0,1.037-1.8Zm0,0" transform="translate(-327.559 -271.532)" fill="#231f20"/>
      <path id="Trazado_1024440" data-name="Trazado 1024440" d="M407.743,224h-6.222a1.037,1.037,0,1,0,0,2.074h6.222a1.037,1.037,0,0,0,0-2.074Zm0,0" transform="translate(-348.148 -194.963)" fill="#231f20"/>
      <path id="Trazado_1024441" data-name="Trazado 1024441" d="M377.951,117.207a1.04,1.04,0,0,0,.519-.139l5.393-3.111a1.037,1.037,0,0,0-1.037-1.8l-5.393,3.111a1.037,1.037,0,0,0,.518,1.935Zm0,0" transform="translate(-327.633 -97.503)" fill="#231f20"/>
      <path id="Trazado_1024442" data-name="Trazado 1024442" d="M313,37.263a1.036,1.036,0,0,0,1.416-.38l3.111-5.392a1.037,1.037,0,1,0-1.8-1.037l-3.111,5.392a1.037,1.037,0,0,0,.38,1.417Zm0,0" transform="translate(-271.553 -26.05)" fill="#231f20"/>
      <path id="Trazado_1024443" data-name="Trazado 1024443" d="M113.521,128.593a1.037,1.037,0,0,0,1.037-1.037,13.5,13.5,0,0,1,13.482-13.482,1.037,1.037,0,1,0,0-2.074,15.573,15.573,0,0,0-15.556,15.556A1.037,1.037,0,0,0,113.521,128.593Zm0,0" transform="translate(-97.481 -97.481)" fill="#231f20"/>
      <path id="Trazado_1024444" data-name="Trazado 1024444" d="M180.4,444.148A9.317,9.317,0,0,0,188.158,440H172.644a9.316,9.316,0,0,0,7.757,4.148Zm0,0" transform="translate(-149.842 -382.963)" fill="#544028"/>
      <path id="Trazado_1024445" data-name="Trazado 1024445" d="M160.484,384h18.667v2.074H160.484Zm0,0" transform="translate(-139.259 -334.222)" fill="#64513a"/>
      <path id="Trazado_1024446" data-name="Trazado 1024446" d="M160.484,352h18.667v2.074H160.484Zm0,0" transform="translate(-139.259 -306.37)" fill="#64513a"/>
      <path id="Trazado_1024447" data-name="Trazado 1024447" d="M119.165,104.731v-.006c.033-.1.063-.216.089-.317.037-.143.068-.288.1-.431s.068-.289.088-.4a19.7,19.7,0,1,0-38.962-4.125c0,.461.02.92.052,1.375.017.252.042.508.072.777.058.529.133,1.053.233,1.573.009.043.012.086.023.129.046.237.1.468.159.7.032.134.063.267.1.4.016.056.024.1.042.168.042.154.09.3.136.452.049.168.1.336.149.5l.007.02c.093.3.2.6.327.922.024.063.049.126.073.187a1.319,1.319,0,0,0,.089.224l.006.012c.069.185.15.368.231.54l.014.026c.052.117.1.233.16.35.026.058.051.122.077.175a17.923,17.923,0,0,0,.927,1.707l.1.153c.062.1.126.208.189.3l.128.189c.062.092.127.184.19.275.046.066.088.133.135.2.023.037.045.074.073.113s.046.058.068.087c.041.056.082.1.123.159.17.23.342.458.519.682l.013.016c.033.039.067.077.1.116.208.251.415.5.638.741h.005c.185.208.381.4.576.6.062.061.119.127.181.187.027.026.051.055.078.081.28.27.57.528.858.783a16.985,16.985,0,0,0,1.719,1.324,1.043,1.043,0,0,0,.393.275l.406,3.02a.961.961,0,0,0-.029.169,1.021,1.021,0,0,0,.117.457l.763,5.675a1,1,0,0,0,.08.283,8.9,8.9,0,0,0,.79,1.419v.007l.008.009a10.36,10.36,0,0,0,17.209,0l.008-.009.005-.007a8.856,8.856,0,0,0,.79-1.419,1,1,0,0,0,.08-.283l1.254-9.322a1.013,1.013,0,0,0,.207-.1,19.718,19.718,0,0,0,8.02-11.1.062.062,0,0,0,.016-.038ZM100.188,81.819a17.65,17.65,0,0,1,17.63,17.63c0,.376-.01.754-.04,1.141-.02.32-.049.628-.087.939v.024a1.239,1.239,0,0,0-.026.172v.021c-.007.031-.011.062-.015.1s-.006.052-.009.079a.683.683,0,0,1-.013.09c-.023.161-.047.32-.074.48-.014.072-.024.14-.042.222-.017.11-.043.228-.081.4v.019c-.026.124-.053.249-.082.372-.01.042-.018.076-.03.124a5.127,5.127,0,0,1-.131.5c-.02.073-.042.147-.062.221-.051.188-.1.371-.174.572-.085.265-.169.531-.273.785l-.041.1q-.073.2-.166.4a.9.9,0,0,0-.057.139l-.021.047c-.092.232-.195.454-.328.726-.075.168-.158.327-.241.486l-.126.248a17.576,17.576,0,0,1-5.53,6.128.941.941,0,0,0-.164-.019h-5.672V105.25l.083.059a1.037,1.037,0,0,0,1.21,0l2.422-1.74a1.037,1.037,0,1,0-1.209-1.684l-1.819,1.305-1.818-1.305a1.037,1.037,0,0,0-1.211,0l-1.813,1.3-1.812-1.3a1.038,1.038,0,0,0-1.213,0l-1.811,1.3-1.81-1.3a1.037,1.037,0,0,0-1.213,1.683l2.416,1.741a1.038,1.038,0,0,0,1.213,0l.089-.064v8.723H90.367a1.143,1.143,0,0,0-.132.009,17.756,17.756,0,0,1-3.065-2.66c-.2-.216-.39-.444-.583-.677-.035-.043-.073-.084-.109-.128-.175-.208-.336-.427-.5-.649-.061-.083-.127-.163-.185-.247v-.007c-.009-.012-.016-.024-.024-.034l-.034-.051c-.027-.035-.049-.071-.074-.1-.242-.351-.467-.711-.683-1.078-.208-.348-.395-.7-.569-1.054-.07-.138-.141-.275-.208-.415-.02-.049-.044-.1-.056-.134l-.051-.1-.013-.025v-.006a17.329,17.329,0,0,1-.666-1.731c-.019-.056-.036-.115-.055-.172-.094-.3-.182-.607-.261-.916a.237.237,0,0,0-.013-.049,1.138,1.138,0,0,0-.025-.124c-.019-.07-.032-.144-.049-.215-.05-.216-.1-.43-.143-.648a.431.431,0,0,0-.009-.071c-.055-.283-.1-.577-.139-.87a.805.805,0,0,0-.025-.19.741.741,0,0,0-.013-.094c-.038-.311-.066-.614-.087-.949-.033-.376-.043-.754-.043-1.13a17.649,17.649,0,0,1,17.63-17.63Zm7.454,43.037c-.082.176-.172.349-.269.519H93c-.1-.168-.186-.341-.268-.519l-.627-4.667H108.27Zm.842-6.741H91.827l-.279-2.074h17.279l-.281,2.087c-.022,0-.041-.013-.062-.013Zm-10.37-13.859,1.461,1.052a1.037,1.037,0,0,0,1.212,0l1.475-1.062v9.72H98.114Zm-3.4,23.192h10.955A8.271,8.271,0,0,1,94.71,127.449Zm0,0" transform="translate(-69.629 -69.374)" fill="#231f20"/>
    </g>
  </g>
</svg>
