<svg xmlns="http://www.w3.org/2000/svg" xmlns:xlink="http://www.w3.org/1999/xlink" width="108" height="108" viewBox="0 0 108 108">
  <defs>
    <filter id="Trazado_978624" x="0" y="0" width="108" height="108" filterUnits="userSpaceOnUse">
      <feOffset dy="3" input="SourceAlpha"/>
      <feGaussianBlur stdDeviation="3" result="blur"/>
      <feFlood flood-opacity="0.161"/>
      <feComposite operator="in" in2="blur"/>
      <feComposite in="SourceGraphic"/>
    </filter>
    <clipPath id="clip-path">
      <path id="path495" d="M0-682.665H63.143v63.143H0Z" transform="translate(0 682.665)"/>
    </clipPath>
  </defs>
  <g id="Grupo_1171438" data-name="Grupo 1171438" transform="translate(-196 -826)">
    <g id="Grupo_1171052" data-name="Grupo 1171052" transform="translate(205 832)">
      <g id="Grupo_1164581" data-name="Grupo 1164581">
        <g id="Grupo_1144123" data-name="Grupo 1144123">
          <g transform="matrix(1, 0, 0, 1, -9, -6)" filter="url(#Trazado_978624)">
            <g id="Trazado_978624-2" data-name="Trazado 978624" transform="translate(9 6)" fill="#f4fdfe">
              <path d="M 45 88.5 C 39.12687683105469 88.5 33.43022537231445 87.35007476806641 28.06830024719238 85.08217620849609 C 22.88852500915527 82.89131164550781 18.23629951477051 79.75458526611328 14.2408504486084 75.75914764404297 C 10.24541282653809 71.76370239257812 7.108687400817871 67.11147308349609 4.917825222015381 61.93170166015625 C 2.649924993515015 56.56977462768555 1.5 50.87312316894531 1.5 45 C 1.5 39.12687683105469 2.649924993515015 33.43022537231445 4.917825222015381 28.06830024719238 C 7.108687400817871 22.88852500915527 10.24541282653809 18.23629951477051 14.2408504486084 14.2408504486084 C 18.23629951477051 10.24541282653809 22.88852500915527 7.108687400817871 28.06830024719238 4.917825222015381 C 33.43022537231445 2.649924993515015 39.12687683105469 1.5 45 1.5 C 50.87312316894531 1.5 56.56977462768555 2.649924993515015 61.93170166015625 4.917825222015381 C 67.11147308349609 7.108687400817871 71.76370239257812 10.24541282653809 75.75914764404297 14.2408504486084 C 79.75458526611328 18.23629951477051 82.89131164550781 22.88852500915527 85.08217620849609 28.06830024719238 C 87.35007476806641 33.43022537231445 88.5 39.12687683105469 88.5 45 C 88.5 50.87312316894531 87.35007476806641 56.56977462768555 85.08217620849609 61.93170166015625 C 82.89131164550781 67.11147308349609 79.75458526611328 71.76370239257812 75.75914764404297 75.75914764404297 C 71.76370239257812 79.75458526611328 67.11147308349609 82.89131164550781 61.93170166015625 85.08217620849609 C 56.56977462768555 87.35007476806641 50.87312316894531 88.5 45 88.5 Z" stroke="none"/>
              <path d="M 45 3 C 39.32871246337891 3 33.82865524291992 4.110054016113281 28.65262985229492 6.299339294433594 C 23.65165710449219 8.414573669433594 19.15968322753906 11.44334411621094 15.301513671875 15.301513671875 C 11.44334411621094 19.15968322753906 8.414573669433594 23.65165710449219 6.299339294433594 28.65262985229492 C 4.110054016113281 33.82865524291992 3 39.32871246337891 3 45 C 3 50.67128753662109 4.110054016113281 56.17134475708008 6.299339294433594 61.34737396240234 C 8.414573669433594 66.34834289550781 11.44334411621094 70.84031677246094 15.301513671875 74.698486328125 C 19.15968322753906 78.55665588378906 23.65165710449219 81.58542633056641 28.65262985229492 83.70066070556641 C 33.82865524291992 85.88994598388672 39.32871246337891 87 45 87 C 50.67128753662109 87 56.17134475708008 85.88994598388672 61.34737396240234 83.70066070556641 C 66.34834289550781 81.58542633056641 70.84031677246094 78.55665588378906 74.698486328125 74.698486328125 C 78.55665588378906 70.84031677246094 81.58542633056641 66.34834289550781 83.70066070556641 61.34737396240234 C 85.88994598388672 56.17134475708008 87 50.67128753662109 87 45 C 87 39.32871246337891 85.88994598388672 33.82865524291992 83.70066070556641 28.65262985229492 C 81.58542633056641 23.65165710449219 78.55665588378906 19.15968322753906 74.698486328125 15.301513671875 C 70.84031677246094 11.44334411621094 66.34834289550781 8.414573669433594 61.34737396240234 6.299339294433594 C 56.17134475708008 4.110054016113281 50.67128753662109 3 45 3 M 45 0 C 69.85281372070312 0 90 20.14718627929688 90 45 C 90 69.85281372070312 69.85281372070312 90 45 90 C 20.14718627929688 90 0 69.85281372070312 0 45 C 0 20.14718627929688 20.14718627929688 0 45 0 Z" stroke="none" fill="#56838a"/>
            </g>
          </g>
        </g>
      </g>
    </g>
    <g id="g489" transform="translate(218.429 1528.094)">
      <g id="g491" transform="translate(0 -682.665)">
        <g id="g493" transform="translate(0 0)" clip-path="url(#clip-path)">
          <g id="g499" transform="translate(3.514 5.081)">
            <path id="path501" d="M-534.424-268.165a27.234,27.234,0,0,1-27.334,27.133,27.234,27.234,0,0,1-27.136-27.332A27.234,27.234,0,0,1-561.56-295.5a27.234,27.234,0,0,1,27.135,27.332" transform="translate(588.894 295.497)" fill="#fb2b3a"/>
          </g>
          <g id="g503" transform="translate(3.514 5.081)">
            <path id="path505" d="M-30.252-266.218a27.234,27.234,0,0,1,25.7-27.089q-.721-.041-1.453-.044a27.234,27.234,0,0,0-27.334,27.133A27.234,27.234,0,0,0-6.2-238.887c.548,0,1.091-.014,1.63-.044a27.235,27.235,0,0,1-25.683-27.288" transform="translate(33.335 293.352)" fill="#e41f2d"/>
          </g>
          <g id="g507" transform="translate(3.514 5.081)">
            <path id="path509" d="M-534.424-268.165a27.234,27.234,0,0,1-27.334,27.133,27.234,27.234,0,0,1-27.136-27.332A27.234,27.234,0,0,1-561.56-295.5,27.234,27.234,0,0,1-534.424-268.165Z" transform="translate(588.894 295.497)" fill="none" stroke="#000" stroke-linecap="round" stroke-linejoin="round" stroke-miterlimit="10" stroke-width="2"/>
          </g>
          <g id="g511" transform="translate(9.268 10.834)">
            <path id="path513" d="M-209.99-421.482a21.341,21.341,0,0,1-15.166-6.346,21.338,21.338,0,0,1-6.236-15.211,21.52,21.52,0,0,1,21.479-21.4h.08a21.341,21.341,0,0,1,15.167,6.346,21.337,21.337,0,0,1,6.236,15.211,21.52,21.52,0,0,1-21.478,21.4Z" transform="translate(231.393 464.44)" fill="#fff"/>
          </g>
          <g id="g515" transform="translate(9.268 10.834)">
            <path id="path517" d="M-91.438-359.215a21.338,21.338,0,0,1-6.236-15.211,21.525,21.525,0,0,1,19.942-21.345q-.729-.051-1.466-.056h-.08a21.52,21.52,0,0,0-21.479,21.4,21.338,21.338,0,0,0,6.236,15.211,21.34,21.34,0,0,0,15.166,6.346h.08c.517,0,1.029-.02,1.537-.056a21.321,21.321,0,0,1-13.7-6.291" transform="translate(100.757 395.827)" fill="#efe2dd"/>
          </g>
          <g id="g519" transform="translate(9.268 10.834)">
            <path id="path521" d="M-209.99-421.482a21.341,21.341,0,0,1-15.166-6.346,21.338,21.338,0,0,1-6.236-15.211,21.52,21.52,0,0,1,21.479-21.4h.08a21.341,21.341,0,0,1,15.167,6.346,21.337,21.337,0,0,1,6.236,15.211,21.52,21.52,0,0,1-21.478,21.4Z" transform="translate(231.393 464.44)" fill="none" stroke="#000" stroke-linecap="round" stroke-linejoin="round" stroke-miterlimit="10" stroke-width="2"/>
          </g>
          <g id="g523" transform="translate(15.022 16.587)">
            <path id="path525" d="M-153.672-308.585a15.621,15.621,0,0,1-11.1-4.647,15.621,15.621,0,0,1-4.566-11.136,15.755,15.755,0,0,1,15.725-15.669h.067a15.62,15.62,0,0,1,11.1,4.646,15.621,15.621,0,0,1,4.566,11.137A15.755,15.755,0,0,1-153.6-308.585Z" transform="translate(169.334 340.036)" fill="#fb2b3a"/>
          </g>
          <g id="g527" transform="translate(15.022 16.587)">
            <path id="path529" d="M-81.1-263a15.621,15.621,0,0,1-4.566-11.136,15.762,15.762,0,0,1,13.885-15.56,15.973,15.973,0,0,0-1.793-.108h-.067a15.755,15.755,0,0,0-15.725,15.669A15.621,15.621,0,0,0-84.8-263a15.621,15.621,0,0,0,11.1,4.647h.074a15.779,15.779,0,0,0,1.833-.109A15.609,15.609,0,0,1-81.1-263" transform="translate(89.362 289.801)" fill="#e41f2d"/>
          </g>
          <g id="g531" transform="translate(15.022 16.587)">
            <path id="path533" d="M-153.672-308.585a15.621,15.621,0,0,1-11.1-4.647,15.621,15.621,0,0,1-4.566-11.136,15.755,15.755,0,0,1,15.725-15.669h.067a15.62,15.62,0,0,1,11.1,4.646,15.621,15.621,0,0,1,4.566,11.137A15.755,15.755,0,0,1-153.6-308.585Z" transform="translate(169.334 340.036)" fill="none" stroke="#000" stroke-linecap="round" stroke-linejoin="round" stroke-miterlimit="10" stroke-width="2"/>
          </g>
          <g id="g535" transform="translate(20.776 22.341)">
            <path id="path537" d="M-97.362-195.688a9.9,9.9,0,0,1-7.028-2.947,9.906,9.906,0,0,1-2.9-7.062,9.991,9.991,0,0,1,9.971-9.936h.05a9.9,9.9,0,0,1,7.03,2.946,9.907,9.907,0,0,1,2.9,7.062,9.992,9.992,0,0,1-9.958,9.936Z" transform="translate(107.286 215.633)" fill="#fff"/>
          </g>
          <g id="g539" transform="translate(20.776 22.341)">
            <path id="path541" d="M-58.657-166.777a9.906,9.906,0,0,1-2.9-7.062,10,10,0,0,1,8.439-9.818,10.066,10.066,0,0,0-1.5-.118h-.05a9.991,9.991,0,0,0-9.971,9.936,9.906,9.906,0,0,0,2.9,7.062,9.9,9.9,0,0,0,7.028,2.947h.064a9.953,9.953,0,0,0,1.52-.118,9.9,9.9,0,0,1-5.529-2.828" transform="translate(64.635 183.776)" fill="#efe2dd"/>
          </g>
          <g id="g543" transform="translate(20.776 22.341)">
            <path id="path545" d="M-97.362-195.688a9.9,9.9,0,0,1-7.028-2.947,9.906,9.906,0,0,1-2.9-7.062,9.991,9.991,0,0,1,9.971-9.936h.05a9.9,9.9,0,0,1,7.03,2.946,9.907,9.907,0,0,1,2.9,7.062,9.992,9.992,0,0,1-9.958,9.936Z" transform="translate(107.286 215.633)" fill="none" stroke="#000" stroke-linecap="round" stroke-linejoin="round" stroke-miterlimit="10" stroke-width="2"/>
          </g>
          <g id="g547" transform="translate(26.53 28.094)">
            <path id="path549" d="M-41.069-82.788a4.117,4.117,0,0,1-2.961-1.246,4.135,4.135,0,0,1-1.225-2.988,4.226,4.226,0,0,1,4.209-4.2h.037a4.123,4.123,0,0,1,2.967,1.246,4.135,4.135,0,0,1,1.225,2.988,4.228,4.228,0,0,1-4.2,4.2Z" transform="translate(45.255 91.226)" fill="#fb2b3a"/>
          </g>
          <g id="g551" transform="translate(26.53 28.094)">
            <path id="path553" d="M-36.218-70.559a4.136,4.136,0,0,1-1.225-2.988,4.23,4.23,0,0,1,3-4.023,4.234,4.234,0,0,0-1.219-.18H-35.7a4.226,4.226,0,0,0-4.209,4.2,4.136,4.136,0,0,0,1.225,2.988,4.117,4.117,0,0,0,2.961,1.246h.05a4.187,4.187,0,0,0,1.2-.181,4.162,4.162,0,0,1-1.747-1.066" transform="translate(39.91 77.75)" fill="#e41f2d"/>
          </g>
          <g id="g555" transform="translate(26.53 28.094)">
            <path id="path557" d="M-41.069-82.788a4.117,4.117,0,0,1-2.961-1.246,4.135,4.135,0,0,1-1.225-2.988,4.226,4.226,0,0,1,4.209-4.2h.037a4.123,4.123,0,0,1,2.967,1.246,4.135,4.135,0,0,1,1.225,2.988,4.228,4.228,0,0,1-4.2,4.2Z" transform="translate(45.255 91.226)" fill="none" stroke="#000" stroke-linecap="round" stroke-linejoin="round" stroke-miterlimit="10" stroke-width="2"/>
          </g>
          <g id="g559" transform="translate(30.749 2.492)">
            <path id="path561" d="M0,0V9.781" transform="translate(0)" fill="none" stroke="#000" stroke-linecap="round" stroke-linejoin="round" stroke-miterlimit="10" stroke-width="2"/>
          </g>
          <g id="g563" transform="translate(30.749 52.354)">
            <path id="path565" d="M0,0V9.781" transform="translate(0)" fill="none" stroke="#000" stroke-linecap="round" stroke-linejoin="round" stroke-miterlimit="10" stroke-width="2"/>
          </g>
          <g id="g567" transform="translate(0.925 32.313)">
            <path id="path569" d="M0,0H9.782" fill="none" stroke="#000" stroke-linecap="round" stroke-linejoin="round" stroke-miterlimit="10" stroke-width="2"/>
          </g>
          <g id="g571" transform="translate(50.792 32.313)">
            <path id="path573" d="M0,0H9.782" fill="none" stroke="#000" stroke-linecap="round" stroke-linejoin="round" stroke-miterlimit="10" stroke-width="2"/>
          </g>
          <g id="g575" transform="translate(46.413 1.008)">
            <path id="path577" d="M-103.723-57.3a1.028,1.028,0,0,1-.638-.634l-1.412-4.957a.278.278,0,0,0-.506-.131l-7.761,7.721a.981.981,0,0,0-.231.859l1.353,5.026a.99.99,0,0,0,.632.629l5.052,1.346a1,1,0,0,0,.863-.23l7.761-7.721a.276.276,0,0,0-.132-.5Z" transform="translate(114.295 63.141)" fill="#62dbfb"/>
          </g>
          <g id="g579" transform="translate(46.413 1.008)">
            <path id="path581" d="M-40.375-143.678l-1.438-5.342a1.043,1.043,0,0,1,.246-.913l6.17-6.137-.57-2a.278.278,0,0,0-.506-.131l-7.761,7.721a.981.981,0,0,0-.231.859l1.353,5.026a.99.99,0,0,0,.632.629l2.274.606a.893.893,0,0,1-.168-.315" transform="translate(44.49 158.322)" fill="#01d0fb"/>
          </g>
          <g id="g583" transform="translate(50.77 4.765)">
            <path id="path585" d="M0,0,1.491,5.534A.951.951,0,0,0,2.1,6.14L7.674,7.626" fill="none" stroke="#000" stroke-linecap="round" stroke-linejoin="round" stroke-miterlimit="10" stroke-width="2"/>
          </g>
          <g id="g587" transform="translate(46.413 1.008)">
            <path id="path589" d="M-103.723-57.3a1.028,1.028,0,0,1-.638-.634l-1.412-4.957a.278.278,0,0,0-.506-.131l-7.761,7.721a.981.981,0,0,0-.231.859l1.353,5.026a.99.99,0,0,0,.632.629l5.052,1.346a1,1,0,0,0,.863-.23l7.761-7.721a.276.276,0,0,0-.132-.5Z" transform="translate(114.295 63.141)" fill="none" stroke="#000" stroke-linecap="round" stroke-linejoin="round" stroke-miterlimit="10" stroke-width="2"/>
          </g>
          <g id="g591" transform="translate(30.749 4.395)">
            <path id="path593" d="M0-273.922l28.065-27.919" transform="translate(0 301.841)" fill="none" stroke="#000" stroke-linecap="round" stroke-linejoin="round" stroke-miterlimit="10" stroke-width="2"/>
          </g>
          <g id="g595" transform="translate(41.694 43.326)">
            <path id="path597" d="M-183.539-92.271a9.379,9.379,0,0,1-9.353,9.4,9.379,9.379,0,0,1-9.353-9.4,9.379,9.379,0,0,1,9.353-9.4,9.379,9.379,0,0,1,9.353,9.4" transform="translate(202.246 101.676)" fill="#97d729"/>
          </g>
          <g id="g599" transform="translate(41.694 43.326)">
            <path id="path601" d="M-39-92.271a9.4,9.4,0,0,1,7.366-9.19,9.335,9.335,0,0,0-1.988-.215,9.379,9.379,0,0,0-9.353,9.4,9.379,9.379,0,0,0,9.353,9.4,9.335,9.335,0,0,0,1.988-.215A9.4,9.4,0,0,1-39-92.271" transform="translate(42.979 101.676)" fill="#8bc727"/>
          </g>
          <g id="g603" transform="translate(41.694 43.326)">
            <path id="path605" d="M-183.539-92.271a9.379,9.379,0,0,1-9.353,9.4,9.379,9.379,0,0,1-9.353-9.4,9.379,9.379,0,0,1,9.353-9.4A9.379,9.379,0,0,1-183.539-92.271Z" transform="translate(202.246 101.676)" fill="none" stroke="#000" stroke-linecap="round" stroke-linejoin="round" stroke-miterlimit="10" stroke-width="2"/>
          </g>
          <g id="g607" transform="translate(47.21 50.237)">
            <path id="path609" d="M0-22.133,2.716-19.4l4.959-4.987" transform="translate(0 24.389)" fill="none" stroke="#000" stroke-linecap="round" stroke-linejoin="round" stroke-miterlimit="10" stroke-width="2"/>
          </g>
        </g>
      </g>
    </g>
  </g>
</svg>
