<svg xmlns="http://www.w3.org/2000/svg" xmlns:xlink="http://www.w3.org/1999/xlink" width="108" height="108" viewBox="0 0 108 108">
  <defs>
    <filter id="Trazado_978624" x="0" y="0" width="108" height="108" filterUnits="userSpaceOnUse">
      <feOffset dy="3" input="SourceAlpha"/>
      <feGaussianBlur stdDeviation="3" result="blur"/>
      <feFlood flood-opacity="0.161"/>
      <feComposite operator="in" in2="blur"/>
      <feComposite in="SourceGraphic"/>
    </filter>
  </defs>
  <g id="Grupo_1171437" data-name="Grupo 1171437" transform="translate(-196 -716.414)">
    <g id="Grupo_1171052" data-name="Grupo 1171052" transform="translate(205 722.414)">
      <g id="Grupo_1164581" data-name="Grupo 1164581">
        <g id="Grupo_1144123" data-name="Grupo 1144123">
          <g transform="matrix(1, 0, 0, 1, -9, -6)" filter="url(#Trazado_978624)">
            <g id="Trazado_978624-2" data-name="Trazado 978624" transform="translate(9 6)" fill="#f4fdfe">
              <path d="M 45 88.5 C 39.12687683105469 88.5 33.43022537231445 87.35007476806641 28.06830024719238 85.08217620849609 C 22.88852500915527 82.89131164550781 18.23629951477051 79.75458526611328 14.2408504486084 75.75914764404297 C 10.24541282653809 71.76370239257812 7.108687400817871 67.11147308349609 4.917825222015381 61.93170166015625 C 2.649924993515015 56.56977462768555 1.5 50.87312316894531 1.5 45 C 1.5 39.12687683105469 2.649924993515015 33.43022537231445 4.917825222015381 28.06830024719238 C 7.108687400817871 22.88852500915527 10.24541282653809 18.23629951477051 14.2408504486084 14.2408504486084 C 18.23629951477051 10.24541282653809 22.88852500915527 7.108687400817871 28.06830024719238 4.917825222015381 C 33.43022537231445 2.649924993515015 39.12687683105469 1.5 45 1.5 C 50.87312316894531 1.5 56.56977462768555 2.649924993515015 61.93170166015625 4.917825222015381 C 67.11147308349609 7.108687400817871 71.76370239257812 10.24541282653809 75.75914764404297 14.2408504486084 C 79.75458526611328 18.23629951477051 82.89131164550781 22.88852500915527 85.08217620849609 28.06830024719238 C 87.35007476806641 33.43022537231445 88.5 39.12687683105469 88.5 45 C 88.5 50.87312316894531 87.35007476806641 56.56977462768555 85.08217620849609 61.93170166015625 C 82.89131164550781 67.11147308349609 79.75458526611328 71.76370239257812 75.75914764404297 75.75914764404297 C 71.76370239257812 79.75458526611328 67.11147308349609 82.89131164550781 61.93170166015625 85.08217620849609 C 56.56977462768555 87.35007476806641 50.87312316894531 88.5 45 88.5 Z" stroke="none"/>
              <path d="M 45 3 C 39.32871246337891 3 33.82865524291992 4.110054016113281 28.65262985229492 6.299339294433594 C 23.65165710449219 8.414573669433594 19.15968322753906 11.44334411621094 15.301513671875 15.301513671875 C 11.44334411621094 19.15968322753906 8.414573669433594 23.65165710449219 6.299339294433594 28.65262985229492 C 4.110054016113281 33.82865524291992 3 39.32871246337891 3 45 C 3 50.67128753662109 4.110054016113281 56.17134475708008 6.299339294433594 61.34737396240234 C 8.414573669433594 66.34834289550781 11.44334411621094 70.84031677246094 15.301513671875 74.698486328125 C 19.15968322753906 78.55665588378906 23.65165710449219 81.58542633056641 28.65262985229492 83.70066070556641 C 33.82865524291992 85.88994598388672 39.32871246337891 87 45 87 C 50.67128753662109 87 56.17134475708008 85.88994598388672 61.34737396240234 83.70066070556641 C 66.34834289550781 81.58542633056641 70.84031677246094 78.55665588378906 74.698486328125 74.698486328125 C 78.55665588378906 70.84031677246094 81.58542633056641 66.34834289550781 83.70066070556641 61.34737396240234 C 85.88994598388672 56.17134475708008 87 50.67128753662109 87 45 C 87 39.32871246337891 85.88994598388672 33.82865524291992 83.70066070556641 28.65262985229492 C 81.58542633056641 23.65165710449219 78.55665588378906 19.15968322753906 74.698486328125 15.301513671875 C 70.84031677246094 11.44334411621094 66.34834289550781 8.414573669433594 61.34737396240234 6.299339294433594 C 56.17134475708008 4.110054016113281 50.67128753662109 3 45 3 M 45 0 C 69.85281372070312 0 90 20.14718627929688 90 45 C 90 69.85281372070312 69.85281372070312 90 45 90 C 20.14718627929688 90 0 69.85281372070312 0 45 C 0 20.14718627929688 20.14718627929688 0 45 0 Z" stroke="none" fill="#56838a"/>
            </g>
          </g>
        </g>
      </g>
    </g>
    <g id="deep-learning_2857426" transform="translate(221.276 738.69)">
      <g id="Grupo_1171435" data-name="Grupo 1171435" transform="translate(1.894 1.894)">
        <g id="Grupo_1171421" data-name="Grupo 1171421" transform="translate(20.569 46.504)">
          <path id="Trazado_1024834" data-name="Trazado 1024834" d="M37.52,54v.894a6.26,6.26,0,1,1-12.52,0V54Z" transform="translate(-25 -54)" fill="#aab2bd"/>
        </g>
        <g id="Grupo_1171422" data-name="Grupo 1171422" transform="translate(16.992 42.927)">
          <path id="Trazado_1024835" data-name="Trazado 1024835" d="M38.886,50a1.794,1.794,0,0,1,1.789,1.789,1.8,1.8,0,0,1-1.789,1.789h-16.1A1.794,1.794,0,0,1,21,51.789,1.8,1.8,0,0,1,22.789,50Z" transform="translate(-21 -50)" fill="#ccd1d9"/>
        </g>
        <g id="Grupo_1171423" data-name="Grupo 1171423" transform="translate(16.992 39.35)">
          <path id="Trazado_1024836" data-name="Trazado 1024836" d="M38.886,46a1.794,1.794,0,0,1,1.789,1.789,1.8,1.8,0,0,1-1.789,1.789h-16.1A1.794,1.794,0,0,1,21,47.789,1.8,1.8,0,0,1,22.789,46h16.1Z" transform="translate(-21 -46)" fill="#ccd1d9"/>
        </g>
        <g id="Grupo_1171424" data-name="Grupo 1171424" transform="translate(0 21.463)">
          <ellipse id="Elipse_12296" data-name="Elipse 12296" cx="2" cy="1.5" rx="2" ry="1.5" transform="translate(-0.171 0.366)" fill="#ff826e"/>
        </g>
        <g id="Grupo_1171425" data-name="Grupo 1171425" transform="translate(0 37.561)">
          <path id="Trazado_1024837" data-name="Trazado 1024837" d="M7.366,44A5.366,5.366,0,1,1,2,49.366,5.37,5.37,0,0,1,7.366,44Z" transform="translate(-2 -44)" fill="#ff826e"/>
        </g>
        <g id="Grupo_1171426" data-name="Grupo 1171426" transform="translate(1.789 1.789)">
          <circle id="Elipse_12297" data-name="Elipse 12297" cx="3.5" cy="3.5" r="3.5" transform="translate(0.041 0.041)" fill="#ff826e"/>
        </g>
        <g id="Grupo_1171427" data-name="Grupo 1171427" transform="translate(46.504 4.472)">
          <path id="Trazado_1024838" data-name="Trazado 1024838" d="M57.577,7A3.579,3.579,0,1,1,54,10.577,3.576,3.576,0,0,1,57.577,7Z" transform="translate(-54 -7)" fill="#ff826e"/>
        </g>
        <g id="Grupo_1171428" data-name="Grupo 1171428" transform="translate(50.081 21.463)">
          <ellipse id="Elipse_12298" data-name="Elipse 12298" cx="2" cy="1.5" rx="2" ry="1.5" transform="translate(-0.252 0.366)" fill="#ff826e"/>
        </g>
        <g id="Grupo_1171429" data-name="Grupo 1171429" transform="translate(25.041)">
          <circle id="Elipse_12299" data-name="Elipse 12299" cx="2" cy="2" r="2" transform="translate(-0.211 -0.171)" fill="#ff826e"/>
        </g>
        <g id="Grupo_1171430" data-name="Grupo 1171430" transform="translate(42.927 42.927)">
          <path id="Trazado_1024839" data-name="Trazado 1024839" d="M55.366,50A5.366,5.366,0,1,1,50,55.366,5.37,5.37,0,0,1,55.366,50Z" transform="translate(-50 -50)" fill="#ff826e"/>
        </g>
        <g id="Grupo_1171431" data-name="Grupo 1171431" transform="translate(3.577 41.138)">
          <ellipse id="Elipse_12300" data-name="Elipse 12300" cx="1.5" cy="2" rx="1.5" ry="2" transform="translate(0.252 -0.309)" fill="#fc6e51"/>
        </g>
        <g id="Grupo_1171432" data-name="Grupo 1171432" transform="translate(46.504 46.504)">
          <circle id="Elipse_12301" data-name="Elipse 12301" cx="1.5" cy="1.5" r="1.5" transform="translate(0.325 0.325)" fill="#fc6e51"/>
        </g>
        <g id="Grupo_1171433" data-name="Grupo 1171433" transform="translate(12.52 8.943)">
          <path id="Trazado_1024840" data-name="Trazado 1024840" d="M41.479,17.366A14.309,14.309,0,0,0,16,26.309a15.545,15.545,0,0,0,2.889,8.943,14.446,14.446,0,0,0,2.79,2.969A6.263,6.263,0,0,1,24,42.407h12.61a6.263,6.263,0,0,1,2.325-4.185,14.757,14.757,0,0,0,3.38-3.863,15.509,15.509,0,0,0,2.3-8.049,14.236,14.236,0,0,0-3.139-8.943Z" transform="translate(-16 -12)" fill="#ffeaa7"/>
        </g>
        <g id="Grupo_1171434" data-name="Grupo 1171434" transform="translate(17.886 14.309)">
          <path id="Trazado_1024841" data-name="Trazado 1024841" d="M37.5,30.324a3.589,3.589,0,0,1,.581,2.334,3.681,3.681,0,0,1-3.711,3.228H34.35A1.618,1.618,0,0,0,32.732,37.5v5.536H29.154V37.5a1.618,1.618,0,0,0-1.619-1.619,3.683,3.683,0,0,1-3.694-2.96,3.592,3.592,0,0,1,.563-2.62,3.568,3.568,0,0,1-.009-6.743,3.52,3.52,0,0,1-.608-1.985,3.577,3.577,0,1,1,7.154,0,3.577,3.577,0,1,1,7.154,0,3.516,3.516,0,0,1-.617,2,3.56,3.56,0,0,1,2.406,3.363,3.6,3.6,0,0,1-2.388,3.38Z" transform="translate(-22 -18)" fill="#dfb28b"/>
        </g>
      </g>
      <g id="Grupo_1171436" data-name="Grupo 1171436" transform="translate(1 1)">
        <path id="Trazado_1024842" data-name="Trazado 1024842" d="M53,55.683A2.683,2.683,0,1,0,55.683,53,2.686,2.686,0,0,0,53,55.683Zm3.577,0a.894.894,0,1,1-.894-.894A.9.9,0,0,1,56.577,55.683Z" transform="translate(-6.496 -6.496)"/>
        <path id="Trazado_1024843" data-name="Trazado 1024843" d="M5,49.683A2.683,2.683,0,1,0,7.683,47,2.686,2.686,0,0,0,5,49.683Zm3.577,0a.894.894,0,1,1-.894-.894A.9.9,0,0,1,8.577,49.683Z" transform="translate(-1.423 -5.862)"/>
        <path id="Trazado_1024844" data-name="Trazado 1024844" d="M51.246,26.041a2.683,2.683,0,1,0,0-1.789H43.881A15.084,15.084,0,0,0,41.6,17.1h3.377a2.667,2.667,0,0,0,1.9-.786l2.642-2.642a4.485,4.485,0,1,0-1.265-1.265l-2.642,2.642a.89.89,0,0,1-.633.262h-4.68a15.16,15.16,0,0,0-10.676-5.32V6.2a2.683,2.683,0,1,0-1.789,0V9.989a15.164,15.164,0,0,0-10.676,5.32h-8.1a.9.9,0,0,1-.894-.894V11.641a4.472,4.472,0,1,0-1.789,0v2.773A2.686,2.686,0,0,0,9.049,17.1h6.8a15.084,15.084,0,0,0-2.284,7.154H6.2a2.683,2.683,0,1,0,0,1.789h7.346A16.581,16.581,0,0,0,15.685,33.2H9.049a2.686,2.686,0,0,0-2.683,2.683v2.754a6.26,6.26,0,1,0,1.789,0V35.878a.9.9,0,0,1,.894-.894h7.808a15.33,15.33,0,0,0,2.677,2.772,5.361,5.361,0,0,1,1.787,2.594h-.646a2.671,2.671,0,0,0-1.985,4.472,2.671,2.671,0,0,0,1.985,4.472h.894a7.154,7.154,0,1,0,14.309,0h.894a2.671,2.671,0,0,0,1.985-4.472,2.671,2.671,0,0,0-1.985-4.472h-.646a5.357,5.357,0,0,1,1.787-2.594,15.513,15.513,0,0,0,3.3-3.667H48.4a.9.9,0,0,1,.894.894V44a6.26,6.26,0,1,0,1.789,0V34.984A2.686,2.686,0,0,0,48.4,32.3H42.236a16.523,16.523,0,0,0,1.665-6.26Zm.73-18.781a2.683,2.683,0,1,1-2.683,2.683A2.686,2.686,0,0,1,51.976,7.26Zm-47.4,0A2.683,2.683,0,1,1,7.26,9.943,2.686,2.686,0,0,1,4.577,7.26Zm7.154,37.561A4.472,4.472,0,1,1,7.26,40.35,4.477,4.477,0,0,1,11.732,44.821Zm42.927,5.366a4.472,4.472,0,1,1-4.472-4.472A4.477,4.477,0,0,1,54.659,50.187Zm-.894-25.935a.894.894,0,1,1-.894.894A.9.9,0,0,1,53.764,24.252ZM28.724,2.789a.894.894,0,1,1-.894.894A.9.9,0,0,1,28.724,2.789ZM3.683,26.041a.894.894,0,1,1,.894-.894A.9.9,0,0,1,3.683,26.041ZM28.724,54.659a5.371,5.371,0,0,1-5.366-5.366H34.09A5.371,5.371,0,0,1,28.724,54.659ZM36.772,47.5h-16.1a.894.894,0,0,1,0-1.789h16.1a.894.894,0,1,1,0,1.789Zm.894-4.472a.9.9,0,0,1-.894.894h-16.1a.894.894,0,0,1,0-1.789h16.1A.9.9,0,0,1,37.667,43.033ZM25.319,33.2A2.8,2.8,0,0,1,22.5,30.98a2.7,2.7,0,0,1,.42-1.969l.651-.962-1.1-.384a2.663,2.663,0,0,1-.542-4.785,4.452,4.452,0,0,0,3.211,1.372V22.463a2.683,2.683,0,1,1,2.683-2.683h1.789a2.683,2.683,0,1,1,4.906,1.5l-.651.962,1.1.384a2.663,2.663,0,0,1,.539,4.786A4.477,4.477,0,0,0,32.3,26.041v1.789a2.69,2.69,0,0,1,1.985.878,2.663,2.663,0,0,1,.685,2.07A2.8,2.8,0,0,1,32.128,33.2a2.514,2.514,0,0,0-2.51,2.511V40.35H27.829V35.706A2.514,2.514,0,0,0,25.319,33.2ZM36.8,36.357a7.12,7.12,0,0,0-2.523,3.993h-2.87V35.706a.727.727,0,0,1,.74-.723,4.591,4.591,0,0,0,4.6-4.036,4.488,4.488,0,0,0-.291-2.026,4.443,4.443,0,0,0,.015-7.541A4.471,4.471,0,0,0,28.724,17.1a4.46,4.46,0,0,0-7.742,4.273,4.444,4.444,0,0,0-.011,7.538,4.508,4.508,0,0,0-.232,2.365,4.6,4.6,0,0,0,4.58,3.708.723.723,0,0,1,.722.723V40.35h-2.87a7.126,7.126,0,0,0-2.523-3.993,14.614,14.614,0,0,1-5.339-11.21,13.415,13.415,0,0,1,26.829,0A14.614,14.614,0,0,1,36.8,36.357Z" transform="translate(-1 -1)"/>
      </g>
    </g>
  </g>
</svg>
