<svg xmlns="http://www.w3.org/2000/svg" xmlns:xlink="http://www.w3.org/1999/xlink" width="113" height="113" viewBox="0 0 113 113">
  <defs>
    <filter id="Trazado_982547" x="0" y="0" width="113" height="113" filterUnits="userSpaceOnUse">
      <feOffset dy="3" input="SourceAlpha"/>
      <feGaussianBlur stdDeviation="3" result="blur"/>
      <feFlood flood-opacity="0.161"/>
      <feComposite operator="in" in2="blur"/>
      <feComposite in="SourceGraphic"/>
    </filter>
    <clipPath id="clip-path">
      <path id="path8379" d="M0-682.665H67.248v67.248H0Z" transform="translate(0 682.665)"/>
    </clipPath>
  </defs>
  <g id="Grupo_1171279" data-name="Grupo 1171279" transform="translate(-585.5 -839.645)">
    <g id="Grupo_1171075" data-name="Grupo 1171075" transform="translate(594.5 845.645)">
      <g id="Grupo_1148525" data-name="Grupo 1148525" transform="translate(0)">
        <g transform="matrix(1, 0, 0, 1, -9, -6)" filter="url(#Trazado_982547)">
          <g id="Trazado_982547-2" data-name="Trazado 982547" transform="translate(9 6)" fill="#f4fdfe">
            <path d="M 47.5 93.5 C 41.28937149047852 93.5 35.26533508300781 92.28397369384766 29.59518623352051 89.88570404052734 C 24.11771965026855 87.56893157958984 19.19813346862793 84.25196075439453 14.97309303283691 80.02691650390625 C 10.74804019927979 75.80186462402344 7.431066513061523 70.88229370117188 5.114293098449707 65.40481567382812 C 2.716026782989502 59.73468017578125 1.5 53.71062850952148 1.5 47.5 C 1.5 41.28937149047852 2.716026782989502 35.26533508300781 5.114293098449707 29.59518623352051 C 7.431066513061523 24.11771965026855 10.74804019927979 19.19813346862793 14.97309303283691 14.97309303283691 C 19.19813346862793 10.74804019927979 24.11771965026855 7.431066513061523 29.59518623352051 5.114293098449707 C 35.26533508300781 2.716026782989502 41.28937149047852 1.5 47.5 1.5 C 53.71062850952148 1.5 59.73468017578125 2.716026782989502 65.40481567382812 5.114293098449707 C 70.88229370117188 7.431066513061523 75.80186462402344 10.74804019927979 80.02691650390625 14.97309303283691 C 84.25196075439453 19.19813346862793 87.56893157958984 24.11771965026855 89.88570404052734 29.59518623352051 C 92.28397369384766 35.26533508300781 93.5 41.28937149047852 93.5 47.5 C 93.5 53.71062850952148 92.28397369384766 59.73468017578125 89.88570404052734 65.40481567382812 C 87.56893157958984 70.88229370117188 84.25196075439453 75.80186462402344 80.02691650390625 80.02691650390625 C 75.80186462402344 84.25196075439453 70.88229370117188 87.56893157958984 65.40481567382812 89.88570404052734 C 59.73468017578125 92.28397369384766 53.71062850952148 93.5 47.5 93.5 Z" stroke="none"/>
            <path d="M 47.5 3 C 41.49121475219727 3 35.66376876831055 4.176155090332031 30.17950439453125 6.495796203613281 C 24.88084411621094 8.736953735351562 20.12152099609375 11.94598388671875 16.03375244140625 16.03375244140625 C 11.94598388671875 20.12152099609375 8.736953735351562 24.88084411621094 6.495796203613281 30.17950439453125 C 4.176155090332031 35.66376876831055 3 41.49121475219727 3 47.5 C 3 53.50878524780273 4.176155090332031 59.33623123168945 6.495796203613281 64.82049560546875 C 8.736953735351562 70.11915588378906 11.94598388671875 74.87847900390625 16.03375244140625 78.96624755859375 C 20.12152099609375 83.05401611328125 24.88084411621094 86.26304626464844 30.17950439453125 88.50419616699219 C 35.66376876831055 90.82384490966797 41.49121475219727 92 47.5 92 C 53.50878524780273 92 59.33623123168945 90.82384490966797 64.82049560546875 88.50419616699219 C 70.11915588378906 86.26304626464844 74.87847900390625 83.05401611328125 78.96624755859375 78.96624755859375 C 83.05401611328125 74.87847900390625 86.26304626464844 70.11915588378906 88.50419616699219 64.82049560546875 C 90.82384490966797 59.33623123168945 92 53.50878524780273 92 47.5 C 92 41.49121475219727 90.82384490966797 35.66376876831055 88.50419616699219 30.17950439453125 C 86.26304626464844 24.88084411621094 83.05401611328125 20.12152099609375 78.96624755859375 16.03375244140625 C 74.87847900390625 11.94598388671875 70.11915588378906 8.736953735351562 64.82049560546875 6.495796203613281 C 59.33623123168945 4.176155090332031 53.50878524780273 3 47.5 3 M 47.5 0 C 73.7335205078125 0 95 21.2664794921875 95 47.5 C 95 73.7335205078125 73.7335205078125 95 47.5 95 C 21.2664794921875 95 0 73.7335205078125 0 47.5 C 0 21.2664794921875 21.2664794921875 0 47.5 0 Z" stroke="none" fill="#56838a"/>
          </g>
        </g>
      </g>
    </g>
    <g id="g8373" transform="translate(608.376 1542.186)">
      <g id="g8375" transform="translate(0 -682.665)">
        <g id="g8377" clip-path="url(#clip-path)">
          <g id="g8383" transform="translate(30.974 1.206)">
            <path id="path8385" d="M-44.988-22.274l.131,59.968a2.236,2.236,0,0,1-2.524,2.261h.131c-.478,0-.926.268-1.314.047A2.655,2.655,0,0,1-49.9,37.694V-22.274a2.654,2.654,0,0,1,1.341-2.308c.387-.221.836-.085,1.314-.085a2.131,2.131,0,0,1,2.261,2.392" transform="translate(49.904 24.707)" fill="#d7d0d6"/>
          </g>
          <g id="g8387" transform="translate(32.315 0.985)">
            <path id="path8389" d="M-12.02,0a2.641,2.641,0,0,0-1.313.35,2.652,2.652,0,0,1,1.342,2.305V62.623a2.652,2.652,0,0,1-1.342,2.305,2.641,2.641,0,0,0,1.313.35,2.655,2.655,0,0,0,2.655-2.655V2.655A2.655,2.655,0,0,0-12.02,0" transform="translate(13.333)" fill="#c9c0c8"/>
          </g>
          <g id="g8391" transform="translate(27.082 16.754)">
            <path id="path8393" d="M-177.28-453.08h0a2.654,2.654,0,0,1-2.483-1.715l-16.717-44.2a2.654,2.654,0,0,1,1.544-3.422h0a2.655,2.655,0,0,1,3.422,1.544l16.716,44.2a2.654,2.654,0,0,1-2.483,3.593" transform="translate(196.651 502.589)" fill="#c9c0c8"/>
          </g>
          <g id="g8395" transform="translate(18.137 16.754)">
            <path id="path8397" d="M-24.313-453.08h0A2.654,2.654,0,0,0-21.83-454.8l16.717-44.2a2.654,2.654,0,0,0-1.544-3.422h0a2.655,2.655,0,0,0-3.422,1.544l-16.716,44.2a2.654,2.654,0,0,0,2.483,3.593" transform="translate(26.97 502.589)" fill="#f9f7f8"/>
          </g>
          <g id="g8399" transform="translate(9.563 11.23)">
            <path id="path8401" d="M-380.283-18.03V14.31a1.971,1.971,0,0,1-1.97,1.97h-36.3a1.971,1.971,0,0,1-1.97-1.97l-1.313-10.472V-18.03a1.971,1.971,0,0,1,1.97-1.97h37.614a1.971,1.971,0,0,1,1.97,1.97" transform="translate(421.838 20)" fill="#f79595"/>
          </g>
          <g id="g8403" transform="translate(23.652 23.414)">
            <path id="path8405" d="M-182.517-91.258a9.972,9.972,0,0,1-9.972,9.972,9.972,9.972,0,0,1-9.972-9.972,9.972,9.972,0,0,1,9.972-9.972,9.972,9.972,0,0,1,9.972,9.972" transform="translate(202.461 101.23)" fill="#ffe177"/>
          </g>
          <g id="g8407" transform="translate(46.588 11.23)">
            <path id="path8409" d="M-101.555-18.03V3.838l-1.313,10.472a1.971,1.971,0,0,1-1.97,1.97h-7.813a1.971,1.971,0,0,0,1.97-1.97l1.313-8.218V-18.03a1.971,1.971,0,0,0-1.97-1.97h7.814a1.971,1.971,0,0,1,1.97,1.97" transform="translate(112.652 20)" fill="#f47c7c"/>
          </g>
          <g id="g8411" transform="translate(9.563 35.067)">
            <path id="path8413" d="M-428.363-24.04l-5.254,9.158a1.971,1.971,0,0,1-1.97,1.97H-473.2a1.971,1.971,0,0,1-1.97-1.97V-26.667c4.01,0,4.01,2.255,8.02,2.255s4.01-2.255,8.02-2.255,4.01,2.255,8.02,2.255,4.01-2.255,8.021-2.255,4.01,2.255,8.02,2.255l.2,0c3.808-.075,2.563.374,6.5.374" transform="translate(475.171 26.667)" fill="#6bd9e7"/>
          </g>
          <g id="g8415" transform="translate(47.901 35.067)">
            <path id="path8417" d="M-89.535,0V11.785a1.971,1.971,0,0,1-1.97,1.97h-7.814a1.971,1.971,0,0,0,1.97-1.97V2.254C-93.543,2.176-93.474,0-89.535,0" transform="translate(99.318)" fill="#2ed1e1"/>
          </g>
          <g id="g8419" transform="translate(22.181 8.274)">
            <path id="path8421" d="M-137.312-54.109H-151a1.313,1.313,0,0,1-1.313-1.313v-3.286A1.313,1.313,0,0,1-151-60.021h13.691A1.314,1.314,0,0,1-136-58.708v3.286a1.314,1.314,0,0,1-1.313,1.313" transform="translate(152.317 60.021)" fill="#c68d7a"/>
          </g>
          <g id="g8423" transform="translate(35.873 8.273)">
            <path id="path8425" d="M-84.139-12.02v3.286A1.314,1.314,0,0,1-85.452-7.42h-7.881A1.314,1.314,0,0,0-92.02-8.734V-12.02a1.314,1.314,0,0,0-1.313-1.313h7.881a1.314,1.314,0,0,1,1.313,1.313" transform="translate(93.333 13.333)" fill="#bc7c63"/>
          </g>
          <g id="g8427" transform="translate(18.285 45.285)">
            <path id="path8429" d="M-208.638-54.109h-21.485a1.313,1.313,0,0,1-1.313-1.313v-3.286a1.313,1.313,0,0,1,1.313-1.313h21.485a1.314,1.314,0,0,1,1.313,1.313v3.286a1.313,1.313,0,0,1-1.313,1.313" transform="translate(231.437 60.021)" fill="#c68d7a"/>
          </g>
          <g id="g8431" transform="translate(39.77 45.285)">
            <path id="path8433" d="M-84.139-12.02v3.286A1.314,1.314,0,0,1-85.452-7.42h-7.881A1.314,1.314,0,0,0-92.02-8.734V-12.02a1.314,1.314,0,0,0-1.313-1.313h7.881a1.314,1.314,0,0,1,1.313,1.313" transform="translate(93.333 13.333)" fill="#bc7c63"/>
          </g>
          <g id="g8435" transform="translate(30.974 51.348)">
            <path id="path8437" d="M-48.594,0V12.26a2.655,2.655,0,0,1-2.655,2.655A2.655,2.655,0,0,1-53.9,12.26V.02" transform="translate(53.904)" fill="none" stroke="#000" stroke-linecap="round" stroke-linejoin="round" stroke-miterlimit="10" stroke-width="1.5"/>
          </g>
          <g id="g8439" transform="translate(30.974 0.985)">
            <path id="path8441" d="M0-65.46v-4.5a2.655,2.655,0,0,1,2.655-2.655A2.655,2.655,0,0,1,5.31-69.958v4.551" transform="translate(0 72.613)" fill="none" stroke="#000" stroke-linecap="round" stroke-linejoin="round" stroke-miterlimit="10" stroke-width="1.5"/>
          </g>
          <g id="g8443" transform="translate(38.979 51.348)">
            <path id="path8445" d="M-51.943,0l4.282,11.321a2.654,2.654,0,0,1-2.483,3.593A2.655,2.655,0,0,1-52.626,13.2L-57.619,0" transform="translate(57.619)" fill="none" stroke="#000" stroke-linecap="round" stroke-linejoin="round" stroke-miterlimit="10" stroke-width="1.5"/>
          </g>
          <g id="g8447" transform="translate(18.137 51.348)">
            <path id="path8449" d="M-40.776,0l-4.282,11.321a2.654,2.654,0,0,0,2.483,3.593A2.655,2.655,0,0,0-40.093,13.2L-35.1,0" transform="translate(45.232)" fill="none" stroke="#000" stroke-linecap="round" stroke-linejoin="round" stroke-miterlimit="10" stroke-width="1.5"/>
          </g>
          <g id="g8451" transform="translate(49.111 44.305)">
            <path id="path8453" d="M-78.466,0V2.548a1.971,1.971,0,0,1-1.97,1.97h-6.6" transform="translate(87.04)" fill="none" stroke="#000" stroke-linecap="round" stroke-linejoin="round" stroke-miterlimit="10" stroke-width="1.5"/>
          </g>
          <g id="g8455" transform="translate(45.188 11.23)">
            <path id="path8457" d="M0,0H10.527A1.971,1.971,0,0,1,12.5,1.97V28.781" fill="none" stroke="#000" stroke-linecap="round" stroke-linejoin="round" stroke-miterlimit="10" stroke-width="1.5"/>
          </g>
          <g id="g8459" transform="translate(9.563 11.23)">
            <path id="path8461" d="M0-124.356v-11.619a1.971,1.971,0,0,1,1.97-1.97H12.437" transform="translate(0 137.945)" fill="none" stroke="#000" stroke-linecap="round" stroke-linejoin="round" stroke-miterlimit="10" stroke-width="1.5"/>
          </g>
          <g id="g8463" transform="translate(9.563 29.112)">
            <path id="path8465" d="M-78.466-180.387h-6.6a1.971,1.971,0,0,1-1.97-1.97V-200.1" transform="translate(87.04 200.098)" fill="none" stroke="#000" stroke-linecap="round" stroke-linejoin="round" stroke-miterlimit="10" stroke-width="1.5"/>
          </g>
          <g id="g8467" transform="translate(23.652 23.414)">
            <path id="path8469" d="M-1.292-106.65a10.038,10.038,0,0,1-.141-1.682A9.972,9.972,0,0,1,8.539-118.3a9.972,9.972,0,0,1,9.972,9.972,10.037,10.037,0,0,1-.141,1.682" transform="translate(1.433 118.304)" fill="none" stroke="#000" stroke-linecap="round" stroke-linejoin="round" stroke-miterlimit="10" stroke-width="1.5"/>
          </g>
          <g id="g8471" transform="translate(9.563 35.067)">
            <path id="path8473" d="M0,0C4.01,0,4.01,2.255,8.02,2.255S12.03,0,16.04,0s4.01,2.255,8.02,2.255S28.069,0,32.081,0s4.01,2.255,8.02,2.255S44.112,0,48.122,0" fill="none" stroke="#000" stroke-linecap="round" stroke-linejoin="round" stroke-miterlimit="10" stroke-width="1.5"/>
          </g>
          <g id="g8475" transform="translate(22.181 8.274)">
            <path id="path8477" d="M-31.314-54.109h-2.108a1.313,1.313,0,0,1-1.313-1.313v-3.286a1.313,1.313,0,0,1,1.313-1.313h20.258a1.314,1.314,0,0,1,1.313,1.313v3.286a1.313,1.313,0,0,1-1.313,1.313H-27.021" transform="translate(34.736 60.021)" fill="none" stroke="#000" stroke-linecap="round" stroke-linejoin="round" stroke-miterlimit="10" stroke-width="1.5"/>
          </g>
          <g id="g8479" transform="translate(18.285 45.285)">
            <path id="path8481" d="M-268.738-54.109H-296.79a1.313,1.313,0,0,1-1.313-1.313v-3.286a1.314,1.314,0,0,1,1.313-1.313h28.052a1.314,1.314,0,0,1,1.313,1.313v3.286A1.313,1.313,0,0,1-268.738-54.109Z" transform="translate(298.103 60.021)" fill="none" stroke="#000" stroke-linecap="round" stroke-linejoin="round" stroke-miterlimit="10" stroke-width="1.5"/>
          </g>
          <g id="g8483" transform="translate(43.322 22.86)">
            <path id="path8485" d="M0-14.887v-.235a1.391,1.391,0,0,1,1.391-1.391,1.391,1.391,0,0,1,1.391,1.391v.235" transform="translate(0 16.513)" fill="none" stroke="#000" stroke-linecap="round" stroke-linejoin="round" stroke-miterlimit="10" stroke-width="1.5"/>
          </g>
          <g id="g8487" transform="translate(46.104 22.86)">
            <path id="path8489" d="M0-14.887v-.235a1.391,1.391,0,0,1,1.391-1.391,1.391,1.391,0,0,1,1.391,1.391v.235" transform="translate(0 16.513)" fill="none" stroke="#000" stroke-linecap="round" stroke-linejoin="round" stroke-miterlimit="10" stroke-width="1.5"/>
          </g>
          <g id="g8491" transform="translate(18.361 22.341)">
            <path id="path8493" d="M0-14.885v-.235a1.391,1.391,0,0,1,1.391-1.391,1.391,1.391,0,0,1,1.391,1.391v.235" transform="translate(0 16.512)" fill="none" stroke="#000" stroke-linecap="round" stroke-linejoin="round" stroke-miterlimit="10" stroke-width="1.5"/>
          </g>
          <g id="g8495" transform="translate(21.144 22.341)">
            <path id="path8497" d="M0-14.885v-.235a1.391,1.391,0,0,1,1.391-1.391,1.391,1.391,0,0,1,1.391,1.391v.235" transform="translate(0 16.512)" fill="none" stroke="#000" stroke-linecap="round" stroke-linejoin="round" stroke-miterlimit="10" stroke-width="1.5"/>
          </g>
          <g id="g8499" transform="translate(30.842 17.842)">
            <path id="path8501" d="M0-14.887v-.235a1.391,1.391,0,0,1,1.391-1.391h0a1.391,1.391,0,0,1,1.391,1.391v.235" transform="translate(0 16.513)" fill="none" stroke="#000" stroke-linecap="round" stroke-linejoin="round" stroke-miterlimit="10" stroke-width="1.5"/>
          </g>
          <g id="g8503" transform="translate(33.624 17.842)">
            <path id="path8505" d="M0-14.887v-.235a1.391,1.391,0,0,1,1.391-1.391h0a1.391,1.391,0,0,1,1.391,1.391v.235" transform="translate(0 16.513)" fill="none" stroke="#000" stroke-linecap="round" stroke-linejoin="round" stroke-miterlimit="10" stroke-width="1.5"/>
          </g>
        </g>
      </g>
    </g>
  </g>
</svg>
