<svg xmlns="http://www.w3.org/2000/svg" xmlns:xlink="http://www.w3.org/1999/xlink" width="113" height="113" viewBox="0 0 113 113">
  <defs>
    <filter id="Trazado_982547" x="0" y="0" width="113" height="113" filterUnits="userSpaceOnUse">
      <feOffset dy="3" input="SourceAlpha"/>
      <feGaussianBlur stdDeviation="3" result="blur"/>
      <feFlood flood-opacity="0.161"/>
      <feComposite operator="in" in2="blur"/>
      <feComposite in="SourceGraphic"/>
    </filter>
  </defs>
  <g id="Grupo_1210856" data-name="Grupo 1210856" transform="translate(-1110.999 -904.873)">
    <g id="Grupo_1210850" data-name="Grupo 1210850" transform="translate(1120 910.873)">
      <g id="Grupo_1210835" data-name="Grupo 1210835" transform="translate(0)">
        <g id="Grupo_1202055" data-name="Grupo 1202055">
          <g id="Grupo_1177900" data-name="Grupo 1177900">
            <g id="Grupo_1172010" data-name="Grupo 1172010">
              <g id="Grupo_1171046" data-name="Grupo 1171046">
                <g id="Grupo_1148525" data-name="Grupo 1148525">
                  <g transform="matrix(1, 0, 0, 1, -9, -6)" filter="url(#Trazado_982547)">
                    <g id="Trazado_982547-2" data-name="Trazado 982547" transform="translate(9 6)" fill="#edf3fc">
                      <path d="M 47.5 93.5 C 41.28937149047852 93.5 35.26533508300781 92.28397369384766 29.59518623352051 89.88570404052734 C 24.11771965026855 87.56893157958984 19.19813346862793 84.25196075439453 14.97309303283691 80.02691650390625 C 10.74804019927979 75.80186462402344 7.431066513061523 70.88229370117188 5.114293098449707 65.40481567382812 C 2.716026782989502 59.73468017578125 1.5 53.71062850952148 1.5 47.5 C 1.5 41.28937149047852 2.716026782989502 35.26533508300781 5.114293098449707 29.59518623352051 C 7.431066513061523 24.11771965026855 10.74804019927979 19.19813346862793 14.97309303283691 14.97309303283691 C 19.19813346862793 10.74804019927979 24.11771965026855 7.431066513061523 29.59518623352051 5.114293098449707 C 35.26533508300781 2.716026782989502 41.28937149047852 1.5 47.5 1.5 C 53.71062850952148 1.5 59.73468017578125 2.716026782989502 65.40481567382812 5.114293098449707 C 70.88229370117188 7.431066513061523 75.80186462402344 10.74804019927979 80.02691650390625 14.97309303283691 C 84.25196075439453 19.19813346862793 87.56893157958984 24.11771965026855 89.88570404052734 29.59518623352051 C 92.28397369384766 35.26533508300781 93.5 41.28937149047852 93.5 47.5 C 93.5 53.71062850952148 92.28397369384766 59.73468017578125 89.88570404052734 65.40481567382812 C 87.56893157958984 70.88229370117188 84.25196075439453 75.80186462402344 80.02691650390625 80.02691650390625 C 75.80186462402344 84.25196075439453 70.88229370117188 87.56893157958984 65.40481567382812 89.88570404052734 C 59.73468017578125 92.28397369384766 53.71062850952148 93.5 47.5 93.5 Z" stroke="none"/>
                      <path d="M 47.5 3 C 41.49121475219727 3 35.66376876831055 4.176155090332031 30.17950439453125 6.495796203613281 C 24.88084411621094 8.736953735351562 20.12152099609375 11.94598388671875 16.03375244140625 16.03375244140625 C 11.94598388671875 20.12152099609375 8.736953735351562 24.88084411621094 6.495796203613281 30.17950439453125 C 4.176155090332031 35.66376876831055 3 41.49121475219727 3 47.5 C 3 53.50878524780273 4.176155090332031 59.33623123168945 6.495796203613281 64.82049560546875 C 8.736953735351562 70.11915588378906 11.94598388671875 74.87847900390625 16.03375244140625 78.96624755859375 C 20.12152099609375 83.05401611328125 24.88084411621094 86.26304626464844 30.17950439453125 88.50419616699219 C 35.66376876831055 90.82384490966797 41.49121475219727 92 47.5 92 C 53.50878524780273 92 59.33623123168945 90.82384490966797 64.82049560546875 88.50419616699219 C 70.11915588378906 86.26304626464844 74.87847900390625 83.05401611328125 78.96624755859375 78.96624755859375 C 83.05401611328125 74.87847900390625 86.26304626464844 70.11915588378906 88.50419616699219 64.82049560546875 C 90.82384490966797 59.33623123168945 92 53.50878524780273 92 47.5 C 92 41.49121475219727 90.82384490966797 35.66376876831055 88.50419616699219 30.17950439453125 C 86.26304626464844 24.88084411621094 83.05401611328125 20.12152099609375 78.96624755859375 16.03375244140625 C 74.87847900390625 11.94598388671875 70.11915588378906 8.736953735351562 64.82049560546875 6.495796203613281 C 59.33623123168945 4.176155090332031 53.50878524780273 3 47.5 3 M 47.5 0 C 73.7335205078125 0 95 21.2664794921875 95 47.5 C 95 73.7335205078125 73.7335205078125 95 47.5 95 C 21.2664794921875 95 0 73.7335205078125 0 47.5 C 0 21.2664794921875 21.2664794921875 0 47.5 0 Z" stroke="none" fill="#5692e8"/>
                    </g>
                  </g>
                </g>
              </g>
            </g>
          </g>
        </g>
      </g>
    </g>
    <g id="book_14122600" transform="translate(1131.769 924.539)">
      <path id="Trazado_1030816" data-name="Trazado 1030816" d="M18,4H57.23V50.153H18Z" transform="translate(1.077 0.154)" fill="#fce895"/>
      <path id="Trazado_1030817" data-name="Trazado 1030817" d="M58.153,44H16.615a4.615,4.615,0,0,0,0,9.231H58.153" transform="translate(0.154 6.307)" fill="#71c967"/>
      <path id="Trazado_1030818" data-name="Trazado 1030818" d="M37,48V61.846l4.615-3.462,4.615,3.462V48" transform="translate(4 6.923)" fill="#fce895"/>
      <path id="Trazado_1030819" data-name="Trazado 1030819" d="M12,54.769a4.615,4.615,0,0,1,4.615-4.615h2.308V4H16.615A4.615,4.615,0,0,0,12,8.615Z" transform="translate(0.154 0.154)" fill="#a06ad3"/>
      <path id="Trazado_1030820" data-name="Trazado 1030820" d="M30,25H41.538v9.231H30Z" transform="translate(2.923 3.384)" fill="#9a9a9b"/>
      <path id="Trazado_1030821" data-name="Trazado 1030821" d="M30.1,37a5.769,5.769,0,0,0,11.308,0" transform="translate(2.938 5.23)" fill="#9a9a9b"/>
      <path id="Trazado_1030822" data-name="Trazado 1030822" d="M27,33H45.461v4.615H27Z" transform="translate(2.461 4.615)" fill="#db3131"/>
      <ellipse id="Elipse_12308" data-name="Elipse 12308" cx="12.5" cy="13" rx="12.5" ry="13" transform="translate(26.231 7.461)" fill="#ef7c26"/>
      <path id="Trazado_1030823" data-name="Trazado 1030823" d="M49.384,19.692A12.692,12.692,0,0,0,36.692,7v4.673h2.031a2.435,2.435,0,0,1,2.585,2.492A2.308,2.308,0,0,1,39,16.231H36.692v6.923H34.385a2.308,2.308,0,1,0,0,4.615h2.308v4.615A12.692,12.692,0,0,1,24,19.692h4.615V17.6a2.435,2.435,0,0,1,2.55-2.527,2.308,2.308,0,0,1,2.065,2.308V19.75h6.923v2.308a2.308,2.308,0,1,0,4.615,0V19.75Z" transform="translate(2 0.615)" fill="#f2f2f2"/>
      <path id="Trazado_1030824" data-name="Trazado 1030824" d="M40.48,69.8a1.154,1.154,0,0,0,1.212-.1l3.923-2.942,3.923,2.942a1.154,1.154,0,0,0,.692.231,1.05,1.05,0,0,0,.519-.127,1.154,1.154,0,0,0,.635-1.027V60.692h6.923a1.154,1.154,0,0,0,1.154-1.154V4.154A1.154,1.154,0,0,0,58.307,3H16.769A5.769,5.769,0,0,0,11,8.769V54.923a5.769,5.769,0,0,0,5.769,5.769H39.846v8.077A1.154,1.154,0,0,0,40.48,69.8Zm5.827-5.411a1.154,1.154,0,0,0-1.385,0l-2.769,2.077V56.076h6.923V66.461ZM57.153,49.153H20.231V5.308H57.153ZM14.312,6.323a3.461,3.461,0,0,1,2.458-1.015h1.154V49.153H16.769a5.677,5.677,0,0,0-3.462,1.154V8.769A3.461,3.461,0,0,1,14.312,6.323Zm2.458,52.061a3.462,3.462,0,1,1,0-6.923H57.153v6.923H51.384V56.076h3.462V53.769H15.615v2.308H39.846v2.308Z" transform="translate(0 0)"/>
      <path id="Trazado_1030825" data-name="Trazado 1030825" d="M29.923,31.825V36H27.616a1.154,1.154,0,0,0-1.154,1.154v4.615a1.154,1.154,0,0,0,1.154,1.154h2.723a6.923,6.923,0,0,0,13.015,0h2.723a1.154,1.154,0,0,0,1.154-1.154V37.155A1.154,1.154,0,0,0,46.077,36H43.769V31.825a13.846,13.846,0,1,0-13.846,0ZM25.366,21h3.4a1.154,1.154,0,0,0,.854-.381,1.235,1.235,0,0,0,.3-.773,1.073,1.073,0,0,0-.058-.335l.058-1.973a1.154,1.154,0,1,1,2.308,0v2.308A1.154,1.154,0,0,0,33.385,21h2.308v1.154H34.539a3.462,3.462,0,1,0,0,6.923h1.154v2.308A11.538,11.538,0,0,1,25.366,21ZM36.846,45.232a4.615,4.615,0,0,1-3.992-2.308h7.985A4.615,4.615,0,0,1,36.846,45.232Zm8.077-4.615H28.769V38.309H44.923ZM41.462,36H32.231V32.886a13.592,13.592,0,0,0,9.231,0ZM38,31.386V28.04a1.154,1.154,0,0,0-.381-.854,1.223,1.223,0,0,0-1.154-.277l-1.927-.138a1.154,1.154,0,1,1,0-2.308h2.308A1.154,1.154,0,0,0,38,23.309V21h1.154v1.154a3.462,3.462,0,0,0,3.092,3.462h.346a3.358,3.358,0,0,0,2.238-.877,3.761,3.761,0,0,0,1.246-2.8V21h2.308A11.538,11.538,0,0,1,38,31.386ZM48.385,18.694H45.038a1.258,1.258,0,0,0-1.154,1.212v2.031a1.5,1.5,0,0,1-.473,1.085,1.015,1.015,0,0,1-.808.277,1.154,1.154,0,0,1-1.142-1.142v-2.25a1.258,1.258,0,0,0-1.154-1.212H38V17.54h1.154a3.462,3.462,0,0,0,3.461-3.092,3.311,3.311,0,0,0-.854-2.585,3.762,3.762,0,0,0-2.827-1.246H38V8.367A11.538,11.538,0,0,1,48.384,18.694ZM35.692,8.367v3.4a1.258,1.258,0,0,0,1.154,1.212h2.031a1.465,1.465,0,0,1,1.085.485,1.015,1.015,0,0,1,.288.8,1.154,1.154,0,0,1-.358.692,1.073,1.073,0,0,1-.738.277H36.846a1.258,1.258,0,0,0-1.154,1.212v2.25H34.538V17.54a3.462,3.462,0,1,0-6.923,0v1.154h-2.25A11.538,11.538,0,0,1,35.692,8.367Z" transform="translate(1.846 0.46)"/>
    </g>
  </g>
</svg>
