<svg xmlns="http://www.w3.org/2000/svg" xmlns:xlink="http://www.w3.org/1999/xlink" width="113" height="113" viewBox="0 0 113 113">
  <defs>
    <filter id="Trazado_982547" x="0" y="0" width="113" height="113" filterUnits="userSpaceOnUse">
      <feOffset dy="3" input="SourceAlpha"/>
      <feGaussianBlur stdDeviation="3" result="blur"/>
      <feFlood flood-opacity="0.161"/>
      <feComposite operator="in" in2="blur"/>
      <feComposite in="SourceGraphic"/>
    </filter>
  </defs>
  <g id="Grupo_1210898" data-name="Grupo 1210898" transform="translate(1739.001 -913.873)">
    <g id="Grupo_1210851" data-name="Grupo 1210851" transform="translate(-1730 919.873)">
      <g id="Grupo_1210835" data-name="Grupo 1210835" transform="translate(0)">
        <g id="Grupo_1202055" data-name="Grupo 1202055">
          <g id="Grupo_1177900" data-name="Grupo 1177900">
            <g id="Grupo_1172010" data-name="Grupo 1172010">
              <g id="Grupo_1171046" data-name="Grupo 1171046">
                <g id="Grupo_1148525" data-name="Grupo 1148525">
                  <g transform="matrix(1, 0, 0, 1, -9, -6)" filter="url(#Trazado_982547)">
                    <g id="Trazado_982547-2" data-name="Trazado 982547" transform="translate(9 6)" fill="#edf3fc">
                      <path d="M 47.5 93.5 C 41.28937149047852 93.5 35.26533508300781 92.28397369384766 29.59518623352051 89.88570404052734 C 24.11771965026855 87.56893157958984 19.19813346862793 84.25196075439453 14.97309303283691 80.02691650390625 C 10.74804019927979 75.80186462402344 7.431066513061523 70.88229370117188 5.114293098449707 65.40481567382812 C 2.716026782989502 59.73468017578125 1.5 53.71062850952148 1.5 47.5 C 1.5 41.28937149047852 2.716026782989502 35.26533508300781 5.114293098449707 29.59518623352051 C 7.431066513061523 24.11771965026855 10.74804019927979 19.19813346862793 14.97309303283691 14.97309303283691 C 19.19813346862793 10.74804019927979 24.11771965026855 7.431066513061523 29.59518623352051 5.114293098449707 C 35.26533508300781 2.716026782989502 41.28937149047852 1.5 47.5 1.5 C 53.71062850952148 1.5 59.73468017578125 2.716026782989502 65.40481567382812 5.114293098449707 C 70.88229370117188 7.431066513061523 75.80186462402344 10.74804019927979 80.02691650390625 14.97309303283691 C 84.25196075439453 19.19813346862793 87.56893157958984 24.11771965026855 89.88570404052734 29.59518623352051 C 92.28397369384766 35.26533508300781 93.5 41.28937149047852 93.5 47.5 C 93.5 53.71062850952148 92.28397369384766 59.73468017578125 89.88570404052734 65.40481567382812 C 87.56893157958984 70.88229370117188 84.25196075439453 75.80186462402344 80.02691650390625 80.02691650390625 C 75.80186462402344 84.25196075439453 70.88229370117188 87.56893157958984 65.40481567382812 89.88570404052734 C 59.73468017578125 92.28397369384766 53.71062850952148 93.5 47.5 93.5 Z" stroke="none"/>
                      <path d="M 47.5 3 C 41.49121475219727 3 35.66376876831055 4.176155090332031 30.17950439453125 6.495796203613281 C 24.88084411621094 8.736953735351562 20.12152099609375 11.94598388671875 16.03375244140625 16.03375244140625 C 11.94598388671875 20.12152099609375 8.736953735351562 24.88084411621094 6.495796203613281 30.17950439453125 C 4.176155090332031 35.66376876831055 3 41.49121475219727 3 47.5 C 3 53.50878524780273 4.176155090332031 59.33623123168945 6.495796203613281 64.82049560546875 C 8.736953735351562 70.11915588378906 11.94598388671875 74.87847900390625 16.03375244140625 78.96624755859375 C 20.12152099609375 83.05401611328125 24.88084411621094 86.26304626464844 30.17950439453125 88.50419616699219 C 35.66376876831055 90.82384490966797 41.49121475219727 92 47.5 92 C 53.50878524780273 92 59.33623123168945 90.82384490966797 64.82049560546875 88.50419616699219 C 70.11915588378906 86.26304626464844 74.87847900390625 83.05401611328125 78.96624755859375 78.96624755859375 C 83.05401611328125 74.87847900390625 86.26304626464844 70.11915588378906 88.50419616699219 64.82049560546875 C 90.82384490966797 59.33623123168945 92 53.50878524780273 92 47.5 C 92 41.49121475219727 90.82384490966797 35.66376876831055 88.50419616699219 30.17950439453125 C 86.26304626464844 24.88084411621094 83.05401611328125 20.12152099609375 78.96624755859375 16.03375244140625 C 74.87847900390625 11.94598388671875 70.11915588378906 8.736953735351562 64.82049560546875 6.495796203613281 C 59.33623123168945 4.176155090332031 53.50878524780273 3 47.5 3 M 47.5 0 C 73.7335205078125 0 95 21.2664794921875 95 47.5 C 95 73.7335205078125 73.7335205078125 95 47.5 95 C 21.2664794921875 95 0 73.7335205078125 0 47.5 C 0 21.2664794921875 21.2664794921875 0 47.5 0 Z" stroke="none" fill="#5692e8"/>
                    </g>
                  </g>
                </g>
              </g>
            </g>
          </g>
        </g>
      </g>
    </g>
    <g id="eg_10278208" transform="translate(-1749.352 924.89)">
      <g id="Grupo_1210873" data-name="Grupo 1210873" transform="translate(38.337 7.5)">
        <g id="Grupo_1210868" data-name="Grupo 1210868" transform="translate(0 12.691)">
          <g id="Grupo_1210865" data-name="Grupo 1210865">
            <g id="Grupo_1210858" data-name="Grupo 1210858" transform="translate(3.221 33.827)">
              <g id="Grupo_1210857" data-name="Grupo 1210857" transform="translate(35.059 0.001)">
                <path id="Trazado_1030826" data-name="Trazado 1030826" d="M350.3,368.942v17.447H338.223v-5.74l-1.58-2.218a4.707,4.707,0,0,1-.873-2.731v-4.5a3.224,3.224,0,0,1,.925-2.259Z" transform="translate(-335.77 -368.942)" fill="#ffdfd0"/>
                <path id="Trazado_1030827" data-name="Trazado 1030827" d="M350.3,375.094v-6.152H336.7a3.224,3.224,0,0,0-.925,2.259v3.893Z" transform="translate(-335.77 -368.942)" fill="#ffcec0"/>
              </g>
              <path id="Trazado_1030828" data-name="Trazado 1030828" d="M63.367,368.942v17.447H75.44v-5.74l1.58-2.218a4.708,4.708,0,0,0,.873-2.731v-4.5a3.224,3.224,0,0,0-.925-2.259Z" transform="translate(-63.367 -368.941)" fill="#ffdfd0"/>
              <path id="Trazado_1030829" data-name="Trazado 1030829" d="M76.968,368.938h-13.6v6.152h10.4v.606a4.713,4.713,0,0,1-.873,2.731l-1.58,2.218v5.739h4.126v-5.739l1.58-2.218a4.7,4.7,0,0,0,.873-2.731v-4.5A3.229,3.229,0,0,0,76.968,368.938Z" transform="translate(-63.367 -368.938)" fill="#ffcec0"/>
            </g>
            <g id="Grupo_1210863" data-name="Grupo 1210863" transform="translate(2.728)">
              <path id="Trazado_1030830" data-name="Trazado 1030830" d="M108.9,162.68H60.75a1.213,1.213,0,0,1-1.213-1.213V130.422a1.213,1.213,0,0,1,1.213-1.213H108.9a1.213,1.213,0,0,1,1.213,1.213v31.045A1.213,1.213,0,0,1,108.9,162.68Z" transform="translate(-59.537 -126.236)" fill="#fddd45"/>
              <path id="Trazado_1030831" data-name="Trazado 1030831" d="M411.383,130.421v31.045a1.213,1.213,0,0,1-1.213,1.213h-4.855a1.213,1.213,0,0,0,1.213-1.213V130.421a1.213,1.213,0,0,0-1.213-1.213h4.855A1.213,1.213,0,0,1,411.383,130.421Z" transform="translate(-360.812 -126.235)" fill="#f8c52d"/>
              <g id="Grupo_1210860" data-name="Grupo 1210860" transform="translate(3.998)">
                <path id="Trazado_1030832" data-name="Trazado 1030832" d="M110.673,138.01H91.811A1.213,1.213,0,0,1,90.6,136.8V107.322a1.213,1.213,0,0,1,1.213-1.213h15.224a4.852,4.852,0,0,1,4.852,4.852V136.8A1.213,1.213,0,0,1,110.673,138.01Z" transform="translate(-90.598 -106.109)" fill="#d9e7eb"/>
                <g id="Grupo_1210859" data-name="Grupo 1210859" transform="translate(4.337 0)">
                  <path id="Trazado_1030833" data-name="Trazado 1030833" d="M141.248,110.961V128.48a1.282,1.282,0,0,0-.387.06l-4.071,1.3a1.273,1.273,0,0,1-1.413-.459l-2.528-3.444a1.278,1.278,0,0,0-.627-.456l-4.058-1.342a1.273,1.273,0,0,1-.873-1.2l-.026-4.276a1.264,1.264,0,0,0-.238-.734l-2.492-3.474a1.272,1.272,0,0,1,0-1.483l2.492-3.474a1.261,1.261,0,0,0,.238-.734l.015-2.658H136.4A4.852,4.852,0,0,1,141.248,110.961Z" transform="translate(-124.298 -106.11)" fill="#c5d3dd"/>
                </g>
                <path id="Trazado_1030834" data-name="Trazado 1030834" d="M190.289,110.963V136.8a1.213,1.213,0,0,1-1.213,1.213h-4.855a1.213,1.213,0,0,0,1.213-1.213V110.963a4.851,4.851,0,0,0-4.852-4.852h4.855A4.852,4.852,0,0,1,190.289,110.963Z" transform="translate(-169.001 -106.111)" fill="#c5d3dd"/>
                <path id="Trazado_1030835" data-name="Trazado 1030835" d="M276.075,138.01H257.213A1.213,1.213,0,0,1,256,136.8V110.961a4.852,4.852,0,0,1,4.852-4.852h15.224a1.213,1.213,0,0,1,1.213,1.213V136.8A1.213,1.213,0,0,1,276.075,138.01Z" transform="translate(-234.712 -106.109)" fill="#d9e7eb"/>
                <path id="Trazado_1030836" data-name="Trazado 1030836" d="M256,110.96v17.519a1.282,1.282,0,0,1,.387.06l4.071,1.3a1.273,1.273,0,0,0,1.413-.459l2.528-3.444a1.278,1.278,0,0,1,.627-.456l4.058-1.342a1.273,1.273,0,0,0,.873-1.2l.026-4.276a1.263,1.263,0,0,1,.238-.734l2.492-3.474a1.272,1.272,0,0,0,0-1.483l-2.492-3.474a1.26,1.26,0,0,1-.238-.734l-.016-2.658h-9.115A4.852,4.852,0,0,0,256,110.96Z" transform="translate(-234.712 -106.109)" fill="#c5d3dd"/>
                <path id="Trazado_1030837" data-name="Trazado 1030837" d="M380.331,107.323V136.8a1.213,1.213,0,0,1-1.213,1.213h-4.854a1.213,1.213,0,0,0,1.213-1.213V107.323a1.213,1.213,0,0,0-1.213-1.213h4.854A1.213,1.213,0,0,1,380.331,107.323Z" transform="translate(-337.755 -106.11)" fill="#c5d3dd"/>
              </g>
              <g id="Grupo_1210861" data-name="Grupo 1210861" transform="translate(3.998 25.244)">
                <path id="Trazado_1030838" data-name="Trazado 1030838" d="M110.673,308.9H91.811a1.213,1.213,0,0,1-1.213-1.213v-5.444h16.436a4.852,4.852,0,0,1,4.852,4.852v.593A1.213,1.213,0,0,1,110.673,308.9Z" transform="translate(-90.598 -302.247)" fill="#c5d3dd"/>
                <path id="Trazado_1030839" data-name="Trazado 1030839" d="M190.289,307.1v.593a1.213,1.213,0,0,1-1.213,1.213h-4.855a1.213,1.213,0,0,0,1.213-1.213V307.1a4.851,4.851,0,0,0-4.852-4.852h4.855A4.852,4.852,0,0,1,190.289,307.1Z" transform="translate(-169.001 -302.25)" fill="#a0acb9"/>
              </g>
              <g id="Grupo_1210862" data-name="Grupo 1210862" transform="translate(25.286 25.244)">
                <path id="Trazado_1030840" data-name="Trazado 1030840" d="M257.213,308.9h18.862a1.213,1.213,0,0,0,1.213-1.213v-5.444H260.852A4.851,4.851,0,0,0,256,307.1v.593A1.213,1.213,0,0,0,257.213,308.9Z" transform="translate(-256 -302.247)" fill="#c5d3dd"/>
                <path id="Trazado_1030841" data-name="Trazado 1030841" d="M380.331,302.25v5.445a1.213,1.213,0,0,1-1.213,1.213h-4.854a1.213,1.213,0,0,0,1.213-1.213V302.25Z" transform="translate(-359.043 -302.25)" fill="#a0acb9"/>
              </g>
            </g>
            <g id="Grupo_1210864" data-name="Grupo 1210864" transform="translate(0 17.373)">
              <path id="Trazado_1030842" data-name="Trazado 1030842" d="M45.064,250.273l4-2.662a4.047,4.047,0,0,0,1.377-5.179h0a2.426,2.426,0,0,0-3.552-.908l-7.657,5.312a2.078,2.078,0,0,0-.893,1.707v26.45h7.218v-4.234a4.709,4.709,0,0,1,.873-2.731l.707-.992a4.708,4.708,0,0,0,.873-2.731v-4.5a3.225,3.225,0,0,0-1-2.336l-1.943-1.849v-5.346Z" transform="translate(-38.338 -241.09)" fill="#ffdfd0"/>
            </g>
          </g>
          <g id="Grupo_1210867" data-name="Grupo 1210867" transform="translate(43.498 17.373)">
            <g id="Grupo_1210866" data-name="Grupo 1210866">
              <path id="Trazado_1030843" data-name="Trazado 1030843" d="M382.109,250.273l-4-2.662a4.047,4.047,0,0,1-1.377-5.179h0a2.426,2.426,0,0,1,3.552-.908l7.657,5.312a2.077,2.077,0,0,1,.893,1.707v26.45h-7.218v-4.234a4.709,4.709,0,0,0-.873-2.731l-.707-.992a4.708,4.708,0,0,1-.873-2.731v-4.5a3.225,3.225,0,0,1,1-2.336l1.943-1.849v-5.346Z" transform="translate(-376.305 -241.09)" fill="#ffdfd0"/>
              <path id="Trazado_1030844" data-name="Trazado 1030844" d="M389.8,248.547V275h-4.126V250a2.076,2.076,0,0,0-.894-1.706l-7.368-5.114a4.06,4.06,0,0,1,.286-.747,2.426,2.426,0,0,1,3.553-.907l7.657,5.311A2.077,2.077,0,0,1,389.8,248.547Z" transform="translate(-377.265 -241.095)" fill="#ffcec0"/>
            </g>
          </g>
        </g>
        <g id="Grupo_1210872" data-name="Grupo 1210872" transform="translate(11.064)">
          <g id="Grupo_1210871" data-name="Grupo 1210871">
            <g id="Grupo_1210869" data-name="Grupo 1210869">
              <path id="Trazado_1030845" data-name="Trazado 1030845" d="M157.964,24.427,155.473,27.9a1.272,1.272,0,0,0-.238.734l-.025,4.275a1.272,1.272,0,0,1-.872,1.2l-4.058,1.343a1.272,1.272,0,0,0-.626.455l-2.529,3.445a1.272,1.272,0,0,1-1.413.459l-4.071-1.3a1.272,1.272,0,0,0-.775,0l-4.071,1.3a1.272,1.272,0,0,1-1.413-.459l-2.529-3.445a1.272,1.272,0,0,0-.626-.455l-4.058-1.343a1.272,1.272,0,0,1-.872-1.2l-.025-4.275a1.272,1.272,0,0,0-.238-.734l-2.492-3.474a1.272,1.272,0,0,1,0-1.483l2.492-3.474a1.272,1.272,0,0,0,.238-.734l.025-4.275a1.272,1.272,0,0,1,.872-1.2l4.058-1.343a1.272,1.272,0,0,0,.626-.455l2.529-3.445a1.272,1.272,0,0,1,1.413-.459l4.071,1.3a1.272,1.272,0,0,0,.775,0l4.071-1.3a1.272,1.272,0,0,1,1.413.459l2.529,3.445a1.272,1.272,0,0,0,.626.455l4.058,1.343a1.272,1.272,0,0,1,.872,1.2l.025,4.275a1.272,1.272,0,0,0,.238.734l2.492,3.474A1.272,1.272,0,0,1,157.964,24.427Z" transform="translate(-124.302 -7.5)" fill="#5591d6"/>
            </g>
            <circle id="Elipse_12309" data-name="Elipse 12309" cx="10.525" cy="10.525" r="10.525" transform="translate(6.425 5.661)" fill="#d9e7eb"/>
            <g id="Grupo_1210870" data-name="Grupo 1210870" transform="translate(16.824 0)">
              <path id="Trazado_1030846" data-name="Trazado 1030846" d="M271.858,24.428,269.367,27.9a1.261,1.261,0,0,0-.238.734L269.1,32.91a1.275,1.275,0,0,1-.873,1.2l-4.058,1.342a1.278,1.278,0,0,0-.627.456l-2.528,3.444a1.273,1.273,0,0,1-1.413.459l-4.071-1.3a1.27,1.27,0,0,0-.51-.054,15.588,15.588,0,0,0,11.361-14.769A15.589,15.589,0,0,0,255.02,8.917a1.244,1.244,0,0,0,.514-.054l4.071-1.3a1.273,1.273,0,0,1,1.413.459l2.528,3.444a1.278,1.278,0,0,0,.627.456l4.058,1.342a1.273,1.273,0,0,1,.873,1.2l.026,4.276a1.264,1.264,0,0,0,.238.734l2.492,3.474A1.272,1.272,0,0,1,271.858,24.428Z" transform="translate(-255.02 -7.501)" fill="#1475cb"/>
            </g>
            <path id="Trazado_1030847" data-name="Trazado 1030847" d="M251.7,62.005A10.536,10.536,0,0,1,238.99,72.3a10.527,10.527,0,0,0,0-20.593,10.53,10.53,0,0,1,12.715,10.3Z" transform="translate(-224.229 -45.82)" fill="#c5d3dd"/>
          </g>
        </g>
      </g>
      <g id="Grupo_1210897" data-name="Grupo 1210897" transform="translate(38.337 7.5)">
        <g id="Grupo_1210887" data-name="Grupo 1210887" transform="translate(0 12.691)">
          <g id="Grupo_1210884" data-name="Grupo 1210884">
            <g id="Grupo_1210875" data-name="Grupo 1210875" transform="translate(15.294 36.671)">
              <g id="Grupo_1210874" data-name="Grupo 1210874" transform="translate(22.987)">
                <path id="Trazado_1030848" data-name="Trazado 1030848" d="M338.223,405.636V399.9l-1.58-2.218a4.707,4.707,0,0,1-.873-2.731v-3.915" transform="translate(-335.77 -391.032)" fill="none" stroke="#000" stroke-linecap="round" stroke-linejoin="round" stroke-miterlimit="10" stroke-width="1.5"/>
              </g>
              <path id="Trazado_1030849" data-name="Trazado 1030849" d="M157.168,432.671v-5.74l1.58-2.218a4.706,4.706,0,0,0,.87-2.652" transform="translate(-157.168 -418.067)" fill="none" stroke="#000" stroke-linecap="round" stroke-linejoin="round" stroke-miterlimit="10" stroke-width="1.5"/>
            </g>
            <g id="Grupo_1210882" data-name="Grupo 1210882" transform="translate(2.729)">
              <line id="Línea_818" data-name="Línea 818" y1="4.126" transform="translate(50.571 17.482)" fill="none" stroke="#000" stroke-linecap="round" stroke-linejoin="round" stroke-miterlimit="10" stroke-width="1.5"/>
              <line id="Línea_819" data-name="Línea 819" x2="36.261" transform="translate(7.22 36.444)" fill="none" stroke="#000" stroke-linecap="round" stroke-linejoin="round" stroke-miterlimit="10" stroke-width="1.5"/>
              <path id="Trazado_1030850" data-name="Trazado 1030850" d="M63.265,129.209H60.75a1.213,1.213,0,0,0-1.213,1.213v17.454" transform="translate(-59.537 -126.236)" fill="none" stroke="#000" stroke-linecap="round" stroke-linejoin="round" stroke-miterlimit="10" stroke-width="1.5"/>
              <path id="Trazado_1030851" data-name="Trazado 1030851" d="M428.521,139.45v-9.028a1.213,1.213,0,0,0-1.213-1.213h-2.324" transform="translate(-377.949 -126.236)" fill="none" stroke="#000" stroke-linecap="round" stroke-linejoin="round" stroke-miterlimit="10" stroke-width="1.5"/>
              <g id="Grupo_1210878" data-name="Grupo 1210878" transform="translate(3.998 25.244)">
                <path id="Trazado_1030852" data-name="Trazado 1030852" d="M107.451,302.248h14.267a4.852,4.852,0,0,1,4.851,4.852" transform="translate(-105.282 -302.248)" fill="none" stroke="#000" stroke-linecap="round" stroke-linejoin="round" stroke-miterlimit="10" stroke-width="1.5"/>
                <g id="Grupo_1210877" data-name="Grupo 1210877" transform="translate(0 3.329)">
                  <g id="Grupo_1210876" data-name="Grupo 1210876">
                    <line id="Línea_820" data-name="Línea 820" x2="17.442" fill="none" stroke="#000" stroke-linecap="round" stroke-linejoin="round" stroke-miterlimit="10" stroke-width="1.5"/>
                  </g>
                </g>
              </g>
              <g id="Grupo_1210880" data-name="Grupo 1210880" transform="translate(25.286 25.244)">
                <g id="Grupo_1210879" data-name="Grupo 1210879" transform="translate(3.846 3.329)">
                  <line id="Línea_821" data-name="Línea 821" x2="17.442" fill="none" stroke="#000" stroke-linecap="round" stroke-linejoin="round" stroke-miterlimit="10" stroke-width="1.5"/>
                </g>
                <path id="Trazado_1030853" data-name="Trazado 1030853" d="M275.094,302.248H260.852A4.851,4.851,0,0,0,256,307.1" transform="translate(-256 -302.248)" fill="none" stroke="#000" stroke-linecap="round" stroke-linejoin="round" stroke-miterlimit="10" stroke-width="1.5"/>
              </g>
              <g id="Grupo_1210881" data-name="Grupo 1210881" transform="translate(3.998)">
                <path id="Trazado_1030854" data-name="Trazado 1030854" d="M90.6,124.99V107.322a1.213,1.213,0,0,1,1.213-1.213h5.171" transform="translate(-90.598 -106.109)" fill="none" stroke="#000" stroke-linecap="round" stroke-linejoin="round" stroke-miterlimit="10" stroke-width="1.5"/>
                <path id="Trazado_1030855" data-name="Trazado 1030855" d="M111.886,344.55a1.213,1.213,0,0,1-1.213,1.213H91.811A1.213,1.213,0,0,1,90.6,344.55" transform="translate(-90.598 -313.862)" fill="none" stroke="#000" stroke-linecap="round" stroke-linejoin="round" stroke-miterlimit="10" stroke-width="1.5"/>
                <path id="Trazado_1030856" data-name="Trazado 1030856" d="M277.288,262.94a1.213,1.213,0,0,1-1.213,1.213H257.213A1.213,1.213,0,0,1,256,262.94V250.885" transform="translate(-234.712 -232.252)" fill="none" stroke="#000" stroke-linecap="round" stroke-linejoin="round" stroke-miterlimit="10" stroke-width="1.5"/>
                <path id="Trazado_1030857" data-name="Trazado 1030857" d="M372.651,106.109h5.062a1.213,1.213,0,0,1,1.213,1.213v17.637" transform="translate(-336.35 -106.109)" fill="none" stroke="#000" stroke-linecap="round" stroke-linejoin="round" stroke-miterlimit="10" stroke-width="1.5"/>
              </g>
            </g>
            <g id="Grupo_1210883" data-name="Grupo 1210883" transform="translate(0 17.373)">
              <path id="Trazado_1030858" data-name="Trazado 1030858" d="M46.428,268.026l.707-.992a4.708,4.708,0,0,0,.873-2.731v-4.5a3.225,3.225,0,0,0-1-2.336l-1.943-1.849v-5.346l4-2.662a4.047,4.047,0,0,0,1.377-5.179h0a2.426,2.426,0,0,0-3.552-.908l-7.657,5.312a2.078,2.078,0,0,0-.893,1.707v26.45" transform="translate(-38.337 -241.09)" fill="none" stroke="#000" stroke-linecap="round" stroke-linejoin="round" stroke-miterlimit="10" stroke-width="1.5"/>
            </g>
          </g>
          <g id="Grupo_1210886" data-name="Grupo 1210886" transform="translate(43.498 17.373)">
            <g id="Grupo_1210885" data-name="Grupo 1210885">
              <path id="Trazado_1030859" data-name="Trazado 1030859" d="M380.745,268.026l-.707-.992a4.708,4.708,0,0,1-.873-2.731v-4.5a3.225,3.225,0,0,1,1-2.336l1.943-1.849v-5.346l-4-2.662a4.047,4.047,0,0,1-1.377-5.179h0a2.426,2.426,0,0,1,3.552-.908l7.657,5.312a2.078,2.078,0,0,1,.893,1.707v26.45" transform="translate(-376.306 -241.09)" fill="none" stroke="#000" stroke-linecap="round" stroke-linejoin="round" stroke-miterlimit="10" stroke-width="1.5"/>
            </g>
          </g>
        </g>
        <g id="Grupo_1210896" data-name="Grupo 1210896" transform="translate(11.064)">
          <g id="Grupo_1210888" data-name="Grupo 1210888" transform="translate(6.425 5.661)">
            <path id="Trazado_1030860" data-name="Trazado 1030860" d="M175.563,56.875a10.532,10.532,0,1,0,2.8-3.232" transform="translate(-174.225 -51.484)" fill="none" stroke="#000" stroke-linecap="round" stroke-linejoin="round" stroke-miterlimit="10" stroke-width="1.5"/>
          </g>
          <g id="Grupo_1210889" data-name="Grupo 1210889">
            <path id="Trazado_1030861" data-name="Trazado 1030861" d="M157.964,24.427,155.473,27.9a1.272,1.272,0,0,0-.238.734l-.025,4.275a1.272,1.272,0,0,1-.872,1.2l-4.058,1.343a1.272,1.272,0,0,0-.626.455l-2.529,3.445a1.272,1.272,0,0,1-1.413.459l-4.071-1.3a1.272,1.272,0,0,0-.775,0l-4.071,1.3a1.272,1.272,0,0,1-1.413-.459l-2.529-3.445a1.272,1.272,0,0,0-.626-.455l-4.058-1.343a1.272,1.272,0,0,1-.872-1.2l-.025-4.275a1.272,1.272,0,0,0-.238-.734l-2.492-3.474a1.272,1.272,0,0,1,0-1.483l2.492-3.474a1.272,1.272,0,0,0,.238-.734l.025-4.275a1.272,1.272,0,0,1,.872-1.2l4.058-1.343a1.272,1.272,0,0,0,.626-.455l2.529-3.445a1.272,1.272,0,0,1,1.413-.459l4.071,1.3a1.272,1.272,0,0,0,.775,0l4.071-1.3a1.272,1.272,0,0,1,1.413.459l2.529,3.445a1.272,1.272,0,0,0,.626.455l4.058,1.343a1.272,1.272,0,0,1,.872,1.2l.025,4.275a1.272,1.272,0,0,0,.238.734l2.492,3.474A1.272,1.272,0,0,1,157.964,24.427Z" transform="translate(-124.302 -7.5)" fill="none" stroke="#000" stroke-linecap="round" stroke-linejoin="round" stroke-miterlimit="10" stroke-width="1.5"/>
          </g>
          <g id="Grupo_1210892" data-name="Grupo 1210892" transform="translate(12.667 13.089)">
            <g id="Grupo_1210891" data-name="Grupo 1210891">
              <g id="Grupo_1210890" data-name="Grupo 1210890">
                <path id="Trazado_1030862" data-name="Trazado 1030862" d="M225.911,115.394H222.72V109.2h3.191" transform="translate(-222.72 -109.202)" fill="none" stroke="#000" stroke-linecap="round" stroke-linejoin="round" stroke-miterlimit="10" stroke-width="1.5"/>
                <path id="Trazado_1030863" data-name="Trazado 1030863" d="M267.676,109.2h-1.6a1.593,1.593,0,0,0-1.593,1.593V113.8a1.593,1.593,0,0,0,1.593,1.593h1.6v-3.1H266.7" transform="translate(-259.11 -109.202)" fill="none" stroke="#000" stroke-linecap="round" stroke-linejoin="round" stroke-miterlimit="10" stroke-width="1.5"/>
              </g>
              <line id="Línea_822" data-name="Línea 822" x2="2.123" transform="translate(0 3.096)" fill="none" stroke="#000" stroke-linecap="round" stroke-linejoin="round" stroke-miterlimit="10" stroke-width="1.5"/>
            </g>
          </g>
          <g id="Grupo_1210895" data-name="Grupo 1210895" transform="translate(15.31 9.877)">
            <g id="Grupo_1210893" data-name="Grupo 1210893" transform="translate(0 12.617)">
              <path id="Trazado_1030864" data-name="Trazado 1030864" d="M246.536,182.275h-3.274" transform="translate(-243.256 -182.275)" fill="none" stroke="#000" stroke-linecap="round" stroke-linejoin="round" stroke-miterlimit="10" stroke-width="1.5"/>
            </g>
            <g id="Grupo_1210894" data-name="Grupo 1210894">
              <path id="Trazado_1030865" data-name="Trazado 1030865" d="M246.536,84.243h-3.274" transform="translate(-243.256 -84.243)" fill="none" stroke="#000" stroke-linecap="round" stroke-linejoin="round" stroke-miterlimit="10" stroke-width="1.5"/>
            </g>
          </g>
        </g>
      </g>
    </g>
  </g>
</svg>
