<svg xmlns="http://www.w3.org/2000/svg" xmlns:xlink="http://www.w3.org/1999/xlink" width="113" height="113" viewBox="0 0 113 113">
  <defs>
    <filter id="Trazado_982547" x="0" y="0" width="113" height="113" filterUnits="userSpaceOnUse">
      <feOffset dy="3" input="SourceAlpha"/>
      <feGaussianBlur stdDeviation="3" result="blur"/>
      <feFlood flood-opacity="0.161"/>
      <feComposite operator="in" in2="blur"/>
      <feComposite in="SourceGraphic"/>
    </filter>
  </defs>
  <g id="Grupo_1210928" data-name="Grupo 1210928" transform="translate(1403.001 -913.873)">
    <g id="Grupo_1210852" data-name="Grupo 1210852" transform="translate(-1394 919.873)">
      <g id="Grupo_1210835" data-name="Grupo 1210835" transform="translate(0)">
        <g id="Grupo_1202055" data-name="Grupo 1202055">
          <g id="Grupo_1177900" data-name="Grupo 1177900">
            <g id="Grupo_1172010" data-name="Grupo 1172010">
              <g id="Grupo_1171046" data-name="Grupo 1171046">
                <g id="Grupo_1148525" data-name="Grupo 1148525">
                  <g transform="matrix(1, 0, 0, 1, -9, -6)" filter="url(#Trazado_982547)">
                    <g id="Trazado_982547-2" data-name="Trazado 982547" transform="translate(9 6)" fill="#edf3fc">
                      <path d="M 47.5 93.5 C 41.28937149047852 93.5 35.26533508300781 92.28397369384766 29.59518623352051 89.88570404052734 C 24.11771965026855 87.56893157958984 19.19813346862793 84.25196075439453 14.97309303283691 80.02691650390625 C 10.74804019927979 75.80186462402344 7.431066513061523 70.88229370117188 5.114293098449707 65.40481567382812 C 2.716026782989502 59.73468017578125 1.5 53.71062850952148 1.5 47.5 C 1.5 41.28937149047852 2.716026782989502 35.26533508300781 5.114293098449707 29.59518623352051 C 7.431066513061523 24.11771965026855 10.74804019927979 19.19813346862793 14.97309303283691 14.97309303283691 C 19.19813346862793 10.74804019927979 24.11771965026855 7.431066513061523 29.59518623352051 5.114293098449707 C 35.26533508300781 2.716026782989502 41.28937149047852 1.5 47.5 1.5 C 53.71062850952148 1.5 59.73468017578125 2.716026782989502 65.40481567382812 5.114293098449707 C 70.88229370117188 7.431066513061523 75.80186462402344 10.74804019927979 80.02691650390625 14.97309303283691 C 84.25196075439453 19.19813346862793 87.56893157958984 24.11771965026855 89.88570404052734 29.59518623352051 C 92.28397369384766 35.26533508300781 93.5 41.28937149047852 93.5 47.5 C 93.5 53.71062850952148 92.28397369384766 59.73468017578125 89.88570404052734 65.40481567382812 C 87.56893157958984 70.88229370117188 84.25196075439453 75.80186462402344 80.02691650390625 80.02691650390625 C 75.80186462402344 84.25196075439453 70.88229370117188 87.56893157958984 65.40481567382812 89.88570404052734 C 59.73468017578125 92.28397369384766 53.71062850952148 93.5 47.5 93.5 Z" stroke="none"/>
                      <path d="M 47.5 3 C 41.49121475219727 3 35.66376876831055 4.176155090332031 30.17950439453125 6.495796203613281 C 24.88084411621094 8.736953735351562 20.12152099609375 11.94598388671875 16.03375244140625 16.03375244140625 C 11.94598388671875 20.12152099609375 8.736953735351562 24.88084411621094 6.495796203613281 30.17950439453125 C 4.176155090332031 35.66376876831055 3 41.49121475219727 3 47.5 C 3 53.50878524780273 4.176155090332031 59.33623123168945 6.495796203613281 64.82049560546875 C 8.736953735351562 70.11915588378906 11.94598388671875 74.87847900390625 16.03375244140625 78.96624755859375 C 20.12152099609375 83.05401611328125 24.88084411621094 86.26304626464844 30.17950439453125 88.50419616699219 C 35.66376876831055 90.82384490966797 41.49121475219727 92 47.5 92 C 53.50878524780273 92 59.33623123168945 90.82384490966797 64.82049560546875 88.50419616699219 C 70.11915588378906 86.26304626464844 74.87847900390625 83.05401611328125 78.96624755859375 78.96624755859375 C 83.05401611328125 74.87847900390625 86.26304626464844 70.11915588378906 88.50419616699219 64.82049560546875 C 90.82384490966797 59.33623123168945 92 53.50878524780273 92 47.5 C 92 41.49121475219727 90.82384490966797 35.66376876831055 88.50419616699219 30.17950439453125 C 86.26304626464844 24.88084411621094 83.05401611328125 20.12152099609375 78.96624755859375 16.03375244140625 C 74.87847900390625 11.94598388671875 70.11915588378906 8.736953735351562 64.82049560546875 6.495796203613281 C 59.33623123168945 4.176155090332031 53.50878524780273 3 47.5 3 M 47.5 0 C 73.7335205078125 0 95 21.2664794921875 95 47.5 C 95 73.7335205078125 73.7335205078125 95 47.5 95 C 21.2664794921875 95 0 73.7335205078125 0 47.5 C 0 21.2664794921875 21.2664794921875 0 47.5 0 Z" stroke="none" fill="#5692e8"/>
                    </g>
                  </g>
                </g>
              </g>
            </g>
          </g>
        </g>
      </g>
    </g>
    <g id="Layer_1" transform="translate(-1619.663 75.117)">
      <g id="Grupo_1210926" data-name="Grupo 1210926" transform="translate(238.205 870.214)">
        <g id="Grupo_1210899" data-name="Grupo 1210899" transform="translate(4.966 4.304)">
          <path id="Trazado_1030866" data-name="Trazado 1030866" d="M485.467,1093.676l-.545-.333a10.052,10.052,0,0,1-5.038-10.5,12.234,12.234,0,0,1,.732-2.489,1.2,1.2,0,0,1,1.722-.645l1.083.613a1.71,1.71,0,0,0,.843.242,1.621,1.621,0,0,0,.722-.177l.516-.292a1.2,1.2,0,0,1,1.184,0l.516.292a1.581,1.581,0,0,0,.722.177,1.71,1.71,0,0,0,.843-.242l1.083-.617a1.2,1.2,0,0,1,1.722.645l.414,1.174a10.208,10.208,0,0,1,.383,4.27,9.612,9.612,0,0,1-1.339,3.88,11.993,11.993,0,0,1-4.31,4A1.186,1.186,0,0,1,485.467,1093.676Zm-3.054-11.175a7.636,7.636,0,0,0,.793,5.928,8.705,8.705,0,0,0,2.886,2.816,7.647,7.647,0,0,0,3.84-8.013,6.785,6.785,0,0,0-.161-.732,565.758,565.758,0,0,1-7.358,0Z" transform="translate(-479.741 -1079.552)" fill-rule="evenodd"/>
        </g>
        <g id="Grupo_1210900" data-name="Grupo 1210900" transform="translate(43.792 4.305)">
          <path id="Trazado_1030867" data-name="Trazado 1030867" d="M2374.02,1093.723l-.545-.333a10.052,10.052,0,0,1-5.038-10.5,12.318,12.318,0,0,1,.734-2.491,1.2,1.2,0,0,1,1.722-.645l1.083.613a1.71,1.71,0,0,0,.843.242,1.62,1.62,0,0,0,.722-.177l.516-.292a1.2,1.2,0,0,1,1.184,0l.516.292a1.581,1.581,0,0,0,.722.177,1.711,1.711,0,0,0,.843-.242l1.085-.613a1.2,1.2,0,0,1,1.721.645,12.385,12.385,0,0,1,.732,2.489,10.039,10.039,0,0,1-5.038,10.5l-.546.333A1.2,1.2,0,0,1,2374.02,1093.723Zm-3.054-11.174a7.645,7.645,0,0,0,.793,5.928,8.706,8.706,0,0,0,2.886,2.816,7.778,7.778,0,0,0,3.893-5.736,7.982,7.982,0,0,0-.212-3.009,566.077,566.077,0,0,1-7.36,0Z" transform="translate(-2368.293 -1079.6)" fill-rule="evenodd"/>
        </g>
        <g id="Grupo_1210901" data-name="Grupo 1210901" transform="translate(28.686 20.841)">
          <path id="Trazado_1030868" data-name="Trazado 1030868" d="M1634.695,1894.46a1.2,1.2,0,0,1-1.2-1.2v-8.11a1.2,1.2,0,0,1,2.4,0v8.11A1.2,1.2,0,0,1,1634.695,1894.46Z" transform="translate(-1633.495 -1883.95)" fill-rule="evenodd"/>
        </g>
        <g id="Grupo_1210902" data-name="Grupo 1210902" transform="translate(0 0)">
          <path id="Trazado_1030869" data-name="Trazado 1030869" d="M268.09,914.3H239.4a1.2,1.2,0,0,1-1.2-1.2V871.418a1.2,1.2,0,0,1,1.2-1.2h20.238a1.2,1.2,0,0,1,1.2,1.2v7.408h7.247a1.2,1.2,0,0,1,1.2,1.2v7.154a1.2,1.2,0,1,1-2.4,0v-5.954h-7.247a1.2,1.2,0,0,1-1.2-1.2v-7.408H240.6V911.9h26.286v-5.557a1.2,1.2,0,1,1,2.4,0V913.1a1.2,1.2,0,0,1-1.2,1.2Z" transform="translate(-238.205 -870.218)" fill-rule="evenodd"/>
        </g>
        <g id="Grupo_1210903" data-name="Grupo 1210903" transform="translate(20.236 0)">
          <path id="Trazado_1030870" data-name="Trazado 1030870" d="M1231.307,880.865l-8.449-8.608a1.2,1.2,0,0,1,1.714-1.682l8.449,8.608a1.2,1.2,0,0,1-1.714,1.682Z" transform="translate(-1222.515 -870.216)" fill-rule="evenodd"/>
        </g>
        <g id="Grupo_1210904" data-name="Grupo 1210904" transform="translate(38.826 0)">
          <path id="Trazado_1030871" data-name="Trazado 1030871" d="M2156.642,914.3h-28.687a1.2,1.2,0,0,1-1.2-1.2v-7.154a1.2,1.2,0,0,1,2.4,0V911.9h26.287V881.222H2148.2a1.2,1.2,0,0,1-1.2-1.2v-7.408h-17.839v14.038a1.2,1.2,0,1,1-2.4,0V871.414a1.2,1.2,0,0,1,1.2-1.2H2148.2a1.2,1.2,0,0,1,1.2,1.2v7.408h7.247a1.2,1.2,0,0,1,1.2,1.2V913.1A1.2,1.2,0,0,1,2156.642,914.3Z" transform="translate(-2126.755 -870.214)" fill-rule="evenodd"/>
        </g>
        <g id="Grupo_1210905" data-name="Grupo 1210905" transform="translate(38.826 21.363)">
          <path id="Trazado_1030872" data-name="Trazado 1030872" d="M2127.955,1919.813a1.2,1.2,0,0,1-1.2-1.2v-8.088a1.2,1.2,0,0,1,2.4,0v8.088A1.2,1.2,0,0,1,2127.955,1919.813Z" transform="translate(-2126.755 -1909.325)" fill-rule="evenodd"/>
        </g>
        <g id="Grupo_1210906" data-name="Grupo 1210906" transform="translate(59.065 0)">
          <path id="Trazado_1030873" data-name="Trazado 1030873" d="M3119.958,880.865l-8.449-8.608a1.2,1.2,0,1,1,1.714-1.682l8.449,8.608a1.2,1.2,0,0,1-1.714,1.682Z" transform="translate(-3111.165 -870.216)" fill-rule="evenodd"/>
        </g>
        <g id="Grupo_1210909" data-name="Grupo 1210909" transform="translate(24.842 12.886)">
          <g id="Grupo_1210907" data-name="Grupo 1210907" transform="translate(0.002)">
            <path id="Trazado_1030874" data-name="Trazado 1030874" d="M1457.431,1509.146v-1.8h-9.609a1.2,1.2,0,0,1-1.2-1.2V1501.2a1.2,1.2,0,0,1,1.2-1.2h9.609v-1.8a1.2,1.2,0,0,1,1.94-.946l7.019,5.476a1.2,1.2,0,0,1,0,1.892l-7.019,5.476A1.2,1.2,0,0,1,1457.431,1509.146Zm-8.41-4.2h9.609a1.2,1.2,0,0,1,1.2,1.2v.543l3.868-3.017-3.868-3.016v.543a1.2,1.2,0,0,1-1.2,1.2h-9.609Z" transform="translate(-1446.621 -1496.99)" fill-rule="evenodd"/>
          </g>
          <g id="Grupo_1210908" data-name="Grupo 1210908" transform="translate(0 13.564)">
            <path id="Trazado_1030875" data-name="Trazado 1030875" d="M1454.017,2169.83l-7.019-5.476a1.2,1.2,0,0,1,0-1.892l7.019-5.476a1.2,1.2,0,0,1,1.94.946v1.8h9.609a1.2,1.2,0,0,1,1.2,1.2v4.948a1.2,1.2,0,0,1-1.2,1.2h-9.609v1.8A1.2,1.2,0,0,1,1454.017,2169.83Zm-4.33-6.422,3.867,3.017v-.543a1.2,1.2,0,0,1,1.2-1.2h9.609v-2.547h-9.609a1.2,1.2,0,0,1-1.2-1.2v-.543Z" transform="translate(-1446.536 -2156.73)" fill-rule="evenodd"/>
          </g>
        </g>
        <g id="Grupo_1210910" data-name="Grupo 1210910" transform="translate(3.979 21.906)">
          <path id="Trazado_1030876" data-name="Trazado 1030876" d="M436.341,1938.16H432.93a1.2,1.2,0,1,1,0-2.4h3.411a1.2,1.2,0,0,1,0,2.4Z" transform="translate(-431.73 -1935.76)" fill-rule="evenodd"/>
        </g>
        <g id="Grupo_1210911" data-name="Grupo 1210911" transform="translate(11.559 21.821)">
          <path id="Trazado_1030877" data-name="Trazado 1030877" d="M810.953,1934.006h-9.306a1.2,1.2,0,0,1,0-2.4h9.306a1.2,1.2,0,1,1,0,2.4Z" transform="translate(-800.447 -1931.606)" fill-rule="evenodd"/>
        </g>
        <g id="Grupo_1210912" data-name="Grupo 1210912" transform="translate(3.979 26.621)">
          <path id="Trazado_1030878" data-name="Trazado 1030878" d="M436.341,2167.47H432.93a1.2,1.2,0,0,1,0-2.4h3.411a1.2,1.2,0,0,1,0,2.4Z" transform="translate(-431.73 -2165.07)" fill-rule="evenodd"/>
        </g>
        <g id="Grupo_1210913" data-name="Grupo 1210913" transform="translate(11.559 26.536)">
          <path id="Trazado_1030879" data-name="Trazado 1030879" d="M810.953,2163.328h-9.306a1.2,1.2,0,0,1,0-2.4h9.306a1.2,1.2,0,1,1,0,2.4Z" transform="translate(-800.447 -2160.928)" fill-rule="evenodd"/>
        </g>
        <g id="Grupo_1210914" data-name="Grupo 1210914" transform="translate(3.979 31.337)">
          <path id="Trazado_1030880" data-name="Trazado 1030880" d="M436.341,2396.888H432.93a1.2,1.2,0,0,1,0-2.4h3.411a1.2,1.2,0,0,1,0,2.4Z" transform="translate(-431.73 -2394.488)" fill-rule="evenodd"/>
        </g>
        <g id="Grupo_1210915" data-name="Grupo 1210915" transform="translate(11.559 31.311)">
          <path id="Trazado_1030881" data-name="Trazado 1030881" d="M809.048,2395.628h-7.4a1.2,1.2,0,0,1,0-2.4h7.4a1.2,1.2,0,0,1,0,2.4Z" transform="translate(-800.448 -2393.228)" fill-rule="evenodd"/>
        </g>
        <g id="Grupo_1210916" data-name="Grupo 1210916" transform="translate(3.979 36.052)">
          <path id="Trazado_1030882" data-name="Trazado 1030882" d="M436.341,2626.2H432.93a1.2,1.2,0,1,1,0-2.4h3.411a1.2,1.2,0,1,1,0,2.4Z" transform="translate(-431.73 -2623.8)" fill-rule="evenodd"/>
        </g>
        <g id="Grupo_1210917" data-name="Grupo 1210917" transform="translate(11.559 36.014)">
          <path id="Trazado_1030883" data-name="Trazado 1030883" d="M812.857,2624.368H801.649a1.2,1.2,0,1,1,0-2.4h11.21a1.2,1.2,0,1,1,0,2.4Z" transform="translate(-800.449 -2621.968)" fill-rule="evenodd"/>
        </g>
        <g id="Grupo_1210918" data-name="Grupo 1210918" transform="translate(46.3 21.906)">
          <path id="Trazado_1030884" data-name="Trazado 1030884" d="M2494.873,1938.16h-3.412a1.2,1.2,0,0,1,0-2.4h3.412a1.2,1.2,0,0,1,0,2.4Z" transform="translate(-2490.261 -1935.76)" fill-rule="evenodd"/>
        </g>
        <g id="Grupo_1210919" data-name="Grupo 1210919" transform="translate(53.88 21.821)">
          <path id="Trazado_1030885" data-name="Trazado 1030885" d="M2869.491,1934.006h-9.306a1.2,1.2,0,0,1,0-2.4h9.306a1.2,1.2,0,0,1,0,2.4Z" transform="translate(-2858.985 -1931.606)" fill-rule="evenodd"/>
        </g>
        <g id="Grupo_1210920" data-name="Grupo 1210920" transform="translate(46.3 26.621)">
          <path id="Trazado_1030886" data-name="Trazado 1030886" d="M2494.873,2167.47h-3.412a1.2,1.2,0,0,1,0-2.4h3.412a1.2,1.2,0,0,1,0,2.4Z" transform="translate(-2490.261 -2165.07)" fill-rule="evenodd"/>
        </g>
        <g id="Grupo_1210921" data-name="Grupo 1210921" transform="translate(53.88 26.536)">
          <path id="Trazado_1030887" data-name="Trazado 1030887" d="M2869.491,2163.328h-9.306a1.2,1.2,0,0,1,0-2.4h9.306a1.2,1.2,0,0,1,0,2.4Z" transform="translate(-2858.985 -2160.928)" fill-rule="evenodd"/>
        </g>
        <g id="Grupo_1210922" data-name="Grupo 1210922" transform="translate(46.3 31.337)">
          <path id="Trazado_1030888" data-name="Trazado 1030888" d="M2494.873,2396.888h-3.412a1.2,1.2,0,0,1,0-2.4h3.412a1.2,1.2,0,0,1,0,2.4Z" transform="translate(-2490.261 -2394.488)" fill-rule="evenodd"/>
        </g>
        <g id="Grupo_1210923" data-name="Grupo 1210923" transform="translate(53.88 31.311)">
          <path id="Trazado_1030889" data-name="Trazado 1030889" d="M2869.491,2395.628h-9.306a1.2,1.2,0,0,1,0-2.4h9.306a1.2,1.2,0,0,1,0,2.4Z" transform="translate(-2858.985 -2393.228)" fill-rule="evenodd"/>
        </g>
        <g id="Grupo_1210924" data-name="Grupo 1210924" transform="translate(46.3 36.052)">
          <path id="Trazado_1030890" data-name="Trazado 1030890" d="M2494.873,2626.2h-3.412a1.2,1.2,0,0,1,0-2.4h3.412a1.2,1.2,0,0,1,0,2.4Z" transform="translate(-2490.261 -2623.8)" fill-rule="evenodd"/>
        </g>
        <g id="Grupo_1210925" data-name="Grupo 1210925" transform="translate(53.88 36.014)">
          <path id="Trazado_1030891" data-name="Trazado 1030891" d="M2869.491,2624.368h-9.306a1.2,1.2,0,1,1,0-2.4h9.306a1.2,1.2,0,0,1,0,2.4Z" transform="translate(-2858.985 -2621.968)" fill-rule="evenodd"/>
        </g>
      </g>
      <g id="Grupo_1210927" data-name="Grupo 1210927" transform="translate(240.605 872.614)">
        <path id="Trazado_1030892" data-name="Trazado 1030892" d="M1339.34,1075.978h4.387l-4.387-4.469Z" transform="translate(-1319.102 -1069.77)" fill="#cf9e76" fill-rule="evenodd"/>
        <path id="Trazado_1030893" data-name="Trazado 1030893" d="M600.313,1231.757a7.647,7.647,0,0,0,3.84-8.013,6.751,6.751,0,0,0-.161-.732,571.6,571.6,0,0,1-7.358,0,7.636,7.636,0,0,0,.793,5.928A8.71,8.71,0,0,0,600.313,1231.757Z" transform="translate(-591.396 -1218.159)" fill="#ef7385" fill-rule="evenodd"/>
        <path id="Trazado_1030894" data-name="Trazado 1030894" d="M378.586,1000.44h2.642v-4.883H373.98a1.2,1.2,0,0,1-1.2-1.2v-7.408H354.942v39.283h26.286v-4.972l-3.382-2.638a1.2,1.2,0,0,1,0-1.892l3.382-2.638v-6.3h-2.642a1.2,1.2,0,0,1-1.2-1.2v-4.949a1.2,1.2,0,0,1,1.2-1.2Zm-13.285,5.93h9.306a1.2,1.2,0,1,1,0,2.4H365.3a1.2,1.2,0,0,1,0-2.4Zm0,4.714h9.306a1.2,1.2,0,1,1,0,2.4H365.3a1.2,1.2,0,1,1,0-2.4Zm0,4.776h7.4a1.2,1.2,0,1,1,0,2.4h-7.4a1.2,1.2,0,1,1,0-2.4Zm0,4.7h11.21a1.2,1.2,0,1,1,0,2.4H365.3a1.2,1.2,0,1,1,0-2.4Zm4.833-25.467a9.609,9.609,0,0,1-1.339,3.88,12,12,0,0,1-4.31,4,1.187,1.187,0,0,1-1.252,0l-.545-.333a10.052,10.052,0,0,1-5.038-10.5,12.233,12.233,0,0,1,.732-2.489,1.2,1.2,0,0,1,1.721-.645l1.083.613a1.71,1.71,0,0,0,.843.242,1.619,1.619,0,0,0,.722-.177l.516-.291a1.2,1.2,0,0,1,1.184,0l.516.291a1.581,1.581,0,0,0,.722.177,1.71,1.71,0,0,0,.843-.242l1.083-.617a1.2,1.2,0,0,1,1.722.645l.415,1.174a10.209,10.209,0,0,1,.383,4.27Zm-12.414,25.5h3.411a1.2,1.2,0,1,1,0,2.4h-3.411a1.2,1.2,0,1,1,0-2.4Zm3.411-4.714a1.2,1.2,0,1,1,0,2.4h-3.411a1.2,1.2,0,1,1,0-2.4Zm0-4.716a1.2,1.2,0,1,1,0,2.4h-3.411a1.2,1.2,0,1,1,0-2.4Zm0-4.714a1.2,1.2,0,1,1,0,2.4h-3.411a1.2,1.2,0,1,1,0-2.4Z" transform="translate(-354.942 -986.949)" fill="#ecc19c" fill-rule="evenodd"/>
        <path id="Trazado_1030895" data-name="Trazado 1030895" d="M2488.908,1231.758a7.78,7.78,0,0,0,3.894-5.736,7.975,7.975,0,0,0-.213-3.009,560.322,560.322,0,0,1-7.36,0,7.647,7.647,0,0,0,.793,5.928A8.707,8.707,0,0,0,2488.908,1231.758Z" transform="translate(-2441.165 -1218.16)" fill="#ef7385" fill-rule="evenodd"/>
        <path id="Trazado_1030896" data-name="Trazado 1030896" d="M2269.776,1026.23V995.555h-7.247a1.2,1.2,0,0,1-1.2-1.2v-7.408h-17.838v13.578l3.383,2.64a1.2,1.2,0,0,1,0,1.892l-3.385,2.641v6.3h2.646a1.2,1.2,0,0,1,1.2,1.2v4.948a1.2,1.2,0,0,1-1.2,1.2h-2.646v4.881Zm-12.434-19.861h9.306a1.2,1.2,0,1,1,0,2.4h-9.306a1.2,1.2,0,0,1,0-2.4Zm0,4.714h9.306a1.2,1.2,0,1,1,0,2.4h-9.306a1.2,1.2,0,0,1,0-2.4Zm0,4.776h9.306a1.2,1.2,0,1,1,0,2.4h-9.306a1.2,1.2,0,0,1,0-2.4Zm0,4.7h9.306a1.2,1.2,0,1,1,0,2.4h-9.306a1.2,1.2,0,0,1,0-2.4Zm1.278-28.42a10.04,10.04,0,0,1-5.038,10.5l-.545.333a1.2,1.2,0,0,1-1.256,0l-.545-.333a10.052,10.052,0,0,1-5.038-10.5,12.3,12.3,0,0,1,.734-2.491,1.2,1.2,0,0,1,1.722-.645l1.083.613a1.71,1.71,0,0,0,.843.242,1.618,1.618,0,0,0,.722-.176l.516-.292a1.2,1.2,0,0,1,1.184,0l.516.292a1.582,1.582,0,0,0,.722.176,1.709,1.709,0,0,0,.843-.242l1.085-.613a1.2,1.2,0,0,1,1.721.645A12.393,12.393,0,0,1,2258.62,992.141Zm-5.447,28.457a1.2,1.2,0,1,1,0,2.4h-3.411a1.2,1.2,0,0,1,0-2.4Zm0-4.714a1.2,1.2,0,1,1,0,2.4h-3.411a1.2,1.2,0,0,1,0-2.4Zm0-4.716a1.2,1.2,0,1,1,0,2.4h-3.411a1.2,1.2,0,0,1,0-2.4Zm0-4.715a1.2,1.2,0,1,1,0,2.4h-3.411a1.2,1.2,0,0,1,0-2.4Z" transform="translate(-2204.662 -986.947)" fill="#ecc19c" fill-rule="evenodd"/>
        <path id="Trazado_1030897" data-name="Trazado 1030897" d="M3227.99,1075.98h4.387l-4.387-4.469Z" transform="translate(-3168.923 -1069.772)" fill="#cf9e76" fill-rule="evenodd"/>
        <path id="Trazado_1030898" data-name="Trazado 1030898" d="M1575.445,1680.214l2.58-2.012-3.867-3.017v.544a1.2,1.2,0,0,1-1.2,1.2h-9.609v2.547h9.609a1.2,1.2,0,0,1,1.2,1.2v.543l1.187-.925A1.161,1.161,0,0,1,1575.445,1680.214Z" transform="translate(-1538.504 -1661.036)" fill="#ef7385" fill-rule="evenodd"/>
        <path id="Trazado_1030899" data-name="Trazado 1030899" d="M1614.5,2339.06v-2.547h-9.61a1.2,1.2,0,0,1-1.2-1.2v-.543l-1.082.843a1.2,1.2,0,0,1-.332.26l-2.453,1.914,3.868,3.017v-.543a1.2,1.2,0,0,1,1.2-1.2Z" transform="translate(-1574.227 -2307.06)" fill="#ef7385" fill-rule="evenodd"/>
      </g>
    </g>
  </g>
</svg>
