<svg xmlns="http://www.w3.org/2000/svg" xmlns:xlink="http://www.w3.org/1999/xlink" width="108" height="108" viewBox="0 0 108 108">
  <defs>
    <filter id="Trazado_978624" x="0" y="0" width="108" height="108" filterUnits="userSpaceOnUse">
      <feOffset dy="3" input="SourceAlpha"/>
      <feGaussianBlur stdDeviation="3" result="blur"/>
      <feFlood flood-opacity="0.161"/>
      <feComposite operator="in" in2="blur"/>
      <feComposite in="SourceGraphic"/>
    </filter>
  </defs>
  <g id="Grupo_1171402" data-name="Grupo 1171402" transform="translate(-205 -3069)">
    <g id="Grupo_1171401" data-name="Grupo 1171401" transform="translate(214 3075)">
      <g id="Grupo_1164524" data-name="Grupo 1164524">
        <g id="Grupo_1144123" data-name="Grupo 1144123">
          <g transform="matrix(1, 0, 0, 1, -9, -6)" filter="url(#Trazado_978624)">
            <g id="Trazado_978624-2" data-name="Trazado 978624" transform="translate(9 6)" fill="#d9d5e3">
              <path d="M 45 88.5 C 39.12687683105469 88.5 33.43022537231445 87.35007476806641 28.06830024719238 85.08217620849609 C 22.88852500915527 82.89131164550781 18.23629951477051 79.75458526611328 14.2408504486084 75.75914764404297 C 10.24541282653809 71.76370239257812 7.108687400817871 67.11147308349609 4.917825222015381 61.93170166015625 C 2.649924993515015 56.56977462768555 1.5 50.87312316894531 1.5 45 C 1.5 39.12687683105469 2.649924993515015 33.43022537231445 4.917825222015381 28.06830024719238 C 7.108687400817871 22.88852500915527 10.24541282653809 18.23629951477051 14.2408504486084 14.2408504486084 C 18.23629951477051 10.24541282653809 22.88852500915527 7.108687400817871 28.06830024719238 4.917825222015381 C 33.43022537231445 2.649924993515015 39.12687683105469 1.5 45 1.5 C 50.87312316894531 1.5 56.56977462768555 2.649924993515015 61.93170166015625 4.917825222015381 C 67.11147308349609 7.108687400817871 71.76370239257812 10.24541282653809 75.75914764404297 14.2408504486084 C 79.75458526611328 18.23629951477051 82.89131164550781 22.88852500915527 85.08217620849609 28.06830024719238 C 87.35007476806641 33.43022537231445 88.5 39.12687683105469 88.5 45 C 88.5 50.87312316894531 87.35007476806641 56.56977462768555 85.08217620849609 61.93170166015625 C 82.89131164550781 67.11147308349609 79.75458526611328 71.76370239257812 75.75914764404297 75.75914764404297 C 71.76370239257812 79.75458526611328 67.11147308349609 82.89131164550781 61.93170166015625 85.08217620849609 C 56.56977462768555 87.35007476806641 50.87312316894531 88.5 45 88.5 Z" stroke="none"/>
              <path d="M 45 3 C 39.32871246337891 3 33.82865524291992 4.110054016113281 28.65262985229492 6.299339294433594 C 23.65165710449219 8.414573669433594 19.15968322753906 11.44334411621094 15.301513671875 15.301513671875 C 11.44334411621094 19.15968322753906 8.414573669433594 23.65165710449219 6.299339294433594 28.65262985229492 C 4.110054016113281 33.82865524291992 3 39.32871246337891 3 45 C 3 50.67128753662109 4.110054016113281 56.17134475708008 6.299339294433594 61.34737396240234 C 8.414573669433594 66.34834289550781 11.44334411621094 70.84031677246094 15.301513671875 74.698486328125 C 19.15968322753906 78.55665588378906 23.65165710449219 81.58542633056641 28.65262985229492 83.70066070556641 C 33.82865524291992 85.88994598388672 39.32871246337891 87 45 87 C 50.67128753662109 87 56.17134475708008 85.88994598388672 61.34737396240234 83.70066070556641 C 66.34834289550781 81.58542633056641 70.84031677246094 78.55665588378906 74.698486328125 74.698486328125 C 78.55665588378906 70.84031677246094 81.58542633056641 66.34834289550781 83.70066070556641 61.34737396240234 C 85.88994598388672 56.17134475708008 87 50.67128753662109 87 45 C 87 39.32871246337891 85.88994598388672 33.82865524291992 83.70066070556641 28.65262985229492 C 81.58542633056641 23.65165710449219 78.55665588378906 19.15968322753906 74.698486328125 15.301513671875 C 70.84031677246094 11.44334411621094 66.34834289550781 8.414573669433594 61.34737396240234 6.299339294433594 C 56.17134475708008 4.110054016113281 50.67128753662109 3 45 3 M 45 0 C 69.85281372070312 0 90 20.14718627929688 90 45 C 90 69.85281372070312 69.85281372070312 90 45 90 C 20.14718627929688 90 0 69.85281372070312 0 45 C 0 20.14718627929688 20.14718627929688 0 45 0 Z" stroke="none" fill="#453179"/>
            </g>
          </g>
        </g>
      </g>
    </g>
    <g id="Filled_outline" data-name="Filled outline" transform="translate(228.918 3089.752)">
      <path id="Trazado_982645" data-name="Trazado 982645" d="M175.214,54.172l-.321,2.886L174.677,59h-27.22l-.216-1.944-.321-2.886a14.958,14.958,0,0,1,1.118-7.543,14.972,14.972,0,0,0,1.191-6.639l-.169-3.364a12.022,12.022,0,1,1,24.015,0l-.169,3.364a14.972,14.972,0,0,0,1.191,6.639A14.95,14.95,0,0,1,175.214,54.172Z" transform="translate(-130.93 -23.032)" fill="#8f4d2e"/>
      <path id="Trazado_982646" data-name="Trazado 982646" d="M256.414,54.166l-.321,2.886h-10.91V46.359l1.944-3.889V34.693a10.7,10.7,0,0,0-7.867-10.316,12.036,12.036,0,0,1,15.014,12.244l-.169,3.364a14.973,14.973,0,0,0,1.191,6.639A14.951,14.951,0,0,1,256.414,54.166Z" transform="translate(-212.129 -23.027)" fill="#82462a"/>
      <path id="Trazado_982647" data-name="Trazado 982647" d="M220.055,223.777a1.36,1.36,0,0,1-1.361-1.361V216h-7.777v6.416a1.36,1.36,0,0,1-1.361,1.361H208v5.833h13.61v-5.833Z" transform="translate(-184.668 -191.696)" fill="#fec9a3"/>
      <path id="Trazado_982648" data-name="Trazado 982648" d="M236.475,220.861a5.334,5.334,0,0,0,3.3-1.192V216H232v3.669a5.334,5.334,0,0,0,3.3,1.192Z" transform="translate(-205.752 -191.696)" fill="#feb784"/>
      <path id="Trazado_982649" data-name="Trazado 982649" d="M209.5,85.833v4.861a8.749,8.749,0,1,1-17.5,0V85.833a13.189,13.189,0,0,0,4.484-5.08l.377-.753.552.461A24.273,24.273,0,0,0,209.5,85.833Z" transform="translate(-170.612 -72.223)" fill="#fec9a3"/>
      <path id="Trazado_982650" data-name="Trazado 982650" d="M284.833,121.578v4.861a8.753,8.753,0,0,1-7.078,8.59,10.655,10.655,0,0,0,3.189-7.618V120.69A24.243,24.243,0,0,0,284.833,121.578Z" transform="translate(-245.947 -107.968)" fill="#fec093"/>
      <path id="Trazado_982651" data-name="Trazado 982651" d="M224,312h9.722v6.805H224Z" transform="translate(-198.724 -276.03)" fill="#e0e0de"/>
      <path id="Trazado_982652" data-name="Trazado 982652" d="M122.107,305.236a2.951,2.951,0,0,1-3.277-1.958l-6.421-12.046a7.571,7.571,0,0,1-1.356,7.239v7.777h-17.5v-7.777a7.583,7.583,0,0,1-1.342-7.329l-6.526,12.136a2.95,2.95,0,1,1-5.6-1.852l7.138-17.767A5.831,5.831,0,0,1,92.636,280H96.47l5.833,10.694L108.136,280h3.819a5.838,5.838,0,0,1,5.42,3.678l7.057,17.748a2.951,2.951,0,0,1-2.325,3.81Z" transform="translate(-72.166 -247.919)" fill="#ec8c8c"/>
      <path id="Trazado_982653" data-name="Trazado 982653" d="M74.16,393.115l.7-9.115h5.833v9.366a3.272,3.272,0,1,1-6.534-.251Z" transform="translate(-67.084 -339.281)" fill="#f59898"/>
      <path id="Trazado_982654" data-name="Trazado 982654" d="M33.092,266.889a1.891,1.891,0,0,0-1.233,2.68l.89,1.779H29.266a5.833,5.833,0,0,1-2.609-.616l-.969-.484A1.167,1.167,0,0,0,24,271.292v2.744a1.944,1.944,0,0,0,1.075,1.739l1.582.791a5.833,5.833,0,0,0,2.609.616h7.372v-5.833l-1.331-3.328A1.891,1.891,0,0,0,33.092,266.889Z" transform="translate(-23.028 -236.351)" fill="#fec9a3"/>
      <path id="Trazado_982655" data-name="Trazado 982655" d="M80,352h5.833v3.889H80Z" transform="translate(-72.223 -311.169)" fill="#e0e0de"/>
      <path id="Trazado_982656" data-name="Trazado 982656" d="M222.864,308.961A2.951,2.951,0,0,1,219.587,307l-6.421-12.046a7.571,7.571,0,0,1-1.356,7.239v7.777H194.63c8.024-5.24,14.794-11.89,20.476-25.733a5.824,5.824,0,0,1,3.026,3.163l7.057,17.748a2.951,2.951,0,0,1-2.325,3.81Z" transform="translate(-172.923 -251.643)" fill="#e07f7f"/>
      <path id="Trazado_982657" data-name="Trazado 982657" d="M305.722,351.555,296,349.61V336l9.722,1.944Z" transform="translate(-261.974 -297.114)" fill="#a36548"/>
      <path id="Trazado_982658" data-name="Trazado 982658" d="M408,351.555l9.722-1.944V336L408,337.944Z" transform="translate(-360.364 -297.114)" fill="#8f4d2e"/>
      <path id="Trazado_982659" data-name="Trazado 982659" d="M376,352h3.889v13.61H376Z" transform="translate(-332.253 -311.169)" fill="#95573a"/>
      <path id="Trazado_982660" data-name="Trazado 982660" d="M307.666,316.861a3.443,3.443,0,0,0-2.877-3.4L296,312v2.916l9.722,1.944h1.944a3.443,3.443,0,0,1,2.877-3.4L319.332,312v2.916l-9.722,1.944Z" transform="translate(-261.974 -276.03)" fill="#d4bd81"/>
      <path id="Trazado_982661" data-name="Trazado 982661" d="M437.021,421.742l-3.889.648a.972.972,0,0,1-1.132-.959v-3.613a1.265,1.265,0,0,1,1.057-1.248l3.3-.55a1.265,1.265,0,0,1,1.474,1.248v3.515a.972.972,0,0,1-.812.959Z" transform="translate(-381.448 -367.394)" fill="#fec9a3"/>
      <path id="Trazado_982662" data-name="Trazado 982662" d="M217.458,136a1.458,1.458,0,1,0,1.458,1.458A1.458,1.458,0,0,0,217.458,136Z" transform="translate(-191.696 -121.418)"/>
      <path id="Trazado_982663" data-name="Trazado 982663" d="M289.458,136a1.458,1.458,0,1,0,1.458,1.458A1.458,1.458,0,0,0,289.458,136Z" transform="translate(-254.947 -121.418)"/>
      <path id="Trazado_982664" data-name="Trazado 982664" d="M242.916,176.972a.973.973,0,0,1-.972-.972H240a2.916,2.916,0,1,0,5.833,0h-1.944A.973.973,0,0,1,242.916,176.972Z" transform="translate(-212.78 -156.557)"/>
      <path id="Trazado_982665" data-name="Trazado 982665" d="M73.986,51.229a.974.974,0,0,0-.788-.217l-8.789,1.465a4.423,4.423,0,0,0-1.628.617L62.11,51.4a6.475,6.475,0,0,0-1.116-1.863l.254-2.3a16.84,16.84,0,0,0,.1-1.764,15.866,15.866,0,0,0-1.294-6.264A14.042,14.042,0,0,1,58.948,33l.165-3.365c.01-.212.021-.431.021-.649a13,13,0,1,0-25.974.65l.165,3.354c.01.25.019.487.019.721a13.859,13.859,0,0,1-1.127,5.5,15.886,15.886,0,0,0-1.191,8.035l.253,2.267a6.6,6.6,0,0,0-.77,1.113L29.181,47.31a2.863,2.863,0,1,0-5.22,2.344l.187.372H22.238a4.885,4.885,0,0,1-2.174-.513l-.969-.484A2.139,2.139,0,0,0,16,50.941v2.744a2.9,2.9,0,0,0,1.612,2.609l1.582.791a6.84,6.84,0,0,0,3.043.718h.567v2.879l-.7,9.079a4.244,4.244,0,0,0,4.232,4.569q.108,0,.215-.005c.062,0,.124.005.185.005a3.913,3.913,0,0,0,3.676-2.571l4.438-8.251a8.5,8.5,0,0,0,1.563,3.385V74.33H38.36V66.552a.972.972,0,0,0-.225-.622,6.628,6.628,0,0,1,.848-9.325l-1.245-1.494a8.569,8.569,0,0,0-1.208,1.233,1,1,0,0,0-.1.122h0l-.017.03-.012.021a8.513,8.513,0,0,0-1.264,2.363l-4.551,8.463V55.531l1.381-3.44a4.66,4.66,0,0,1,1.023-1.569,4.92,4.92,0,0,1,3.487-1.469h3.253l5.557,10.187a.972.972,0,0,0,1.707,0l2.063-3.782V68.5a.972.972,0,0,0,.782.953l4.079.816V74.33h1.944V70.655l3.719.743c.024,0,.137.016.169.016h1.839l.187.348a3.938,3.938,0,0,0,3.69,2.569,3.66,3.66,0,0,0,.641-.053,3.94,3.94,0,0,0,3.043-2.538l2.585-.431a1.936,1.936,0,0,0,1.62-1.818l.194-.039a.972.972,0,0,0,.782-.953V51.97a.972.972,0,0,0-.344-.741ZM41.831,48.852A2.335,2.335,0,0,0,43.22,46.72V43.745a9.726,9.726,0,0,0,5.833,0V46.72a2.335,2.335,0,0,0,1.389,2.132L49.272,51H43Zm4.305-6.6a7.786,7.786,0,0,1-7.777-7.777V30.119A14.2,14.2,0,0,0,42.567,25.3a25.182,25.182,0,0,0,11.347,5.137v4.032a7.786,7.786,0,0,1-7.777,7.777Zm13.138,8.291.018.018A4.5,4.5,0,0,1,60.3,52.114l.418,1.054a4.422,4.422,0,0,0-1.745-.693l-7.6-1.267,1.175-2.155H55.79A4.816,4.816,0,0,1,59.275,50.539Zm.568,5.32-4.423-.885L51,54.089v-.972l7.657,1.276a2.462,2.462,0,0,1,1.868,1.465Zm4.885-1.465,7.657-1.276v.972L67.813,55l-4.273.854h-.679a2.462,2.462,0,0,1,1.867-1.465Zm-44.664.952-1.582-.791a.967.967,0,0,1-.537-.87V50.941a.194.194,0,0,1,.281-.174l.969.484a6.84,6.84,0,0,0,3.043.718h3.484a.972.972,0,0,0,.869-1.407l-.89-1.78a.919.919,0,1,1,1.675-.752l1.262,3.154v4.674h-6.4A4.885,4.885,0,0,1,20.064,55.345ZM28.638,57.8v1.944H24.749V57.8ZM24.045,69.909l.632-8.218h3.961v8.394A2.3,2.3,0,0,1,26.5,72.377a.992.992,0,0,0-.109.005l-.057,0a2.3,2.3,0,0,1-2.293-2.476ZM36.431,56.467a.971.971,0,0,1,.062-.075l-.059.077Zm-3.361-8.44-.111-1A13.938,13.938,0,0,1,34,39.978a15.791,15.791,0,0,0,1.285-6.265c0-.272-.01-.538-.021-.806L35.1,29.543a11.051,11.051,0,1,1,22.089-.554c0,.171-.009.358-.018.555L57.007,32.9a15.993,15.993,0,0,0,1.263,7.071,13.933,13.933,0,0,1,1.137,5.5,14.894,14.894,0,0,1-.091,1.555l-.11,1a6.8,6.8,0,0,0-3.415-.924h-4.4A.394.394,0,0,1,51,46.72V42.885a9.725,9.725,0,0,0,4.861-8.414V29.61a.972.972,0,0,0-.835-.962,23.243,23.243,0,0,1-11.6-5.157l-.552-.46a.972.972,0,0,0-1.492.312L41,24.1A12.247,12.247,0,0,1,36.848,28.8a.972.972,0,0,0-.433.809v4.861a9.725,9.725,0,0,0,4.861,8.414V46.72a.394.394,0,0,1-.389.389H36.474a6.849,6.849,0,0,0-3.4.918Zm13.068,8.717-2.074-3.8h4.148ZM51,56.072l7.777,1.555V69.255L51,67.7ZM60.719,57.8h1.944V69.469H60.719Zm5.051,14.558a1.74,1.74,0,0,1-.307.024,1.992,1.992,0,0,1-1.713-.98L63.8,71.4l.022,0h.008l2-.4a1.919,1.919,0,0,0,.979.852A2.027,2.027,0,0,1,65.771,72.361Zm5.642-2.972-3.889.648V66.424a.293.293,0,0,1,.245-.289l3.3-.55a.319.319,0,0,1,.05,0,.294.294,0,0,1,.292.294v3.515Zm-.661-5.723-3.3.55a2.231,2.231,0,0,0-1.87,2.207v2.637l-.972.194V57.628l7.777-1.555v7.957a2.231,2.231,0,0,0-1.633-.363Z" transform="translate(-16 -16)"/>
    </g>
  </g>
</svg>
