<svg xmlns="http://www.w3.org/2000/svg" xmlns:xlink="http://www.w3.org/1999/xlink" width="97.035" height="97.035" viewBox="0 0 97.035 97.035">
  <defs>
    <filter id="Trazado_982547" x="0" y="0" width="97.035" height="97.035" filterUnits="userSpaceOnUse">
      <feOffset dy="3" input="SourceAlpha"/>
      <feGaussianBlur stdDeviation="3" result="blur"/>
      <feFlood flood-opacity="0.161"/>
      <feComposite operator="in" in2="blur"/>
      <feComposite in="SourceGraphic"/>
    </filter>
    <clipPath id="clip-path">
      <path id="path165" d="M0-682.665H54.147v54.147H0Z" transform="translate(0 682.665)"/>
    </clipPath>
  </defs>
  <g id="Grupo_1171572" data-name="Grupo 1171572" transform="translate(-189.409 -2536.582)">
    <g id="Grupo_1166162" data-name="Grupo 1166162" transform="translate(-607.781 577.058)">
      <g id="Grupo_1164703" data-name="Grupo 1164703" transform="translate(806.19 1965.523)">
        <g id="Grupo_1160931" data-name="Grupo 1160931" transform="translate(0 0)">
          <g id="Grupo_1160749" data-name="Grupo 1160749" transform="translate(0 0)">
            <g id="Grupo_1158891" data-name="Grupo 1158891" transform="translate(0 0)">
              <g id="Grupo_1157406" data-name="Grupo 1157406" transform="translate(0 0)">
                <g id="Grupo_1155793" data-name="Grupo 1155793" transform="translate(0 0)">
                  <g id="Grupo_1154704" data-name="Grupo 1154704">
                    <g id="Grupo_1150790" data-name="Grupo 1150790">
                      <g id="Grupo_1154214" data-name="Grupo 1154214">
                        <g id="Grupo_1152583" data-name="Grupo 1152583">
                          <g id="Grupo_1146973" data-name="Grupo 1146973">
                            <g id="Grupo_1146954" data-name="Grupo 1146954">
                              <g transform="matrix(1, 0, 0, 1, -9, -6)" filter="url(#Trazado_982547)">
                                <g id="Trazado_982547-2" data-name="Trazado 982547" transform="translate(9 6)" fill="#edf3fc">
                                  <path d="M 39.51754379272461 77.53498077392578 C 34.38454437255859 77.53498077392578 29.40588760375977 76.53001403808594 24.7198657989502 74.54798889160156 C 20.19293212890625 72.63327026367188 16.12703323364258 69.89185333251953 12.63507747650146 66.39990997314453 C 9.143132209777832 62.90796661376953 6.401721477508545 58.84206771850586 4.486988067626953 54.31515884399414 C 2.504966020584106 49.62913513183594 1.499999403953552 44.65047836303711 1.499999403953552 39.51749038696289 C 1.499999403953552 34.38450241088867 2.504966020584106 29.40584564208984 4.486988067626953 24.71982383728027 C 6.401721477508545 20.19291305541992 9.143132209777832 16.12701225280762 12.63507747650146 12.6350679397583 C 16.12703323364258 9.143123626708984 20.19293212890625 6.401712417602539 24.7198657989502 4.486990451812744 C 29.40588760375977 2.504968166351318 34.38454437255859 1.500001549720764 39.51754379272461 1.500001549720764 C 44.65054321289062 1.500001549720764 49.62919998168945 2.504968166351318 54.31523132324219 4.486990451812744 C 58.84215545654297 6.401712417602539 62.90806579589844 9.143123626708984 66.40000915527344 12.6350679397583 C 69.89195251464844 16.12701225280762 72.63337707519531 20.19291305541992 74.548095703125 24.71982383728027 C 76.53012084960938 29.40584564208984 77.53508758544922 34.38450241088867 77.53508758544922 39.51749038696289 C 77.53508758544922 44.65047836303711 76.53012084960938 49.62913513183594 74.548095703125 54.31515884399414 C 72.63337707519531 58.84206771850586 69.89195251464844 62.90796661376953 66.40000915527344 66.39990997314453 C 62.90806579589844 69.89185333251953 58.84215545654297 72.63327026367188 54.31523132324219 74.54798889160156 C 49.62919998168945 76.53001403808594 44.65054321289062 77.53498077392578 39.51754379272461 77.53498077392578 Z" stroke="none"/>
                                  <path d="M 39.51754379272461 3 C 34.58638000488281 3 29.80431747436523 3.965103149414062 25.30418014526367 5.868492126464844 C 20.9560546875 7.707588195800781 17.05040740966797 10.34104919433594 13.69573211669922 13.69572448730469 C 10.34105682373047 17.0504035949707 7.707595825195312 20.95603942871094 5.868492126464844 25.30415344238281 C 3.965095520019531 29.80427932739258 2.999992370605469 34.58634185791016 2.999992370605469 39.51749038696289 C 2.999992370605469 44.44863891601562 3.965095520019531 49.23070526123047 5.868492126464844 53.73082733154297 C 7.707595825195312 58.07894134521484 10.34105682373047 61.98457717895508 13.69573211669922 65.33924865722656 C 17.05040740966797 68.69392395019531 20.9560546875 71.327392578125 25.30418014526367 73.16648864746094 C 29.80431747436523 75.06987762451172 34.58638000488281 76.03498077392578 39.51754379272461 76.03498077392578 C 44.44870758056641 76.03498077392578 49.23076629638672 75.06987762451172 53.73089599609375 73.16648864746094 C 58.07901763916016 71.327392578125 61.98466873168945 68.69392395019531 65.33934020996094 65.33924865722656 C 68.69401550292969 61.98457717895508 71.32748413085938 58.07894134521484 73.16658020019531 53.73082733154297 C 75.06998443603516 49.23070526123047 76.03507995605469 44.44863891601562 76.03507995605469 39.51749038696289 C 76.03507995605469 34.58634185791016 75.06998443603516 29.80427932739258 73.16658020019531 25.30415344238281 C 71.32748413085938 20.95603942871094 68.69401550292969 17.0504035949707 65.33934020996094 13.69572448730469 C 61.98466873168945 10.34104919433594 58.07901763916016 7.707588195800781 53.73089599609375 5.868492126464844 C 49.23076629638672 3.965103149414062 44.44870758056641 3 39.51754379272461 3 M 39.51754379272461 0 C 61.34248352050781 0 79.03507995605469 17.69257736206055 79.03507995605469 39.51749038696289 C 79.03507995605469 61.34240341186523 61.34248352050781 79.03498077392578 39.51754379272461 79.03498077392578 C 17.69260787963867 79.03498077392578 -7.62939453125e-06 61.34240341186523 -7.62939453125e-06 39.51749038696289 C -7.62939453125e-06 17.69257736206055 17.69260787963867 0 39.51754379272461 0 Z" stroke="none" fill="#5692e8"/>
                                </g>
                              </g>
                            </g>
                          </g>
                        </g>
                      </g>
                    </g>
                  </g>
                </g>
              </g>
            </g>
          </g>
        </g>
      </g>
    </g>
    <g id="g159" transform="translate(208.854 3238.691)">
      <g id="g161" transform="translate(0 -682.665)">
        <g id="g163" transform="translate(0 0)" clip-path="url(#clip-path)">
          <g id="g169" transform="translate(14.98 42.773)">
            <path id="path171" d="M-336.43-122.813c0-6.824-2.878-10.58-2.878-10.58h-23.228s-2.878,3.756-2.878,10.58Z" transform="translate(365.414 133.393)" fill="#ff8d9d"/>
          </g>
          <g id="g173" transform="translate(9.396 0.793)">
            <path id="path175" d="M0-233.028A20.1,20.1,0,0,1,20.075-253.1a20.1,20.1,0,0,1,20.075,20.075Z" transform="translate(0 253.103)" fill="#696eb1"/>
          </g>
          <g id="g177" transform="translate(41.206 17.179)">
            <path id="path179" d="M-110.2-55.1a4.747,4.747,0,0,1-4.747,4.747A4.747,4.747,0,0,1-119.69-55.1a4.747,4.747,0,0,1,4.747-4.747A4.747,4.747,0,0,1-110.2-55.1" transform="translate(119.69 59.845)" fill="#c7856a"/>
          </g>
          <g id="g181" transform="translate(3.447 0.837)">
            <path id="path183" d="M-286.9,0a19.941,19.941,0,0,0-9.073,2.857A5.75,5.75,0,0,0-300.311.328a5.748,5.748,0,0,0-5.929,4.091A5.765,5.765,0,0,1-309.359,8.1a6.767,6.767,0,0,1-.949.343,1.794,1.794,0,0,0-.777,3,7.107,7.107,0,0,0,6.427,2.32,20,20,0,0,0-1,6.273h8.455a19.565,19.565,0,0,1-.2-2.776A19.412,19.412,0,0,1-286.9,0" transform="translate(311.613)" fill="#4c5698"/>
          </g>
          <g id="g185" transform="translate(13.096 9.367)">
            <path id="path187" d="M-375.754-92.6a3.511,3.511,0,0,0-3.924-2.7,29.906,29.906,0,0,1-4.082.278,27.566,27.566,0,0,1-16.006-4.9,3.528,3.528,0,0,0-4.821.674,16.3,16.3,0,0,0-3.537,10.231,16.422,16.422,0,0,0,16.255,16.31,16.376,16.376,0,0,0,16.5-16.375,16.427,16.427,0,0,0-.38-3.523" transform="translate(408.125 100.582)" fill="#da9d81"/>
          </g>
          <g id="g189" transform="translate(8.244 9.368)">
            <path id="path191" d="M-109.221-101.276a19.331,19.331,0,0,1,2.06-8.711,3.521,3.521,0,0,0-3.08,1.321,16.31,16.31,0,0,0-3.126,6.5,4.808,4.808,0,0,0-.518-.029,4.747,4.747,0,0,0-4.747,4.747,4.747,4.747,0,0,0,4.747,4.747,4.754,4.754,0,0,0,1.123-.135A16.435,16.435,0,0,0-97.523-82.125a16.478,16.478,0,0,0,3.144-.279,19.421,19.421,0,0,1-14.842-18.872" transform="translate(118.63 110)" fill="#c7856a"/>
          </g>
          <g id="g201" transform="translate(19.077 25.728)">
            <path id="path203" d="M-225.346-55.11h-5.648v-1.377a3.371,3.371,0,0,0-3.371-3.371,3.371,3.371,0,0,0-3.371,3.371v1.377h-5.647a1.377,1.377,0,0,0-1.377,1.377v16.98a1.377,1.377,0,0,0,1.377,1.377h5.647v-1.377a3.371,3.371,0,0,1,3.371-3.371,3.371,3.371,0,0,1,3.371,3.371v1.377h5.648a1.377,1.377,0,0,0,1.377-1.377v-16.98a1.377,1.377,0,0,0-1.377-1.377" transform="translate(244.759 59.857)" fill="#fce29f"/>
          </g>
          <g id="g205" transform="translate(14.98 42.773)">
            <path id="path207" d="M-74.677-70.075a14.43,14.43,0,0,1,1.315-6.037h-4.871s-2.878,3.756-2.878,10.58h7.161a14.47,14.47,0,0,1-.728-4.543" transform="translate(81.11 76.112)" fill="#e95b70"/>
          </g>
          <g id="g209" transform="translate(19.077 30.475)">
            <path id="path211" d="M-48.32-34.409a17.8,17.8,0,0,1,.249-2.964h-3.035A1.377,1.377,0,0,0-52.483-36v16.98a1.377,1.377,0,0,0,1.377,1.377h5.648v-1.377a3.366,3.366,0,0,1,1.449-2.769A20.377,20.377,0,0,1-48.32-34.409" transform="translate(52.483 37.373)" fill="#ffcd71"/>
          </g>
          <g id="g213" transform="translate(12.822 38.694)">
            <path id="path215" d="M-124.252-26.5h0a3.371,3.371,0,0,0-4.279-2.1l-4.142,1.414a3.371,3.371,0,0,0-2.1,4.279,3.371,3.371,0,0,0,4.279,2.1l4.142-1.414a3.371,3.371,0,0,0,2.1-4.279" transform="translate(134.956 28.782)" fill="#da9d81"/>
          </g>
          <g id="g217" transform="translate(35.236 38.694)">
            <path id="path219" d="M-2.109-26.5h0A3.371,3.371,0,0,1,2.17-28.6l4.142,1.414a3.371,3.371,0,0,1,2.1,4.279,3.371,3.371,0,0,1-4.279,2.1L-.007-22.22a3.371,3.371,0,0,1-2.1-4.279" transform="translate(2.29 28.782)" fill="#da9d81"/>
          </g>
          <g id="g221" transform="translate(12.822 40.73)">
            <path id="path223" d="M-124.249-2.866c-.029-.084-.062-.166-.1-.247a6.826,6.826,0,0,1-5.656,3,6.808,6.808,0,0,1-4.588-1.769,3.36,3.36,0,0,0-.182,2.609,3.371,3.371,0,0,0,4.279,2.1l4.142-1.414A3.371,3.371,0,0,0-124.249-2.866Z" transform="translate(134.953 3.113)" fill="#c7856a"/>
          </g>
          <g id="g225" transform="translate(35.236 38.844)">
            <path id="path227" d="M-106.319-69.154a6.833,6.833,0,0,1-6.776-5.958,3.366,3.366,0,0,0-2.2,2.133h0a3.371,3.371,0,0,0,2.1,4.279l4.142,1.414a3.37,3.37,0,0,0,4.257-2.041,6.853,6.853,0,0,1-1.523.172" transform="translate(115.478 75.112)" fill="#c7856a"/>
          </g>
          <g id="g241" transform="translate(3.447 1.15)">
            <path id="path243" d="M-181.581-29.517a5.751,5.751,0,0,0-4.342-2.528,5.748,5.748,0,0,0-5.929,4.091,5.765,5.765,0,0,1-3.118,3.681,6.769,6.769,0,0,1-.949.343,1.794,1.794,0,0,0-.777,3,7.107,7.107,0,0,0,6.427,2.32A20.175,20.175,0,0,1-181.581-29.517Z" transform="translate(197.224 32.06)" fill="none" stroke="#000" stroke-linecap="round" stroke-linejoin="round" stroke-miterlimit="10" stroke-width="1"/>
          </g>
          <g id="g245" transform="translate(9.515 0.793)">
            <path id="path247" d="M-352.432-33.825a19.951,19.951,0,0,0-10.4-2.914,20.1,20.1,0,0,0-19.957,17.9,4.732,4.732,0,0,1,3.476-1.516,4.781,4.781,0,0,1,.518.029,16.31,16.31,0,0,1,3.126-6.5,3.528,3.528,0,0,1,4.821-.674,24.847,24.847,0,0,0,4.135,2.382" transform="translate(382.794 36.739)" fill="none" stroke="#000" stroke-linecap="round" stroke-linejoin="round" stroke-miterlimit="10" stroke-width="1"/>
          </g>
          <g id="g249" transform="translate(28.84 5.591)">
            <path id="path251" d="M0-93.518a29.247,29.247,0,0,0,8.621,1.28,29.909,29.909,0,0,0,4.082-.278,3.513,3.513,0,0,1,3.89,2.559,4.792,4.792,0,0,1,.52-.029,4.733,4.733,0,0,1,3.476,1.516,20.06,20.06,0,0,0-6.95-13.1" transform="translate(0 101.574)" fill="none" stroke="#000" stroke-linecap="round" stroke-linejoin="round" stroke-miterlimit="10" stroke-width="1"/>
          </g>
          <g id="g253" transform="translate(8.244 17.179)">
            <path id="path255" d="M-56.327-43.583a16.423,16.423,0,0,1,.412-3.726,4.781,4.781,0,0,0-.518-.029,4.747,4.747,0,0,0-4.747,4.747,4.747,4.747,0,0,0,4.747,4.747,4.754,4.754,0,0,0,1.123-.135A16.228,16.228,0,0,1-56.327-43.583Z" transform="translate(61.18 47.337)" fill="none" stroke="#000" stroke-linecap="round" stroke-linejoin="round" stroke-miterlimit="10" stroke-width="1"/>
          </g>
          <g id="g257" transform="translate(44.838 17.179)">
            <path id="path259" d="M-12.937,0a4.818,4.818,0,0,0-.52.029c.012.046.024.091.034.138a16.433,16.433,0,0,1,.38,3.523A16.34,16.34,0,0,1-14.052,9.36a4.756,4.756,0,0,0,1.115.133A4.747,4.747,0,0,0-8.191,4.747,4.747,4.747,0,0,0-12.937,0Z" transform="translate(14.052)" fill="none" stroke="#000" stroke-linecap="round" stroke-linejoin="round" stroke-miterlimit="10" stroke-width="1"/>
          </g>
          <g id="g261" transform="translate(13.096 9.367)">
            <path id="path263" d="M-145.02-35.33a24.852,24.852,0,0,1-4.135-2.382,3.528,3.528,0,0,0-4.821.674,16.3,16.3,0,0,0-3.537,10.23,16.362,16.362,0,0,0,5.98,12.565v-1.646a1.377,1.377,0,0,1,1.377-1.377h5.647v-1.377a3.371,3.371,0,0,1,3.371-3.371h0a3.371,3.371,0,0,1,3.371,3.371v1.377h5.648a1.377,1.377,0,0,1,1.377,1.377v1.67a16.343,16.343,0,0,0,5.981-12.653,16.435,16.435,0,0,0-.38-3.523,3.511,3.511,0,0,0-3.924-2.7,29.923,29.923,0,0,1-4.082.278,29.244,29.244,0,0,1-8.621-1.28" transform="translate(157.513 38.374)" fill="none" stroke="#000" stroke-linecap="round" stroke-linejoin="round" stroke-miterlimit="10" stroke-width="1"/>
          </g>
          <g id="g265" transform="translate(14.98 45.461)">
            <path id="path267" d="M-309.7-14.039l-1.794-.612v2.774a1.377,1.377,0,0,1-1.377,1.377h-5.648v-1.377a3.371,3.371,0,0,0-3.371-3.371,3.371,3.371,0,0,0-3.371,3.371V-10.5h-5.648a1.377,1.377,0,0,1-1.377-1.377v-2.774l-1.794.612a3.359,3.359,0,0,1-1.34.172,21.634,21.634,0,0,0-.963,6.511H-307.4a21.634,21.634,0,0,0-.963-6.511A3.359,3.359,0,0,1-309.7-14.039Z" transform="translate(336.382 15.248)" fill="none" stroke="#000" stroke-linecap="round" stroke-linejoin="round" stroke-miterlimit="10" stroke-width="1"/>
          </g>
          <g id="g269" transform="translate(12.822 38.694)">
            <path id="path271" d="M-124.252-26.5h0a3.371,3.371,0,0,0-4.279-2.1l-4.142,1.414a3.371,3.371,0,0,0-2.1,4.279,3.371,3.371,0,0,0,4.279,2.1l4.142-1.414A3.371,3.371,0,0,0-124.252-26.5Z" transform="translate(134.956 28.782)" fill="none" stroke="#000" stroke-linecap="round" stroke-linejoin="round" stroke-miterlimit="10" stroke-width="1"/>
          </g>
          <g id="g273" transform="translate(19.077 25.728)">
            <path id="path275" d="M-214.068-226.683a3.371,3.371,0,0,1-2.1-4.279,3.371,3.371,0,0,1,4.279-2.1l.17.058v-7.082a1.377,1.377,0,0,0-1.377-1.377h-5.648v-1.377a3.371,3.371,0,0,0-3.371-3.371h0a3.371,3.371,0,0,0-3.371,3.371v1.377h-5.648a1.377,1.377,0,0,0-1.377,1.377v7.082l.17-.058a3.371,3.371,0,0,1,4.279,2.1,3.371,3.371,0,0,1-2.1,4.279l-2.348.8v2.774a1.377,1.377,0,0,0,1.377,1.377h5.648v-1.377a3.371,3.371,0,0,1,3.371-3.371,3.371,3.371,0,0,1,3.371,3.371v1.377h5.648a1.377,1.377,0,0,0,1.377-1.377v-2.774Z" transform="translate(232.51 246.211)" fill="none" stroke="#000" stroke-linecap="round" stroke-linejoin="round" stroke-miterlimit="10" stroke-width="1"/>
          </g>
          <g id="g277" transform="translate(35.236 38.694)">
            <path id="path279" d="M-2.109-26.5h0A3.371,3.371,0,0,1,2.17-28.6l4.142,1.414a3.371,3.371,0,0,1,2.1,4.279,3.371,3.371,0,0,1-4.279,2.1L-.007-22.22A3.371,3.371,0,0,1-2.109-26.5Z" transform="translate(2.29 28.782)" fill="none" stroke="#000" stroke-linecap="round" stroke-linejoin="round" stroke-miterlimit="10" stroke-width="1"/>
          </g>
        </g>
      </g>
    </g>
  </g>
</svg>
