<svg xmlns="http://www.w3.org/2000/svg" xmlns:xlink="http://www.w3.org/1999/xlink" width="113" height="113" viewBox="0 0 113 113">
  <defs>
    <filter id="Trazado_982547" x="0" y="0" width="113" height="113" filterUnits="userSpaceOnUse">
      <feOffset dy="3" input="SourceAlpha"/>
      <feGaussianBlur stdDeviation="3" result="blur"/>
      <feFlood flood-opacity="0.161"/>
      <feComposite operator="in" in2="blur"/>
      <feComposite in="SourceGraphic"/>
    </filter>
  </defs>
  <g id="Grupo_1171151" data-name="Grupo 1171151" transform="translate(-1216.5 -1298.145)">
    <g id="Grupo_1171049" data-name="Grupo 1171049" transform="translate(1225.5 1304.145)">
      <g id="Grupo_1148525" data-name="Grupo 1148525" transform="translate(0)">
        <g transform="matrix(1, 0, 0, 1, -9, -6)" filter="url(#Trazado_982547)">
          <g id="Trazado_982547-2" data-name="Trazado 982547" transform="translate(9 6)" fill="#f4fdfe">
            <path d="M 47.5 93.5 C 41.28937149047852 93.5 35.26533508300781 92.28397369384766 29.59518623352051 89.88570404052734 C 24.11771965026855 87.56893157958984 19.19813346862793 84.25196075439453 14.97309303283691 80.02691650390625 C 10.74804019927979 75.80186462402344 7.431066513061523 70.88229370117188 5.114293098449707 65.40481567382812 C 2.716026782989502 59.73468017578125 1.5 53.71062850952148 1.5 47.5 C 1.5 41.28937149047852 2.716026782989502 35.26533508300781 5.114293098449707 29.59518623352051 C 7.431066513061523 24.11771965026855 10.74804019927979 19.19813346862793 14.97309303283691 14.97309303283691 C 19.19813346862793 10.74804019927979 24.11771965026855 7.431066513061523 29.59518623352051 5.114293098449707 C 35.26533508300781 2.716026782989502 41.28937149047852 1.5 47.5 1.5 C 53.71062850952148 1.5 59.73468017578125 2.716026782989502 65.40481567382812 5.114293098449707 C 70.88229370117188 7.431066513061523 75.80186462402344 10.74804019927979 80.02691650390625 14.97309303283691 C 84.25196075439453 19.19813346862793 87.56893157958984 24.11771965026855 89.88570404052734 29.59518623352051 C 92.28397369384766 35.26533508300781 93.5 41.28937149047852 93.5 47.5 C 93.5 53.71062850952148 92.28397369384766 59.73468017578125 89.88570404052734 65.40481567382812 C 87.56893157958984 70.88229370117188 84.25196075439453 75.80186462402344 80.02691650390625 80.02691650390625 C 75.80186462402344 84.25196075439453 70.88229370117188 87.56893157958984 65.40481567382812 89.88570404052734 C 59.73468017578125 92.28397369384766 53.71062850952148 93.5 47.5 93.5 Z" stroke="none"/>
            <path d="M 47.5 3 C 41.49121475219727 3 35.66376876831055 4.176155090332031 30.17950439453125 6.495796203613281 C 24.88084411621094 8.736953735351562 20.12152099609375 11.94598388671875 16.03375244140625 16.03375244140625 C 11.94598388671875 20.12152099609375 8.736953735351562 24.88084411621094 6.495796203613281 30.17950439453125 C 4.176155090332031 35.66376876831055 3 41.49121475219727 3 47.5 C 3 53.50878524780273 4.176155090332031 59.33623123168945 6.495796203613281 64.82049560546875 C 8.736953735351562 70.11915588378906 11.94598388671875 74.87847900390625 16.03375244140625 78.96624755859375 C 20.12152099609375 83.05401611328125 24.88084411621094 86.26304626464844 30.17950439453125 88.50419616699219 C 35.66376876831055 90.82384490966797 41.49121475219727 92 47.5 92 C 53.50878524780273 92 59.33623123168945 90.82384490966797 64.82049560546875 88.50419616699219 C 70.11915588378906 86.26304626464844 74.87847900390625 83.05401611328125 78.96624755859375 78.96624755859375 C 83.05401611328125 74.87847900390625 86.26304626464844 70.11915588378906 88.50419616699219 64.82049560546875 C 90.82384490966797 59.33623123168945 92 53.50878524780273 92 47.5 C 92 41.49121475219727 90.82384490966797 35.66376876831055 88.50419616699219 30.17950439453125 C 86.26304626464844 24.88084411621094 83.05401611328125 20.12152099609375 78.96624755859375 16.03375244140625 C 74.87847900390625 11.94598388671875 70.11915588378906 8.736953735351562 64.82049560546875 6.495796203613281 C 59.33623123168945 4.176155090332031 53.50878524780273 3 47.5 3 M 47.5 0 C 73.7335205078125 0 95 21.2664794921875 95 47.5 C 95 73.7335205078125 73.7335205078125 95 47.5 95 C 21.2664794921875 95 0 73.7335205078125 0 47.5 C 0 21.2664794921875 21.2664794921875 0 47.5 0 Z" stroke="none" fill="#56838a"/>
          </g>
        </g>
      </g>
    </g>
    <g id="dibujo" transform="translate(1242 1321)">
      <g id="Grupo_1171149" data-name="Grupo 1171149">
        <g id="Grupo_1171132" data-name="Grupo 1171132">
          <path id="Trazado_1024094" data-name="Trazado 1024094" d="M50.43,24.41A29.967,29.967,0,0,0,56,7V6.56a16.773,16.773,0,0,1,1.63,1.96A17.9,17.9,0,0,1,61,19a6.029,6.029,0,0,1-4,5.66A6.043,6.043,0,0,1,55,25a18.851,18.851,0,0,1-2-.11A17.943,17.943,0,0,1,50.43,24.41Z" fill="#ff826e"/>
        </g>
        <g id="Grupo_1171133" data-name="Grupo 1171133">
          <path id="Trazado_1024095" data-name="Trazado 1024095" d="M53.48,4.37A15.985,15.985,0,0,1,55.44,6H55a29.967,29.967,0,0,0-17.41,5.57A17.673,17.673,0,0,1,37,7a6.009,6.009,0,0,1,6-6A17.9,17.9,0,0,1,53.48,4.37Z" fill="#ff826e"/>
        </g>
        <g id="Grupo_1171134" data-name="Grupo 1171134">
          <path id="Trazado_1024096" data-name="Trazado 1024096" d="M59,6a3,3,0,0,1-1.37,2.52A16.772,16.772,0,0,0,56,6.56V6.55c-.18-.19-.36-.37-.55-.55h-.01a15.985,15.985,0,0,0-1.96-1.63A3,3,0,0,1,59,6Z" fill="#fc6e51"/>
        </g>
        <g id="Grupo_1171135" data-name="Grupo 1171135">
          <path id="Trazado_1024097" data-name="Trazado 1024097" d="M56,6.56V7a29.967,29.967,0,0,1-5.57,17.41L43.69,21a17.148,17.148,0,0,1-1.42-1.27,18,18,0,0,1-4.68-8.16A29.967,29.967,0,0,1,55,6h.45c.19.18.37.36.55.55Z" fill="#fc6e51"/>
        </g>
        <g id="Grupo_1171136" data-name="Grupo 1171136">
          <path id="Trazado_1024098" data-name="Trazado 1024098" d="M22.8,57,24,61H20l-1.45-4.85A3.917,3.917,0,0,0,21,57Z" fill="#cf9e76"/>
        </g>
        <g id="Grupo_1171137" data-name="Grupo 1171137">
          <path id="Trazado_1024099" data-name="Trazado 1024099" d="M9,51,6,61H2L5,51Z" fill="#cf9e76"/>
        </g>
        <g id="Grupo_1171138" data-name="Grupo 1171138">
          <path id="Trazado_1024100" data-name="Trazado 1024100" d="M11.15,42.9A13.131,13.131,0,0,0,17,31.97a13.191,13.191,0,0,0-2.2-7.28L11,19,8.6,22.6,7.2,24.69a14.023,14.023,0,0,0-.91,1.6A13.122,13.122,0,0,0,10.85,42.9L11,43ZM25,19V40.97a1.87,1.87,0,0,1-.34.03,2.255,2.255,0,0,1-1.21-.36l-1.29-.87a4.609,4.609,0,0,0-6.39,6.39l.56.84,2.01,3.01c-.06.05-.11.11-.17.16a4.225,4.225,0,0,0-.63.83H2a1,1,0,0,1-1-1V16a1,1,0,0,1,1-1H24a1,1,0,0,1,1,1Z" fill="#e6e9ed"/>
        </g>
        <g id="Grupo_1171139" data-name="Grupo 1171139">
          <path id="Trazado_1024101" data-name="Trazado 1024101" d="M33,47.32V49l-8,2-.59-.59A4.829,4.829,0,0,0,21,49a3.991,3.991,0,0,0-2.66,1.01L16.33,47l-.56-.84a4.609,4.609,0,0,1,6.39-6.39l1.29.87a2.255,2.255,0,0,0,1.21.36,1.87,1.87,0,0,0,.34-.03,2.165,2.165,0,0,0,1.6-1.17l.55-1.09a3.1,3.1,0,0,1,4.08-1.42v.01a3,3,0,0,1,1.47,1.47h.01A3.072,3.072,0,0,1,33,40.09Z" fill="#aab2bd"/>
        </g>
        <g id="Grupo_1171140" data-name="Grupo 1171140">
          <path id="Trazado_1024102" data-name="Trazado 1024102" d="M39,41l-1.9.63A6,6,0,0,0,33,47.32V40.09a3.072,3.072,0,0,0-.29-1.32A9.962,9.962,0,0,0,39,41Z" fill="#b27946"/>
        </g>
        <g id="Grupo_1171141" data-name="Grupo 1171141">
          <path id="Trazado_1024103" data-name="Trazado 1024103" d="M53.5,56.5A5.116,5.116,0,0,1,49.88,58H47.71l-.72-2.63a16.149,16.149,0,0,0-2.89-4.93l-.25-.29,1.91-1.91a4.24,4.24,0,0,0-3-7.24H43A10,10,0,0,0,53,31V24.89A18.851,18.851,0,0,0,55,25a6.043,6.043,0,0,0,2-.34V36.25a7.982,7.982,0,0,1-2.88,6.15l-2.01,1.67a3.1,3.1,0,0,0,.13,4.86l1.01.76a4.373,4.373,0,0,1,.47,6.59Z" fill="#b27946"/>
        </g>
        <g id="Grupo_1171142" data-name="Grupo 1171142">
          <path id="Trazado_1024104" data-name="Trazado 1024104" d="M31.3,17.7l-.54.54A5.993,5.993,0,0,0,29,22.49V31a9.962,9.962,0,0,0,2.23,6.29,3.1,3.1,0,0,0-4.08,1.42L26.6,39.8A2.165,2.165,0,0,1,25,40.97V19A12,12,0,0,1,37,7a17.673,17.673,0,0,0,.59,4.57,18,18,0,0,0,4.68,8.16A17.148,17.148,0,0,0,43.69,21H36a5,5,0,0,1-4.7-3.3Z" fill="#b27946"/>
        </g>
        <g id="Grupo_1171143" data-name="Grupo 1171143">
          <path id="Trazado_1024105" data-name="Trazado 1024105" d="M44.1,50.44a16.149,16.149,0,0,1,2.89,4.93L47.71,58A15.728,15.728,0,0,1,48,61H33V57h1.51a5.993,5.993,0,0,0,4.25-1.76L42,52l1.85-1.85Z" fill="#fcd770"/>
        </g>
        <g id="Grupo_1171144" data-name="Grupo 1171144">
          <path id="Trazado_1024106" data-name="Trazado 1024106" d="M47,45.24a4.246,4.246,0,0,1-1.24,3l-1.91,1.91L42,52l-6-6,3.76-3.76a4.24,4.24,0,0,1,7.24,3Z" fill="#fcd770"/>
        </g>
        <g id="Grupo_1171145" data-name="Grupo 1171145">
          <path id="Trazado_1024107" data-name="Trazado 1024107" d="M39.76,42.24,36,46l-3,3V47.32a6,6,0,0,1,4.1-5.69L39,41h3.76A4.246,4.246,0,0,0,39.76,42.24Z" fill="#fcd770"/>
        </g>
        <g id="Grupo_1171146" data-name="Grupo 1171146">
          <path id="Trazado_1024108" data-name="Trazado 1024108" d="M18.55,56.15a2.8,2.8,0,0,1-.38-.32A3.994,3.994,0,0,1,17.54,51a4.225,4.225,0,0,1,.63-.83c.06-.05.11-.11.17-.16A3.99,3.99,0,0,1,21,49a4.829,4.829,0,0,1,3.41,1.41L25,51l8-2,3-3,6,6-3.24,3.24A5.993,5.993,0,0,1,34.51,57H21A3.917,3.917,0,0,1,18.55,56.15Z" fill="#f0d0b4"/>
        </g>
        <g id="Grupo_1171147" data-name="Grupo 1171147">
          <path id="Trazado_1024109" data-name="Trazado 1024109" d="M50.43,24.41a17.944,17.944,0,0,0,2.57.48V31A10,10,0,0,1,43,41H39a9.962,9.962,0,0,1-6.29-2.23H32.7a3,3,0,0,0-1.47-1.47v-.01A9.962,9.962,0,0,1,29,31V22.49a5.993,5.993,0,0,1,1.76-4.25l.54-.54A5,5,0,0,0,36,21h7.69Z" fill="#f0d0b4"/>
        </g>
        <g id="Grupo_1171148" data-name="Grupo 1171148">
          <path id="Trazado_1024110" data-name="Trazado 1024110" d="M8.6,22.6,11,19l3.8,5.69A13.191,13.191,0,0,1,17,31.97,13.131,13.131,0,0,1,11.15,42.9L11,43l-.15-.1A13.14,13.14,0,0,1,6.29,26.29a14.023,14.023,0,0,1,.91-1.6Z" fill="#b4dd7f"/>
        </g>
      </g>
      <g id="Grupo_1171150" data-name="Grupo 1171150">
        <path id="Trazado_1024113" data-name="Trazado 1024113" d="M62,19A18.871,18.871,0,0,0,58.946,8.706a4,4,0,0,0-5.652-5.652A18.871,18.871,0,0,0,43,0a7,7,0,0,0-6.927,6.047,13.01,13.01,0,0,0-11.155,8.186A1.981,1.981,0,0,0,24,14H2a2,2,0,0,0-2,2V50a2,2,0,0,0,2,2H3.656l-3,10H6.744l3-10H16.1a4.95,4.95,0,0,0,1.564,4.7L19.256,62h6.088l-1.2-4H32v4H49V61a17.3,17.3,0,0,0-.131-2h1.01a6.081,6.081,0,0,0,4.328-1.793l.218-.218A5.337,5.337,0,0,0,56,53.188a5.4,5.4,0,0,0-2.15-4.3l-1.011-.759a2.1,2.1,0,0,1-.084-3.29l2.007-1.672A8.976,8.976,0,0,0,58,36.253V25.315A7,7,0,0,0,62,19ZM56,4a1.991,1.991,0,0,1,1.721,3.008A19.115,19.115,0,0,0,54.993,4.28,1.984,1.984,0,0,1,56,4ZM42,50.586,37.414,46l3.05-3.05a3.243,3.243,0,1,1,4.586,4.586ZM18,53a3,3,0,0,1,3-3,3.8,3.8,0,0,1,2.707,1.121l.986.986,8.818-2.2L36,47.414,40.586,52,38.05,54.536A4.967,4.967,0,0,1,34.515,56H21A3,3,0,0,1,18,53ZM6.653,28.067l1.64,1.64,1.414-1.414L7.519,26.1c.161-.291.332-.578.518-.857l.719-1.078,1.538,1.538,1.414-1.414-1.82-1.82L11,20.8l2.963,4.445A12.113,12.113,0,0,1,12,40.966V30H10V40.966a12.082,12.082,0,0,1-3.347-12.9ZM12,43.508a14.148,14.148,0,0,0,2.544-2.3A5.57,5.57,0,0,0,14.537,46H12Zm4,.1a3.606,3.606,0,0,1,5.6-3l1.293.862a3.172,3.172,0,0,0,4.6-1.22l.546-1.091A2.09,2.09,0,0,1,32,40.09v8.129l-6.693,1.673-.186-.186A5.79,5.79,0,0,0,21,48a4.929,4.929,0,0,0-2.378.63l-2.016-3.024a3.591,3.591,0,0,1-.606-2Zm18-2.819a11.079,11.079,0,0,0,1.351.588A7.012,7.012,0,0,0,34,42.425Zm.065,5.735a4.994,4.994,0,0,1,3.353-3.94l.88-.293ZM39,40a9.012,9.012,0,0,1-5.551-1.922,4.1,4.1,0,0,0-1.528-1.528A8.893,8.893,0,0,1,30,31V22.485a4.949,4.949,0,0,1,1.077-3.065A6,6,0,0,0,36,22h7.381a18.972,18.972,0,0,0,3.26,2.036c-.668.081,2.917,1.382,2.69,1.1a18.861,18.861,0,0,0,2.669.6V31a9.011,9.011,0,0,1-9,9Zm-.247-28A28.815,28.815,0,0,1,55,7a28.815,28.815,0,0,1-5,16.247A17.074,17.074,0,0,1,38.753,12ZM43,2a16.886,16.886,0,0,1,9.738,3.087A30.743,30.743,0,0,0,38.27,9.927,17.011,17.011,0,0,1,38,7a5.006,5.006,0,0,1,5-5ZM36.053,8.048A18.911,18.911,0,0,0,41.181,20H36a4,4,0,0,1-4-4V14H30v2a5.966,5.966,0,0,0,.175,1.411l-.124.124A6.954,6.954,0,0,0,28,22.485V31a11.021,11.021,0,0,0,1.243,5.059,4.06,4.06,0,0,0-2.992,2.2l-.252.5V19A11.01,11.01,0,0,1,36.053,8.048ZM5.256,60H3.344l2.4-8H7.656ZM2,50V16H24V39.8l-1.285-.857a5.588,5.588,0,0,0-6.91.556,14.056,14.056,0,0,0-.178-15.358L11,17.2,8.444,21.03,6.707,19.293,5.293,20.707l2.02,2.02-.941,1.411c-.111.166-.209.338-.312.508L4.707,23.293,3.293,24.707,5.1,26.518A14.071,14.071,0,0,0,10,43.508V46H4v2H15.8l1.286,1.929c-.019.024-.04.047-.059.071ZM22.656,60H20.744l-.627-2.089A5.044,5.044,0,0,0,21,58h1.056ZM34,60V58h.515a6.956,6.956,0,0,0,4.95-2.05l4.305-4.305A15.234,15.234,0,0,1,46.968,60ZM56,36.253a6.982,6.982,0,0,1-2.519,5.378L51.474,43.3a4.1,4.1,0,0,0,.165,6.426l1.011.758a3.393,3.393,0,0,1,1.35,2.7,3.351,3.351,0,0,1-.989,2.387l-.218.218A4.093,4.093,0,0,1,49.879,57H48.513a17.216,17.216,0,0,0-3.322-6.777l1.274-1.274a5.222,5.222,0,0,0-.089-7.485A11.012,11.012,0,0,0,54,31V25.949c.333.018.662.051,1,.051a7.026,7.026,0,0,0,1-.08ZM55,24a17.011,17.011,0,0,1-2.927-.27,30.747,30.747,0,0,0,4.84-14.468A16.886,16.886,0,0,1,60,19a5.006,5.006,0,0,1-5,5Z"/>
      </g>
    </g>
  </g>
</svg>
