<svg xmlns="http://www.w3.org/2000/svg" xmlns:xlink="http://www.w3.org/1999/xlink" width="97.035" height="97.035" viewBox="0 0 97.035 97.035">
  <defs>
    <filter id="Trazado_982547" x="0" y="0" width="97.035" height="97.035" filterUnits="userSpaceOnUse">
      <feOffset dy="3" input="SourceAlpha"/>
      <feGaussianBlur stdDeviation="3" result="blur"/>
      <feFlood flood-opacity="0.161"/>
      <feComposite operator="in" in2="blur"/>
      <feComposite in="SourceGraphic"/>
    </filter>
  </defs>
  <g id="Grupo_1171587" data-name="Grupo 1171587" transform="translate(-1029.409 -2536.582)">
    <g id="Grupo_1171112" data-name="Grupo 1171112" transform="translate(232.219 577.058)">
      <g id="Grupo_1164703" data-name="Grupo 1164703" transform="translate(806.19 1965.523)">
        <g id="Grupo_1160931" data-name="Grupo 1160931" transform="translate(0 0)">
          <g id="Grupo_1160749" data-name="Grupo 1160749" transform="translate(0 0)">
            <g id="Grupo_1158891" data-name="Grupo 1158891" transform="translate(0 0)">
              <g id="Grupo_1157406" data-name="Grupo 1157406" transform="translate(0 0)">
                <g id="Grupo_1155793" data-name="Grupo 1155793" transform="translate(0 0)">
                  <g id="Grupo_1154704" data-name="Grupo 1154704">
                    <g id="Grupo_1150790" data-name="Grupo 1150790">
                      <g id="Grupo_1154214" data-name="Grupo 1154214">
                        <g id="Grupo_1152583" data-name="Grupo 1152583">
                          <g id="Grupo_1146973" data-name="Grupo 1146973">
                            <g id="Grupo_1146954" data-name="Grupo 1146954">
                              <g transform="matrix(1, 0, 0, 1, -9, -6)" filter="url(#Trazado_982547)">
                                <g id="Trazado_982547-2" data-name="Trazado 982547" transform="translate(9 6)" fill="#edf3fc">
                                  <path d="M 39.51754379272461 77.53498077392578 C 34.38454437255859 77.53498077392578 29.40588760375977 76.53001403808594 24.7198657989502 74.54798889160156 C 20.19293212890625 72.63327026367188 16.12703323364258 69.89185333251953 12.63507747650146 66.39990997314453 C 9.143132209777832 62.90796661376953 6.401721477508545 58.84206771850586 4.486988067626953 54.31515884399414 C 2.504966020584106 49.62913513183594 1.499999403953552 44.65047836303711 1.499999403953552 39.51749038696289 C 1.499999403953552 34.38450241088867 2.504966020584106 29.40584564208984 4.486988067626953 24.71982383728027 C 6.401721477508545 20.19291305541992 9.143132209777832 16.12701225280762 12.63507747650146 12.6350679397583 C 16.12703323364258 9.143123626708984 20.19293212890625 6.401712417602539 24.7198657989502 4.486990451812744 C 29.40588760375977 2.504968166351318 34.38454437255859 1.500001549720764 39.51754379272461 1.500001549720764 C 44.65054321289062 1.500001549720764 49.62919998168945 2.504968166351318 54.31523132324219 4.486990451812744 C 58.84215545654297 6.401712417602539 62.90806579589844 9.143123626708984 66.40000915527344 12.6350679397583 C 69.89195251464844 16.12701225280762 72.63337707519531 20.19291305541992 74.548095703125 24.71982383728027 C 76.53012084960938 29.40584564208984 77.53508758544922 34.38450241088867 77.53508758544922 39.51749038696289 C 77.53508758544922 44.65047836303711 76.53012084960938 49.62913513183594 74.548095703125 54.31515884399414 C 72.63337707519531 58.84206771850586 69.89195251464844 62.90796661376953 66.40000915527344 66.39990997314453 C 62.90806579589844 69.89185333251953 58.84215545654297 72.63327026367188 54.31523132324219 74.54798889160156 C 49.62919998168945 76.53001403808594 44.65054321289062 77.53498077392578 39.51754379272461 77.53498077392578 Z" stroke="none"/>
                                  <path d="M 39.51754379272461 3 C 34.58638000488281 3 29.80431747436523 3.965103149414062 25.30418014526367 5.868492126464844 C 20.9560546875 7.707588195800781 17.05040740966797 10.34104919433594 13.69573211669922 13.69572448730469 C 10.34105682373047 17.0504035949707 7.707595825195312 20.95603942871094 5.868492126464844 25.30415344238281 C 3.965095520019531 29.80427932739258 2.999992370605469 34.58634185791016 2.999992370605469 39.51749038696289 C 2.999992370605469 44.44863891601562 3.965095520019531 49.23070526123047 5.868492126464844 53.73082733154297 C 7.707595825195312 58.07894134521484 10.34105682373047 61.98457717895508 13.69573211669922 65.33924865722656 C 17.05040740966797 68.69392395019531 20.9560546875 71.327392578125 25.30418014526367 73.16648864746094 C 29.80431747436523 75.06987762451172 34.58638000488281 76.03498077392578 39.51754379272461 76.03498077392578 C 44.44870758056641 76.03498077392578 49.23076629638672 75.06987762451172 53.73089599609375 73.16648864746094 C 58.07901763916016 71.327392578125 61.98466873168945 68.69392395019531 65.33934020996094 65.33924865722656 C 68.69401550292969 61.98457717895508 71.32748413085938 58.07894134521484 73.16658020019531 53.73082733154297 C 75.06998443603516 49.23070526123047 76.03507995605469 44.44863891601562 76.03507995605469 39.51749038696289 C 76.03507995605469 34.58634185791016 75.06998443603516 29.80427932739258 73.16658020019531 25.30415344238281 C 71.32748413085938 20.95603942871094 68.69401550292969 17.0504035949707 65.33934020996094 13.69572448730469 C 61.98466873168945 10.34104919433594 58.07901763916016 7.707588195800781 53.73089599609375 5.868492126464844 C 49.23076629638672 3.965103149414062 44.44870758056641 3 39.51754379272461 3 M 39.51754379272461 0 C 61.34248352050781 0 79.03507995605469 17.69257736206055 79.03507995605469 39.51749038696289 C 79.03507995605469 61.34240341186523 61.34248352050781 79.03498077392578 39.51754379272461 79.03498077392578 C 17.69260787963867 79.03498077392578 -7.62939453125e-06 61.34240341186523 -7.62939453125e-06 39.51749038696289 C -7.62939453125e-06 17.69257736206055 17.69260787963867 0 39.51754379272461 0 Z" stroke="none" fill="#5692e8"/>
                                </g>
                              </g>
                            </g>
                          </g>
                        </g>
                      </g>
                    </g>
                  </g>
                </g>
              </g>
            </g>
          </g>
        </g>
      </g>
    </g>
    <g id="pedagogy_18254114" transform="translate(1050.876 2520.447)">
      <g id="Grupo_1171586" data-name="Grupo 1171586" transform="translate(0.828 39.517)">
        <path id="Trazado_1025061" data-name="Trazado 1025061" d="M369.66,188.21h-2.919a6.138,6.138,0,0,0-6.122,6.119V197a.856.856,0,0,0,.855.852h13.45a.856.856,0,0,0,.855-.852v-2.676A6.137,6.137,0,0,0,369.66,188.21Z" transform="translate(-323.334 -173.244)" fill="#0593fc" fill-rule="evenodd"/>
        <path id="Trazado_1025062" data-name="Trazado 1025062" d="M394.565,188.21h-2.919a6.064,6.064,0,0,0-3.177.894,6.643,6.643,0,0,0,9.273,0A6.071,6.071,0,0,0,394.565,188.21Z" transform="translate(-348.239 -173.244)" fill="#0584e3" fill-rule="evenodd"/>
        <path id="Trazado_1025063" data-name="Trazado 1025063" d="M64.843,319.977,42.24,315.2v-8.213a1.057,1.057,0,0,1,1.414-1l21.19,7.623,21.19-7.623a1.06,1.06,0,0,1,1.416,1V315.2Z" transform="translate(-38.621 -278.514)" fill="#edf6ff" fill-rule="evenodd"/>
        <path id="Trazado_1025064" data-name="Trazado 1025064" d="M223.018,283.9H214.17v3.081a2,2,0,0,0,1.993,1.993h4.859a2,2,0,0,0,2-1.993Z" transform="translate(-192.37 -258.815)" fill="#223c55" fill-rule="evenodd"/>
        <path id="Trazado_1025065" data-name="Trazado 1025065" d="M171.8,46.68a9.956,9.956,0,0,0-9.956,9.956c0,4.195,1.944,5.705,3.911,8.007a6.074,6.074,0,0,1,1.513,4.1h9.066a6.085,6.085,0,0,1,1.513-4.1c1.967-2.3,3.911-3.811,3.911-8.007A9.957,9.957,0,0,0,171.8,46.68Z" transform="translate(-145.574 -46.68)" fill="#ffd400" fill-rule="evenodd"/>
        <path id="Trazado_1025066" data-name="Trazado 1025066" d="M206.836,253.653h-10.2a1.317,1.317,0,0,1,0-2.633h10.2a1.317,1.317,0,1,1,0,2.633Z" transform="translate(-175.514 -229.412)" fill="#edf6ff" fill-rule="evenodd"/>
        <path id="Trazado_1025067" data-name="Trazado 1025067" d="M206.836,275.92h-10.2a1.317,1.317,0,0,0,0,2.633h10.2a1.317,1.317,0,1,0,0-2.633Z" transform="translate(-175.514 -251.679)" fill="#2f5274" fill-rule="evenodd"/>
        <path id="Trazado_1025068" data-name="Trazado 1025068" d="M212.19,127.08h9.267v4.791a15.2,15.2,0,0,1-9.267,0Z" transform="translate(-190.6 -118.578)" fill="#223c55" fill-rule="evenodd"/>
        <path id="Trazado_1025069" data-name="Trazado 1025069" d="M193.473,102.45l7.393,2.6-7.393,2.615-7.393-2.615Z" transform="translate(-167.251 -96.552)" fill="#2f5274" fill-rule="evenodd"/>
        <path id="Trazado_1025070" data-name="Trazado 1025070" d="M14.137,188.21h2.922a6.136,6.136,0,0,1,6.119,6.119V197a.855.855,0,0,1-.852.852H8.872A.855.855,0,0,1,8.02,197v-2.676A6.134,6.134,0,0,1,14.137,188.21Z" transform="translate(-8.02 -173.244)" fill="#0593fc" fill-rule="evenodd"/>
        <path id="Trazado_1025071" data-name="Trazado 1025071" d="M39.007,188.21h2.922a6.051,6.051,0,0,1,3.175.894,6.643,6.643,0,0,1-9.273,0A6.07,6.07,0,0,1,39.007,188.21Z" transform="translate(-32.889 -173.244)" fill="#0584e3" fill-rule="evenodd"/>
        <path id="Trazado_1025072" data-name="Trazado 1025072" d="M390.381,114.6a4.959,4.959,0,1,0-4.961-4.957A4.969,4.969,0,0,0,390.381,114.6Z" transform="translate(-345.511 -98.547)" fill="#fbbd80" fill-rule="evenodd"/>
        <path id="Trazado_1025073" data-name="Trazado 1025073" d="M37.741,114.6a4.959,4.959,0,1,0-4.961-4.957A4.968,4.968,0,0,0,37.741,114.6Z" transform="translate(-30.162 -98.547)" fill="#fbbd80" fill-rule="evenodd"/>
        <path id="Trazado_1025074" data-name="Trazado 1025074" d="M213.258,140.134V136.7l-1.068-.379v3.814a15.357,15.357,0,0,0,5.162.713A15.5,15.5,0,0,1,213.258,140.134Z" transform="translate(-190.6 -126.841)" fill="#1f364d" fill-rule="evenodd"/>
        <path id="Trazado_1025075" data-name="Trazado 1025075" d="M186.08,105.055l2.761.977,1.068.379v-.593l-1.068-.379-1.088-.384,6.558-2.307-.839-.3Z" transform="translate(-167.251 -96.553)" fill="#2a4a68" fill-rule="evenodd"/>
        <path id="Trazado_1025076" data-name="Trazado 1025076" d="M196.913,252.335a1.322,1.322,0,0,1,1.318-1.315h-1.595a1.317,1.317,0,0,0,0,2.633h1.595A1.322,1.322,0,0,1,196.913,252.335Z" transform="translate(-175.514 -229.412)" fill="#d5dde6" fill-rule="evenodd"/>
        <path id="Trazado_1025077" data-name="Trazado 1025077" d="M196.635,275.92a1.317,1.317,0,0,0,0,2.633h1.595a1.317,1.317,0,1,1,0-2.633Z" transform="translate(-175.514 -251.679)" fill="#2a4a68" fill-rule="evenodd"/>
        <path id="Trazado_1025078" data-name="Trazado 1025078" d="M215.087,300.82h-.917v1.292a2,2,0,0,0,1.993,1.993h1.595a2,2,0,0,1-2-1.993V300.82Z" transform="translate(-192.37 -273.945)" fill="#1f364d" fill-rule="evenodd"/>
      </g>
      <path id="Trazado_1025079" data-name="Trazado 1025079" d="M57.855,370.455a2.1,2.1,0,0,1,.986,4.082l-24.122,5.836a2.059,2.059,0,0,1-1.022-.008l-24.09-5.828a2.1,2.1,0,0,1,.986-4.083l23.63,5.717Z" transform="translate(-7.173 -296.647)" fill="#2f5274"/>
      <path id="Trazado_1025080" data-name="Trazado 1025080" d="M37.272,63.278a1.7,1.7,0,0,0,1.7,1.7H52.426a1.7,1.7,0,0,0,1.7-1.7V60.6A6.972,6.972,0,0,0,52.6,56.259a7.049,7.049,0,0,0-2.436-1.938,5.807,5.807,0,1,0-8.923,0A6.991,6.991,0,0,0,37.273,60.6v2.676ZM45.7,46.5a4.113,4.113,0,1,1-4.115,4.115A4.117,4.117,0,0,1,45.7,46.5ZM38.965,60.6a5.331,5.331,0,0,1,3.713-5.035,5.8,5.8,0,0,0,6.04,0A5.332,5.332,0,0,1,52.429,60.6l0,2.684H50.173V60.841a.847.847,0,0,0-1.694,0v2.445H42.915V60.841a.847.847,0,0,0-1.694,0v2.445H38.972l-.007-.007ZM54.04,75.157A2.944,2.944,0,0,0,50.5,72.982V67.994A1.9,1.9,0,0,0,47.957,66.2L27.051,73.722,6.148,66.2A1.9,1.9,0,0,0,3.6,67.994v4.988a2.947,2.947,0,0,0-1.365,5.734l24.08,5.826a2.9,2.9,0,0,0,.734.094,2.971,2.971,0,0,0,.695-.082l24.124-5.836a2.952,2.952,0,0,0,2.173-3.559Zm-5.509-7.362a.189.189,0,0,1,.192.025.185.185,0,0,1,.089.173v5.4L27.9,78.45V75.217Zm-43.148.026a.187.187,0,0,1,.192-.025L26.2,75.217V78.45L5.294,73.391v-5.4a.183.183,0,0,1,.089-.172ZM52.245,76.5a1.249,1.249,0,0,1-.774.566L27.347,82.9a1.212,1.212,0,0,1-.606,0l-.019,0L2.634,77.069a1.253,1.253,0,1,1,.589-2.435l1.024.247.035.008,22.571,5.46a.847.847,0,0,0,.4,0l22.574-5.46.037-.008,1.022-.247a1.252,1.252,0,0,1,1.362,1.87ZM20.364,58.03a5.273,5.273,0,0,1,1.174,2.29,2.157,2.157,0,0,0-1.3,3.437,2.159,2.159,0,0,0,1.543,3.473v.45a2.845,2.845,0,0,0,2.84,2.844h4.859a2.845,2.845,0,0,0,2.84-2.844v-.45a2.159,2.159,0,0,0,1.543-3.473,2.157,2.157,0,0,0-1.3-3.438,5.287,5.287,0,0,1,1.174-2.289c.262-.307.529-.6.787-.893,1.711-1.913,3.328-3.719,3.328-7.663a10.8,10.8,0,1,0-21.606,0c0,3.944,1.617,5.752,3.328,7.663.258.289.525.587.786.893Zm9.119,10.8H24.623a1.149,1.149,0,0,1-1.146-1.149V67.24h7.152v.442A1.149,1.149,0,0,1,29.482,68.831Zm2.671-3.285h-10.2a.471.471,0,0,1,0-.941h10.2a.471.471,0,0,1,0,.941Zm0-2.635h-10.2a.47.47,0,0,1,0-.939h10.2a.47.47,0,0,1,0,.939Zm-5.1-22.547a9.121,9.121,0,0,1,9.111,9.111c0,3.3-1.278,4.726-2.9,6.534-.264.3-.537.6-.813.923a6.886,6.886,0,0,0-1.6,3.348H23.256a6.875,6.875,0,0,0-1.6-3.348c-.275-.321-.548-.627-.812-.922-1.618-1.808-2.9-3.237-2.9-6.534a9.119,9.119,0,0,1,9.107-9.112ZM21.574,52.808a.847.847,0,0,0,.593.808,16.066,16.066,0,0,0,9.771,0,.847.847,0,0,0,.594-.808V49.594l2.2-.776a.847.847,0,0,0,0-1.6l-7.395-2.6a.848.848,0,0,0-.563,0l-7.392,2.6a.847.847,0,0,0,0,1.6l2.2.776Zm9.266-.636a14.328,14.328,0,0,1-7.571,0V50.192l3.5,1.238a.844.844,0,0,0,.565,0l3.506-1.239v1.982Zm-3.788-5.859L31.9,48.019l-4.848,1.715L22.2,48.02ZM1.68,64.98H15.134a1.7,1.7,0,0,0,1.7-1.7V60.6a6.973,6.973,0,0,0-1.529-4.343,7.046,7.046,0,0,0-2.436-1.937,5.806,5.806,0,1,0-8.923,0A6.988,6.988,0,0,0-.02,60.6v2.676a1.7,1.7,0,0,0,1.7,1.7ZM8.406,46.5a4.113,4.113,0,1,1-4.111,4.115A4.119,4.119,0,0,1,8.406,46.5ZM1.672,60.6a5.332,5.332,0,0,1,3.715-5.035,5.8,5.8,0,0,0,6.039,0A5.333,5.333,0,0,1,15.14,60.6v2.676l-.007.007H12.883V60.842a.847.847,0,0,0-1.694,0v2.445H5.623V60.842a.847.847,0,0,0-1.694,0v2.445H1.679s-.007-.005-.007-.007V60.6Z" transform="translate(0)"/>
    </g>
  </g>
</svg>
