<svg xmlns="http://www.w3.org/2000/svg" xmlns:xlink="http://www.w3.org/1999/xlink" width="113" height="113" viewBox="0 0 113 113">
  <defs>
    <filter id="Trazado_982547" x="0" y="0" width="113" height="113" filterUnits="userSpaceOnUse">
      <feOffset dy="3" input="SourceAlpha"/>
      <feGaussianBlur stdDeviation="3" result="blur"/>
      <feFlood flood-opacity="0.161"/>
      <feComposite operator="in" in2="blur"/>
      <feComposite in="SourceGraphic"/>
    </filter>
  </defs>
  <g id="Grupo_1171400" data-name="Grupo 1171400" transform="translate(-1216.5 -2057.674)">
    <g id="Grupo_1171098" data-name="Grupo 1171098" transform="translate(1225.5 2063.674)">
      <g id="Grupo_1148525" data-name="Grupo 1148525" transform="translate(0)">
        <g transform="matrix(1, 0, 0, 1, -9, -6)" filter="url(#Trazado_982547)">
          <g id="Trazado_982547-2" data-name="Trazado 982547" transform="translate(9 6)" fill="#fefcf6">
            <path d="M 47.5 93.5 C 41.28937149047852 93.5 35.26533508300781 92.28397369384766 29.59518623352051 89.88570404052734 C 24.11771965026855 87.56893157958984 19.19813346862793 84.25196075439453 14.97309303283691 80.02691650390625 C 10.74804019927979 75.80186462402344 7.431066513061523 70.88229370117188 5.114293098449707 65.40481567382812 C 2.716026782989502 59.73468017578125 1.5 53.71062850952148 1.5 47.5 C 1.5 41.28937149047852 2.716026782989502 35.26533508300781 5.114293098449707 29.59518623352051 C 7.431066513061523 24.11771965026855 10.74804019927979 19.19813346862793 14.97309303283691 14.97309303283691 C 19.19813346862793 10.74804019927979 24.11771965026855 7.431066513061523 29.59518623352051 5.114293098449707 C 35.26533508300781 2.716026782989502 41.28937149047852 1.5 47.5 1.5 C 53.71062850952148 1.5 59.73468017578125 2.716026782989502 65.40481567382812 5.114293098449707 C 70.88229370117188 7.431066513061523 75.80186462402344 10.74804019927979 80.02691650390625 14.97309303283691 C 84.25196075439453 19.19813346862793 87.56893157958984 24.11771965026855 89.88570404052734 29.59518623352051 C 92.28397369384766 35.26533508300781 93.5 41.28937149047852 93.5 47.5 C 93.5 53.71062850952148 92.28397369384766 59.73468017578125 89.88570404052734 65.40481567382812 C 87.56893157958984 70.88229370117188 84.25196075439453 75.80186462402344 80.02691650390625 80.02691650390625 C 75.80186462402344 84.25196075439453 70.88229370117188 87.56893157958984 65.40481567382812 89.88570404052734 C 59.73468017578125 92.28397369384766 53.71062850952148 93.5 47.5 93.5 Z" stroke="none"/>
            <path d="M 47.5 3 C 41.49121475219727 3 35.66376876831055 4.176155090332031 30.17950439453125 6.495796203613281 C 24.88084411621094 8.736953735351562 20.12152099609375 11.94598388671875 16.03375244140625 16.03375244140625 C 11.94598388671875 20.12152099609375 8.736953735351562 24.88084411621094 6.495796203613281 30.17950439453125 C 4.176155090332031 35.66376876831055 3 41.49121475219727 3 47.5 C 3 53.50878524780273 4.176155090332031 59.33623123168945 6.495796203613281 64.82049560546875 C 8.736953735351562 70.11915588378906 11.94598388671875 74.87847900390625 16.03375244140625 78.96624755859375 C 20.12152099609375 83.05401611328125 24.88084411621094 86.26304626464844 30.17950439453125 88.50419616699219 C 35.66376876831055 90.82384490966797 41.49121475219727 92 47.5 92 C 53.50878524780273 92 59.33623123168945 90.82384490966797 64.82049560546875 88.50419616699219 C 70.11915588378906 86.26304626464844 74.87847900390625 83.05401611328125 78.96624755859375 78.96624755859375 C 83.05401611328125 74.87847900390625 86.26304626464844 70.11915588378906 88.50419616699219 64.82049560546875 C 90.82384490966797 59.33623123168945 92 53.50878524780273 92 47.5 C 92 41.49121475219727 90.82384490966797 35.66376876831055 88.50419616699219 30.17950439453125 C 86.26304626464844 24.88084411621094 83.05401611328125 20.12152099609375 78.96624755859375 16.03375244140625 C 74.87847900390625 11.94598388671875 70.11915588378906 8.736953735351562 64.82049560546875 6.495796203613281 C 59.33623123168945 4.176155090332031 53.50878524780273 3 47.5 3 M 47.5 0 C 73.7335205078125 0 95 21.2664794921875 95 47.5 C 95 73.7335205078125 73.7335205078125 95 47.5 95 C 21.2664794921875 95 0 73.7335205078125 0 47.5 C 0 21.2664794921875 21.2664794921875 0 47.5 0 Z" stroke="none" fill="#86815c"/>
          </g>
        </g>
      </g>
    </g>
    <g id="_x34_9_shout_x2C__anger_x2C__boss_x2C__conflict_x2C__business_x2C__office_x2C__job" transform="translate(1242 2076.5)">
      <g id="Grupo_1171341" data-name="Grupo 1171341">
        <g id="Grupo_1171322" data-name="Grupo 1171322">
          <path id="Trazado_1024596" data-name="Trazado 1024596" d="M40,1.5v18H29l-4,2v-2H22V1.5Z" fill="#ed5565"/>
        </g>
        <g id="Grupo_1171323" data-name="Grupo 1171323">
          <path id="Trazado_1024597" data-name="Trazado 1024597" d="M41,32.5l-3,3v-5a9,9,0,0,1,9-9h8v4a5,5,0,0,1,5,5v5l-3-3a18.923,18.923,0,0,1-8,2A18.98,18.98,0,0,1,41,32.5Z" fill="#965353"/>
        </g>
        <g id="Grupo_1171325" data-name="Grupo 1171325">
          <g id="Grupo_1171324" data-name="Grupo 1171324">
            <path id="Trazado_1024598" data-name="Trazado 1024598" d="M55,25.5v-4H51v6c2.76,0,5,1.24,5,4v1.468c.634-.271,1-.468,1-.468l3,3v-5A5,5,0,0,0,55,25.5Z" fill="#844747"/>
          </g>
        </g>
        <g id="Grupo_1171326" data-name="Grupo 1171326">
          <path id="Trazado_1024599" data-name="Trazado 1024599" d="M60,35.5v4a11,11,0,1,1-22,0v-4l3-3a18.98,18.98,0,0,0,8,2,18.923,18.923,0,0,0,8-2Z" fill="#eac6bb"/>
        </g>
        <g id="Grupo_1171327" data-name="Grupo 1171327">
          <path id="Trazado_1024600" data-name="Trazado 1024600" d="M57,32.5s-.366.2-1,.468V39.5a11,11,0,0,1-6,9.8,10.823,10.823,0,0,1-3,1,11.061,11.061,0,0,0,2,.2,10.992,10.992,0,0,0,11-11v-4Z" fill="#d3b1a9"/>
        </g>
        <g id="Grupo_1171328" data-name="Grupo 1171328">
          <path id="Trazado_1024601" data-name="Trazado 1024601" d="M49,53.5l-3,1-2-2V49.3a11.025,11.025,0,0,0,10,0v3.2l-2,2Z" fill="#f5f7fa"/>
        </g>
        <g id="Grupo_1171329" data-name="Grupo 1171329">
          <path id="Trazado_1024602" data-name="Trazado 1024602" d="M63,58.79V60.5a1.993,1.993,0,0,1-2,2H37a2,2,0,0,1-2-2v-2a6,6,0,0,1,6-6h3l2,2,3-1,3,1,2-2h3a6,6,0,0,1,6,6Z" fill="#5d9cec"/>
        </g>
        <g id="Grupo_1171331" data-name="Grupo 1171331">
          <g id="Grupo_1171330" data-name="Grupo 1171330">
            <path id="Trazado_1024603" data-name="Trazado 1024603" d="M57,52.5H54l-.078.078A5.994,5.994,0,0,1,59,58.5v2a1.993,1.993,0,0,1-2,2h4a1.993,1.993,0,0,0,2-2v-2A6,6,0,0,0,57,52.5Z" fill="#4a89dc"/>
          </g>
        </g>
        <g id="Grupo_1171332" data-name="Grupo 1171332">
          <path id="Trazado_1024604" data-name="Trazado 1024604" d="M12,49.5a11.066,11.066,0,0,0,4-.75V52.5H8V48.75A11.066,11.066,0,0,0,12,49.5Z" fill="#f5f7fa"/>
        </g>
        <g id="Grupo_1171333" data-name="Grupo 1171333">
          <path id="Trazado_1024605" data-name="Trazado 1024605" d="M23,56.5v4a1.993,1.993,0,0,1-2,2H3a2,2,0,0,1-2-2v-4a4,4,0,0,1,4-4H19A4,4,0,0,1,23,56.5Z" fill="#e6e9ed"/>
        </g>
        <g id="Grupo_1171334" data-name="Grupo 1171334">
          <path id="Trazado_1024606" data-name="Trazado 1024606" d="M19,52.5H15a4,4,0,0,1,4,4v4a1.993,1.993,0,0,1-2,2h4a1.993,1.993,0,0,0,2-2v-4A4,4,0,0,0,19,52.5Z" fill="#ccd1d9"/>
        </g>
        <g id="Grupo_1171335" data-name="Grupo 1171335">
          <path id="Trazado_1024607" data-name="Trazado 1024607" d="M10,37.5v1h4l-1-6H23v6a11,11,0,0,1-21.58,3H2a4,4,0,0,0,4-4,2,2,0,0,1,4,0Z" fill="#eac6bb"/>
        </g>
        <g id="Grupo_1171337" data-name="Grupo 1171337">
          <g id="Grupo_1171336" data-name="Grupo 1171336">
            <path id="Trazado_1024608" data-name="Trazado 1024608" d="M19,32.5v6a10.962,10.962,0,0,1-9,10.814A10.989,10.989,0,0,0,23,38.5v-6Z" fill="#d3b1a9"/>
          </g>
        </g>
        <g id="Grupo_1171338" data-name="Grupo 1171338">
          <path id="Trazado_1024609" data-name="Trazado 1024609" d="M24,32v.5H13l1,6H10v-1a2,2,0,0,0-4,0,4,4,0,0,1-4,4H1.42a10.6,10.6,0,0,1-.42-3V32a11.5,11.5,0,1,1,23,0Z" fill="#656d78"/>
        </g>
        <g id="Grupo_1171340" data-name="Grupo 1171340">
          <g id="Grupo_1171339" data-name="Grupo 1171339">
            <path id="Trazado_1024610" data-name="Trazado 1024610" d="M12.5,20.5a11.452,11.452,0,0,0-2,.186A11.5,11.5,0,0,1,20,32v.5h4V32A11.5,11.5,0,0,0,12.5,20.5Z" fill="#434a54"/>
          </g>
        </g>
      </g>
      <g id="Grupo_1171399" data-name="Grupo 1171399">
        <g id="Grupo_1171342" data-name="Grupo 1171342">
          <path id="Trazado_1024611" data-name="Trazado 1024611" d="M1,57.5a1,1,0,0,1-1-1,5.006,5.006,0,0,1,5-5,1,1,0,0,1,0,2,3,3,0,0,0-3,3A1,1,0,0,1,1,57.5Z"/>
        </g>
        <g id="Grupo_1171343" data-name="Grupo 1171343">
          <path id="Trazado_1024612" data-name="Trazado 1024612" d="M19,53.5H5a1,1,0,0,1,0-2H19a1,1,0,0,1,0,2Z"/>
        </g>
        <g id="Grupo_1171344" data-name="Grupo 1171344">
          <path id="Trazado_1024613" data-name="Trazado 1024613" d="M1,61.5a1,1,0,0,1-1-1v-4a1,1,0,1,1,2,0v4a1,1,0,0,1-1,1Z"/>
        </g>
        <g id="Grupo_1171345" data-name="Grupo 1171345">
          <path id="Trazado_1024614" data-name="Trazado 1024614" d="M21,63.5H3a1,1,0,0,1,0-2H21a1,1,0,0,1,0,2Z"/>
        </g>
        <g id="Grupo_1171346" data-name="Grupo 1171346">
          <path id="Trazado_1024615" data-name="Trazado 1024615" d="M16,53.5a1,1,0,0,1-1-1V48.749a1,1,0,1,1,2,0V52.5A1,1,0,0,1,16,53.5Z"/>
        </g>
        <g id="Grupo_1171347" data-name="Grupo 1171347">
          <path id="Trazado_1024616" data-name="Trazado 1024616" d="M8,53.5a1,1,0,0,1-1-1V48.749a1,1,0,0,1,2,0V52.5A1,1,0,0,1,8,53.5Z"/>
        </g>
        <g id="Grupo_1171348" data-name="Grupo 1171348">
          <path id="Trazado_1024617" data-name="Trazado 1024617" d="M12,50.5a12.013,12.013,0,0,1-12-12,1,1,0,0,1,2,0,10,10,0,1,0,20,0,1,1,0,0,1,2,0,12.013,12.013,0,0,1-12,12Z"/>
        </g>
        <g id="Grupo_1171349" data-name="Grupo 1171349">
          <path id="Trazado_1024618" data-name="Trazado 1024618" d="M24,33a1,1,0,0,1-1-1A10.5,10.5,0,0,0,2,32a1,1,0,1,1-2,0,12.5,12.5,0,0,1,25,0A1,1,0,0,1,24,33Z"/>
        </g>
        <g id="Grupo_1171350" data-name="Grupo 1171350">
          <path id="Trazado_1024619" data-name="Trazado 1024619" d="M3,63.5a3,3,0,0,1-3-3,1,1,0,0,1,2,0,1,1,0,0,0,1,1,1,1,0,0,1,0,2Z"/>
        </g>
        <g id="Grupo_1171351" data-name="Grupo 1171351">
          <path id="Trazado_1024620" data-name="Trazado 1024620" d="M23,57.5a1,1,0,0,1-1-1,3,3,0,0,0-3-3,1,1,0,1,1,0-2,5.006,5.006,0,0,1,5,5A1,1,0,0,1,23,57.5Z"/>
        </g>
        <g id="Grupo_1171352" data-name="Grupo 1171352">
          <path id="Trazado_1024621" data-name="Trazado 1024621" d="M23,61.5a1,1,0,0,1-1-1v-4a1,1,0,0,1,2,0v4A1,1,0,0,1,23,61.5Z"/>
        </g>
        <g id="Grupo_1171353" data-name="Grupo 1171353">
          <path id="Trazado_1024622" data-name="Trazado 1024622" d="M21,63.5a1,1,0,0,1,0-2,1,1,0,0,0,1-1,1,1,0,0,1,2,0A3,3,0,0,1,21,63.5Z"/>
        </g>
        <g id="Grupo_1171382" data-name="Grupo 1171382">
          <g id="Grupo_1171380" data-name="Grupo 1171380">
            <g id="Grupo_1171354" data-name="Grupo 1171354">
              <path id="Trazado_1024623" data-name="Trazado 1024623" d="M35,59.5a1,1,0,0,1-1-1,7.008,7.008,0,0,1,7-7,1,1,0,0,1,0,2,5,5,0,0,0-5,5A1,1,0,0,1,35,59.5Z"/>
            </g>
            <g id="Grupo_1171355" data-name="Grupo 1171355">
              <path id="Trazado_1024624" data-name="Trazado 1024624" d="M44,53.5H41a1,1,0,0,1,0-2h3a1,1,0,0,1,0,2Z"/>
            </g>
            <g id="Grupo_1171356" data-name="Grupo 1171356">
              <path id="Trazado_1024625" data-name="Trazado 1024625" d="M35,61.5a1,1,0,0,1-1-1V58.785a1,1,0,0,1,2,0V60.5A1,1,0,0,1,35,61.5Z"/>
            </g>
            <g id="Grupo_1171357" data-name="Grupo 1171357">
              <path id="Trazado_1024626" data-name="Trazado 1024626" d="M63,59.5a1,1,0,0,1-1-1,5,5,0,0,0-5-5,1,1,0,0,1,0-2,7.008,7.008,0,0,1,7,7A1,1,0,0,1,63,59.5Z"/>
            </g>
            <g id="Grupo_1171358" data-name="Grupo 1171358">
              <path id="Trazado_1024627" data-name="Trazado 1024627" d="M54,53.5a1,1,0,0,1,0-2h3a1,1,0,0,1,0,2Z"/>
            </g>
            <g id="Grupo_1171359" data-name="Grupo 1171359">
              <path id="Trazado_1024628" data-name="Trazado 1024628" d="M63,61.5a1,1,0,0,1-1-1V58.785a1,1,0,0,1,2,0V60.5A1,1,0,0,1,63,61.5Z"/>
            </g>
            <g id="Grupo_1171360" data-name="Grupo 1171360">
              <path id="Trazado_1024629" data-name="Trazado 1024629" d="M61,63.5H37a1,1,0,0,1,0-2H61a1,1,0,0,1,0,2Z"/>
            </g>
            <g id="Grupo_1171361" data-name="Grupo 1171361">
              <path id="Trazado_1024630" data-name="Trazado 1024630" d="M44,53.5a1,1,0,0,1-1-1V49.3a1,1,0,0,1,2,0v3.2A1,1,0,0,1,44,53.5Z"/>
            </g>
            <g id="Grupo_1171362" data-name="Grupo 1171362">
              <path id="Trazado_1024631" data-name="Trazado 1024631" d="M54,53.5a1,1,0,0,1-1-1V49.3a1,1,0,0,1,2,0v3.2A1,1,0,0,1,54,53.5Z"/>
            </g>
            <g id="Grupo_1171363" data-name="Grupo 1171363">
              <path id="Trazado_1024632" data-name="Trazado 1024632" d="M49,51.5a12.013,12.013,0,0,1-12-12,1,1,0,1,1,2,0,10,10,0,0,0,20,0,1,1,0,1,1,2,0A12.013,12.013,0,0,1,49,51.5Z"/>
            </g>
            <g id="Grupo_1171364" data-name="Grupo 1171364">
              <path id="Trazado_1024633" data-name="Trazado 1024633" d="M38,40.5a1,1,0,0,1-1-1v-9a1,1,0,1,1,2,0v9A1,1,0,0,1,38,40.5Z"/>
            </g>
            <g id="Grupo_1171365" data-name="Grupo 1171365">
              <path id="Trazado_1024634" data-name="Trazado 1024634" d="M60,40.5a1,1,0,0,1-1-1v-9a1,1,0,1,1,2,0v9A1,1,0,0,1,60,40.5Z"/>
            </g>
            <g id="Grupo_1171366" data-name="Grupo 1171366">
              <path id="Trazado_1024635" data-name="Trazado 1024635" d="M60,31.5a1,1,0,0,1-1-1,4,4,0,0,0-4-4,1,1,0,0,1,0-2,6.006,6.006,0,0,1,6,6A1,1,0,0,1,60,31.5Z"/>
            </g>
            <g id="Grupo_1171367" data-name="Grupo 1171367">
              <path id="Trazado_1024636" data-name="Trazado 1024636" d="M55,26.5a1,1,0,0,1-1-1v-4a1,1,0,1,1,2,0v4A1,1,0,0,1,55,26.5Z"/>
            </g>
            <g id="Grupo_1171368" data-name="Grupo 1171368">
              <path id="Trazado_1024637" data-name="Trazado 1024637" d="M55,22.5H47a1,1,0,0,1,0-2h8a1,1,0,0,1,0,2Z"/>
            </g>
            <g id="Grupo_1171369" data-name="Grupo 1171369">
              <path id="Trazado_1024638" data-name="Trazado 1024638" d="M38,31.5a1,1,0,0,1-1-1,10.01,10.01,0,0,1,10-10,1,1,0,0,1,0,2,8.008,8.008,0,0,0-8,8A1,1,0,0,1,38,31.5Z"/>
            </g>
            <g id="Grupo_1171373" data-name="Grupo 1171373">
              <g id="Grupo_1171370" data-name="Grupo 1171370">
                <path id="Trazado_1024639" data-name="Trazado 1024639" d="M60,36.5a1,1,0,0,1-.707-.293l-3-3a1,1,0,0,1,1.414-1.414l3,3A1,1,0,0,1,60,36.5Z"/>
              </g>
              <g id="Grupo_1171371" data-name="Grupo 1171371">
                <path id="Trazado_1024640" data-name="Trazado 1024640" d="M49,35.5a19.849,19.849,0,0,1-8.474-2.119,1,1,0,0,1,.947-1.762A18.086,18.086,0,0,0,49,33.5a17.947,17.947,0,0,0,7.526-1.881,1,1,0,0,1,.947,1.761A19.814,19.814,0,0,1,49,35.5Z"/>
              </g>
              <g id="Grupo_1171372" data-name="Grupo 1171372">
                <path id="Trazado_1024641" data-name="Trazado 1024641" d="M38,36.5a1,1,0,0,1-.707-1.707l3-3a1,1,0,1,1,1.414,1.414l-3,3A1,1,0,0,1,38,36.5Z"/>
              </g>
            </g>
            <g id="Grupo_1171374" data-name="Grupo 1171374">
              <path id="Trazado_1024642" data-name="Trazado 1024642" d="M46,55.5a1,1,0,0,1-.707-.293l-2-2a1,1,0,0,1,1.414-1.414l2,2A1,1,0,0,1,46,55.5Z"/>
            </g>
            <g id="Grupo_1171375" data-name="Grupo 1171375">
              <path id="Trazado_1024643" data-name="Trazado 1024643" d="M46,55.5a1,1,0,0,1-.316-1.949l3-1a1,1,0,1,1,.633,1.9l-3,1A1.011,1.011,0,0,1,46,55.5Z"/>
            </g>
            <g id="Grupo_1171376" data-name="Grupo 1171376">
              <path id="Trazado_1024644" data-name="Trazado 1024644" d="M52,55.5a1,1,0,0,1-.707-1.707l2-2a1,1,0,0,1,1.414,1.414l-2,2A1,1,0,0,1,52,55.5Z"/>
            </g>
            <g id="Grupo_1171377" data-name="Grupo 1171377">
              <path id="Trazado_1024645" data-name="Trazado 1024645" d="M52,55.5a1,1,0,0,1-.316-.052l-3-1a1,1,0,0,1,.633-1.9l3,1A1,1,0,0,1,52,55.5Z"/>
            </g>
            <g id="Grupo_1171378" data-name="Grupo 1171378">
              <path id="Trazado_1024646" data-name="Trazado 1024646" d="M61,63.5a1,1,0,0,1,0-2,1,1,0,0,0,1-1,1,1,0,1,1,2,0A3,3,0,0,1,61,63.5Z"/>
            </g>
            <g id="Grupo_1171379" data-name="Grupo 1171379">
              <path id="Trazado_1024647" data-name="Trazado 1024647" d="M37,63.5a3,3,0,0,1-3-3,1,1,0,1,1,2,0,1,1,0,0,0,1,1,1,1,0,0,1,0,2Z"/>
            </g>
          </g>
          <g id="Grupo_1171381" data-name="Grupo 1171381">
            <path id="Trazado_1024648" data-name="Trazado 1024648" d="M49.03,58.5a1,1,0,0,1-.011-2h.011a1,1,0,0,1,0,2Z"/>
          </g>
        </g>
        <g id="Grupo_1171383" data-name="Grupo 1171383">
          <path id="Trazado_1024649" data-name="Trazado 1024649" d="M23,39.5a1,1,0,0,1-1-1v-6a1,1,0,1,1,2,0v6A1,1,0,0,1,23,39.5Z"/>
        </g>
        <g id="Grupo_1171384" data-name="Grupo 1171384">
          <path id="Trazado_1024650" data-name="Trazado 1024650" d="M1,39.5a1,1,0,0,1-1-1v-6a1,1,0,1,1,2,0v6a1,1,0,0,1-1,1Z"/>
        </g>
        <g id="Grupo_1171385" data-name="Grupo 1171385">
          <path id="Trazado_1024651" data-name="Trazado 1024651" d="M24,33.5H13a1,1,0,0,1,0-2H24a1,1,0,0,1,0,2Z"/>
        </g>
        <g id="Grupo_1171386" data-name="Grupo 1171386">
          <path id="Trazado_1024652" data-name="Trazado 1024652" d="M14,39.5a1,1,0,0,1-.985-.836l-1-6a1,1,0,0,1,1.972-.328l1,6a1,1,0,0,1-.822,1.15A.927.927,0,0,1,14,39.5Z"/>
        </g>
        <g id="Grupo_1171387" data-name="Grupo 1171387">
          <path id="Trazado_1024653" data-name="Trazado 1024653" d="M33,40.5H27a1,1,0,1,1,0-2h6a1,1,0,0,1,0,2Z"/>
        </g>
        <g id="Grupo_1171388" data-name="Grupo 1171388">
          <path id="Trazado_1024654" data-name="Trazado 1024654" d="M27,36.5a1,1,0,0,1-.449-1.9l4-2a1,1,0,1,1,.9,1.789l-4,2A.991.991,0,0,1,27,36.5Z"/>
        </g>
        <g id="Grupo_1171389" data-name="Grupo 1171389">
          <path id="Trazado_1024655" data-name="Trazado 1024655" d="M31,46.5a1,1,0,0,1-.446-.1l-4-2a1,1,0,1,1,.9-1.789l4,2A1,1,0,0,1,31,46.5Z"/>
        </g>
        <g id="Grupo_1171390" data-name="Grupo 1171390">
          <path id="Trazado_1024656" data-name="Trazado 1024656" d="M24,33.5a1,1,0,0,1-1-1V32a1,1,0,0,1,2,0v.5A1,1,0,0,1,24,33.5Z"/>
        </g>
        <g id="Grupo_1171391" data-name="Grupo 1171391">
          <path id="Trazado_1024657" data-name="Trazado 1024657" d="M25,22.5a1,1,0,0,1-1-1v-1H22a1,1,0,0,1-1-1V1.5a1,1,0,0,1,1-1H40a1,1,0,0,1,1,1v18a1,1,0,0,1-1,1H29.236l-3.789,1.9A1,1,0,0,1,25,22.5Zm-2-4h2a1,1,0,0,1,1,1v.382l2.553-1.276A.99.99,0,0,1,29,18.5H39V2.5H23Z"/>
        </g>
        <g id="Grupo_1171392" data-name="Grupo 1171392">
          <path id="Trazado_1024658" data-name="Trazado 1024658" d="M31,12.5a1,1,0,0,1-1-1v-5a1,1,0,0,1,2,0v5A1,1,0,0,1,31,12.5Z"/>
        </g>
        <g id="Grupo_1171393" data-name="Grupo 1171393">
          <path id="Trazado_1024659" data-name="Trazado 1024659" d="M31.03,15.5a1,1,0,0,1-.011-2h.011a1,1,0,0,1,0,2Z"/>
        </g>
        <g id="Grupo_1171394" data-name="Grupo 1171394">
          <path id="Trazado_1024660" data-name="Trazado 1024660" d="M10,38.5a1,1,0,0,1-1-1,1,1,0,1,0-2,0,1,1,0,0,1-2,0,3,3,0,1,1,6,0A1,1,0,0,1,10,38.5Z"/>
        </g>
        <g id="Grupo_1171395" data-name="Grupo 1171395">
          <path id="Trazado_1024661" data-name="Trazado 1024661" d="M14,39.5H10a1,1,0,0,1,0-2h4a1,1,0,0,1,0,2Z"/>
        </g>
        <g id="Grupo_1171396" data-name="Grupo 1171396">
          <path id="Trazado_1024662" data-name="Trazado 1024662" d="M2,42.5a1,1,0,0,1,0-2,3,3,0,0,0,3-3,1,1,0,0,1,2,0A5.006,5.006,0,0,1,2,42.5Z"/>
        </g>
        <g id="Grupo_1171397" data-name="Grupo 1171397">
          <path id="Trazado_1024663" data-name="Trazado 1024663" d="M2,42.5H1.416a1,1,0,0,1,0-2H2a1,1,0,0,1,0,2Z"/>
        </g>
        <g id="Grupo_1171398" data-name="Grupo 1171398">
          <path id="Trazado_1024664" data-name="Trazado 1024664" d="M10,39.5a1,1,0,0,1-1-1v-1a1,1,0,0,1,2,0v1A1,1,0,0,1,10,39.5Z"/>
        </g>
      </g>
    </g>
  </g>
</svg>
