<svg xmlns="http://www.w3.org/2000/svg" xmlns:xlink="http://www.w3.org/1999/xlink" width="110" height="110" viewBox="0 0 110 110">
  <defs>
    <filter id="Trazado_982547" x="0" y="0" width="110" height="110" filterUnits="userSpaceOnUse">
      <feOffset dy="3" input="SourceAlpha"/>
      <feGaussianBlur stdDeviation="3" result="blur"/>
      <feFlood flood-opacity="0.161"/>
      <feComposite operator="in" in2="blur"/>
      <feComposite in="SourceGraphic"/>
    </filter>
  </defs>
  <g id="Grupo_1171468" data-name="Grupo 1171468" transform="translate(-8455.19 -1548.469)">
    <g id="Grupo_1171110" data-name="Grupo 1171110" transform="translate(7658 -411.054)">
      <g id="Grupo_1164703" data-name="Grupo 1164703" transform="translate(806.19 1965.523)">
        <g id="Grupo_1160931" data-name="Grupo 1160931" transform="translate(0)">
          <g id="Grupo_1160749" data-name="Grupo 1160749" transform="translate(0)">
            <g id="Grupo_1158891" data-name="Grupo 1158891" transform="translate(0 0)">
              <g id="Grupo_1157406" data-name="Grupo 1157406" transform="translate(0)">
                <g id="Grupo_1155793" data-name="Grupo 1155793" transform="translate(0)">
                  <g id="Grupo_1154704" data-name="Grupo 1154704" transform="translate(0)">
                    <g id="Grupo_1150790" data-name="Grupo 1150790" transform="translate(0)">
                      <g id="Grupo_1154214" data-name="Grupo 1154214" transform="translate(0)">
                        <g id="Grupo_1152583" data-name="Grupo 1152583" transform="translate(0 0)">
                          <g id="Grupo_1146973" data-name="Grupo 1146973" transform="translate(0 0)">
                            <g id="Grupo_1146954" data-name="Grupo 1146954">
                              <g transform="matrix(1, 0, 0, 1, -9, -6)" filter="url(#Trazado_982547)">
                                <g id="Trazado_982547-2" data-name="Trazado 982547" transform="translate(9 6)" fill="#edf3fc">
                                  <path d="M 46.00000381469727 90.49988555908203 C 39.99188232421875 90.49988555908203 34.16427230834961 89.32352447509766 28.67905807495117 87.00347137451172 C 23.38020324707031 84.76226043701172 18.62104415893555 81.55342864990234 14.53375053405762 77.46615600585938 C 10.44647026062012 73.37887573242188 7.237643718719482 68.61971282958984 4.996417045593262 63.32085800170898 C 2.676363706588745 57.83565902709961 1.500003814697266 52.00806045532227 1.500003814697266 45.99993896484375 C 1.500003814697266 39.99181747436523 2.676363706588745 34.16421890258789 4.996417045593262 28.67901802062988 C 7.237643718719482 23.38017845153809 10.44647026062012 18.62101936340332 14.53375053405762 14.53373908996582 C 18.62104415893555 10.44645881652832 23.38020324707031 7.237632274627686 28.67905807495117 4.996418952941895 C 34.16427230834961 2.676365613937378 39.99188232421875 1.500005602836609 46.00000381469727 1.500005602836609 C 52.00812530517578 1.500005602836609 57.83573532104492 2.676365613937378 63.32094955444336 4.996418952941895 C 68.61980438232422 7.237632274627686 73.37897491455078 10.44645881652832 77.46625518798828 14.53373908996582 C 81.55355072021484 18.62101936340332 84.76236724853516 23.38017845153809 87.00359344482422 28.67901802062988 C 89.32364654541016 34.16421890258789 90.5 39.99181747436523 90.5 45.99993896484375 C 90.5 52.00806045532227 89.32364654541016 57.83565902709961 87.00359344482422 63.32085800170898 C 84.76236724853516 68.61971282958984 81.55355072021484 73.37887573242188 77.46625518798828 77.46615600585938 C 73.37897491455078 81.55342864990234 68.61980438232422 84.76226043701172 63.32094955444336 87.00347137451172 C 57.83573532104492 89.32352447509766 52.00812530517578 90.49988555908203 46.00000381469727 90.49988555908203 Z" stroke="none"/>
                                  <path d="M 46.00000381469727 2.999992370605469 C 40.19371795654297 2.999992370605469 34.56270217895508 4.136497497558594 29.26338958740234 6.377906799316406 C 24.14333343505859 8.543510437011719 19.54441833496094 11.64437866210938 15.59440612792969 15.59439849853516 C 11.64440155029297 19.54439544677734 8.54351806640625 24.14329528808594 6.377914428710938 29.26335144042969 C 4.136505126953125 34.56266784667969 3.000007629394531 40.19366836547852 3.000007629394531 45.99993896484375 C 3.000007629394531 51.80620956420898 4.136505126953125 57.43722534179688 6.377914428710938 62.73654174804688 C 8.54351806640625 67.85658264160156 11.64440155029297 72.45548248291016 15.59440612792969 76.40549468994141 C 19.54441833496094 80.35549926757812 24.14333343505859 83.45636749267578 29.26337432861328 85.62196350097656 C 34.56270217895508 87.86338043212891 40.19371795654297 88.9998779296875 46.00000381469727 88.9998779296875 C 51.80628967285156 88.9998779296875 57.43730545043945 87.86338043212891 62.73663330078125 85.62196350097656 C 67.85667419433594 83.45636749267578 72.45558929443359 80.35549926757812 76.40560150146484 76.40549468994141 C 80.35560607910156 72.45548248291016 83.45648956298828 67.85658264160156 85.62208557128906 62.73654174804688 C 87.86350250244141 57.43722534179688 89 51.80620956420898 89 45.99993896484375 C 89 40.19366836547852 87.86350250244141 34.56266784667969 85.62208557128906 29.26335144042969 C 83.45648956298828 24.14329528808594 80.35560607910156 19.54439544677734 76.40560150146484 15.59439849853516 C 72.45558929443359 11.64437866210938 67.85667419433594 8.543510437011719 62.73661804199219 6.377906799316406 C 57.43730545043945 4.136497497558594 51.80628967285156 2.999992370605469 46.00000381469727 2.999992370605469 M 46.00000381469727 -7.62939453125e-06 C 71.40510559082031 -7.62939453125e-06 92 20.59487915039062 92 45.99993896484375 C 92 71.40501403808594 71.40510559082031 91.99988555908203 46.00000381469727 91.99988555908203 C 20.59490203857422 91.99988555908203 7.62939453125e-06 71.40501403808594 7.62939453125e-06 45.99993896484375 C 7.62939453125e-06 20.59487915039062 20.59490203857422 -7.62939453125e-06 46.00000381469727 -7.62939453125e-06 Z" stroke="none" fill="#5692e8"/>
                                </g>
                              </g>
                            </g>
                          </g>
                        </g>
                      </g>
                    </g>
                  </g>
                </g>
              </g>
            </g>
          </g>
        </g>
      </g>
    </g>
    <g id="g1677" transform="translate(8477.133 2242.688)">
      <g id="g1679" transform="translate(1.362 -664.619)">
        <g id="Grupo_1171467" data-name="Grupo 1171467" transform="translate(0 0)">
          <g id="g1687" transform="translate(33.017 22.802)">
            <path id="path1689" d="M-251.322-24.147l-6.734-2.608c-.681.753-1.422,1.564-2.132,2.336a4.312,4.312,0,0,1-6.348,0c-.7-.758-1.425-1.554-2.095-2.3l-6.623,2.567a5.5,5.5,0,0,0-3.213,4.983V-6.019A1.262,1.262,0,0,0-277.2-4.757h27.832a1.262,1.262,0,0,0,1.262-1.262V-19.163a5.5,5.5,0,0,0-3.213-4.983" transform="translate(278.466 26.755)" fill="#ffc850"/>
          </g>
          <g id="g1691" transform="translate(40.167 0.129)">
            <path id="path1693" d="M-74.968,0a8.1,8.1,0,0,0-8.1,8.1v11.42a1.074,1.074,0,0,0,1.074,1.074h14.047a1.074,1.074,0,0,0,1.074-1.074V8.1a8.1,8.1,0,0,0-8.1-8.1" transform="translate(83.065 0)" fill="#5e6377"/>
          </g>
          <g id="g1695" transform="translate(40.167 0.129)">
            <path id="path1697" d="M-33.694-180.709v-11.42a8.1,8.1,0,0,1,6.277-7.889,8.117,8.117,0,0,0-1.82-.208,8.1,8.1,0,0,0-8.1,8.1v11.42a1.074,1.074,0,0,0,1.074,1.074h3.639a1.074,1.074,0,0,1-1.074-1.074" transform="translate(37.333 200.226)" fill="#52586d"/>
          </g>
          <g id="g1699" transform="translate(42.76 19.558)">
            <path id="path1701" d="M-80.681-22.1v-2.375a5.707,5.707,0,0,1-3.2.975,6.01,6.01,0,0,1-3.371-.986V-22.1a.148.148,0,0,1-.094.138l-2.052.8c.695.769,1.459,1.605,2.187,2.4a4.312,4.312,0,0,0,6.348,0c.741-.806,1.519-1.657,2.223-2.437l-1.95-.755a.148.148,0,0,1-.094-.138" transform="translate(89.394 24.483)" fill="#f0a479"/>
          </g>
          <g id="g1703" transform="translate(42.76 19.558)">
            <path id="path1705" d="M-57.144-8.787a5.781,5.781,0,0,1-.654.037,6.011,6.011,0,0,1-3.371-.986V-7.35a.148.148,0,0,1-.094.138l-2.052.8c.695.769,1.459,1.605,2.187,2.4A4.3,4.3,0,0,0-57.144-2.7Z" transform="translate(63.316 9.736)" fill="#e5966e"/>
          </g>
          <g id="g1707" transform="translate(53.972 10.582)">
            <path id="path1709" d="M-.036-.4V3.88c0,.051,0,.1,0,.153A2.319,2.319,0,0,0,2.792,1.816,2.319,2.319,0,0,0-.036-.4" transform="translate(0.04 0.444)" fill="#f0a479"/>
          </g>
          <g id="g1711" transform="translate(53.972 10.582)">
            <path id="path1713" d="M-16.881-3.684A2.468,2.468,0,0,0-18.7-4.039V.241c0,.051,0,.1,0,.153A2.468,2.468,0,0,0-16.881.04Z" transform="translate(18.704 4.082)" fill="#e5966e"/>
          </g>
          <g id="g1715" transform="translate(42.41 7.172)">
            <path id="path1717" d="M-104.887-21.8a8.309,8.309,0,0,1-3.482-2.192.535.535,0,0,0-.786.02,18.143,18.143,0,0,1-6.71,4.915.535.535,0,0,0-.35.5v2.135a5.776,5.776,0,0,0,5.937,5.77,5.777,5.777,0,0,0,5.77-5.77V-21.29a.535.535,0,0,0-.38-.512" transform="translate(116.216 24.157)" fill="#f7b594"/>
          </g>
          <g id="g1719" transform="translate(42.41 10.451)">
            <path id="path1721" d="M-33.971-41.248V-45.7a14.074,14.074,0,0,1-3.319,1.818.535.535,0,0,0-.35.5v2.135a5.776,5.776,0,0,0,5.937,5.77,5.747,5.747,0,0,0,1.775-.28,5.733,5.733,0,0,1-4.043-5.49" transform="translate(37.64 45.703)" fill="#f0a479"/>
          </g>
          <g id="g1723" transform="translate(0 22.649)">
            <path id="path1725" d="M-251.322-24.377l-6.8-2.633c-.663.733-1.381,1.518-2.068,2.265a4.311,4.311,0,0,1-6.347,0c-.675-.734-1.378-1.5-2.031-2.225l-6.687,2.592a5.5,5.5,0,0,0-3.213,4.983v12.8a1.735,1.735,0,0,0,1.735,1.735h26.886a1.735,1.735,0,0,0,1.735-1.735v-12.8a5.5,5.5,0,0,0-3.213-4.983" transform="translate(278.466 27.009)" fill="#00c3ff"/>
          </g>
          <g id="g1727" transform="translate(0 24.856)">
            <path id="path1729" d="M-39.918,0l-1.1.426a5.5,5.5,0,0,0-3.213,4.983v12.8a1.735,1.735,0,0,0,1.735,1.735h1.5V3.18A5.026,5.026,0,0,1-39.918,0" transform="translate(44.229)" fill="#00aaf0"/>
          </g>
          <g id="g1731" transform="translate(9.744 18.813)">
            <path id="path1733" d="M-84.7-30.3a.68.68,0,0,1-.435-.634v-2.638a5.74,5.74,0,0,1-3.269,1.019,6.061,6.061,0,0,1-3.3-.932v2.552a.68.68,0,0,1-.434.634l-1.712.664c.695.769,1.459,1.605,2.187,2.4a4.312,4.312,0,0,0,6.348,0c.741-.806,1.519-1.657,2.223-2.437Z" transform="translate(93.853 33.573)" fill="#f0a479"/>
          </g>
          <g id="g1735" transform="translate(9.744 18.9)">
            <path id="path1737" d="M-56.6-8.268a5.8,5.8,0,0,1-.669.039,6.06,6.06,0,0,1-3.3-.932V-6.61A.68.68,0,0,1-61-5.976l-1.712.664c.695.769,1.459,1.605,2.187,2.4A4.3,4.3,0,0,0-56.6-1.589Z" transform="translate(62.716 9.161)" fill="#e5966e"/>
          </g>
          <g id="g1739" transform="translate(7.246 0)">
            <path id="path1741" d="M-19.787-97.157v-.373a.535.535,0,0,1,.574-.534A13.574,13.574,0,0,0-10.88-100.2a.535.535,0,0,1,.685.083c2,2.148,1.851,1.93,1.851,2.21v.745a3.034,3.034,0,0,1,2.137.7v-3.329a7.858,7.858,0,0,0-7.858-7.858,7.858,7.858,0,0,0-7.858,7.858V-96.4a3.274,3.274,0,0,1,2.137-.757" transform="translate(21.924 107.65)" fill="#5e6377"/>
          </g>
          <g id="g1743" transform="translate(7.246 0)">
            <path id="path1745" d="M-34.778-72.758a7.86,7.86,0,0,1,5.98-7.631,7.874,7.874,0,0,0-1.878-.228,7.858,7.858,0,0,0-7.858,7.858v3.392a3.273,3.273,0,0,1,2.137-.757V-70.5a.535.535,0,0,1,.574-.534c.35.025.7.035,1.045.033Z" transform="translate(38.535 80.616)" fill="#52586d"/>
          </g>
          <g id="g1747" transform="translate(20.917 10.075)">
            <path id="path1749" d="M-.039-.053V4.276c0,.055,0,.109,0,.163A2.487,2.487,0,0,0,2.714,2.193,2.486,2.486,0,0,0-.039-.053" transform="translate(0.043 0.058)" fill="#f0a479"/>
          </g>
          <g id="g1751" transform="translate(6.535 10.086)">
            <path id="path1753" d="M-25.789-40.023v-4.321c-1.31-.042-2.785.937-2.785,2.239a2.508,2.508,0,0,0,2.789,2.245c0-.054,0-.109,0-.163" transform="translate(28.575 44.345)" fill="#f0a479"/>
          </g>
          <g id="g1755" transform="translate(20.917 10.075)">
            <path id="path1757" d="M-18.943-6.668a2.764,2.764,0,0,0-2.042-.715v4.328c0,.055,0,.109,0,.163a2.762,2.762,0,0,0,2.046-.715Z" transform="translate(20.989 7.389)" fill="#e5966e"/>
          </g>
          <g id="g1759" transform="translate(6.535 10.086)">
            <path id="path1761" d="M-25.789-35.15a2.1,2.1,0,0,1-.744-1.556,2,2,0,0,1,.744-1.494v-.745c-1.31-.042-2.785.937-2.785,2.239a2.508,2.508,0,0,0,2.789,2.246c0-.054,0-.109,0-.163Z" transform="translate(28.575 38.947)" fill="#e5966e"/>
          </g>
          <g id="g1763" transform="translate(9.248 6.819)">
            <path id="path1765" d="M-90.057-1.58a.535.535,0,0,0-.685-.083A14.068,14.068,0,0,1-99.21.61a.536.536,0,0,0-.574.534V5.839a5.779,5.779,0,0,0,5.94,5.773,5.78,5.78,0,0,0,5.773-5.773V.765c0-.28.012-.2-1.987-2.346" transform="translate(99.784 1.751)" fill="#f7b594"/>
          </g>
          <g id="g1767" transform="translate(9.248 8.993)">
            <path id="path1769" d="M-35.014-50.146v-5.416a12.821,12.821,0,0,1-3.208.188.535.535,0,0,0-.574.534v4.695a5.779,5.779,0,0,0,5.94,5.773,5.749,5.749,0,0,0,1.831-.3,5.735,5.735,0,0,1-3.989-5.474" transform="translate(38.796 55.563)" fill="#f0a479"/>
          </g>
          <g id="g1787" transform="translate(16.326 34.144)">
            <path id="path1789" d="M0-98.667H28.408V-102.2A5.151,5.151,0,0,0,25.4-106.86l-6.362-2.464c-.62.686-1.292,1.421-1.935,2.12a4.034,4.034,0,0,1-5.94,0c-.631-.687-1.29-1.407-1.9-2.082L3.007-106.86A5.151,5.151,0,0,0,0-102.2Z" transform="translate(0 109.324)" fill="#f25c5c"/>
          </g>
          <g id="g1791" transform="translate(25.444 30.554)">
            <path id="path1793" d="M-79.269-28.356a.636.636,0,0,1-.407-.594v-2.469a5.37,5.37,0,0,1-3.06.953,5.673,5.673,0,0,1-3.086-.872v2.388a.636.636,0,0,1-.406.593l-1.6.621c.65.72,1.365,1.5,2.047,2.243a4.035,4.035,0,0,0,5.94,0c.693-.754,1.422-1.55,2.081-2.281Z" transform="translate(87.83 31.419)" fill="#f0a479"/>
          </g>
          <g id="g1795" transform="translate(25.444 30.636)">
            <path id="path1797" d="M-52.97-7.738A5.441,5.441,0,0,1-53.6-7.7a5.671,5.671,0,0,1-3.086-.872v2.388a.637.637,0,0,1-.406.594l-1.6.621c.65.72,1.365,1.5,2.047,2.243A4.028,4.028,0,0,0-52.97-1.487Z" transform="translate(58.691 8.573)" fill="#e5966e"/>
          </g>
          <g id="g1799" transform="translate(16.326 36.209)">
            <path id="path1801" d="M-28.058-79.546v-5.615a4.7,4.7,0,0,1,1-2.976l-1.028.4a5.151,5.151,0,0,0-3.007,4.664v3.529Z" transform="translate(31.088 88.137)" fill="#e54a4a"/>
          </g>
          <g id="g1803" transform="translate(23.107 12.948)">
            <path id="path1805" d="M-18.516-90.922v-.349a.5.5,0,0,1,.537-.5,12.7,12.7,0,0,0,7.8-2,.5.5,0,0,1,.641.078c1.87,2.01,1.732,1.806,1.732,2.069v.412s0,.009,0,.014v.271a2.84,2.84,0,0,1,2,.656v-3.115a7.354,7.354,0,0,0-7.354-7.354,7.354,7.354,0,0,0-7.354,7.354v3.174a3.064,3.064,0,0,1,2-.708" transform="translate(20.516 100.742)" fill="#5e6377"/>
          </g>
          <g id="g1807" transform="translate(23.107 12.948)">
            <path id="path1809" d="M-32.546-68.089a7.356,7.356,0,0,1,5.6-7.141,7.369,7.369,0,0,0-1.758-.213,7.354,7.354,0,0,0-7.354,7.354v3.174a3.064,3.064,0,0,1,2-.708v-.349a.5.5,0,0,1,.537-.5c.327.024.653.033.978.031Z" transform="translate(36.061 75.442)" fill="#52586d"/>
          </g>
          <g id="g1811" transform="translate(35.901 22.376)">
            <path id="path1813" d="M-.036-.049V4c0,.051,0,.1,0,.153a2.328,2.328,0,0,0,2.579-2.1A2.327,2.327,0,0,0-.036-.049" transform="translate(0.04 0.055)" fill="#f0a479"/>
          </g>
          <g id="g1815" transform="translate(22.442 22.387)">
            <path id="path1817" d="M-24.133-37.453V-41.5A2.458,2.458,0,0,0-26.74-39.4a2.347,2.347,0,0,0,2.61,2.1c0-.051,0-.1,0-.153" transform="translate(26.74 41.498)" fill="#f0a479"/>
          </g>
          <g id="g1819" transform="translate(35.901 22.377)">
            <path id="path1821" d="M-17.727-6.24a2.587,2.587,0,0,0-1.911-.669v4.05c0,.051,0,.1,0,.153a2.584,2.584,0,0,0,1.915-.669Z" transform="translate(19.641 6.914)" fill="#e5966e"/>
          </g>
          <g id="g1823" transform="translate(22.442 22.387)">
            <path id="path1825" d="M-24.133-32.894a1.962,1.962,0,0,1-.7-1.457,1.875,1.875,0,0,1,.7-1.4v-.7a2.458,2.458,0,0,0-2.607,2.095,2.347,2.347,0,0,0,2.61,2.1c0-.051,0-.1,0-.153Z" transform="translate(26.74 36.447)" fill="#e5966e"/>
          </g>
          <g id="g1827" transform="translate(24.98 19.329)">
            <path id="path1829" d="M-84.277-1.479a.5.5,0,0,0-.641-.078A13.164,13.164,0,0,1-92.843.571a.5.5,0,0,0-.537.5V5.464a5.408,5.408,0,0,0,5.559,5.4,5.409,5.409,0,0,0,5.4-5.4V.716c0-.262.011-.185-1.859-2.2" transform="translate(93.38 1.639)" fill="#f7b594"/>
          </g>
          <g id="g1831" transform="translate(24.98 21.364)">
            <path id="path1833" d="M-32.766-46.929V-52a11.994,11.994,0,0,1-3,.176.5.5,0,0,0-.537.5v4.393a5.408,5.408,0,0,0,5.559,5.4,5.379,5.379,0,0,0,1.713-.28,5.367,5.367,0,0,1-3.733-5.122" transform="translate(36.305 51.997)" fill="#f0a479"/>
          </g>
          <g id="g1835" transform="translate(51.506 14.002)">
            <path id="path1837" d="M-23.486-7.531a5.732,5.732,0,0,1-2.537,4.6v.974h4.213a.531.531,0,0,0,.531-.531V-8.344A2.668,2.668,0,0,1-23.486-7.531Z" transform="translate(26.023 8.344)" fill="none" stroke="#000" stroke-linecap="round" stroke-linejoin="round" stroke-miterlimit="10" stroke-width="1.5"/>
          </g>
          <g id="g1839" transform="translate(42.415 6.975)">
            <path id="path1841" d="M-72.172-1.5a.532.532,0,0,0-.781.019,17.658,17.658,0,0,1-7.013,5h0v2.5c0,3.441,3.1,6.542,7.56,5.543a5.52,5.52,0,0,0,4.072-5.138V.781A7.967,7.967,0,0,1-72.172-1.5Z" transform="translate(79.966 1.658)" fill="none" stroke="#000" stroke-linecap="round" stroke-linejoin="round" stroke-miterlimit="10" stroke-width="1.5"/>
          </g>
          <g id="g1843" transform="translate(54.042 10.353)">
            <path id="path1845" d="M-.036-.127V4.166c0,.052,0,.1,0,.156A2.451,2.451,0,0,0,2.747,2.1,2.451,2.451,0,0,0-.036-.127Z" transform="translate(0.04 0.14)" fill="none" stroke="#000" stroke-linecap="round" stroke-linejoin="round" stroke-miterlimit="10" stroke-width="1.5"/>
          </g>
          <g id="g1847" transform="translate(9.255 6.647)">
            <path id="path1849" d="M-87.089-.012a0,0,0,0,0-.005,0A14.069,14.069,0,0,1-95.921,2.51a.535.535,0,0,0-.573.533V7.732c0,3.462,3.116,6.579,7.6,5.575a5.555,5.555,0,0,0,4.1-5.17V2.664C-84.795,2.371-84.782,2.476-87.089-.012Z" transform="translate(96.494 0.013)" fill="none" stroke="#000" stroke-linecap="round" stroke-linejoin="round" stroke-miterlimit="10" stroke-width="1.5"/>
          </g>
          <g id="g1851" transform="translate(7.256)">
            <path id="path1853" d="M-18.511-93.289v-.373a.535.535,0,0,1,.573-.533A14.07,14.07,0,0,0-9.11-96.717a0,0,0,0,1,.005,0c2.307,2.488,2.294,2.382,2.294,2.676v.745a2.7,2.7,0,0,1,2,.7v-3.24a7.4,7.4,0,0,0-4.508-6.836,7.9,7.9,0,0,0-11.19,7.157v2.982A2.925,2.925,0,0,1-18.511-93.289Z" transform="translate(20.511 103.365)" fill="none" stroke="#000" stroke-linecap="round" stroke-linejoin="round" stroke-miterlimit="10" stroke-width="1.5"/>
          </g>
          <g id="g1855" transform="translate(20.95 10.063)">
            <path id="path1857" d="M-.039-.052V4.271c0,.055,0,.109,0,.163A2.459,2.459,0,0,0,2.671,2.191,2.458,2.458,0,0,0-.039-.052Z" transform="translate(0.043 0.058)" fill="none" stroke="#000" stroke-linecap="round" stroke-linejoin="round" stroke-miterlimit="10" stroke-width="1.5"/>
          </g>
          <g id="g1859" transform="translate(6.545 10.074)">
            <path id="path1861" d="M-25.089-39.976v-4.316a2.573,2.573,0,0,0-2.71,2.236,2.459,2.459,0,0,0,2.714,2.243C-25.086-39.867-25.089-39.921-25.089-39.976Z" transform="translate(27.799 44.293)" fill="none" stroke="#000" stroke-linecap="round" stroke-linejoin="round" stroke-miterlimit="10" stroke-width="1.5"/>
          </g>
          <g id="g1863" transform="translate(9.75 19.141)">
            <path id="path1865" d="M-81.46-25.813a.148.148,0,0,1-.094-.138V-28.6a5.732,5.732,0,0,1-3.266,1.017,6.054,6.054,0,0,1-3.294-.931v2.563a.148.148,0,0,1-.094.138l-2.05.795c.821.909,1.739,1.911,2.58,2.823a3.773,3.773,0,0,0,5.55,0c.853-.926,1.786-1.944,2.616-2.863Z" transform="translate(90.258 28.601)" fill="none" stroke="#000" stroke-linecap="round" stroke-linejoin="round" stroke-miterlimit="10" stroke-width="1.5"/>
          </g>
          <g id="g1867" transform="translate(0.018 19.141)">
            <path id="path1869" d="M-151.163-203.712a5.151,5.151,0,0,1,3.007-4.664l7.714-2.991a.637.637,0,0,0,.407-.594v-2.061a5.377,5.377,0,0,1-2.473-4.531c0,.051,0,.1,0,.152a2.3,2.3,0,0,1-2.542-2.1,1.71,1.71,0,0,1,.218-.827l-4.13-1.6a.148.148,0,0,1-.094-.138v-2.65a5.732,5.732,0,0,1-3.266,1.017,6.054,6.054,0,0,1-3.294-.931v2.563a.148.148,0,0,1-.094.138l-8.573,3.324a5.5,5.5,0,0,0-3.209,4.978v13.309a1.261,1.261,0,0,0,1.261,1.261h15.065Z" transform="translate(167.489 225.714)" fill="none" stroke="#000" stroke-linecap="round" stroke-linejoin="round" stroke-miterlimit="10" stroke-width="1.5"/>
          </g>
          <g id="g1871" transform="translate(33.617 19.407)">
            <path id="path1873" d="M-245.966-54.118l-8.242-3.192a.679.679,0,0,1-.434-.634v-2.008a5.7,5.7,0,0,1-3.192.974,6,6,0,0,1-3.367-.985v2.384a.148.148,0,0,1-.094.138l-6.356,2.464a2.309,2.309,0,0,1-2.54,2.064,5.4,5.4,0,0,1-2.339,4.3v2.142a.637.637,0,0,0,.407.594l7.722,2.991a5.151,5.151,0,0,1,3.007,4.664v3.658h17.378a1.261,1.261,0,0,0,1.261-1.261V-49.14A5.5,5.5,0,0,0-245.966-54.118Z" transform="translate(272.531 59.963)" fill="none" stroke="#000" stroke-linecap="round" stroke-linejoin="round" stroke-miterlimit="10" stroke-width="1.5"/>
          </g>
          <g id="g1875" transform="translate(42.802 19.407)">
            <path id="path1877" d="M-80.587-22.07v-2.372a5.7,5.7,0,0,1-3.192.974,6,6,0,0,1-3.367-.985v2.384a.148.148,0,0,1-.094.138l-2.05.795c.694.769,1.457,1.6,2.185,2.394a4.307,4.307,0,0,0,6.34,0c.74-.8,1.517-1.655,2.221-2.434l-1.948-.754A.147.147,0,0,1-80.587-22.07Z" transform="translate(89.29 24.453)" fill="none" stroke="#000" stroke-linecap="round" stroke-linejoin="round" stroke-miterlimit="10" stroke-width="1.5"/>
          </g>
          <g id="g1879" transform="translate(40.212 0)">
            <path id="path1881" d="M-43.838-179.69h0a5.708,5.708,0,0,1-2.532-4.748v-2.5h0a17.66,17.66,0,0,0,7.013-5,.532.532,0,0,1,.781-.02,7.965,7.965,0,0,0,3.837,2.277v.953a2.669,2.669,0,0,1,2.2.814V-191.4a7.563,7.563,0,0,0-4.613-7,8.072,8.072,0,0,0-11.425,7.315v11.842a.531.531,0,0,0,.531.531h4.2Z" transform="translate(48.573 199.097)" fill="none" stroke="#000" stroke-linecap="round" stroke-linejoin="round" stroke-miterlimit="10" stroke-width="1.5"/>
          </g>
          <g id="g1883" transform="translate(51.506 14.002)">
            <path id="path1885" d="M-23.485-7.532a5.732,5.732,0,0,1-2.536,4.6v.974h4.213a.531.531,0,0,0,.531-.531V-8.345A2.669,2.669,0,0,1-23.485-7.532Z" transform="translate(26.021 8.345)" fill="none" stroke="#000" stroke-linecap="round" stroke-linejoin="round" stroke-miterlimit="10" stroke-width="1.5"/>
          </g>
          <g id="g1891" transform="translate(24.998 19.201)">
            <path id="path1893" d="M-84.277-1.479a.5.5,0,0,0-.641-.078A13.164,13.164,0,0,1-92.843.571a.5.5,0,0,0-.537.5V5.464a5.408,5.408,0,0,0,5.559,5.4,5.409,5.409,0,0,0,5.4-5.4V.716C-82.418.454-82.407.532-84.277-1.479Z" transform="translate(93.38 1.639)" fill="none" stroke="#000" stroke-linecap="round" stroke-linejoin="round" stroke-miterlimit="10" stroke-width="1.5"/>
          </g>
          <g id="g1895" transform="translate(23.125 12.82)">
            <path id="path1897" d="M-17.344-87.4v-.349a.5.5,0,0,1,.537-.5,13.165,13.165,0,0,0,7.924-2.128.5.5,0,0,1,.641.078c1.87,2.011,1.859,1.933,1.859,2.2v.412s0,.009,0,.014v.271a2.53,2.53,0,0,1,1.873.655V-89.49a7.354,7.354,0,0,0-7.354-7.354,7.354,7.354,0,0,0-7.354,7.354V-86.7A2.741,2.741,0,0,1-17.344-87.4Z" transform="translate(19.217 96.844)" fill="none" stroke="#000" stroke-linecap="round" stroke-linejoin="round" stroke-miterlimit="10" stroke-width="1.5"/>
          </g>
          <g id="g1899" transform="translate(35.956 22.248)">
            <path id="path1901" d="M-.035-.049V4c0,.051,0,.1,0,.153A2.3,2.3,0,0,0,2.5,2.052,2.3,2.3,0,0,0-.035-.049Z" transform="translate(0.039 0.055)" fill="none" stroke="#000" stroke-linecap="round" stroke-linejoin="round" stroke-miterlimit="10" stroke-width="1.5"/>
          </g>
          <g id="g1903" transform="translate(22.46 22.259)">
            <path id="path1905" d="M-23.506-37.453V-41.5A2.411,2.411,0,0,0-26.045-39.4,2.3,2.3,0,0,0-23.5-37.3C-23.5-37.351-23.506-37.4-23.506-37.453Z" transform="translate(26.045 41.498)" fill="none" stroke="#000" stroke-linecap="round" stroke-linejoin="round" stroke-miterlimit="10" stroke-width="1.5"/>
          </g>
          <g id="g1907" transform="translate(25.365 30.753)">
            <path id="path1909" d="M-47.988-55.848a6.4,6.4,0,0,0,5.182-2.636l-1.706-.661a.637.637,0,0,1-.407-.594V-61.88a5.371,5.371,0,0,1-3.06.953,5.672,5.672,0,0,1-3.086-.872v2.06a.637.637,0,0,1-.407.594l-1.7.659A6.4,6.4,0,0,0-47.988-55.848Z" transform="translate(53.171 61.88)" fill="none" stroke="#000" stroke-linecap="round" stroke-linejoin="round" stroke-miterlimit="10" stroke-width="1.5"/>
          </g>
          <g id="g1911" transform="translate(48.231 26.507)">
            <path id="path1913" d="M0,0V4.169" fill="none" stroke="#000" stroke-linecap="round" stroke-linejoin="round" stroke-miterlimit="10" stroke-width="1.5"/>
          </g>
          <g id="g1915" transform="translate(15.179 26.763)">
            <path id="path1917" d="M0,0V3.913" fill="none" stroke="#000" stroke-linecap="round" stroke-linejoin="round" stroke-miterlimit="10" stroke-width="1.5"/>
          </g>
          <g id="g1919" transform="translate(5.971 34.194)">
            <path id="path1921" d="M0,0V10.478" fill="none" stroke="#000" stroke-linecap="round" stroke-linejoin="round" stroke-miterlimit="10" stroke-width="1.5"/>
          </g>
          <g id="g1923" transform="translate(57.438 34.194)">
            <path id="path1925" d="M0,0V10.478" fill="none" stroke="#000" stroke-linecap="round" stroke-linejoin="round" stroke-miterlimit="10" stroke-width="1.5"/>
          </g>
          <g id="g1927" transform="translate(16.344 30.753)">
            <path id="path1929" d="M-152.574-130.061h11.93v-3.658a5.151,5.151,0,0,0-3.007-4.664l-7.722-2.991a.637.637,0,0,1-.407-.594v-2.142a5.37,5.37,0,0,1-3.06.953,5.672,5.672,0,0,1-3.086-.872v2.06a.637.637,0,0,1-.407.594l-7.714,2.991a5.151,5.151,0,0,0-3.007,4.664v3.658h11.93" transform="translate(169.053 144.108)" fill="none" stroke="#000" stroke-linecap="round" stroke-linejoin="round" stroke-miterlimit="10" stroke-width="1.5"/>
          </g>
        </g>
      </g>
    </g>
  </g>
</svg>
