<svg xmlns="http://www.w3.org/2000/svg" xmlns:xlink="http://www.w3.org/1999/xlink" width="113" height="113" viewBox="0 0 113 113">
  <defs>
    <filter id="Trazado_982547" x="0" y="0" width="113" height="113" filterUnits="userSpaceOnUse">
      <feOffset dy="3" input="SourceAlpha"/>
      <feGaussianBlur stdDeviation="3" result="blur"/>
      <feFlood flood-opacity="0.161"/>
      <feComposite operator="in" in2="blur"/>
      <feComposite in="SourceGraphic"/>
    </filter>
  </defs>
  <g id="Grupo_1171319" data-name="Grupo 1171319" transform="translate(-585.5 -2057.674)">
    <g id="Grupo_1171096" data-name="Grupo 1171096" transform="translate(594.5 2063.674)">
      <g id="Grupo_1148525" data-name="Grupo 1148525" transform="translate(0)">
        <g transform="matrix(1, 0, 0, 1, -9, -6)" filter="url(#Trazado_982547)">
          <g id="Trazado_982547-2" data-name="Trazado 982547" transform="translate(9 6)" fill="#fefcf6">
            <path d="M 47.5 93.5 C 41.28937149047852 93.5 35.26533508300781 92.28397369384766 29.59518623352051 89.88570404052734 C 24.11771965026855 87.56893157958984 19.19813346862793 84.25196075439453 14.97309303283691 80.02691650390625 C 10.74804019927979 75.80186462402344 7.431066513061523 70.88229370117188 5.114293098449707 65.40481567382812 C 2.716026782989502 59.73468017578125 1.5 53.71062850952148 1.5 47.5 C 1.5 41.28937149047852 2.716026782989502 35.26533508300781 5.114293098449707 29.59518623352051 C 7.431066513061523 24.11771965026855 10.74804019927979 19.19813346862793 14.97309303283691 14.97309303283691 C 19.19813346862793 10.74804019927979 24.11771965026855 7.431066513061523 29.59518623352051 5.114293098449707 C 35.26533508300781 2.716026782989502 41.28937149047852 1.5 47.5 1.5 C 53.71062850952148 1.5 59.73468017578125 2.716026782989502 65.40481567382812 5.114293098449707 C 70.88229370117188 7.431066513061523 75.80186462402344 10.74804019927979 80.02691650390625 14.97309303283691 C 84.25196075439453 19.19813346862793 87.56893157958984 24.11771965026855 89.88570404052734 29.59518623352051 C 92.28397369384766 35.26533508300781 93.5 41.28937149047852 93.5 47.5 C 93.5 53.71062850952148 92.28397369384766 59.73468017578125 89.88570404052734 65.40481567382812 C 87.56893157958984 70.88229370117188 84.25196075439453 75.80186462402344 80.02691650390625 80.02691650390625 C 75.80186462402344 84.25196075439453 70.88229370117188 87.56893157958984 65.40481567382812 89.88570404052734 C 59.73468017578125 92.28397369384766 53.71062850952148 93.5 47.5 93.5 Z" stroke="none"/>
            <path d="M 47.5 3 C 41.49121475219727 3 35.66376876831055 4.176155090332031 30.17950439453125 6.495796203613281 C 24.88084411621094 8.736953735351562 20.12152099609375 11.94598388671875 16.03375244140625 16.03375244140625 C 11.94598388671875 20.12152099609375 8.736953735351562 24.88084411621094 6.495796203613281 30.17950439453125 C 4.176155090332031 35.66376876831055 3 41.49121475219727 3 47.5 C 3 53.50878524780273 4.176155090332031 59.33623123168945 6.495796203613281 64.82049560546875 C 8.736953735351562 70.11915588378906 11.94598388671875 74.87847900390625 16.03375244140625 78.96624755859375 C 20.12152099609375 83.05401611328125 24.88084411621094 86.26304626464844 30.17950439453125 88.50419616699219 C 35.66376876831055 90.82384490966797 41.49121475219727 92 47.5 92 C 53.50878524780273 92 59.33623123168945 90.82384490966797 64.82049560546875 88.50419616699219 C 70.11915588378906 86.26304626464844 74.87847900390625 83.05401611328125 78.96624755859375 78.96624755859375 C 83.05401611328125 74.87847900390625 86.26304626464844 70.11915588378906 88.50419616699219 64.82049560546875 C 90.82384490966797 59.33623123168945 92 53.50878524780273 92 47.5 C 92 41.49121475219727 90.82384490966797 35.66376876831055 88.50419616699219 30.17950439453125 C 86.26304626464844 24.88084411621094 83.05401611328125 20.12152099609375 78.96624755859375 16.03375244140625 C 74.87847900390625 11.94598388671875 70.11915588378906 8.736953735351562 64.82049560546875 6.495796203613281 C 59.33623123168945 4.176155090332031 53.50878524780273 3 47.5 3 M 47.5 0 C 73.7335205078125 0 95 21.2664794921875 95 47.5 C 95 73.7335205078125 73.7335205078125 95 47.5 95 C 21.2664794921875 95 0 73.7335205078125 0 47.5 C 0 21.2664794921875 21.2664794921875 0 47.5 0 Z" stroke="none" fill="#86815c"/>
          </g>
        </g>
      </g>
    </g>
    <g id="psychology_9071738" transform="translate(574.66 2074.093)">
      <g id="Grupo_1171309" data-name="Grupo 1171309" transform="translate(42.298 7.5)">
        <g id="Grupo_1171308" data-name="Grupo 1171308" transform="translate(0)">
          <path id="Trazado_1024561" data-name="Trazado 1024561" d="M194.875,284.19l4.539,26.226H169.143l4.74-26.226Z" transform="translate(-154.441 -251.253)" fill="#fed2a4"/>
          <path id="Trazado_1024562" data-name="Trazado 1024562" d="M202.755,284.19H181.763l-3.675,20.334a20.382,20.382,0,0,0,15.477-7.924l1.23-1.6a24.15,24.15,0,0,0,8.934-5.189Z" transform="translate(-162.321 -251.253)" fill="#ffbd86"/>
          <path id="Trazado_1024563" data-name="Trazado 1024563" d="M91.333,28.153a20.654,20.654,0,1,0-41.306.2v1.97a9.206,9.206,0,0,1-1.179,4.507L45.83,40.2a1.46,1.46,0,0,0-.166.433,1.392,1.392,0,0,0,1.014,1.62l3.348.872-.553,1.7a.776.776,0,0,0,.32.893l.721.46a.776.776,0,0,1,.131,1.2.775.775,0,0,0-.1.97l.655,1.01a.775.775,0,0,1,.125.422v3.257a4.131,4.131,0,0,0,4.131,4.131h5.284a16.781,16.781,0,0,0,13.287-6.532l1.121-1.454a4.253,4.253,0,0,1,2.038-1.43A20.661,20.661,0,0,0,91.333,28.153Z" transform="translate(-45.638 -7.5)" fill="#ffe5c2"/>
          <path id="Trazado_1024564" data-name="Trazado 1024564" d="M128.68,70.226a20.664,20.664,0,0,1-11.8,29.186,4.253,4.253,0,0,0-2.037,1.43l-1.121,1.454a16.781,16.781,0,0,1-13.287,6.532H95.154a4.114,4.114,0,0,1-1.722-.376,4.13,4.13,0,0,0,4.127,3.984h5.284A16.781,16.781,0,0,0,116.13,105.9l1.121-1.454a4.252,4.252,0,0,1,2.038-1.43,20.657,20.657,0,0,0,9.391-32.793Z" transform="translate(-87.743 -62.759)" fill="#fed2a4"/>
        </g>
      </g>
      <path id="Trazado_1024565" data-name="Trazado 1024565" d="M191.687,86.271H174.371a1.2,1.2,0,0,1-1.2-1.2V63.424a1.2,1.2,0,0,1,1.2-1.2h17.316a1.2,1.2,0,0,1,1.2,1.2V85.069A1.2,1.2,0,0,1,191.687,86.271Z" transform="translate(-115.688 -48.207)" fill="#f2fbff"/>
      <path id="Trazado_1024566" data-name="Trazado 1024566" d="M302.036,62.221h-3.608a1.2,1.2,0,0,1,1.2,1.2V85.069a1.2,1.2,0,0,1-1.2,1.2h3.608a1.2,1.2,0,0,0,1.2-1.2V63.424A1.2,1.2,0,0,0,302.036,62.221Z" transform="translate(-226.037 -48.207)" fill="#dff6fd"/>
      <g id="Grupo_1171310" data-name="Grupo 1171310" transform="translate(60.847 17.141)">
        <path id="Trazado_1024567" data-name="Trazado 1024567" d="M204.1,92.093h-1.684a.962.962,0,0,1-.962-.962V89.447a.962.962,0,0,1,.962-.962H204.1a.962.962,0,0,1,.962.962V91.13A.962.962,0,0,1,204.1,92.093Z" transform="translate(-201.453 -88.485)" fill="#a2e62e"/>
      </g>
      <g id="Grupo_1171311" data-name="Grupo 1171311" transform="translate(60.847 24.235)">
        <path id="Trazado_1024568" data-name="Trazado 1024568" d="M204.1,151.693h-1.684a.962.962,0,0,1-.962-.962v-1.683a.962.962,0,0,1,.962-.962H204.1a.962.962,0,0,1,.962.962v1.683A.962.962,0,0,1,204.1,151.693Z" transform="translate(-201.453 -148.086)" fill="#a2e62e"/>
      </g>
      <g id="Grupo_1171312" data-name="Grupo 1171312" transform="translate(60.847 31.33)">
        <path id="Trazado_1024569" data-name="Trazado 1024569" d="M204.1,211.292h-1.684a.962.962,0,0,1-.962-.962v-1.683a.962.962,0,0,1,.962-.962H204.1a.962.962,0,0,1,.962.962v1.683A.962.962,0,0,1,204.1,211.292Z" transform="translate(-201.453 -207.685)" fill="#528fd8"/>
      </g>
      <g id="Grupo_1171313" data-name="Grupo 1171313" transform="translate(77.201 18.223)">
        <circle id="Elipse_12290" data-name="Elipse 12290" cx="7.816" cy="7.816" r="7.816" transform="translate(0 0)" fill="#fe646f"/>
        <path id="Trazado_1024570" data-name="Trazado 1024570" d="M360.826,108.721a7.817,7.817,0,0,1-10.847,10.847,7.817,7.817,0,1,0,10.847-10.847Z" transform="translate(-348.652 -107.394)" fill="#fd4755"/>
      </g>
      <g id="Grupo_1171314" data-name="Grupo 1171314" transform="translate(41.847 9.324)">
        <circle id="Elipse_12291" data-name="Elipse 12291" cx="7.816" cy="7.816" r="7.816" transform="translate(0 0)" fill="#99e6fc"/>
        <path id="Trazado_1024571" data-name="Trazado 1024571" d="M63.838,33.968A7.817,7.817,0,0,1,52.991,44.815,7.817,7.817,0,1,0,63.838,33.968Z" transform="translate(-51.664 -32.641)" fill="#62dbfb"/>
      </g>
      <path id="Trazado_1024572" data-name="Trazado 1024572" d="M50.38,150.36a21.008,21.008,0,0,0-.354,3.845v1.97a9.21,9.21,0,0,1-1.179,4.507l-3.018,5.375a1.444,1.444,0,0,0-.165.432,1.392,1.392,0,0,0,1.014,1.62l3.347.871-.552,1.7a.776.776,0,0,0,.32.894l.721.46a.776.776,0,0,1,.13,1.2.776.776,0,0,0-.1.97l.655,1.009a.782.782,0,0,1,.125.421V178.9a4.13,4.13,0,0,0,4.131,4.13h5.283A16.778,16.778,0,0,0,74.025,176.5l1.121-1.453a4.259,4.259,0,0,1,2.038-1.431,20.7,20.7,0,0,0,13.444-14.24" transform="translate(-3.339 -125.854)" fill="none" stroke="#000" stroke-linecap="round" stroke-linejoin="round" stroke-miterlimit="10" stroke-width="1.5"/>
      <path id="Trazado_1024573" data-name="Trazado 1024573" d="M153.383,11.549A20.393,20.393,0,0,1,165.588,7.5a20.648,20.648,0,0,1,18.131,10.736" transform="translate(-98.259)" fill="none" stroke="#000" stroke-linecap="round" stroke-linejoin="round" stroke-miterlimit="10" stroke-width="1.5"/>
      <line id="Línea_654" data-name="Línea 654" y1="9.539" x2="1.724" transform="translate(57 57.124)" fill="none" stroke="#000" stroke-linecap="round" stroke-linejoin="round" stroke-miterlimit="10" stroke-width="1.5"/>
      <line id="Línea_655" data-name="Línea 655" x1="1.898" y1="10.966" transform="translate(85.374 55.697)" fill="none" stroke="#000" stroke-linecap="round" stroke-linejoin="round" stroke-miterlimit="10" stroke-width="1.5"/>
      <line id="Línea_656" data-name="Línea 656" x1="1.715" y1="9.915" transform="translate(82.948 41.678)" fill="none" stroke="#000" stroke-linecap="round" stroke-linejoin="round" stroke-miterlimit="10" stroke-width="1.5"/>
      <path id="Trazado_1024574" data-name="Trazado 1024574" d="M173.173,79.075v5.993a1.2,1.2,0,0,0,1.2,1.2h17.316a1.2,1.2,0,0,0,1.2-1.2V63.422a1.2,1.2,0,0,0-1.2-1.2H174.375a1.2,1.2,0,0,0-1.2,1.2V74.909" transform="translate(-115.693 -48.206)" fill="none" stroke="#000" stroke-linecap="round" stroke-linejoin="round" stroke-miterlimit="10" stroke-width="1.5"/>
      <path id="Trazado_1024575" data-name="Trazado 1024575" d="M204.1,92.093h-1.684a.962.962,0,0,1-.962-.962V89.447a.962.962,0,0,1,.962-.962H204.1a.962.962,0,0,1,.962.962V91.13A.962.962,0,0,1,204.1,92.093Z" transform="translate(-140.606 -71.344)" fill="none" stroke="#000" stroke-linecap="round" stroke-linejoin="round" stroke-miterlimit="10" stroke-width="1.5"/>
      <line id="Línea_657" data-name="Línea 657" x2="6.253" transform="translate(67.581 17.141)" fill="none" stroke="#000" stroke-linecap="round" stroke-linejoin="round" stroke-miterlimit="10" stroke-width="1.5"/>
      <line id="Línea_658" data-name="Línea 658" x1="3.848" transform="translate(67.581 20.748)" fill="none" stroke="#000" stroke-linecap="round" stroke-linejoin="round" stroke-miterlimit="10" stroke-width="1.5"/>
      <path id="Trazado_1024576" data-name="Trazado 1024576" d="M204.1,151.693h-1.684a.962.962,0,0,1-.962-.962v-1.683a.962.962,0,0,1,.962-.962H204.1a.962.962,0,0,1,.962.962v1.683A.962.962,0,0,1,204.1,151.693Z" transform="translate(-140.606 -123.851)" fill="none" stroke="#000" stroke-linecap="round" stroke-linejoin="round" stroke-miterlimit="10" stroke-width="1.5"/>
      <line id="Línea_659" data-name="Línea 659" x2="6.253" transform="translate(67.581 24.235)" fill="none" stroke="#000" stroke-linecap="round" stroke-linejoin="round" stroke-miterlimit="10" stroke-width="1.5"/>
      <line id="Línea_660" data-name="Línea 660" x1="3.848" transform="translate(67.581 27.843)" fill="none" stroke="#000" stroke-linecap="round" stroke-linejoin="round" stroke-miterlimit="10" stroke-width="1.5"/>
      <path id="Trazado_1024577" data-name="Trazado 1024577" d="M204.1,211.292h-1.684a.962.962,0,0,1-.962-.962v-1.683a.962.962,0,0,1,.962-.962H204.1a.962.962,0,0,1,.962.962v1.683A.962.962,0,0,1,204.1,211.292Z" transform="translate(-140.606 -176.355)" fill="none" stroke="#000" stroke-linecap="round" stroke-linejoin="round" stroke-miterlimit="10" stroke-width="1.5"/>
      <line id="Línea_661" data-name="Línea 661" x2="6.253" transform="translate(67.581 31.33)" fill="none" stroke="#000" stroke-linecap="round" stroke-linejoin="round" stroke-miterlimit="10" stroke-width="1.5"/>
      <line id="Línea_662" data-name="Línea 662" x1="3.848" transform="translate(67.581 34.938)" fill="none" stroke="#000" stroke-linecap="round" stroke-linejoin="round" stroke-miterlimit="10" stroke-width="1.5"/>
      <g id="Grupo_1171316" data-name="Grupo 1171316" transform="translate(82.885 21.23)">
        <g id="Grupo_1171315" data-name="Grupo 1171315">
          <path id="Trazado_1024578" data-name="Trazado 1024578" d="M386.585,124.967a2.132,2.132,0,1,1,2.132,2.132v2.229" transform="translate(-386.585 -122.835)" fill="none" stroke="#000" stroke-linecap="round" stroke-linejoin="round" stroke-miterlimit="10" stroke-width="1.5"/>
        </g>
        <line id="Línea_663" data-name="Línea 663" transform="translate(2.132 9.619)" fill="none" stroke="#000" stroke-linecap="round" stroke-linejoin="round" stroke-miterlimit="10" stroke-width="1.5"/>
      </g>
      <path id="Trazado_1024579" data-name="Trazado 1024579" d="M353.107,100.992a7.8,7.8,0,1,1-3.145-2.677" transform="translate(-261.633 -79.357)" fill="none" stroke="#000" stroke-linecap="round" stroke-linejoin="round" stroke-miterlimit="10" stroke-width="1.5"/>
      <g id="Grupo_1171318" data-name="Grupo 1171318" transform="translate(47.531 12.331)">
        <g id="Grupo_1171317" data-name="Grupo 1171317" transform="translate(0 0)">
          <path id="Trazado_1024580" data-name="Trazado 1024580" d="M89.6,50.215a2.132,2.132,0,1,1,2.132,2.132v2.229" transform="translate(-89.597 -48.083)" fill="none" stroke="#000" stroke-linecap="round" stroke-linejoin="round" stroke-miterlimit="10" stroke-width="1.5"/>
        </g>
        <line id="Línea_664" data-name="Línea 664" transform="translate(2.132 9.619)" fill="none" stroke="#000" stroke-linecap="round" stroke-linejoin="round" stroke-miterlimit="10" stroke-width="1.5"/>
      </g>
      <circle id="Elipse_12292" data-name="Elipse 12292" cx="7.816" cy="7.816" r="7.816" transform="translate(41.847 9.324)" fill="none" stroke="#000" stroke-linecap="round" stroke-linejoin="round" stroke-miterlimit="10" stroke-width="1.5"/>
    </g>
  </g>
</svg>
