<svg xmlns="http://www.w3.org/2000/svg" xmlns:xlink="http://www.w3.org/1999/xlink" width="113" height="113" viewBox="0 0 113 113">
  <defs>
    <filter id="Trazado_982547" x="0" y="0" width="113" height="113" filterUnits="userSpaceOnUse">
      <feOffset dy="3" input="SourceAlpha"/>
      <feGaussianBlur stdDeviation="3" result="blur"/>
      <feFlood flood-opacity="0.161"/>
      <feComposite operator="in" in2="blur"/>
      <feComposite in="SourceGraphic"/>
    </filter>
  </defs>
  <g id="Grupo_1171321" data-name="Grupo 1171321" transform="translate(-901.5 -2057.674)">
    <g id="Grupo_1171097" data-name="Grupo 1171097" transform="translate(910.5 2063.674)">
      <g id="Grupo_1148525" data-name="Grupo 1148525" transform="translate(0)">
        <g transform="matrix(1, 0, 0, 1, -9, -6)" filter="url(#Trazado_982547)">
          <g id="Trazado_982547-2" data-name="Trazado 982547" transform="translate(9 6)" fill="#fefcf6">
            <path d="M 47.5 93.5 C 41.28937149047852 93.5 35.26533508300781 92.28397369384766 29.59518623352051 89.88570404052734 C 24.11771965026855 87.56893157958984 19.19813346862793 84.25196075439453 14.97309303283691 80.02691650390625 C 10.74804019927979 75.80186462402344 7.431066513061523 70.88229370117188 5.114293098449707 65.40481567382812 C 2.716026782989502 59.73468017578125 1.5 53.71062850952148 1.5 47.5 C 1.5 41.28937149047852 2.716026782989502 35.26533508300781 5.114293098449707 29.59518623352051 C 7.431066513061523 24.11771965026855 10.74804019927979 19.19813346862793 14.97309303283691 14.97309303283691 C 19.19813346862793 10.74804019927979 24.11771965026855 7.431066513061523 29.59518623352051 5.114293098449707 C 35.26533508300781 2.716026782989502 41.28937149047852 1.5 47.5 1.5 C 53.71062850952148 1.5 59.73468017578125 2.716026782989502 65.40481567382812 5.114293098449707 C 70.88229370117188 7.431066513061523 75.80186462402344 10.74804019927979 80.02691650390625 14.97309303283691 C 84.25196075439453 19.19813346862793 87.56893157958984 24.11771965026855 89.88570404052734 29.59518623352051 C 92.28397369384766 35.26533508300781 93.5 41.28937149047852 93.5 47.5 C 93.5 53.71062850952148 92.28397369384766 59.73468017578125 89.88570404052734 65.40481567382812 C 87.56893157958984 70.88229370117188 84.25196075439453 75.80186462402344 80.02691650390625 80.02691650390625 C 75.80186462402344 84.25196075439453 70.88229370117188 87.56893157958984 65.40481567382812 89.88570404052734 C 59.73468017578125 92.28397369384766 53.71062850952148 93.5 47.5 93.5 Z" stroke="none"/>
            <path d="M 47.5 3 C 41.49121475219727 3 35.66376876831055 4.176155090332031 30.17950439453125 6.495796203613281 C 24.88084411621094 8.736953735351562 20.12152099609375 11.94598388671875 16.03375244140625 16.03375244140625 C 11.94598388671875 20.12152099609375 8.736953735351562 24.88084411621094 6.495796203613281 30.17950439453125 C 4.176155090332031 35.66376876831055 3 41.49121475219727 3 47.5 C 3 53.50878524780273 4.176155090332031 59.33623123168945 6.495796203613281 64.82049560546875 C 8.736953735351562 70.11915588378906 11.94598388671875 74.87847900390625 16.03375244140625 78.96624755859375 C 20.12152099609375 83.05401611328125 24.88084411621094 86.26304626464844 30.17950439453125 88.50419616699219 C 35.66376876831055 90.82384490966797 41.49121475219727 92 47.5 92 C 53.50878524780273 92 59.33623123168945 90.82384490966797 64.82049560546875 88.50419616699219 C 70.11915588378906 86.26304626464844 74.87847900390625 83.05401611328125 78.96624755859375 78.96624755859375 C 83.05401611328125 74.87847900390625 86.26304626464844 70.11915588378906 88.50419616699219 64.82049560546875 C 90.82384490966797 59.33623123168945 92 53.50878524780273 92 47.5 C 92 41.49121475219727 90.82384490966797 35.66376876831055 88.50419616699219 30.17950439453125 C 86.26304626464844 24.88084411621094 83.05401611328125 20.12152099609375 78.96624755859375 16.03375244140625 C 74.87847900390625 11.94598388671875 70.11915588378906 8.736953735351562 64.82049560546875 6.495796203613281 C 59.33623123168945 4.176155090332031 53.50878524780273 3 47.5 3 M 47.5 0 C 73.7335205078125 0 95 21.2664794921875 95 47.5 C 95 73.7335205078125 73.7335205078125 95 47.5 95 C 21.2664794921875 95 0 73.7335205078125 0 47.5 C 0 21.2664794921875 21.2664794921875 0 47.5 0 Z" stroke="none" fill="#86815c"/>
          </g>
        </g>
      </g>
    </g>
    <g id="project-strategy_14459484" transform="translate(916.12 2078.397)">
      <rect id="Rectángulo_414337" data-name="Rectángulo 414337" width="4.91" height="55.958" rx="2.455" transform="translate(39.428 4.798)" fill="#9b827a"/>
      <rect id="Rectángulo_414338" data-name="Rectángulo 414338" width="3.539" height="55.958" rx="1.77" transform="translate(39.428 4.798)" fill="#c2a9a1"/>
      <rect id="Rectángulo_414339" data-name="Rectángulo 414339" width="53.61" height="34.195" rx="1" transform="translate(15.078 9.212)" fill="#b6dbff"/>
      <rect id="Rectángulo_414340" data-name="Rectángulo 414340" width="51.417" height="34.195" rx="4" transform="translate(15.078 9.212)" fill="#e3f1ff"/>
      <g id="Grupo_1171320" data-name="Grupo 1171320" transform="translate(21.957 43.407)">
        <path id="Trazado_1024581" data-name="Trazado 1024581" d="M256.024,349.072l9.507,16.467a1.724,1.724,0,0,0,1.529.883h8.89l-2.05-3.551a1.724,1.724,0,0,0-1.529-.883h-2.746l-7.457-12.917h-6.144Z" transform="translate(-236.098 -349.072)" fill="#9b827a" fill-rule="evenodd"/>
        <path id="Trazado_1024582" data-name="Trazado 1024582" d="M256.024,349.072l9.507,16.467a1.724,1.724,0,0,0,1.529.883h6.971l-2.05-3.551a1.724,1.724,0,0,0-1.529-.883h-2.746l-7.457-12.917h-4.225Z" transform="translate(-236.098 -349.072)" fill="#c2a9a1" fill-rule="evenodd"/>
        <path id="Trazado_1024583" data-name="Trazado 1024583" d="M101.467,349.072,91.96,365.539a1.724,1.724,0,0,1-1.529.883h-8.89l2.05-3.551a1.724,1.724,0,0,1,1.529-.883h2.746l7.457-12.917h6.144Z" transform="translate(-81.541 -349.072)" fill="#9b827a" fill-rule="evenodd"/>
        <path id="Trazado_1024584" data-name="Trazado 1024584" d="M88.512,366.422H81.541l2.05-3.551a1.724,1.724,0,0,1,1.529-.883h2.746l7.457-12.917h4.225l-9.507,16.467a1.724,1.724,0,0,1-1.529.883Z" transform="translate(-81.541 -349.072)" fill="#c2a9a1" fill-rule="evenodd"/>
      </g>
      <path id="Trazado_1024585" data-name="Trazado 1024585" d="M246.734,206.234h4.283v7.751h-4.283Z" transform="translate(-205.912 -179.14)" fill="#ff6b84"/>
      <path id="Trazado_1024586" data-name="Trazado 1024586" d="M317.235,166.483h4.283v12.291h-4.283Z" transform="translate(-268.362 -143.928)" fill="#fcdb35"/>
      <path id="Trazado_1024587" data-name="Trazado 1024587" d="M387.736,131.233h4.283V147.55h-4.283Z" transform="translate(-330.811 -112.704)" fill="#85caff"/>
      <circle id="Elipse_12293" data-name="Elipse 12293" cx="2.31" cy="2.31" r="2.31" transform="translate(33.86 35.193)" fill="#4eb1fc"/>
      <path id="Trazado_1024588" data-name="Trazado 1024588" d="M187.588,277.62a2.311,2.311,0,1,0,1.814,2.256A2.311,2.311,0,0,0,187.588,277.62Z" transform="translate(-151.914 -242.373)" fill="#85caff" fill-rule="evenodd"/>
      <circle id="Elipse_12294" data-name="Elipse 12294" cx="2.31" cy="2.31" r="2.31" transform="translate(36.735 13.583)" fill="#4eb1fc"/>
      <path id="Trazado_1024589" data-name="Trazado 1024589" d="M88.588,258.275a1.777,1.777,0,1,0-1.777-1.777A1.78,1.78,0,0,0,88.588,258.275Z" transform="translate(-64.252 -222.09)" fill="#2dd62d" fill-rule="evenodd"/>
      <path id="Trazado_1024590" data-name="Trazado 1024590" d="M88.177,258.6a1.777,1.777,0,1,1,1.366-1.729A1.777,1.777,0,0,1,88.177,258.6Z" transform="translate(-64.252 -222.462)" fill="#43f043" fill-rule="evenodd"/>
      <path id="Trazado_1024591" data-name="Trazado 1024591" d="M212.757,88.393a2.311,2.311,0,1,0,1.814,2.257A2.311,2.311,0,0,0,212.757,88.393Z" transform="translate(-174.208 -74.756)" fill="#85caff" fill-rule="evenodd"/>
      <path id="Trazado_1024592" data-name="Trazado 1024592" d="M274.252,206.234h1.14v7.751h-1.14Z" transform="translate(-230.287 -179.14)" fill="#ff5471"/>
      <path id="Trazado_1024593" data-name="Trazado 1024593" d="M344.752,166.483h1.14v12.291h-1.14Z" transform="translate(-292.736 -143.928)" fill="#fdc72e"/>
      <path id="Trazado_1024594" data-name="Trazado 1024594" d="M415.253,131.233h1.14V147.55h-1.14Z" transform="translate(-355.186 -112.704)" fill="#4eb1fc"/>
      <path id="Trazado_1024595" data-name="Trazado 1024595" d="M39.045,14.384a1.511,1.511,0,1,1-1.514,1.51A1.511,1.511,0,0,1,39.045,14.384Zm0,4.62a3.11,3.11,0,1,0-3.11-3.11A3.116,3.116,0,0,0,39.045,19ZM22.174,28.426,23.2,27.4,22.174,26.37a.8.8,0,0,1,1.134-1.131l1.029,1.028,1.024-1.028A.8.8,0,0,1,26.5,26.37L25.466,27.4,26.5,28.426a.8.8,0,0,1-1.134,1.131l-1.024-1.028-1.029,1.028a.8.8,0,0,1-1.134-1.131Zm7.156-4.069,1.327-1.332L29.33,21.694a.8.8,0,0,1,1.128-1.131l1.332,1.332,1.332-1.332a.8.8,0,0,1,1.128,1.131l-1.332,1.331,1.332,1.332a.8.8,0,0,1,0,1.13.8.8,0,0,1-1.128,0L31.79,24.156l-1.332,1.332a.8.8,0,0,1-1.128-1.13ZM24.337,35.386a.977.977,0,1,1,.974-.978A.98.98,0,0,1,24.337,35.386ZM49.212,17.809l2.339-2.793a.824.824,0,0,0,.171-.674.813.813,0,0,0-.424-.553l-3.369-1.7a.8.8,0,0,0-.721,1.427l1.216.612c-4.805,1.438-7.712,6.134-10.53,10.688-2.626,4.238-5.1,8.24-8.8,9.051a8.143,8.143,0,0,1-2.207.16,2.582,2.582,0,1,0-.275,1.585c.264.019.528.031.793.031a9.557,9.557,0,0,0,2.031-.214c4.36-.955,7.013-5.238,9.82-9.771,2.664-4.307,5.411-8.748,9.682-10.013l-.947,1.137a.8.8,0,1,0,1.222,1.025Zm-13.04,21.2A1.511,1.511,0,1,1,37.68,37.5,1.512,1.512,0,0,1,36.172,39.014Zm0-4.621a3.11,3.11,0,1,1-3.11,3.11A3.116,3.116,0,0,1,36.172,34.394Zm24.236-.347H57.722V19.33h2.686Zm.8-16.316H56.924a.8.8,0,0,0-.8.8V34.846a.8.8,0,0,0,.8.8h4.283a.8.8,0,0,0,.8-.8V18.531A.8.8,0,0,0,61.206,17.731ZM52.355,34.047H49.675V23.355h2.681Zm.8-12.29a.8.8,0,0,1,.8.8v12.29a.8.8,0,0,1-.8.8H48.871a.8.8,0,0,1-.8-.8V22.556a.8.8,0,0,1,.8-.8ZM44.3,34.047H41.621V27.895H44.3Zm.8-7.75a.8.8,0,0,1,.8.8v7.75a.8.8,0,0,1-.8.8H40.823a.8.8,0,0,1-.8-.8V27.1a.8.8,0,0,1,.8-.8Zm22.783,14.58V11.743a1.733,1.733,0,0,0-1.734-1.731H17.611a1.733,1.733,0,0,0-1.734,1.731V40.876a1.734,1.734,0,0,0,1.734,1.732H66.155A1.734,1.734,0,0,0,67.889,40.876Zm-13.1,15.848a.794.794,0,0,0,.688.4h2.747a.922.922,0,0,1,.837.483l1.36,2.352H52.917a.907.907,0,0,1-.831-.483L43.267,44.207h4.3l7.227,12.516ZM43.537,59.888V47.873L41.88,45.007l-1.651,2.866V59.888a.072.072,0,0,0,.066.069h3.171a.072.072,0,0,0,.071-.069ZM31.68,59.475a.915.915,0,0,1-.837.483h-7.5l1.36-2.352a.916.916,0,0,1,.837-.483h2.741a.8.8,0,0,0,.694-.4L36.2,44.207h4.3L31.68,59.475ZM40.229,5.668a.072.072,0,0,1,.066-.07h3.171a.073.073,0,0,1,.071.07V8.413H40.229V5.668ZM66.155,8.413H45.139V5.668A1.672,1.672,0,0,0,43.466,4H40.295a1.671,1.671,0,0,0-1.668,1.669V8.413H17.611a3.337,3.337,0,0,0-3.336,3.33V40.876a3.338,3.338,0,0,0,3.336,3.331H34.356L27.822,55.524H25.537a2.538,2.538,0,0,0-2.224,1.283l-2.048,3.55a.8.8,0,0,0,.688,1.2h8.89a2.538,2.538,0,0,0,2.224-1.282l5.56-9.632v9.246a1.67,1.67,0,0,0,1.668,1.668h3.171a1.671,1.671,0,0,0,1.673-1.668V50.642l5.56,9.632a2.536,2.536,0,0,0,2.218,1.282h8.89a.8.8,0,0,0,.694-1.2l-2.048-3.55a2.538,2.538,0,0,0-2.224-1.283H55.944L49.41,44.207H66.155a3.333,3.333,0,0,0,3.33-3.331V11.743a3.333,3.333,0,0,0-3.33-3.33Z" fill-rule="evenodd"/>
    </g>
  </g>
</svg>
