<svg xmlns="http://www.w3.org/2000/svg" xmlns:xlink="http://www.w3.org/1999/xlink" width="110" height="110" viewBox="0 0 110 110">
  <defs>
    <filter id="Trazado_982547" x="0" y="0" width="110" height="110" filterUnits="userSpaceOnUse">
      <feOffset dy="3" input="SourceAlpha"/>
      <feGaussianBlur stdDeviation="3" result="blur"/>
      <feFlood flood-opacity="0.161"/>
      <feComposite operator="in" in2="blur"/>
      <feComposite in="SourceGraphic"/>
    </filter>
  </defs>
  <g id="Grupo_1171448" data-name="Grupo 1171448" transform="translate(-8455.19 -1153.703)">
    <g id="Grupo_1171108" data-name="Grupo 1171108" transform="translate(7658 -805.82)">
      <g id="Grupo_1164703" data-name="Grupo 1164703" transform="translate(806.19 1965.523)">
        <g id="Grupo_1160931" data-name="Grupo 1160931" transform="translate(0)">
          <g id="Grupo_1160749" data-name="Grupo 1160749" transform="translate(0)">
            <g id="Grupo_1158891" data-name="Grupo 1158891" transform="translate(0 0)">
              <g id="Grupo_1157406" data-name="Grupo 1157406" transform="translate(0)">
                <g id="Grupo_1155793" data-name="Grupo 1155793" transform="translate(0)">
                  <g id="Grupo_1154704" data-name="Grupo 1154704" transform="translate(0)">
                    <g id="Grupo_1150790" data-name="Grupo 1150790" transform="translate(0)">
                      <g id="Grupo_1154214" data-name="Grupo 1154214" transform="translate(0)">
                        <g id="Grupo_1152583" data-name="Grupo 1152583" transform="translate(0 0)">
                          <g id="Grupo_1146973" data-name="Grupo 1146973" transform="translate(0 0)">
                            <g id="Grupo_1146954" data-name="Grupo 1146954">
                              <g transform="matrix(1, 0, 0, 1, -9, -6)" filter="url(#Trazado_982547)">
                                <g id="Trazado_982547-2" data-name="Trazado 982547" transform="translate(9 6)" fill="#edf3fc">
                                  <path d="M 46.00000381469727 90.49988555908203 C 39.99188232421875 90.49988555908203 34.16427230834961 89.32352447509766 28.67905807495117 87.00347137451172 C 23.38020324707031 84.76226043701172 18.62104415893555 81.55342864990234 14.53375053405762 77.46615600585938 C 10.44647026062012 73.37887573242188 7.237643718719482 68.61971282958984 4.996417045593262 63.32085800170898 C 2.676363706588745 57.83565902709961 1.500003814697266 52.00806045532227 1.500003814697266 45.99993896484375 C 1.500003814697266 39.99181747436523 2.676363706588745 34.16421890258789 4.996417045593262 28.67901802062988 C 7.237643718719482 23.38017845153809 10.44647026062012 18.62101936340332 14.53375053405762 14.53373908996582 C 18.62104415893555 10.44645881652832 23.38020324707031 7.237632274627686 28.67905807495117 4.996418952941895 C 34.16427230834961 2.676365613937378 39.99188232421875 1.500005602836609 46.00000381469727 1.500005602836609 C 52.00812530517578 1.500005602836609 57.83573532104492 2.676365613937378 63.32094955444336 4.996418952941895 C 68.61980438232422 7.237632274627686 73.37897491455078 10.44645881652832 77.46625518798828 14.53373908996582 C 81.55355072021484 18.62101936340332 84.76236724853516 23.38017845153809 87.00359344482422 28.67901802062988 C 89.32364654541016 34.16421890258789 90.5 39.99181747436523 90.5 45.99993896484375 C 90.5 52.00806045532227 89.32364654541016 57.83565902709961 87.00359344482422 63.32085800170898 C 84.76236724853516 68.61971282958984 81.55355072021484 73.37887573242188 77.46625518798828 77.46615600585938 C 73.37897491455078 81.55342864990234 68.61980438232422 84.76226043701172 63.32094955444336 87.00347137451172 C 57.83573532104492 89.32352447509766 52.00812530517578 90.49988555908203 46.00000381469727 90.49988555908203 Z" stroke="none"/>
                                  <path d="M 46.00000381469727 2.999992370605469 C 40.19371795654297 2.999992370605469 34.56270217895508 4.136497497558594 29.26338958740234 6.377906799316406 C 24.14333343505859 8.543510437011719 19.54441833496094 11.64437866210938 15.59440612792969 15.59439849853516 C 11.64440155029297 19.54439544677734 8.54351806640625 24.14329528808594 6.377914428710938 29.26335144042969 C 4.136505126953125 34.56266784667969 3.000007629394531 40.19366836547852 3.000007629394531 45.99993896484375 C 3.000007629394531 51.80620956420898 4.136505126953125 57.43722534179688 6.377914428710938 62.73654174804688 C 8.54351806640625 67.85658264160156 11.64440155029297 72.45548248291016 15.59440612792969 76.40549468994141 C 19.54441833496094 80.35549926757812 24.14333343505859 83.45636749267578 29.26337432861328 85.62196350097656 C 34.56270217895508 87.86338043212891 40.19371795654297 88.9998779296875 46.00000381469727 88.9998779296875 C 51.80628967285156 88.9998779296875 57.43730545043945 87.86338043212891 62.73663330078125 85.62196350097656 C 67.85667419433594 83.45636749267578 72.45558929443359 80.35549926757812 76.40560150146484 76.40549468994141 C 80.35560607910156 72.45548248291016 83.45648956298828 67.85658264160156 85.62208557128906 62.73654174804688 C 87.86350250244141 57.43722534179688 89 51.80620956420898 89 45.99993896484375 C 89 40.19366836547852 87.86350250244141 34.56266784667969 85.62208557128906 29.26335144042969 C 83.45648956298828 24.14329528808594 80.35560607910156 19.54439544677734 76.40560150146484 15.59439849853516 C 72.45558929443359 11.64437866210938 67.85667419433594 8.543510437011719 62.73661804199219 6.377906799316406 C 57.43730545043945 4.136497497558594 51.80628967285156 2.999992370605469 46.00000381469727 2.999992370605469 M 46.00000381469727 -7.62939453125e-06 C 71.40510559082031 -7.62939453125e-06 92 20.59487915039062 92 45.99993896484375 C 92 71.40501403808594 71.40510559082031 91.99988555908203 46.00000381469727 91.99988555908203 C 20.59490203857422 91.99988555908203 7.62939453125e-06 71.40501403808594 7.62939453125e-06 45.99993896484375 C 7.62939453125e-06 20.59487915039062 20.59490203857422 -7.62939453125e-06 46.00000381469727 -7.62939453125e-06 Z" stroke="none" fill="#5692e8"/>
                                </g>
                              </g>
                            </g>
                          </g>
                        </g>
                      </g>
                    </g>
                  </g>
                </g>
              </g>
            </g>
          </g>
        </g>
      </g>
    </g>
    <g id="search_5987445" transform="translate(8473.48 1168.733)">
      <g id="Grupo_1171446" data-name="Grupo 1171446" transform="translate(10.619 10.891)">
        <g id="Grupo_1171442" data-name="Grupo 1171442" transform="translate(0 6.508)">
          <path id="Trazado_1024865" data-name="Trazado 1024865" d="M62.4,24.575H14.045A2.545,2.545,0,0,0,11.5,27.12V54.974H64.943V27.12A2.545,2.545,0,0,0,62.4,24.575Z" transform="translate(-11.5 -24.575)" fill="#14afc1"/>
          <path id="Trazado_1024866" data-name="Trazado 1024866" d="M50.757,95.893l-2.984,10.341H64.291L61.307,95.893Z" transform="translate(-29.311 -59.593)" fill="#42434c"/>
          <path id="Trazado_1024867" data-name="Trazado 1024867" d="M62.4,88.528a2.545,2.545,0,0,0,2.545-2.545v-5.09H11.5v5.09a2.545,2.545,0,0,0,2.545,2.545Z" transform="translate(-11.5 -52.228)" fill="#4b4b55"/>
        </g>
        <g id="Grupo_1171445" data-name="Grupo 1171445" transform="translate(4.771 0)">
          <g id="Grupo_1171443" data-name="Grupo 1171443">
            <path id="Trazado_1024868" data-name="Trazado 1024868" d="M74.745,65.659a2.545,2.545,0,0,0,0-3.6l-4.22-4.221a2.545,2.545,0,0,0-3.6,3.6l4.221,4.221A2.545,2.545,0,0,0,74.745,65.659Z" transform="translate(-43.12 -34.034)" fill="#f9ad05"/>
            <path id="Trazado_1024869" data-name="Trazado 1024869" d="M88.813,79.726a3.817,3.817,0,0,0,0-5.4L77.506,63.02l-5.4,5.4L83.414,79.726a3.817,3.817,0,0,0,5.4,0Z" transform="translate(-46.03 -36.944)" fill="#e8412f"/>
            <circle id="Elipse_12302" data-name="Elipse 12302" cx="15.2" cy="15.2" r="15.2" fill="#bd342a"/>
            <path id="Trazado_1024870" data-name="Trazado 1024870" d="M47.74,38.654a11.637,11.637,0,1,0-16.457,0,11.637,11.637,0,0,0,16.457,0Z" transform="translate(-24.311 -15.225)" fill="#f4ece5"/>
          </g>
          <g id="Grupo_1171444" data-name="Grupo 1171444" transform="translate(9.278 2.929)">
            <path id="Trazado_1024871" data-name="Trazado 1024871" d="M50.947,36.177V32.1a5.922,5.922,0,0,0-11.844,0v4.072a5.922,5.922,0,0,0,11.844,0Z" transform="translate(-39.103 -21.785)" fill="#ffe2c2"/>
            <path id="Trazado_1024872" data-name="Trazado 1024872" d="M50.863,21.156a3.614,3.614,0,1,0-3.614,3.614A3.614,3.614,0,0,0,50.863,21.156Z" transform="translate(-41.328 -17.542)" fill="#333"/>
            <path id="Trazado_1024873" data-name="Trazado 1024873" d="M50.947,34.326V32.1a5.922,5.922,0,0,0-11.844,0v2.221s4.666-.416,5.919-3.7A7.65,7.65,0,0,0,50.947,34.326Z" transform="translate(-39.103 -21.785)" fill="#3a3a3a"/>
          </g>
        </g>
      </g>
      <g id="Grupo_1171447" data-name="Grupo 1171447" transform="translate(9.706 9.962)">
        <path id="Trazado_1024874" data-name="Trazado 1024874" d="M10.619,39.919a.89.89,0,0,0-.891.891v5.253c0,5.46-.051,5.09,0,5.09a3.44,3.44,0,0,0,3.436,3.436H30.882L28.411,63.15h-5.9a.891.891,0,0,0,0,1.781h29.66a.891.891,0,1,0,0-1.781h-5.9L43.8,54.588h8.658a4.7,4.7,0,0,0,6.029,0h3.031a3.44,3.44,0,0,0,3.436-3.436c0-5.5-.051-5.09,0-5.09v-9.64a.891.891,0,1,0-1.781,0v8.749H56.329L47.5,36.338a.891.891,0,0,0-1.259,0l-.27.27-1.84-1.839a16.066,16.066,0,0,0,.53-16.476H61.517a1.656,1.656,0,0,1,1.654,1.654v4.662a.891.891,0,0,0,1.781,0V19.947a3.44,3.44,0,0,0-3.436-3.436H43.5a16,16,0,0,0-25.818,0H13.164a3.44,3.44,0,0,0-3.436,3.436V36.168a.891.891,0,1,0,1.781,0V19.947a1.656,1.656,0,0,1,1.654-1.654h3.354A16.07,16.07,0,0,0,39.269,39.63l1.837,1.836-.27.271a.89.89,0,0,0,0,1.259l2.176,2.176H11.51V40.81a.89.89,0,0,0-.891-.891Zm33.8,23.23H30.266l2.471-8.56h9.209Zm18.756-16.2v4.2a1.656,1.656,0,0,1-1.654,1.654H59.81A4.7,4.7,0,0,0,58.8,47.646l-.691-.691Zm-24.3-9.19A14.257,14.257,0,1,1,44.879,27.3,14.31,14.31,0,0,1,38.87,37.763Zm1.867.814a15.469,15.469,0,0,0,2.341-2.341l1.629,1.629-2.341,2.341Zm1.99,3.787,4.139-4.135L57.542,48.907a2.93,2.93,0,0,1,0,4.139c-.01.009-.021.016-.031.025a2.919,2.919,0,0,1-4.108-.029Zm2.068,4.587,5.853,5.853H13.164a1.656,1.656,0,0,1-1.654-1.654v-4.2Z" transform="translate(-9.706 -9.962)"/>
        <path id="Trazado_1024875" data-name="Trazado 1024875" d="M116.531,49.53V47a.891.891,0,0,0-1.781,0v2.53a.891.891,0,0,0,1.781,0Z" transform="translate(-61.284 -27.711)"/>
        <path id="Trazado_1024876" data-name="Trazado 1024876" d="M63.2,88.424a.891.891,0,1,0,0-1.781H60a.891.891,0,0,0,0,1.781Z" transform="translate(-33.966 -47.614)"/>
        <path id="Trazado_1024877" data-name="Trazado 1024877" d="M47.5,20.1a12.466,12.466,0,0,0-6.1-3.352,4.467,4.467,0,0,0-5.522,0,12.515,12.515,0,0,0,2.763,24.726c11.262,0,16.636-13.6,8.855-21.375ZM36.862,18.242a2.779,2.779,0,0,1,3.563,0,2.707,2.707,0,0,1,.9,2.5,6.8,6.8,0,0,0-5.365,0,2.7,2.7,0,0,1,.9-2.5Zm1.781,3.731A5.031,5.031,0,0,1,43.677,27v1.207A6.82,6.82,0,0,1,39.425,25.1a.889.889,0,0,0-.782-.464h-.06a.889.889,0,0,0-.77.573c-.72,1.883-2.911,2.66-4.2,2.959V27a5.034,5.034,0,0,1,5.028-5.028Zm5.034,8.042v1.057a5.031,5.031,0,0,1-10.063,0V29.987a8.564,8.564,0,0,0,5.122-2.819,8.32,8.32,0,0,0,4.942,2.849ZM31.049,21.351a10.809,10.809,0,0,1,3.244-2.22,4.437,4.437,0,0,0,.08,2.575A6.8,6.8,0,0,0,31.835,27v4.072a6.813,6.813,0,0,0,13.625,0V27a6.755,6.755,0,0,0-2.545-5.3,4.444,4.444,0,0,0,.076-2.571,10.744,10.744,0,1,1-11.945,2.222Z" transform="translate(-17.763 -12.824)"/>
        <path id="Trazado_1024878" data-name="Trazado 1024878" d="M46.644,45.693v-.868a.891.891,0,0,0-1.781,0v.868a.891.891,0,1,0,1.781,0Z" transform="translate(-26.969 -26.643)"/>
        <path id="Trazado_1024879" data-name="Trazado 1024879" d="M54.894,45.693v-.868a.891.891,0,1,0-1.781,0v.868a.891.891,0,0,0,1.781,0Z" transform="translate(-31.019 -26.643)"/>
      </g>
    </g>
  </g>
</svg>
