<svg xmlns="http://www.w3.org/2000/svg" xmlns:xlink="http://www.w3.org/1999/xlink" width="110" height="110" viewBox="0 0 110 110">
  <defs>
    <filter id="Trazado_982547" x="0" y="0" width="110" height="110" filterUnits="userSpaceOnUse">
      <feOffset dy="3" input="SourceAlpha"/>
      <feGaussianBlur stdDeviation="3" result="blur"/>
      <feFlood flood-opacity="0.161"/>
      <feComposite operator="in" in2="blur"/>
      <feComposite in="SourceGraphic"/>
    </filter>
  </defs>
  <g id="Grupo_1171439" data-name="Grupo 1171439" transform="translate(-1112 -1960)">
    <g id="Grupo_1164700" data-name="Grupo 1164700" transform="translate(1121 1966)">
      <g id="Grupo_1160931" data-name="Grupo 1160931" transform="translate(0)">
        <g id="Grupo_1160749" data-name="Grupo 1160749" transform="translate(0)">
          <g id="Grupo_1158891" data-name="Grupo 1158891" transform="translate(0 0)">
            <g id="Grupo_1157406" data-name="Grupo 1157406" transform="translate(0)">
              <g id="Grupo_1155793" data-name="Grupo 1155793" transform="translate(0)">
                <g id="Grupo_1154704" data-name="Grupo 1154704" transform="translate(0)">
                  <g id="Grupo_1150790" data-name="Grupo 1150790" transform="translate(0)">
                    <g id="Grupo_1154214" data-name="Grupo 1154214" transform="translate(0)">
                      <g id="Grupo_1152583" data-name="Grupo 1152583" transform="translate(0 0)">
                        <g id="Grupo_1146973" data-name="Grupo 1146973" transform="translate(0 0)">
                          <g id="Grupo_1146954" data-name="Grupo 1146954">
                            <g transform="matrix(1, 0, 0, 1, -9, -6)" filter="url(#Trazado_982547)">
                              <g id="Trazado_982547-2" data-name="Trazado 982547" transform="translate(9 6)" fill="#edf3fc">
                                <path d="M 46.00000381469727 90.49988555908203 C 39.99188232421875 90.49988555908203 34.16427230834961 89.32352447509766 28.67905807495117 87.00347137451172 C 23.38020324707031 84.76226043701172 18.62104415893555 81.55342864990234 14.53375053405762 77.46615600585938 C 10.44647026062012 73.37887573242188 7.237643718719482 68.61971282958984 4.996417045593262 63.32085800170898 C 2.676363706588745 57.83565902709961 1.500003814697266 52.00806045532227 1.500003814697266 45.99993896484375 C 1.500003814697266 39.99181747436523 2.676363706588745 34.16421890258789 4.996417045593262 28.67901802062988 C 7.237643718719482 23.38017845153809 10.44647026062012 18.62101936340332 14.53375053405762 14.53373908996582 C 18.62104415893555 10.44645881652832 23.38020324707031 7.237632274627686 28.67905807495117 4.996418952941895 C 34.16427230834961 2.676365613937378 39.99188232421875 1.500005602836609 46.00000381469727 1.500005602836609 C 52.00812530517578 1.500005602836609 57.83573532104492 2.676365613937378 63.32094955444336 4.996418952941895 C 68.61980438232422 7.237632274627686 73.37897491455078 10.44645881652832 77.46625518798828 14.53373908996582 C 81.55355072021484 18.62101936340332 84.76236724853516 23.38017845153809 87.00359344482422 28.67901802062988 C 89.32364654541016 34.16421890258789 90.5 39.99181747436523 90.5 45.99993896484375 C 90.5 52.00806045532227 89.32364654541016 57.83565902709961 87.00359344482422 63.32085800170898 C 84.76236724853516 68.61971282958984 81.55355072021484 73.37887573242188 77.46625518798828 77.46615600585938 C 73.37897491455078 81.55342864990234 68.61980438232422 84.76226043701172 63.32094955444336 87.00347137451172 C 57.83573532104492 89.32352447509766 52.00812530517578 90.49988555908203 46.00000381469727 90.49988555908203 Z" stroke="none"/>
                                <path d="M 46.00000381469727 2.999992370605469 C 40.19371795654297 2.999992370605469 34.56270217895508 4.136497497558594 29.26338958740234 6.377906799316406 C 24.14333343505859 8.543510437011719 19.54441833496094 11.64437866210938 15.59440612792969 15.59439849853516 C 11.64440155029297 19.54439544677734 8.54351806640625 24.14329528808594 6.377914428710938 29.26335144042969 C 4.136505126953125 34.56266784667969 3.000007629394531 40.19366836547852 3.000007629394531 45.99993896484375 C 3.000007629394531 51.80620956420898 4.136505126953125 57.43722534179688 6.377914428710938 62.73654174804688 C 8.54351806640625 67.85658264160156 11.64440155029297 72.45548248291016 15.59440612792969 76.40549468994141 C 19.54441833496094 80.35549926757812 24.14333343505859 83.45636749267578 29.26337432861328 85.62196350097656 C 34.56270217895508 87.86338043212891 40.19371795654297 88.9998779296875 46.00000381469727 88.9998779296875 C 51.80628967285156 88.9998779296875 57.43730545043945 87.86338043212891 62.73663330078125 85.62196350097656 C 67.85667419433594 83.45636749267578 72.45558929443359 80.35549926757812 76.40560150146484 76.40549468994141 C 80.35560607910156 72.45548248291016 83.45648956298828 67.85658264160156 85.62208557128906 62.73654174804688 C 87.86350250244141 57.43722534179688 89 51.80620956420898 89 45.99993896484375 C 89 40.19366836547852 87.86350250244141 34.56266784667969 85.62208557128906 29.26335144042969 C 83.45648956298828 24.14329528808594 80.35560607910156 19.54439544677734 76.40560150146484 15.59439849853516 C 72.45558929443359 11.64437866210938 67.85667419433594 8.543510437011719 62.73661804199219 6.377906799316406 C 57.43730545043945 4.136497497558594 51.80628967285156 2.999992370605469 46.00000381469727 2.999992370605469 M 46.00000381469727 -7.62939453125e-06 C 71.40510559082031 -7.62939453125e-06 92 20.59487915039062 92 45.99993896484375 C 92 71.40501403808594 71.40510559082031 91.99988555908203 46.00000381469727 91.99988555908203 C 20.59490203857422 91.99988555908203 7.62939453125e-06 71.40501403808594 7.62939453125e-06 45.99993896484375 C 7.62939453125e-06 20.59487915039062 20.59490203857422 -7.62939453125e-06 46.00000381469727 -7.62939453125e-06 Z" stroke="none" fill="#5692e8"/>
                              </g>
                            </g>
                          </g>
                        </g>
                      </g>
                    </g>
                  </g>
                </g>
              </g>
            </g>
          </g>
        </g>
      </g>
    </g>
    <g id="imagination_10984683" transform="translate(1092.335 1979.042)">
      <g id="Grupo_1171116" data-name="Grupo 1171116" transform="translate(49.686 2.004)">
        <path id="Trazado_1024050" data-name="Trazado 1024050" d="M106.632,44.725c-.941-5.558-5.4-7.025-5.4-10.974C102.4,19.692,95.364,9,79.187,9,55.136,9,49.552,39.266,66.334,51.272c.6,9.609-3.414,16.411-3.863,19.636l27.415-.053c0-5.689-4.579-9.914-.832-11.554,2.258-.988,9.619,2.831,11.429.577,1.321-5.654,2.581-4.7,2.581-6.745-2.826-2.152-2.664-2.441.178-3.359l.026-4.414Z" transform="translate(-56.673 -9)" fill="#ffd6bd" fill-rule="evenodd"/>
        <g id="Grupo_1171115" data-name="Grupo 1171115" transform="translate(10.951 10.155)">
          <path id="Trazado_1024051" data-name="Trazado 1024051" d="M154.091,90.035h4.02v2.017a10.166,10.166,0,0,1,3.658,1.516l1.427-1.427,2.842,2.842-1.427,1.427a10.166,10.166,0,0,1,1.516,3.658h2.017v4.02h-2.017a10.17,10.17,0,0,1-1.516,3.659l1.427,1.427-2.842,2.842-1.427-1.427a10.168,10.168,0,0,1-3.659,1.516v2.017h-4.02v-2.017a10.169,10.169,0,0,1-3.659-1.516l-1.427,1.427-2.842-2.842,1.427-1.427a10.17,10.17,0,0,1-1.516-3.659h-2.017v-4.02h2.017a10.17,10.17,0,0,1,1.516-3.659l-1.427-1.427,2.842-2.842,1.427,1.427a10.168,10.168,0,0,1,3.659-1.516V90.035Z" transform="translate(-144.057 -90.035)" fill="#8d9ca8" fill-rule="evenodd"/>
          <circle id="Elipse_12274" data-name="Elipse 12274" cx="6.762" cy="6.762" r="6.762" transform="translate(5.282 5.282)" fill="#eff4f7"/>
          <path id="Trazado_1024052" data-name="Trazado 1024052" d="M210.84,160.815a1.206,1.206,0,1,1,1.705,1.706l-4.248,4.248a1.207,1.207,0,0,1-1.843-.164l-1.756-2.21a1.2,1.2,0,0,1,1.885-1.5l.963,1.212Z" transform="translate(-196.87 -151.636)" fill="#64b5f6" fill-rule="evenodd"/>
        </g>
      </g>
      <path id="Trazado_1024053" data-name="Trazado 1024053" d="M81.722,26.017a9.149,9.149,0,0,1-1.366,3.3,1,1,0,0,0,.124,1.265l.718.718-1.425,1.425-.717-.718a1,1,0,0,0-1.266-.125,9.121,9.121,0,0,1-3.3,1.366,1,1,0,0,0-.806.984v1.014H71.672V34.231a1,1,0,0,0-.807-.984,9.113,9.113,0,0,1-3.3-1.366,1,1,0,0,0-1.266.125l-.718.718L64.159,31.3l.718-.718A1,1,0,0,0,65,29.315a9.127,9.127,0,0,1-1.367-3.3,1,1,0,0,0-.982-.807H61.637V23.2h1.015a1,1,0,0,0,.982-.807A9.135,9.135,0,0,1,65,19.091a1,1,0,0,0-.125-1.265l-.718-.718,1.425-1.425.718.718a1,1,0,0,0,1.266.125,9.136,9.136,0,0,1,3.3-1.367,1,1,0,0,0,.806-.983V13.162h2.016v1.014a1,1,0,0,0,.806.983,9.123,9.123,0,0,1,3.3,1.367,1,1,0,0,0,1.266-.125l.718-.718L81.2,17.108l-.718.718a1,1,0,0,0-.124,1.265,9.139,9.139,0,0,1,1.366,3.3,1,1,0,0,0,.984.807H83.72V25.21H82.706a1,1,0,0,0-.984.807Zm3,1.2a1,1,0,0,0,1-1V22.194a1,1,0,0,0-1-1H83.5a11.018,11.018,0,0,0-1.039-2.507l.868-.868a1,1,0,0,0,0-1.417l-2.842-2.842a1,1,0,0,0-1.417,0l-.868.867a11.069,11.069,0,0,0-2.506-1.039V12.159a1,1,0,0,0-1-1h-4.02a1,1,0,0,0-1,1v1.226a11.09,11.09,0,0,0-2.507,1.039l-.867-.867a1,1,0,0,0-1.418,0L62.032,16.4a1,1,0,0,0,0,1.417l.867.868a11.118,11.118,0,0,0-1.039,2.507H60.635a1,1,0,0,0-1,1v4.019a1,1,0,0,0,1,1h1.226A11.112,11.112,0,0,0,62.9,29.723l-.867.867a1,1,0,0,0,0,1.418l2.842,2.842a1,1,0,0,0,1.419,0l.867-.868a11.07,11.07,0,0,0,2.507,1.04v1.225a1,1,0,0,0,1,1h4.02a1,1,0,0,0,1-1V35.022a11.079,11.079,0,0,0,2.506-1.04l.868.867a1,1,0,0,0,1.417,0l2.842-2.842a1,1,0,0,0,0-1.418l-.868-.867A11.047,11.047,0,0,0,83.5,27.216h1.226Zm-25.732,7.7a1,1,0,0,0,.25-1.4,16.352,16.352,0,0,1,.5-19.312l-.05.621a1,1,0,0,0,.92,1.079c.028,0,.054,0,.082,0a1,1,0,0,0,1-.923l.285-3.542a1,1,0,0,0-1.079-1.079l-3.542.284a1,1,0,1,0,.161,2l.966-.077a18.355,18.355,0,0,0-.884,22.09,1,1,0,0,0,1.4.252Zm24.4,2.976a1,1,0,0,0-1.4-.251,16.349,16.349,0,0,1-19.312-.5l.622.05a1,1,0,0,0,.16-2l-3.542-.284a1,1,0,0,0-1.079,1.08l.283,3.542a1,1,0,0,0,1,.923.8.8,0,0,0,.082,0,1,1,0,0,0,.918-1.079L61.05,38.4a18.353,18.353,0,0,0,22.09.884,1,1,0,0,0,.252-1.4Zm12.7-.512,2.349-.444a12.913,12.913,0,0,0-2.732-4.792c-1.27-1.6-2.47-3.115-2.47-5.389,0-.028,0-.056,0-.083.612-7.384-1.089-13.484-4.915-17.641-3.681-4-9.108-6.025-16.133-6.025-9.842,0-17.457,5.416-20.369,14.489-3.1,9.66.231,20.337,8.1,25.965a1.007,1.007,0,0,1,.418.754c.438,7-1.518,12.6-2.812,16.3-.311.888-.6,1.7-.8,2.393l25.107-.049a19.507,19.507,0,0,0-1.307-4.833,11.633,11.633,0,0,1-.949-3.608,3.085,3.085,0,0,1,2.074-3.032c1.281-.562,3.253-.083,5.538.471,1.833.445,4.552,1.1,5.383.515a13.154,13.154,0,0,1,2.076-5.087,1.992,1.992,0,0,0,.372-.685c-1.359-1.059-2.146-1.832-1.979-2.809.157-.917,1.06-1.349,2.2-1.741l.021-3.693A1,1,0,0,1,96.094,37.379Zm4.538.183A13.985,13.985,0,0,0,97.283,30.9c-1.128-1.423-2.021-2.549-2.036-4.1.649-7.938-1.234-14.548-5.442-19.12a19.361,19.361,0,0,0-7.326-4.921A28.376,28.376,0,0,0,72.2,1,23.55,23.55,0,0,0,57.67,5.648a22.825,22.825,0,0,0-7.75,11.235A26.467,26.467,0,0,0,49.7,32.151,23.838,23.838,0,0,0,58.37,44.805c.3,6.373-1.445,11.371-2.729,15.046a22.927,22.927,0,0,0-1.151,3.923,1,1,0,0,0,.992,1.14h0L82.9,64.862a1,1,0,0,0,1-1,18.655,18.655,0,0,0-1.482-6.527c-1.115-3.027-1.109-3.6.049-4.109.66-.291,2.657.194,4.261.583,3.008.729,6.117,1.484,7.548-.3a.989.989,0,0,0,.194-.4,11.809,11.809,0,0,1,1.837-4.679,3.459,3.459,0,0,0,.77-2.293,1,1,0,0,0-.395-.8,17.647,17.647,0,0,1-1.4-1.151c.412-.177,1.029-.375,1.281-.456a1,1,0,0,0,.694-.949l.021-3.587,2.552-.482a1,1,0,0,0,.8-1.152ZM91.035,24.2a18.246,18.246,0,0,0-3.272-10.461,1,1,0,0,0-1.647,1.144,16.354,16.354,0,0,1-.5,19.312l.049-.622a1,1,0,0,0-2-.16l-.283,3.542a1,1,0,0,0,1,1.082l.08,0,3.542-.284a1,1,0,1,0-.161-2l-.966.077A18.255,18.255,0,0,0,91.035,24.2ZM75.662,22.191a.2.2,0,0,0-.06-.144.2.2,0,0,0-.144-.06.2.2,0,0,0-.144.059L72.02,25.341a1,1,0,0,1-1.494-.085l-.962-1.212a.2.2,0,0,0-.135-.074l-.024,0a.2.2,0,0,0-.124.044.2.2,0,0,0-.032.283L71,26.505c.013.017.025.033.037.05a.2.2,0,0,0,.152.087.2.2,0,0,0,.16-.059L75.6,22.335A.2.2,0,0,0,75.662,22.191ZM73.9,20.63l-2.5,2.5-.264-.332a2.206,2.206,0,1,0-3.454,2.746l1.739,2.189a2.206,2.206,0,0,0,1.6.907c.065.006.131.009.2.009A2.2,2.2,0,0,0,72.771,28l4.249-4.248A2.208,2.208,0,1,0,73.9,20.63ZM61.967,10.515a1,1,0,0,0,1.4.252,16.35,16.35,0,0,1,19.312.5l-.622-.05a1,1,0,1,0-.16,2l3.542.284c.026,0,.054,0,.08,0a1,1,0,0,0,1-1.082l-.284-3.542a1,1,0,1,0-2,.16l.076.966a18.354,18.354,0,0,0-22.089-.882,1,1,0,0,0-.252,1.4ZM72.679,29.963a5.759,5.759,0,1,0-5.76-5.759A5.766,5.766,0,0,0,72.679,29.963Zm0-13.523A7.764,7.764,0,1,0,80.444,24.2a7.773,7.773,0,0,0-7.765-7.764Z" transform="translate(0)" fill-rule="evenodd"/>
    </g>
  </g>
</svg>
