<svg xmlns="http://www.w3.org/2000/svg" xmlns:xlink="http://www.w3.org/1999/xlink" width="113" height="113" viewBox="0 0 113 113">
  <defs>
    <filter id="Trazado_982547" x="0" y="0" width="113" height="113" filterUnits="userSpaceOnUse">
      <feOffset dy="3" input="SourceAlpha"/>
      <feGaussianBlur stdDeviation="3" result="blur"/>
      <feFlood flood-opacity="0.161"/>
      <feComposite operator="in" in2="blur"/>
      <feComposite in="SourceGraphic"/>
    </filter>
  </defs>
  <g id="Grupo_1171420" data-name="Grupo 1171420" transform="translate(-1164 -4883.969)">
    <g id="Grupo_1171047" data-name="Grupo 1171047" transform="translate(1173 4889.969)">
      <g transform="matrix(1, 0, 0, 1, -9, -6)" filter="url(#Trazado_982547)">
        <g id="Trazado_982547-2" data-name="Trazado 982547" transform="translate(9 6)" fill="#edf3fc">
          <path d="M 47.5 93.5 C 41.28937149047852 93.5 35.26533508300781 92.28397369384766 29.59518623352051 89.88570404052734 C 24.11771965026855 87.56893157958984 19.19813346862793 84.25196075439453 14.97309303283691 80.02691650390625 C 10.74804019927979 75.80186462402344 7.431066513061523 70.88229370117188 5.114293098449707 65.40481567382812 C 2.716026782989502 59.73468017578125 1.5 53.71062850952148 1.5 47.5 C 1.5 41.28937149047852 2.716026782989502 35.26533508300781 5.114293098449707 29.59518623352051 C 7.431066513061523 24.11771965026855 10.74804019927979 19.19813346862793 14.97309303283691 14.97309303283691 C 19.19813346862793 10.74804019927979 24.11771965026855 7.431066513061523 29.59518623352051 5.114293098449707 C 35.26533508300781 2.716026782989502 41.28937149047852 1.5 47.5 1.5 C 53.71062850952148 1.5 59.73468017578125 2.716026782989502 65.40481567382812 5.114293098449707 C 70.88229370117188 7.431066513061523 75.80186462402344 10.74804019927979 80.02691650390625 14.97309303283691 C 84.25196075439453 19.19813346862793 87.56893157958984 24.11771965026855 89.88570404052734 29.59518623352051 C 92.28397369384766 35.26533508300781 93.5 41.28937149047852 93.5 47.5 C 93.5 53.71062850952148 92.28397369384766 59.73468017578125 89.88570404052734 65.40481567382812 C 87.56893157958984 70.88229370117188 84.25196075439453 75.80186462402344 80.02691650390625 80.02691650390625 C 75.80186462402344 84.25196075439453 70.88229370117188 87.56893157958984 65.40481567382812 89.88570404052734 C 59.73468017578125 92.28397369384766 53.71062850952148 93.5 47.5 93.5 Z" stroke="none"/>
          <path d="M 47.5 3 C 41.49121475219727 3 35.66376876831055 4.176155090332031 30.17950439453125 6.495796203613281 C 24.88084411621094 8.736953735351562 20.12152099609375 11.94598388671875 16.03375244140625 16.03375244140625 C 11.94598388671875 20.12152099609375 8.736953735351562 24.88084411621094 6.495796203613281 30.17950439453125 C 4.176155090332031 35.66376876831055 3 41.49121475219727 3 47.5 C 3 53.50878524780273 4.176155090332031 59.33623123168945 6.495796203613281 64.82049560546875 C 8.736953735351562 70.11915588378906 11.94598388671875 74.87847900390625 16.03375244140625 78.96624755859375 C 20.12152099609375 83.05401611328125 24.88084411621094 86.26304626464844 30.17950439453125 88.50419616699219 C 35.66376876831055 90.82384490966797 41.49121475219727 92 47.5 92 C 53.50878524780273 92 59.33623123168945 90.82384490966797 64.82049560546875 88.50419616699219 C 70.11915588378906 86.26304626464844 74.87847900390625 83.05401611328125 78.96624755859375 78.96624755859375 C 83.05401611328125 74.87847900390625 86.26304626464844 70.11915588378906 88.50419616699219 64.82049560546875 C 90.82384490966797 59.33623123168945 92 53.50878524780273 92 47.5 C 92 41.49121475219727 90.82384490966797 35.66376876831055 88.50419616699219 30.17950439453125 C 86.26304626464844 24.88084411621094 83.05401611328125 20.12152099609375 78.96624755859375 16.03375244140625 C 74.87847900390625 11.94598388671875 70.11915588378906 8.736953735351562 64.82049560546875 6.495796203613281 C 59.33623123168945 4.176155090332031 53.50878524780273 3 47.5 3 M 47.5 0 C 73.7335205078125 0 95 21.2664794921875 95 47.5 C 95 73.7335205078125 73.7335205078125 95 47.5 95 C 21.2664794921875 95 0 73.7335205078125 0 47.5 C 0 21.2664794921875 21.2664794921875 0 47.5 0 Z" stroke="none" fill="#5692e8"/>
        </g>
      </g>
    </g>
    <g id="heart-rate_2860834" transform="translate(1191 4905)">
      <g id="Grupo_1171418" data-name="Grupo 1171418">
        <g id="Grupo_1171410" data-name="Grupo 1171410">
          <path id="Trazado_1024823" data-name="Trazado 1024823" d="M26,33v5.1a5.558,5.558,0,0,0-1-.1,4.829,4.829,0,0,0-3.41,1.41A5.421,5.421,0,0,0,20,43.24a6.126,6.126,0,0,0,2.06,4.59l4.76,4.23a72.953,72.953,0,0,0,1.79,8.5L29,62H8.59A3.414,3.414,0,0,0,12,58.59a3.089,3.089,0,0,0-.14-.91h.01l1.34-3.57A12.473,12.473,0,0,0,14,49.74a12.443,12.443,0,0,0-.48-3.42,39.131,39.131,0,0,1-1.19-5.75A39.621,39.621,0,0,1,12,35.46V32l2-1,.47.7A5.143,5.143,0,0,0,18.76,34,3.613,3.613,0,0,0,22,32l3.04.61c.32.07.65.12.98.17Z" fill="#b4dd7f"/>
        </g>
        <g id="Grupo_1171411" data-name="Grupo 1171411">
          <path id="Trazado_1024824" data-name="Trazado 1024824" d="M32,30.46v.05a5.985,5.985,0,0,1-.41,2.18A11.063,11.063,0,0,1,29,33a19.73,19.73,0,0,1-2.98-.22c-.33-.05-.66-.1-.98-.17L22,32V28h1a3,3,0,0,0,3-3V20l2-2-.11-.11a8.047,8.047,0,0,1-2.27-4.53l-.17-1.23A5.107,5.107,0,0,0,22,8h-.32C16.98,8,16,10,16,10l-.77.77a4.184,4.184,0,0,0-.53,5.28l.62.93A4.092,4.092,0,0,1,16,19.22v.04a4.2,4.2,0,0,1-1.23,2.97l-1.54,1.54a4.184,4.184,0,0,0-.53,5.28L14,31l-2,1a18.047,18.047,0,0,0-7.68,7.32l-.28-.28a6.981,6.981,0,0,1-.87-8.8l.21-.3A3.772,3.772,0,0,0,4,27.88a3.652,3.652,0,0,0-.39-1.66L2.57,24.15A5.557,5.557,0,0,1,2,21.72a5.466,5.466,0,0,1,2.17-4.35A4.57,4.57,0,0,0,6,13.72v-.2A11.54,11.54,0,0,1,17.52,2,14,14,0,0,1,31.25,13.25l.61,3.03A7.937,7.937,0,0,1,32,17.74a7.538,7.538,0,0,1-1.25,4.14l-.13.18A3.772,3.772,0,0,0,30,24.12a3.652,3.652,0,0,0,.39,1.66s.51,1.03.96,1.92A6.092,6.092,0,0,1,32,30.46Z" fill="#656d78"/>
        </g>
        <g id="Grupo_1171412" data-name="Grupo 1171412">
          <circle id="Elipse_12295" data-name="Elipse 12295" cx="2" cy="2" r="2" transform="translate(58 43)" fill="#fcd770"/>
        </g>
        <g id="Grupo_1171413" data-name="Grupo 1171413">
          <path id="Trazado_1024825" data-name="Trazado 1024825" d="M36.41,47.35a4.252,4.252,0,0,1-.47.48L29,54l-2.18-1.94-4.76-4.23A6.126,6.126,0,0,1,20,43.24a5.421,5.421,0,0,1,1.59-3.83A4.829,4.829,0,0,1,25,38a5.558,5.558,0,0,1,1,.1,4.889,4.889,0,0,1,2.41,1.31L29,40l.59-.59a4.827,4.827,0,0,1,6.23-.5,4.723,4.723,0,0,1,.59.5A5.421,5.421,0,0,1,38,43.24a6.1,6.1,0,0,1-1.59,4.11Z" fill="#ff826e"/>
        </g>
        <g id="Grupo_1171414" data-name="Grupo 1171414">
          <path id="Trazado_1024826" data-name="Trazado 1024826" d="M11.86,57.68a3.089,3.089,0,0,1,.14.91A3.414,3.414,0,0,1,8.59,62H8.54a4.394,4.394,0,0,1-2.74-.96l-.04-.03A10.036,10.036,0,0,1,2,53.19V48.18A18.1,18.1,0,0,1,12,32v3.46a39.621,39.621,0,0,0,.33,5.11A13.331,13.331,0,0,0,8,50.4V53a2.013,2.013,0,0,0,.8,1.6l1.93,1.45a3.152,3.152,0,0,1,1.13,1.63Z" fill="#f0d0b4"/>
        </g>
        <g id="Grupo_1171415" data-name="Grupo 1171415">
          <path id="Trazado_1024827" data-name="Trazado 1024827" d="M44,16a2.006,2.006,0,0,0-2-2,2.006,2.006,0,0,1,2-2h1.48A2.522,2.522,0,0,1,48,14.52V16a2.006,2.006,0,0,1-2,2H42a2.015,2.015,0,0,0,2-2Z" fill="#f0d0b4"/>
        </g>
        <g id="Grupo_1171416" data-name="Grupo 1171416">
          <path id="Trazado_1024828" data-name="Trazado 1024828" d="M48,17.17A6.835,6.835,0,0,1,46,22v2A16.011,16.011,0,0,1,35.82,38.91a4.827,4.827,0,0,0-6.23.5L29,40l-.59-.59A4.889,4.889,0,0,0,26,38.1V33l.02-.22A19.73,19.73,0,0,0,29,33a11.063,11.063,0,0,0,2.59-.31A10.988,10.988,0,0,0,40,22l-1.82-4.55A2.522,2.522,0,0,1,40.52,14H42a2.006,2.006,0,0,1,2,2,2.015,2.015,0,0,1-2,2h4a2.006,2.006,0,0,0,2-2Z" fill="#f0d0b4"/>
        </g>
        <g id="Grupo_1171417" data-name="Grupo 1171417">
          <path id="Trazado_1024829" data-name="Trazado 1024829" d="M26,24v1a3,3,0,0,1-3,3H22v4a3.613,3.613,0,0,1-3.24,2,5.143,5.143,0,0,1-4.29-2.3L14,31l-1.3-1.95a4.184,4.184,0,0,1,.53-5.28l1.54-1.54A4.2,4.2,0,0,0,16,19.26v-.04a4.092,4.092,0,0,0-.68-2.24l-.62-.93a4.184,4.184,0,0,1,.53-5.28L16,10s.98-2,5.68-2H22a5.107,5.107,0,0,1,3.45,4.13l.17,1.23a8.047,8.047,0,0,0,2.27,4.53L28,18l-2,2Z" fill="#f0d0b4"/>
        </g>
      </g>
      <g id="Grupo_1171419" data-name="Grupo 1171419">
        <path id="Trazado_1024830" data-name="Trazado 1024830" d="M18,7.7h2V11.3H18Z" transform="matrix(0.832, -0.555, 0.555, 0.832, -2.079, 12.135)"/>
        <path id="Trazado_1024831" data-name="Trazado 1024831" d="M10.586,18a1.415,1.415,0,0,1,0,2L9.293,21.293l1.414,1.414L12,21.414a3.414,3.414,0,0,0,0-4.828l-.2-.2a2.7,2.7,0,0,1-.8-1.925,2.67,2.67,0,0,1,.082-.66l.889-3.556-1.94-.485-.888,3.554a4.71,4.71,0,0,0,1.24,4.486Z"/>
        <path id="Trazado_1024832" data-name="Trazado 1024832" d="M6.051,30.684l1.9.633.779-2.338a5.3,5.3,0,0,0-.617-4.617L7.3,23.148a1.791,1.791,0,0,1,.224-2.258l1.183-1.183L7.293,18.293,6.11,19.476a3.789,3.789,0,0,0-.474,4.781l.81,1.213a3.305,3.305,0,0,1,.385,2.875Z"/>
        <path id="Trazado_1024833" data-name="Trazado 1024833" d="M60,42a3,3,0,0,0-2.816,2H52.433l-2.478,4.13L44,39.2,38.044,48.13l-.412-.687A7.151,7.151,0,0,0,39,43.242a6.363,6.363,0,0,0-1.423-4.026A16.883,16.883,0,0,0,47,24V22.4a7.771,7.771,0,0,0,2-5.227V14.515A3.519,3.519,0,0,0,45.484,11H44a3,3,0,0,0-2.816,2h-.669a3.517,3.517,0,0,0-3.264,4.822L39,22.189a10.012,10.012,0,0,1-6.033,8.986c.022-.234.035-.471.035-.713a7.107,7.107,0,0,0-.755-3.209l-.958-1.917a2.708,2.708,0,0,1,.169-2.717l.122-.184a8.46,8.46,0,0,0,1.257-6.357l-.6-3.021A15.04,15.04,0,0,0,17.523,1,12.537,12.537,0,0,0,5,13.523v.194A3.584,3.584,0,0,1,3.574,16.57a6.434,6.434,0,0,0-1.895,8.024l1.035,2.069A2.734,2.734,0,0,1,3,27.876a2.706,2.706,0,0,1-.456,1.5l-.2.308a7.952,7.952,0,0,0,.749,9.787A19.092,19.092,0,0,0,1,48.18v5.008A10.985,10.985,0,0,0,5.17,61.817,5.448,5.448,0,0,0,8.586,63H30.309l-.737-2.7c-.5-1.84-.927-3.713-1.284-5.592l.712.633,7.2-6.4,1.758,2.929L44,42.8l6.044,9.067L53.566,46h3.618A2.995,2.995,0,1,0,60,42ZM44,13h1.484A1.518,1.518,0,0,1,47,14.516V16a1,1,0,0,1-1,1H44.816A2.966,2.966,0,0,0,45,16a3,3,0,0,0-1.712-2.7A.991.991,0,0,1,44,13Zm-3,9v-.192l-1.892-4.729A1.517,1.517,0,0,1,40.516,15H42a1,1,0,1,1,0,2H41v2h5a2.918,2.918,0,0,0,.74-.1,5.807,5.807,0,0,1-1.447,2.4L45,21.586V24a14.9,14.9,0,0,1-9.093,13.781A5.818,5.818,0,0,0,29,38.589a5.792,5.792,0,0,0-2-1.225V33.9c.665.064,1.333.1,2,.1A12.013,12.013,0,0,0,41,22ZM3,34.111A5.953,5.953,0,0,1,4,30.8l.2-.308A4.7,4.7,0,0,0,5,27.876a4.724,4.724,0,0,0-.5-2.107L3.468,23.7a4.435,4.435,0,0,1,1.306-5.531A5.591,5.591,0,0,0,7,13.717v-.194A10.535,10.535,0,0,1,17.523,3,13.036,13.036,0,0,1,30.271,13.451l.6,3.021a6.471,6.471,0,0,1-.961,4.854l-.122.184a4.708,4.708,0,0,0-.294,4.721l.958,1.917A5.177,5.177,0,0,1,31,30.509a4.994,4.994,0,0,1-.2,1.321A9.987,9.987,0,0,1,29,32a19.2,19.2,0,0,1-3.765-.373L23,31.18V29a4,4,0,0,0,4-4V20.414L29.414,18l-.821-.821a7.044,7.044,0,0,1-1.98-3.96l-.176-1.229a6.081,6.081,0,0,0-4.121-4.938l-.633,1.9a4.1,4.1,0,0,1,2.774,3.323l.176,1.229a9.062,9.062,0,0,0,1.98,4.47L25,19.586V25a2,2,0,0,1-2,2H19.236A2.6,2.6,0,0,1,16.9,25.553l-1.789.9A4.593,4.593,0,0,0,19.236,29H21v2.706A2.589,2.589,0,0,1,18.764,33,4.155,4.155,0,0,1,15.3,31.146l-.467-.7-.385-.578-.1-.157L13.535,28.5a3.183,3.183,0,0,1,.4-4.018l1.544-1.544A5.193,5.193,0,0,0,17,19.222a5.016,5.016,0,0,0-.846-2.794l-.62-.929a3.186,3.186,0,0,1,.4-4.018l.774-.774L15.293,9.293l-.774.774a5.182,5.182,0,0,0-.648,6.541l.62.929A3.064,3.064,0,0,1,15,19.26a3.177,3.177,0,0,1-.938,2.263l-1.544,1.544a5.183,5.183,0,0,0-.648,6.542l.669,1-.987.493a19.068,19.068,0,0,0-7.39,6.538A5.925,5.925,0,0,1,3,34.111ZM12.56,46.6A11.45,11.45,0,0,1,13,49.744a11.4,11.4,0,0,1-.729,4.019l-.65,1.732c-.094-.085-.188-.169-.29-.246L9.4,53.8A1,1,0,0,1,9,53V50.4a12.341,12.341,0,0,1,2.685-7.651c.236,1.293.513,2.579.875,3.847ZM6.386,60.228A8.975,8.975,0,0,1,3,53.188V48.18a16.977,16.977,0,0,1,8-14.462v1.745a40.48,40.48,0,0,0,.3,4.735A14.337,14.337,0,0,0,7,50.4V53a3.014,3.014,0,0,0,1.2,2.4l1.931,1.448A2.183,2.183,0,0,1,11,58.586a2.4,2.4,0,0,1-.707,1.707,3.016,3.016,0,0,1-3.907-.065Zm21.257.6.048.176H12.279A4.384,4.384,0,0,0,13,58.586a4.122,4.122,0,0,0-.09-.831l1.234-3.291a13.44,13.44,0,0,0,.338-8.415A38.566,38.566,0,0,1,13,35.463V32.618l.658-.329A6.152,6.152,0,0,0,18.764,35a4.58,4.58,0,0,0,3.714-1.885l2.365.473c.052.01.1.013.157.023V37a5.787,5.787,0,0,0-4.121,1.707A6.369,6.369,0,0,0,19,43.243a7.15,7.15,0,0,0,2.4,5.337l4.493,3.993a75.14,75.14,0,0,0,1.754,8.251ZM29,52.662l-6.274-5.578A5.142,5.142,0,0,1,21,43.243a4.386,4.386,0,0,1,1.293-3.122,3.829,3.829,0,0,1,5.414,0L29,41.414l1.293-1.293a3.921,3.921,0,0,1,5.414,0A4.385,4.385,0,0,1,37,43.243a5.133,5.133,0,0,1-.531,2.261l-.9-1.5H29v2h5.434l.717,1.195ZM60,46a1,1,0,1,1,1-1A1,1,0,0,1,60,46Z"/>
      </g>
    </g>
  </g>
</svg>
