<svg xmlns="http://www.w3.org/2000/svg" xmlns:xlink="http://www.w3.org/1999/xlink" width="110" height="110" viewBox="0 0 110 110">
  <defs>
    <filter id="Trazado_982547" x="0" y="0" width="110" height="110" filterUnits="userSpaceOnUse">
      <feOffset dy="3" input="SourceAlpha"/>
      <feGaussianBlur stdDeviation="3" result="blur"/>
      <feFlood flood-opacity="0.161"/>
      <feComposite operator="in" in2="blur"/>
      <feComposite in="SourceGraphic"/>
    </filter>
  </defs>
  <g id="Grupo_1171466" data-name="Grupo 1171466" transform="translate(-8770 -1154.18)">
    <g id="Grupo_1171109" data-name="Grupo 1171109" transform="translate(7658 -805.82)">
      <g id="Grupo_1164700" data-name="Grupo 1164700" transform="translate(1121 1966)">
        <g id="Grupo_1160931" data-name="Grupo 1160931" transform="translate(0)">
          <g id="Grupo_1160749" data-name="Grupo 1160749" transform="translate(0)">
            <g id="Grupo_1158891" data-name="Grupo 1158891" transform="translate(0 0)">
              <g id="Grupo_1157406" data-name="Grupo 1157406" transform="translate(0)">
                <g id="Grupo_1155793" data-name="Grupo 1155793" transform="translate(0)">
                  <g id="Grupo_1154704" data-name="Grupo 1154704" transform="translate(0)">
                    <g id="Grupo_1150790" data-name="Grupo 1150790" transform="translate(0)">
                      <g id="Grupo_1154214" data-name="Grupo 1154214" transform="translate(0)">
                        <g id="Grupo_1152583" data-name="Grupo 1152583" transform="translate(0 0)">
                          <g id="Grupo_1146973" data-name="Grupo 1146973" transform="translate(0 0)">
                            <g id="Grupo_1146954" data-name="Grupo 1146954">
                              <g transform="matrix(1, 0, 0, 1, -9, -6)" filter="url(#Trazado_982547)">
                                <g id="Trazado_982547-2" data-name="Trazado 982547" transform="translate(9 6)" fill="#edf3fc">
                                  <path d="M 46.00000381469727 90.49988555908203 C 39.99188232421875 90.49988555908203 34.16427230834961 89.32352447509766 28.67905807495117 87.00347137451172 C 23.38020324707031 84.76226043701172 18.62104415893555 81.55342864990234 14.53375053405762 77.46615600585938 C 10.44647026062012 73.37887573242188 7.237643718719482 68.61971282958984 4.996417045593262 63.32085800170898 C 2.676363706588745 57.83565902709961 1.500003814697266 52.00806045532227 1.500003814697266 45.99993896484375 C 1.500003814697266 39.99181747436523 2.676363706588745 34.16421890258789 4.996417045593262 28.67901802062988 C 7.237643718719482 23.38017845153809 10.44647026062012 18.62101936340332 14.53375053405762 14.53373908996582 C 18.62104415893555 10.44645881652832 23.38020324707031 7.237632274627686 28.67905807495117 4.996418952941895 C 34.16427230834961 2.676365613937378 39.99188232421875 1.500005602836609 46.00000381469727 1.500005602836609 C 52.00812530517578 1.500005602836609 57.83573532104492 2.676365613937378 63.32094955444336 4.996418952941895 C 68.61980438232422 7.237632274627686 73.37897491455078 10.44645881652832 77.46625518798828 14.53373908996582 C 81.55355072021484 18.62101936340332 84.76236724853516 23.38017845153809 87.00359344482422 28.67901802062988 C 89.32364654541016 34.16421890258789 90.5 39.99181747436523 90.5 45.99993896484375 C 90.5 52.00806045532227 89.32364654541016 57.83565902709961 87.00359344482422 63.32085800170898 C 84.76236724853516 68.61971282958984 81.55355072021484 73.37887573242188 77.46625518798828 77.46615600585938 C 73.37897491455078 81.55342864990234 68.61980438232422 84.76226043701172 63.32094955444336 87.00347137451172 C 57.83573532104492 89.32352447509766 52.00812530517578 90.49988555908203 46.00000381469727 90.49988555908203 Z" stroke="none"/>
                                  <path d="M 46.00000381469727 2.999992370605469 C 40.19371795654297 2.999992370605469 34.56270217895508 4.136497497558594 29.26338958740234 6.377906799316406 C 24.14333343505859 8.543510437011719 19.54441833496094 11.64437866210938 15.59440612792969 15.59439849853516 C 11.64440155029297 19.54439544677734 8.54351806640625 24.14329528808594 6.377914428710938 29.26335144042969 C 4.136505126953125 34.56266784667969 3.000007629394531 40.19366836547852 3.000007629394531 45.99993896484375 C 3.000007629394531 51.80620956420898 4.136505126953125 57.43722534179688 6.377914428710938 62.73654174804688 C 8.54351806640625 67.85658264160156 11.64440155029297 72.45548248291016 15.59440612792969 76.40549468994141 C 19.54441833496094 80.35549926757812 24.14333343505859 83.45636749267578 29.26337432861328 85.62196350097656 C 34.56270217895508 87.86338043212891 40.19371795654297 88.9998779296875 46.00000381469727 88.9998779296875 C 51.80628967285156 88.9998779296875 57.43730545043945 87.86338043212891 62.73663330078125 85.62196350097656 C 67.85667419433594 83.45636749267578 72.45558929443359 80.35549926757812 76.40560150146484 76.40549468994141 C 80.35560607910156 72.45548248291016 83.45648956298828 67.85658264160156 85.62208557128906 62.73654174804688 C 87.86350250244141 57.43722534179688 89 51.80620956420898 89 45.99993896484375 C 89 40.19366836547852 87.86350250244141 34.56266784667969 85.62208557128906 29.26335144042969 C 83.45648956298828 24.14329528808594 80.35560607910156 19.54439544677734 76.40560150146484 15.59439849853516 C 72.45558929443359 11.64437866210938 67.85667419433594 8.543510437011719 62.73661804199219 6.377906799316406 C 57.43730545043945 4.136497497558594 51.80628967285156 2.999992370605469 46.00000381469727 2.999992370605469 M 46.00000381469727 -7.62939453125e-06 C 71.40510559082031 -7.62939453125e-06 92 20.59487915039062 92 45.99993896484375 C 92 71.40501403808594 71.40510559082031 91.99988555908203 46.00000381469727 91.99988555908203 C 20.59490203857422 91.99988555908203 7.62939453125e-06 71.40501403808594 7.62939453125e-06 45.99993896484375 C 7.62939453125e-06 20.59487915039062 20.59490203857422 -7.62939453125e-06 46.00000381469727 -7.62939453125e-06 Z" stroke="none" fill="#5692e8"/>
                                </g>
                              </g>
                            </g>
                          </g>
                        </g>
                      </g>
                    </g>
                  </g>
                </g>
              </g>
            </g>
          </g>
        </g>
      </g>
    </g>
    <g id="appointment-book_4694880" transform="translate(8794 1175.141)">
      <g id="Grupo_1171464" data-name="Grupo 1171464">
        <g id="Grupo_1171449" data-name="Grupo 1171449">
          <path id="Trazado_1024880" data-name="Trazado 1024880" d="M41,18.557a13.193,13.193,0,0,0-1.35-5.82c-.14-.28-.28-.55-.44-.82a11,11,0,1,1,1.68,8.33,13.574,13.574,0,0,0,.11-1.69Z" fill="#ccd1d9"/>
        </g>
        <g id="Grupo_1171450" data-name="Grupo 1171450">
          <circle id="Elipse_12303" data-name="Elipse 12303" cx="7" cy="7" r="7" transform="translate(43 7.077)" fill="#69d6f4"/>
        </g>
        <g id="Grupo_1171451" data-name="Grupo 1171451">
          <path id="Trazado_1024881" data-name="Trazado 1024881" d="M13.45,19.657,9.6,21.107A3.977,3.977,0,0,0,7,24.847v2.23H6a3.017,3.017,0,0,0-1.8.6l-1.45-2.54A13.245,13.245,0,0,1,6.12,8.1L10,5.077l3,3,.23-.38a15.9,15.9,0,0,1,3.35-3.95A16.147,16.147,0,0,1,21,1.077,16.007,16.007,0,0,1,28.77,7.7l.23.38,3-3L35.88,8.1a13.048,13.048,0,0,1,3.33,3.82c.16.27.3.54.44.82A13.193,13.193,0,0,1,41,18.557a13.574,13.574,0,0,1-.11,1.69,13.17,13.17,0,0,1-1.64,4.89l-1.45,2.54a3.017,3.017,0,0,0-1.8-.6H35v-2a4,4,0,0,0-4-4H16a3,3,0,0,1-2.55-1.42Z" fill="#b27946"/>
        </g>
        <g id="Grupo_1171452" data-name="Grupo 1171452">
          <path id="Trazado_1024882" data-name="Trazado 1024882" d="M30,49.077H12a7.618,7.618,0,0,1,3.83-4.41l.66-.33v-.01a13.935,13.935,0,0,0,9.02,0v.01l.66.33A7.618,7.618,0,0,1,30,49.077Z" fill="#fcd770"/>
        </g>
        <g id="Grupo_1171453" data-name="Grupo 1171453">
          <path id="Trazado_1024883" data-name="Trazado 1024883" d="M32,49.077a1,1,0,0,1,1,1v1.18a2.838,2.838,0,0,0-1.12.7A2.99,2.99,0,0,0,33,56.9v3.18a1,1,0,0,1-1,1H23v-12h9Z" fill="#e6e9ed"/>
        </g>
        <g id="Grupo_1171454" data-name="Grupo 1171454">
          <path id="Trazado_1024884" data-name="Trazado 1024884" d="M10,49.077h9v12H10a1,1,0,0,1-1-1V56.9a2.99,2.99,0,0,0,1.12-4.94,2.838,2.838,0,0,0-1.12-.7v-1.18a1,1,0,0,1,1-1Z" fill="#e6e9ed"/>
        </g>
        <g id="Grupo_1171455" data-name="Grupo 1171455">
          <path id="Trazado_1024885" data-name="Trazado 1024885" d="M19,49.077h4v12H19Z" fill="#ccd1d9"/>
        </g>
        <g id="Grupo_1171456" data-name="Grupo 1171456">
          <path id="Trazado_1024886" data-name="Trazado 1024886" d="M10.12,51.957A2.99,2.99,0,0,1,9,56.9a2.772,2.772,0,0,1-1,.18,1,1,0,0,1-1-1v-4a1,1,0,0,1,1-1,2.772,2.772,0,0,1,1,.18A2.838,2.838,0,0,1,10.12,51.957Z" fill="#f0d0b4"/>
        </g>
        <g id="Grupo_1171457" data-name="Grupo 1171457">
          <path id="Trazado_1024887" data-name="Trazado 1024887" d="M35,56.077a1,1,0,0,1-1,1,2.772,2.772,0,0,1-1-.18,2.99,2.99,0,0,1-1.12-4.94,2.838,2.838,0,0,1,1.12-.7,2.772,2.772,0,0,1,1-.18,1,1,0,0,1,1,1Z" fill="#f0d0b4"/>
        </g>
        <g id="Grupo_1171458" data-name="Grupo 1171458">
          <path id="Trazado_1024888" data-name="Trazado 1024888" d="M38.12,27.957A3,3,0,0,1,36,33.077H34.86a14.6,14.6,0,0,0,.14-2v-4h1a3.017,3.017,0,0,1,1.8.6C37.91,27.767,38.02,27.857,38.12,27.957Z" fill="#f0d0b4"/>
        </g>
        <g id="Grupo_1171459" data-name="Grupo 1171459">
          <path id="Trazado_1024889" data-name="Trazado 1024889" d="M35,27.077v4a14.6,14.6,0,0,1-.14,2,14.049,14.049,0,0,1-3.96,7.9l-5.39,3.35a13.935,13.935,0,0,1-9.02,0,14.03,14.03,0,0,1-9.35-11.25,14.6,14.6,0,0,1-.14-2v-6.23a3.977,3.977,0,0,1,2.6-3.74l3.85-1.45A3,3,0,0,0,16,21.077H31a4,4,0,0,1,4,4Z" fill="#f0d0b4"/>
        </g>
        <g id="Grupo_1171460" data-name="Grupo 1171460">
          <path id="Trazado_1024890" data-name="Trazado 1024890" d="M7.14,33.077H6a3,3,0,0,1-2.12-5.12c.1-.1.21-.19.32-.28a3.017,3.017,0,0,1,1.8-.6H7v4A14.6,14.6,0,0,0,7.14,33.077Z" fill="#f0d0b4"/>
        </g>
        <g id="Grupo_1171461" data-name="Grupo 1171461">
          <path id="Trazado_1024891" data-name="Trazado 1024891" d="M43,60.077v-12a1,1,0,0,1,1-1H56a1,1,0,0,1,1,1v12a1,1,0,0,1-1,1H44A1,1,0,0,1,43,60.077Z" fill="#ff826e"/>
        </g>
        <g id="Grupo_1171462" data-name="Grupo 1171462">
          <path id="Trazado_1024892" data-name="Trazado 1024892" d="M43,42.077v-12a1,1,0,0,1,1-1H56a1,1,0,0,1,1,1v12a1,1,0,0,1-1,1H44A1,1,0,0,1,43,42.077Z" fill="#ff826e"/>
        </g>
      </g>
      <g id="Grupo_1171465" data-name="Grupo 1171465">
        <path id="Trazado_1024897" data-name="Trazado 1024897" d="M56,46.077H44a2,2,0,0,0-2,2v12a2,2,0,0,0,2,2H56a2,2,0,0,0,2-2v-12A2,2,0,0,0,56,46.077Zm-12,14v-12H56v12Z"/>
        <path id="Trazado_1024898" data-name="Trazado 1024898" d="M48,55.663,46.707,54.37l-1.414,1.414L48,58.491l6.707-6.707L53.293,50.37Z"/>
        <path id="Trazado_1024899" data-name="Trazado 1024899" d="M56,28.077H44a2,2,0,0,0-2,2v12a2,2,0,0,0,2,2H56a2,2,0,0,0,2-2v-12A2,2,0,0,0,56,28.077Zm-12,14v-12H56v12Z"/>
        <path id="Trazado_1024900" data-name="Trazado 1024900" d="M48,37.663,46.707,36.37l-1.414,1.414L48,40.491l6.707-6.707L53.293,32.37Z"/>
        <path id="Trazado_1024901" data-name="Trazado 1024901" d="M50,2.077A12.036,12.036,0,0,0,38.857,9.624,14.412,14.412,0,0,0,36.5,7.308L31.917,3.745,29.184,6.479A17.1,17.1,0,0,0,21.372.148L21,0l-.372.148a17.108,17.108,0,0,0-7.812,6.331L10.083,3.745,5.5,7.309A14.249,14.249,0,0,0,1.878,25.628l1.077,1.885A3.978,3.978,0,0,0,6,34.077h.3a15.04,15.04,0,0,0,7.95,10.378,8.541,8.541,0,0,0-2.936,3.622H10a2,2,0,0,0-2,2,2,2,0,0,0-2,2v4a2,2,0,0,0,2,2v2a2,2,0,0,0,2,2H32a2,2,0,0,0,2-2v-2a2,2,0,0,0,2-2v-4a2,2,0,0,0-2-2,2,2,0,0,0-2-2H30.683a8.534,8.534,0,0,0-2.936-3.622A15.038,15.038,0,0,0,35.7,34.077H36a4,4,0,0,0,4-4,3.962,3.962,0,0,0-.955-2.563l1.077-1.885a14.267,14.267,0,0,0,1.325-3.165A11.991,11.991,0,1,0,50,2.077Zm-44,30a2,2,0,0,1,0-4v3c0,.338.029.668.051,1Zm2,20a2,2,0,0,1,0,4Zm2,5.444a3.965,3.965,0,0,0,0-6.888v-.556h8v10H10Zm12-7.444v10H20v-10Zm12,6h0a2,2,0,0,1,0-4Zm-2-5.443a3.965,3.965,0,0,0,0,6.888v2.556H24v-10h8Zm-6.276-5.076a6.582,6.582,0,0,1,2.718,2.52H13.558a6.589,6.589,0,0,1,2.718-2.52l.3-.149a15,15,0,0,0,8.854,0ZM34,31.077a13,13,0,0,1-26,0V24.849A3.013,3.013,0,0,1,9.947,22.04l3.173-1.19A3.988,3.988,0,0,0,16,22.077H31a3,3,0,0,1,3,3Zm2,1h-.051c.022-.332.051-.662.051-1v-3a2,2,0,0,1,0,4Zm2.386-7.441-.977,1.71A3.953,3.953,0,0,0,36,26.077v-1a5.006,5.006,0,0,0-5-5H16a2,2,0,0,1,0-4h.146a1.991,1.991,0,0,1,1.789,1.1l.171.342,1.789-.9-.171-.342a3.978,3.978,0,0,0-3.578-2.211H16a4,4,0,0,0-3.871,5.009L9.245,20.167A5.024,5.024,0,0,0,6,24.849v1.228a3.958,3.958,0,0,0-1.409.269l-.977-1.71A12.251,12.251,0,0,1,6.729,8.888L9.917,6.409,13.2,9.69l.889-1.48A15.075,15.075,0,0,1,21,2.16a15.079,15.079,0,0,1,6.913,6.049l.889,1.48,3.281-3.281,3.188,2.479a12.253,12.253,0,0,1,3.115,15.749ZM50,24.077a9.984,9.984,0,0,1-8.076-4.128c.046-.461.076-.925.076-1.391a14.192,14.192,0,0,0-1.726-6.776A10,10,0,1,1,50,24.077Z"/>
        <path id="Trazado_1024902" data-name="Trazado 1024902" d="M50,6.077a8,8,0,1,0,8,8,8.009,8.009,0,0,0-8-8Zm0,14a6,6,0,1,1,6-6A6.006,6.006,0,0,1,50,20.077Z"/>
        <path id="Trazado_1024903" data-name="Trazado 1024903" d="M51,10.077H49v6h5v-2H51Z"/>
      </g>
    </g>
  </g>
</svg>
