<svg xmlns="http://www.w3.org/2000/svg" xmlns:xlink="http://www.w3.org/1999/xlink" width="113" height="113" viewBox="0 0 113 113">
  <defs>
    <filter id="Trazado_982547" x="0" y="0" width="113" height="113" filterUnits="userSpaceOnUse">
      <feOffset dy="3" input="SourceAlpha"/>
      <feGaussianBlur stdDeviation="3" result="blur"/>
      <feFlood flood-opacity="0.161"/>
      <feComposite operator="in" in2="blur"/>
      <feComposite in="SourceGraphic"/>
    </filter>
  </defs>
  <g id="Grupo_1171408" data-name="Grupo 1171408" transform="translate(-324 -4883.969)">
    <g id="Grupo_1171046" data-name="Grupo 1171046" transform="translate(0 -1720.175)">
      <g id="Grupo_1148525" data-name="Grupo 1148525" transform="translate(333 6610.145)">
        <g transform="matrix(1, 0, 0, 1, -9, -6)" filter="url(#Trazado_982547)">
          <g id="Trazado_982547-2" data-name="Trazado 982547" transform="translate(9 6)" fill="#edf3fc">
            <path d="M 47.5 93.5 C 41.28937149047852 93.5 35.26533508300781 92.28397369384766 29.59518623352051 89.88570404052734 C 24.11771965026855 87.56893157958984 19.19813346862793 84.25196075439453 14.97309303283691 80.02691650390625 C 10.74804019927979 75.80186462402344 7.431066513061523 70.88229370117188 5.114293098449707 65.40481567382812 C 2.716026782989502 59.73468017578125 1.5 53.71062850952148 1.5 47.5 C 1.5 41.28937149047852 2.716026782989502 35.26533508300781 5.114293098449707 29.59518623352051 C 7.431066513061523 24.11771965026855 10.74804019927979 19.19813346862793 14.97309303283691 14.97309303283691 C 19.19813346862793 10.74804019927979 24.11771965026855 7.431066513061523 29.59518623352051 5.114293098449707 C 35.26533508300781 2.716026782989502 41.28937149047852 1.5 47.5 1.5 C 53.71062850952148 1.5 59.73468017578125 2.716026782989502 65.40481567382812 5.114293098449707 C 70.88229370117188 7.431066513061523 75.80186462402344 10.74804019927979 80.02691650390625 14.97309303283691 C 84.25196075439453 19.19813346862793 87.56893157958984 24.11771965026855 89.88570404052734 29.59518623352051 C 92.28397369384766 35.26533508300781 93.5 41.28937149047852 93.5 47.5 C 93.5 53.71062850952148 92.28397369384766 59.73468017578125 89.88570404052734 65.40481567382812 C 87.56893157958984 70.88229370117188 84.25196075439453 75.80186462402344 80.02691650390625 80.02691650390625 C 75.80186462402344 84.25196075439453 70.88229370117188 87.56893157958984 65.40481567382812 89.88570404052734 C 59.73468017578125 92.28397369384766 53.71062850952148 93.5 47.5 93.5 Z" stroke="none"/>
            <path d="M 47.5 3 C 41.49121475219727 3 35.66376876831055 4.176155090332031 30.17950439453125 6.495796203613281 C 24.88084411621094 8.736953735351562 20.12152099609375 11.94598388671875 16.03375244140625 16.03375244140625 C 11.94598388671875 20.12152099609375 8.736953735351562 24.88084411621094 6.495796203613281 30.17950439453125 C 4.176155090332031 35.66376876831055 3 41.49121475219727 3 47.5 C 3 53.50878524780273 4.176155090332031 59.33623123168945 6.495796203613281 64.82049560546875 C 8.736953735351562 70.11915588378906 11.94598388671875 74.87847900390625 16.03375244140625 78.96624755859375 C 20.12152099609375 83.05401611328125 24.88084411621094 86.26304626464844 30.17950439453125 88.50419616699219 C 35.66376876831055 90.82384490966797 41.49121475219727 92 47.5 92 C 53.50878524780273 92 59.33623123168945 90.82384490966797 64.82049560546875 88.50419616699219 C 70.11915588378906 86.26304626464844 74.87847900390625 83.05401611328125 78.96624755859375 78.96624755859375 C 83.05401611328125 74.87847900390625 86.26304626464844 70.11915588378906 88.50419616699219 64.82049560546875 C 90.82384490966797 59.33623123168945 92 53.50878524780273 92 47.5 C 92 41.49121475219727 90.82384490966797 35.66376876831055 88.50419616699219 30.17950439453125 C 86.26304626464844 24.88084411621094 83.05401611328125 20.12152099609375 78.96624755859375 16.03375244140625 C 74.87847900390625 11.94598388671875 70.11915588378906 8.736953735351562 64.82049560546875 6.495796203613281 C 59.33623123168945 4.176155090332031 53.50878524780273 3 47.5 3 M 47.5 0 C 73.7335205078125 0 95 21.2664794921875 95 47.5 C 95 73.7335205078125 73.7335205078125 95 47.5 95 C 21.2664794921875 95 0 73.7335205078125 0 47.5 C 0 21.2664794921875 21.2664794921875 0 47.5 0 Z" stroke="none" fill="#5692e8"/>
          </g>
        </g>
      </g>
    </g>
    <g id="terapia-del-lenguaje" transform="translate(348.977 4881.979)">
      <g id="Grupo_1171406" data-name="Grupo 1171406" transform="translate(0.981 26.145)">
        <g id="Grupo_1171405" data-name="Grupo 1171405" transform="translate(0 0)">
          <path id="Trazado_1024806" data-name="Trazado 1024806" d="M8.154,123.31H34.707a.654.654,0,0,0,.654-.654V99.639a.654.654,0,0,0-.654-.654H8.154a.654.654,0,0,0-.654.654v23.017A.654.654,0,0,0,8.154,123.31Z" transform="translate(-7.5 -90.308)" fill="#00f2a6"/>
          <path id="Trazado_1024807" data-name="Trazado 1024807" d="M192.863,98.985h-3.4a.654.654,0,0,1,.654.654v23.017a.654.654,0,0,1-.654.654h3.4a.654.654,0,0,0,.654-.654V99.639A.654.654,0,0,0,192.863,98.985Z" transform="translate(-165.655 -90.308)" fill="#0ed290"/>
          <path id="Trazado_1024808" data-name="Trazado 1024808" d="M308.427,230.984l1.2-11.428H327.8v12.881l-.97,1.294v11.587H318.2v-4.65h-6.874a1.691,1.691,0,0,1-1.691-1.691v-.794a.814.814,0,0,1,.279-.614L312.4,235.4a.7.7,0,0,0-.063-1.107l-3.49-2.4A.98.98,0,0,1,308.427,230.984Z" transform="translate(-269.052 -195.105)" fill="#ffcebf"/>
          <path id="Trazado_1024809" data-name="Trazado 1024809" d="M425.112,329.206v10.279h3.14V327.9Z" transform="translate(-370.476 -289.273)" fill="#ffb09e"/>
          <path id="Trazado_1024810" data-name="Trazado 1024810" d="M282.118,149.835a6.14,6.14,0,0,1-1.457-5.418.479.479,0,0,1,.658-.344,47.216,47.216,0,0,0,14.135,2.968c4.3,0,9.353,2.483,9.1,5.214,3.89,1.659,6.617,9.966-3.768,18.491h-3.6v-1.521a1.338,1.338,0,0,1,.863-1.248,3.528,3.528,0,0,0,2.365-3.238,3.707,3.707,0,0,0-3.873-3.515,4.238,4.238,0,0,0-.9.1.578.578,0,0,1-.694-.569v-2.472a.953.953,0,0,0-.991-.954c-3.268.129-13.6.039-15.483-6.12a.48.48,0,0,1,.486-.615c1.268.066,2.184.065,2.809.044A.478.478,0,0,0,282.118,149.835Z" transform="translate(-243.013 -129.462)" fill="#3692bc"/>
          <path id="Trazado_1024811" data-name="Trazado 1024811" d="M415.845,172.211c.248-2.731-4.8-5.214-9.1-5.214l-.24,0c3.379.876,6.4,3.09,6.205,5.217,3.89,1.659,6.617,9.966-3.768,18.491h3.14C422.462,182.178,419.735,173.871,415.845,172.211Z" transform="translate(-354.299 -149.42)" fill="#0681af"/>
          <path id="Trazado_1024812" data-name="Trazado 1024812" d="M375.6,403.455v1.935a.713.713,0,0,1-.558.7l-11.8,2.63a.713.713,0,0,1-.846-.875l1.182-4.565a.713.713,0,0,1,.691-.534h10.621A.713.713,0,0,1,375.6,403.455Z" transform="translate(-315.941 -354.325)" fill="#62dbfb"/>
          <path id="Trazado_1024813" data-name="Trazado 1024813" d="M437.19,402.742h-3.14a.713.713,0,0,1,.713.713v2.851a.71.71,0,0,1-.113.381l2.694-.6a.713.713,0,0,0,.558-.7v-1.935A.713.713,0,0,0,437.19,402.742Z" transform="translate(-378.245 -354.325)" fill="#01c0fa"/>
          <path id="Trazado_1024814" data-name="Trazado 1024814" d="M60.952,345.474l9.815-1.184a.393.393,0,0,1,.328.664l-2.864,2.932A4.319,4.319,0,0,0,67,350.9v10.4a.654.654,0,0,1-.654.654H40.06a.654.654,0,0,1-.654-.654V346.16a.654.654,0,0,1,.654-.654H60.434A4.3,4.3,0,0,0,60.952,345.474Z" transform="translate(-35.232 -303.518)" fill="#d8ecfe"/>
          <path id="Trazado_1024815" data-name="Trazado 1024815" d="M228.884,344.29l-2.705.326a.382.382,0,0,1-.107.338l-2.864,2.932a4.319,4.319,0,0,0-1.23,3.018v10.4a.654.654,0,0,1-.654.654h3.14a.654.654,0,0,0,.654-.654V350.9a4.319,4.319,0,0,1,1.23-3.018l2.864-2.932A.393.393,0,0,0,228.884,344.29Z" transform="translate(-193.35 -303.518)" fill="#b3dafe"/>
          <path id="Trazado_1024816" data-name="Trazado 1024816" d="M99.212,32.663a2.223,2.223,0,1,1-2.223,2.223,2.223,2.223,0,0,1,2.223-2.223Z" transform="translate(-85.281 -32.663)" fill="#62dbfb"/>
        </g>
      </g>
      <g id="Grupo_1171407" data-name="Grupo 1171407" transform="translate(0 25.164)">
        <path id="Trazado_1024817" data-name="Trazado 1024817" d="M295.446,170.379h-.188v-5.691c7.1-5.99,7.533-11.36,7.148-14.053a7.505,7.505,0,0,0-3.4-5.514,4.119,4.119,0,0,0-1.114-2.2c-1.787-1.957-5.552-3.377-8.952-3.377a27.832,27.832,0,0,1-4.086-.38.981.981,0,0,0-.3,1.939,29.332,29.332,0,0,0,4.388.4c2.852,0,6.078,1.177,7.5,2.739a1.9,1.9,0,0,1,.624,1.406.981.981,0,0,0,.592.991,5.392,5.392,0,0,1,2.8,4.275c.556,3.889-1.824,8.37-6.539,12.332h-2.263v-.54a.356.356,0,0,1,.234-.332,4.493,4.493,0,0,0,3-4.154,4.691,4.691,0,0,0-4.854-4.5,5.258,5.258,0,0,0-.609.035v-2a1.936,1.936,0,0,0-2.011-1.934,30.862,30.862,0,0,1-7.994-.675c-2.492-.6-5.16-1.748-6.248-4.066.791.028,1.5.032,2.126.011a1.46,1.46,0,0,0,1.041-2.429,5.121,5.121,0,0,1-1.321-3.966,41.934,41.934,0,0,0,4.936,1.478.981.981,0,1,0,.462-1.907,35.5,35.5,0,0,1-5.22-1.617,1.46,1.46,0,0,0-2.01,1.05,7.062,7.062,0,0,0,1.052,5.442c-.527,0-1.105-.022-1.73-.055a1.461,1.461,0,0,0-1.476,1.882A8.2,8.2,0,0,0,275.819,150l-.92,8.727a1.963,1.963,0,0,0,.84,1.819l3.192,2.2-2.218,1.932a1.8,1.8,0,0,0-.615,1.352v.794a2.676,2.676,0,0,0,2.673,2.673h5.893v.9a1.694,1.694,0,0,0-1.479,1.261L282,176.214a1.7,1.7,0,0,0,1.635,2.12,1.719,1.719,0,0,0,.374-.041l11.8-2.63a1.685,1.685,0,0,0,1.326-1.654v-1.935A1.7,1.7,0,0,0,295.446,170.379Zm-16.676-2.854a.711.711,0,0,1-.71-.71V166.1l2.432-2.118a1.683,1.683,0,0,0-.151-2.655l-3.489-2.4.865-8.21q.6.186,1.247.342a32.827,32.827,0,0,0,8.5.73v2.444a1.559,1.559,0,0,0,1.882,1.528,3.271,3.271,0,0,1,.69-.073c3.119,0,4.016,3.757,1.156,4.855A2.335,2.335,0,0,0,289.7,162.7v1.521a.981.981,0,0,0,.981.981h2.615v5.172h-6.67v-1.872a.981.981,0,0,0-.981-.981Zm16.408,6.268-11.167,2.488,1.021-3.94h10.146v1.452Z" transform="translate(-235.519 -121.962)"/>
        <path id="Trazado_1024818" data-name="Trazado 1024818" d="M63.2,145.282a.98.98,0,0,0,1.264-.572l1.109-2.939H73l1.12,2.941a.981.981,0,1,0,1.834-.7l-5.473-14.37a1.307,1.307,0,0,0-1.212-.815h0a1.307,1.307,0,0,0-1.213.812l-.011.027-5.415,14.349A.981.981,0,0,0,63.2,145.282Zm6.069-13.3,2.982,7.831H66.316Z" transform="translate(-54.382 -115.267)"/>
        <path id="Trazado_1024819" data-name="Trazado 1024819" d="M82.737,392.352a.981.981,0,0,0,.981-.981v-6.584a.981.981,0,0,0-1.958-.081,3.887,3.887,0,1,0,0,6.745A.981.981,0,0,0,82.737,392.352ZM79.832,390a1.924,1.924,0,1,1,1.924-1.924A1.927,1.927,0,0,1,79.832,390Z" transform="translate(-66.009 -336.885)"/>
        <path id="Trazado_1024820" data-name="Trazado 1024820" d="M160.185,391.452a.981.981,0,0,0,1.958-.081v-6.584a.981.981,0,0,0-1.958-.081,3.887,3.887,0,1,0,0,6.745Zm-3.853-3.372A1.924,1.924,0,1,1,158.257,390,1.926,1.926,0,0,1,156.332,388.079Z" transform="translate(-134.174 -336.885)"/>
        <path id="Trazado_1024821" data-name="Trazado 1024821" d="M29.824,58.493V35.476a1.637,1.637,0,0,0-1.635-1.635H24.6l-6.58-4.679a3.2,3.2,0,1,0-6.209,0l-6.58,4.679H1.635A1.637,1.637,0,0,0,0,35.476V58.493a1.637,1.637,0,0,0,1.635,1.635H28.189a1.637,1.637,0,0,0,1.635-1.635ZM14.912,27.126a1.242,1.242,0,1,1-1.242,1.242A1.243,1.243,0,0,1,14.912,27.126Zm-2.055,3.7a3.2,3.2,0,0,0,4.111,0l4.243,3.017H8.614Zm15,27.342H1.962V35.8h25.9Z" transform="translate(0 -25.164)"/>
        <path id="Trazado_1024822" data-name="Trazado 1024822" d="M64.13,336.8l-9.815,1.184a3.343,3.343,0,0,1-.4.024H33.541a1.637,1.637,0,0,0-1.635,1.635v15.142a1.637,1.637,0,0,0,1.635,1.635h4.579a.981.981,0,0,0,0-1.962H33.868V339.968H53.915a5.332,5.332,0,0,0,.635-.038l8.155-.984-1.7,1.736a5.272,5.272,0,0,0-1.509,3.7v10.07H42.7a.981.981,0,0,0,0,1.962H59.827a1.637,1.637,0,0,0,1.635-1.635v-10.4a3.32,3.32,0,0,1,.95-2.333l2.864-2.932A1.374,1.374,0,0,0,64.13,336.8Z" transform="translate(-27.732 -296.018)"/>
      </g>
    </g>
  </g>
</svg>
